<svg xmlns="http://www.w3.org/2000/svg" xmlns:xlink="http://www.w3.org/1999/xlink" width="250" zoomAndPan="magnify" viewBox="0 0 187.5 187.499992" height="250" preserveAspectRatio="xMidYMid meet" version="1.0"><defs><g/><clipPath id="id1"><path d="M 0 0 L 187 0 L 187 187 L 0 187 Z M 0 0 " clip-rule="nonzero"/></clipPath></defs><g clip-path="url(#id1)"><path fill="#ffffff" d="M 0 0 L 187.5 0 L 187.5 195 L 0 195 Z M 0 0 " fill-opacity="1" fill-rule="nonzero"/><path fill="#5d9818" d="M 0 0 L 187.5 0 L 187.5 187.5 L 0 187.5 Z M 0 0 " fill-opacity="1" fill-rule="nonzero"/><path fill="#ffffff" d="M 0 0 L 187.5 0 L 187.5 187.5 L 0 187.5 Z M 0 0 " fill-opacity="1" fill-rule="nonzero"/><path fill="#5d9818" d="M 0 0 L 187.5 0 L 187.5 187.5 L 0 187.5 Z M 0 0 " fill-opacity="1" fill-rule="nonzero"/></g><path fill="#ffd034" d="M 103.582031 64.21875 C 102.222656 62.863281 100.023438 62.863281 98.667969 64.21875 L 76.546875 86.339844 C 73.832031 89.054688 69.429688 89.054688 66.714844 86.339844 C 64 83.625 64 79.222656 66.714844 76.507812 L 88.410156 54.816406 C 85.695312 52.097656 81.292969 52.097656 78.578125 54.816406 L 61.800781 71.59375 C 56.371094 77.023438 56.371094 85.824219 61.800781 91.257812 C 67.230469 96.6875 76.03125 96.6875 81.460938 91.257812 L 103.582031 69.136719 C 104.9375 67.777344 104.9375 65.578125 103.582031 64.21875 Z M 110.953125 56.847656 C 105.523438 51.417969 96.722656 51.417969 91.292969 56.847656 L 69.171875 78.964844 C 67.816406 80.324219 67.816406 82.523438 69.171875 83.882812 C 70.53125 85.242188 72.730469 85.242188 74.085938 83.882812 L 96.207031 61.765625 C 98.921875 59.046875 103.324219 59.046875 106.035156 61.765625 C 107.394531 63.121094 109.597656 63.121094 110.953125 61.765625 C 112.308594 60.40625 112.308594 58.207031 110.953125 56.847656 Z M 118.328125 78.964844 C 116.96875 77.609375 114.769531 77.609375 113.410156 78.964844 L 91.292969 101.085938 C 88.578125 103.800781 84.175781 103.800781 81.460938 101.085938 C 80.105469 99.726562 77.902344 99.726562 76.546875 101.085938 C 75.1875 102.445312 75.1875 104.644531 76.546875 106 C 81.972656 111.429688 90.777344 111.429688 96.207031 106 L 118.328125 83.882812 C 119.683594 82.523438 119.683594 80.324219 118.328125 78.964844 Z M 125.699219 71.59375 C 120.273438 66.164062 111.46875 66.164062 106.039062 71.59375 L 83.917969 93.714844 C 82.5625 95.070312 82.5625 97.269531 83.917969 98.628906 C 85.277344 99.988281 87.476562 99.988281 88.832031 98.628906 L 110.953125 76.507812 C 113.667969 73.792969 118.070312 73.792969 120.785156 76.507812 C 123.5 79.222656 123.5 83.625 120.785156 86.339844 L 99.089844 108.03125 C 101.804688 110.75 106.207031 110.75 108.921875 108.03125 L 125.699219 91.257812 C 131.128906 85.824219 131.128906 77.023438 125.699219 71.59375 Z M 125.699219 71.59375 " fill-opacity="1" fill-rule="nonzero"/><g fill="#ffffff" fill-opacity="1"><g transform="translate(66.005784, 126.482099)"><g><path d="M 4.8125 0 L 4.546875 -0.875 L 2.390625 -0.875 L 2.125 0 L 0.09375 0 L 2.34375 -6.1875 L 4.65625 -6.1875 L 6.921875 0 Z M 2.796875 -2.265625 L 4.140625 -2.265625 L 3.484375 -4.46875 L 3.453125 -4.46875 Z M 2.796875 -2.265625 "/></g></g></g><g fill="#ffffff" fill-opacity="1"><g transform="translate(73.007764, 126.482099)"><g><path d="M 3.78125 -6.296875 C 4.375 -6.296875 4.90625 -6.207031 5.375 -6.03125 C 5.851562 -5.851562 6.234375 -5.585938 6.515625 -5.234375 C 6.796875 -4.878906 6.9375 -4.453125 6.9375 -3.953125 L 5.03125 -3.953125 C 5.03125 -4.210938 4.914062 -4.421875 4.6875 -4.578125 C 4.457031 -4.734375 4.179688 -4.8125 3.859375 -4.8125 C 3.390625 -4.8125 3.035156 -4.6875 2.796875 -4.4375 C 2.554688 -4.1875 2.4375 -3.835938 2.4375 -3.390625 L 2.4375 -2.8125 C 2.4375 -2.351562 2.554688 -2 2.796875 -1.75 C 3.035156 -1.5 3.390625 -1.375 3.859375 -1.375 C 4.179688 -1.375 4.457031 -1.453125 4.6875 -1.609375 C 4.914062 -1.765625 5.03125 -1.960938 5.03125 -2.203125 L 3.625 -2.203125 L 3.625 -3.453125 L 6.9375 -3.453125 L 6.9375 0 L 5.90625 0 L 5.703125 -0.609375 C 5.140625 -0.128906 4.398438 0.109375 3.484375 0.109375 C 2.460938 0.109375 1.691406 -0.15625 1.171875 -0.6875 C 0.660156 -1.226562 0.40625 -2.03125 0.40625 -3.09375 C 0.40625 -4.144531 0.695312 -4.941406 1.28125 -5.484375 C 1.863281 -6.023438 2.695312 -6.296875 3.78125 -6.296875 Z M 3.78125 -6.296875 "/></g></g></g><g fill="#ffffff" fill-opacity="1"><g transform="translate(80.504742, 126.482099)"><g/></g></g><g fill="#ffffff" fill-opacity="1"><g transform="translate(83.501732, 126.482099)"><g><path d="M 3.75 -6.296875 C 4.363281 -6.296875 4.894531 -6.21875 5.34375 -6.0625 C 5.789062 -5.914062 6.132812 -5.710938 6.375 -5.453125 C 6.613281 -5.203125 6.734375 -4.921875 6.734375 -4.609375 L 6.734375 -4.390625 L 5.140625 -4.390625 C 5.140625 -4.566406 5.03125 -4.71875 4.8125 -4.84375 C 4.59375 -4.96875 4.28125 -5.03125 3.875 -5.03125 C 3.488281 -5.03125 3.191406 -4.957031 2.984375 -4.8125 C 2.785156 -4.664062 2.6875 -4.488281 2.6875 -4.28125 C 2.6875 -4.09375 2.75 -3.945312 2.875 -3.84375 C 3 -3.75 3.148438 -3.703125 3.328125 -3.703125 L 4.265625 -3.703125 L 4.265625 -2.59375 L 3.125 -2.59375 C 2.945312 -2.59375 2.796875 -2.535156 2.671875 -2.421875 C 2.554688 -2.316406 2.5 -2.160156 2.5 -1.953125 C 2.5 -1.703125 2.601562 -1.503906 2.8125 -1.359375 C 3.019531 -1.222656 3.347656 -1.15625 3.796875 -1.15625 C 4.691406 -1.15625 5.140625 -1.425781 5.140625 -1.96875 L 5.140625 -3.703125 L 7.984375 -3.703125 L 7.984375 -2.59375 L 6.765625 -2.59375 L 6.765625 -2 C 6.765625 -1.320312 6.523438 -0.800781 6.046875 -0.4375 C 5.566406 -0.0703125 4.820312 0.109375 3.8125 0.109375 C 2.757812 0.109375 1.972656 -0.0546875 1.453125 -0.390625 C 0.929688 -0.734375 0.671875 -1.179688 0.671875 -1.734375 C 0.671875 -2.085938 0.765625 -2.394531 0.953125 -2.65625 C 1.140625 -2.914062 1.40625 -3.101562 1.75 -3.21875 L 1.75 -3.25 C 1.5 -3.34375 1.285156 -3.503906 1.109375 -3.734375 C 0.941406 -3.972656 0.859375 -4.238281 0.859375 -4.53125 C 0.859375 -4.851562 0.96875 -5.148438 1.1875 -5.421875 C 1.40625 -5.691406 1.734375 -5.90625 2.171875 -6.0625 C 2.609375 -6.21875 3.132812 -6.296875 3.75 -6.296875 Z M 3.75 -6.296875 "/></g></g></g><g fill="#ffffff" fill-opacity="1"><g transform="translate(91.502708, 126.482099)"><g/></g></g><g fill="#ffffff" fill-opacity="1"><g transform="translate(94.499698, 126.482099)"><g><path d="M 4.234375 -4.609375 L 4.234375 0 L 2.234375 0 L 2.234375 -4.609375 L 0.203125 -4.609375 L 0.203125 -6.1875 L 6.25 -6.1875 L 6.25 -4.609375 Z M 4.234375 -4.609375 "/></g></g></g><g fill="#ffffff" fill-opacity="1"><g transform="translate(100.997675, 126.482099)"><g><path d="M 6.828125 -2.5 C 6.828125 -1.644531 6.5625 -0.992188 6.03125 -0.546875 C 5.5 -0.109375 4.738281 0.109375 3.75 0.109375 C 2.769531 0.109375 2.007812 -0.109375 1.46875 -0.546875 C 0.9375 -0.992188 0.671875 -1.644531 0.671875 -2.5 L 0.671875 -6.1875 L 2.65625 -6.1875 L 2.65625 -2.515625 C 2.65625 -2.171875 2.75 -1.894531 2.9375 -1.6875 C 3.125 -1.476562 3.394531 -1.375 3.75 -1.375 C 4.101562 -1.375 4.375 -1.476562 4.5625 -1.6875 C 4.75 -1.894531 4.84375 -2.171875 4.84375 -2.515625 L 4.84375 -6.1875 L 6.828125 -6.1875 Z M 6.828125 -2.5 "/></g></g></g><g fill="#ffffff" fill-opacity="1"><g transform="translate(108.494653, 126.482099)"><g><path d="M 6.546875 -4.296875 C 6.546875 -3.910156 6.441406 -3.566406 6.234375 -3.265625 C 6.035156 -2.960938 5.738281 -2.738281 5.34375 -2.59375 L 6.71875 0 L 4.484375 0 L 3.390625 -2.265625 L 2.65625 -2.265625 L 2.65625 0 L 0.671875 0 L 0.671875 -6.1875 L 4.453125 -6.1875 C 4.898438 -6.1875 5.28125 -6.097656 5.59375 -5.921875 C 5.90625 -5.753906 6.140625 -5.523438 6.296875 -5.234375 C 6.460938 -4.953125 6.546875 -4.640625 6.546875 -4.296875 Z M 4.515625 -4.21875 C 4.515625 -4.375 4.457031 -4.503906 4.34375 -4.609375 C 4.238281 -4.722656 4.109375 -4.78125 3.953125 -4.78125 L 2.65625 -4.78125 L 2.65625 -3.640625 L 3.953125 -3.640625 C 4.109375 -3.640625 4.238281 -3.691406 4.34375 -3.796875 C 4.457031 -3.910156 4.515625 -4.050781 4.515625 -4.21875 Z M 4.515625 -4.21875 "/></g></g></g><g fill="#ffffff" fill-opacity="1"><g transform="translate(115.496633, 126.482099)"><g><path d="M 0.671875 -6.1875 L 5.671875 -6.1875 L 5.671875 -4.703125 L 2.65625 -4.703125 L 2.65625 -3.640625 L 5.25 -3.640625 L 5.25 -2.21875 L 2.65625 -2.21875 L 2.65625 0 L 0.671875 0 Z M 0.671875 -6.1875 "/></g></g></g></svg>