<svg xmlns="http://www.w3.org/2000/svg" xmlns:xlink="http://www.w3.org/1999/xlink" width="250" zoomAndPan="magnify" viewBox="0 0 187.5 187.499992" height="250" preserveAspectRatio="xMidYMid meet" version="1.0"><defs><g/><clipPath id="id1"><path d="M 0 0 L 187 0 L 187 187 L 0 187 Z M 0 0 " clip-rule="nonzero"/></clipPath><clipPath id="id2"><path d="M 90.128906 45.601562 L 103.628906 45.601562 L 103.628906 55 L 90.128906 55 Z M 90.128906 45.601562 " clip-rule="nonzero"/></clipPath><clipPath id="id3"><path d="M 74.402344 51.507812 L 114 51.507812 L 114 85 L 74.402344 85 Z M 74.402344 51.507812 " clip-rule="nonzero"/></clipPath><clipPath id="id4"><path d="M 74.550781 82.394531 L 109 82.394531 L 109 106.394531 L 74.550781 106.394531 Z M 74.550781 82.394531 " clip-rule="nonzero"/></clipPath></defs><g clip-path="url(#id1)"><path fill="#ffffff" d="M 0 0 L 187.5 0 L 187.5 195 L 0 195 Z M 0 0 " fill-opacity="1" fill-rule="nonzero"/><path fill="#ffffff" d="M 0 0 L 187.5 0 L 187.5 187.5 L 0 187.5 Z M 0 0 " fill-opacity="1" fill-rule="nonzero"/><path fill="#ffffff" d="M 0 0 L 187.5 0 L 187.5 187.5 L 0 187.5 Z M 0 0 " fill-opacity="1" fill-rule="nonzero"/><path fill="#ffffff" d="M 0 0 L 187.5 0 L 187.5 187.5 L 0 187.5 Z M 0 0 " fill-opacity="1" fill-rule="nonzero"/></g><g clip-path="url(#id2)"><path fill="#f5b4d4" d="M 97.503906 45.609375 C 97.25 45.609375 96.957031 45.804688 96.734375 46.339844 C 96.328125 47.308594 96.394531 48.3125 96.472656 48.84375 C 95.816406 48.394531 95.273438 48.214844 94.8125 48.222656 C 93.890625 48.242188 93.289062 49 92.714844 49.757812 C 91.695312 51.105469 90.128906 54.136719 91.382812 54.800781 C 92.40625 55.34375 96.65625 54.253906 97.910156 52.199219 C 98.882812 50.601562 97.53125 49.5 96.886719 49.089844 C 97.40625 48.902344 98.429688 48.632812 99.265625 49.078125 C 100.433594 49.699219 102.535156 50.671875 103.089844 49.3125 C 103.625 48.011719 102.148438 47.304688 100.207031 47.363281 C 98.9375 47.402344 98.125 47.921875 96.75 48.777344 C 96.71875 48.28125 97.636719 47.101562 97.984375 46.367188 C 98.152344 46.011719 97.875 45.605469 97.503906 45.609375 Z M 94.371094 49.796875 C 94.410156 49.792969 94.449219 49.808594 94.480469 49.832031 C 94.589844 49.898438 94.71875 50.050781 94.421875 50.257812 C 94.125 50.460938 94.015625 50.453125 93.980469 50.363281 C 93.949219 50.277344 94.054688 50.0625 94.175781 49.917969 C 94.246094 49.828125 94.3125 49.796875 94.371094 49.796875 Z M 95.363281 50.601562 C 95.402344 50.601562 95.4375 50.613281 95.460938 50.636719 C 95.554688 50.714844 95.621094 50.917969 95.355469 51.039062 C 95.089844 51.160156 94.992188 51.21875 94.972656 51.132812 C 94.953125 51.046875 95.089844 50.753906 95.199219 50.667969 C 95.257812 50.621094 95.316406 50.601562 95.363281 50.601562 Z M 96.394531 51.34375 C 96.554688 51.339844 96.628906 51.519531 96.484375 51.691406 C 96.328125 51.886719 96.097656 51.992188 96.0625 51.921875 C 96.027344 51.851562 95.972656 51.457031 96.332031 51.355469 C 96.355469 51.351562 96.375 51.34375 96.394531 51.34375 Z M 92.972656 51.464844 C 92.996094 51.464844 93.015625 51.472656 93.027344 51.484375 C 93.078125 51.523438 93.109375 51.628906 92.972656 51.691406 C 92.835938 51.753906 92.785156 51.785156 92.773438 51.742188 C 92.765625 51.695312 92.835938 51.542969 92.890625 51.5 C 92.921875 51.480469 92.949219 51.46875 92.972656 51.464844 Z M 94.050781 52.054688 C 94.214844 52.046875 94.289062 52.234375 94.144531 52.414062 C 93.980469 52.617188 93.742188 52.722656 93.703125 52.652344 C 93.667969 52.582031 93.613281 52.171875 93.984375 52.0625 C 94.007812 52.058594 94.027344 52.054688 94.050781 52.054688 Z M 92.074219 52.839844 C 92.101562 52.839844 92.125 52.851562 92.144531 52.871094 C 92.191406 52.910156 92.242188 52.996094 92.078125 53.070312 C 91.917969 53.144531 91.863281 53.128906 91.855469 53.085938 C 91.847656 53.039062 91.917969 52.945312 91.988281 52.882812 C 92.023438 52.855469 92.050781 52.84375 92.074219 52.839844 Z M 94.808594 52.992188 C 94.835938 52.992188 94.867188 53.003906 94.90625 53.046875 C 94.90625 53.046875 95.039062 53.199219 95.019531 53.261719 C 95 53.320312 94.605469 53.5625 94.5 53.574219 C 94.394531 53.585938 94.527344 53.195312 94.636719 53.117188 C 94.707031 53.066406 94.75 52.996094 94.808594 52.992188 Z M 92.800781 53.769531 C 92.828125 53.765625 92.851562 53.777344 92.871094 53.796875 C 92.914062 53.839844 92.964844 53.921875 92.804688 53.996094 C 92.640625 54.070312 92.589844 54.054688 92.582031 54.011719 C 92.574219 53.964844 92.640625 53.871094 92.714844 53.8125 C 92.746094 53.78125 92.773438 53.769531 92.800781 53.769531 Z M 92.800781 53.769531 " fill-opacity="1" fill-rule="nonzero"/></g><g clip-path="url(#id3)"><path fill="#f5b4d4" d="M 91.058594 51.511719 C 91.058594 51.511719 87.582031 53.773438 89.453125 56.429688 C 91.355469 59.121094 100.019531 54.878906 100.335938 58.191406 C 100.59375 60.886719 93.726562 58.738281 88.753906 58.496094 C 82.964844 58.21875 78.453125 62.015625 78.714844 68.070312 C 78.9375 73.257812 83.765625 77.597656 91.105469 76.707031 C 98.980469 75.753906 107.480469 71.472656 107.496094 77.0625 C 107.511719 82.988281 90.738281 78.3125 87.441406 77.78125 C 84.429688 77.296875 78.839844 77.265625 74.402344 82.773438 C 80.96875 77.933594 83.9375 78.871094 91.332031 81.058594 C 98.730469 83.242188 103.871094 86.753906 109.132812 83.710938 C 114.394531 80.664062 114.894531 73.300781 108.894531 70.59375 C 102.617188 67.761719 97.882812 73.246094 91.628906 74.796875 C 84.828125 76.476562 81.285156 71.109375 82.589844 67.480469 C 84.328125 62.652344 89.882812 64.140625 94.496094 65.644531 C 100.074219 67.457031 104.734375 63.488281 103.792969 59.089844 C 102.886719 54.859375 98.933594 54.390625 95.113281 55.382812 C 91.972656 56.195312 90.328125 55.742188 89.925781 54.417969 C 89.484375 52.960938 91.058594 51.511719 91.058594 51.511719 Z M 87.804688 65.582031 C 87.804688 65.582031 83.40625 66.359375 84.277344 70.472656 C 84.945312 73.625 88.855469 74.542969 92.828125 72.875 C 98.335938 70.566406 103.710938 65.890625 109.925781 69.742188 C 101.320312 61.488281 88.097656 76.328125 85.738281 70.132812 C 84.566406 67.054688 87.804688 65.582031 87.804688 65.582031 Z M 87.804688 65.582031 " fill-opacity="1" fill-rule="nonzero"/></g><g clip-path="url(#id4)"><path fill="#f5b4d4" d="M 82.015625 82.53125 C 81.050781 82.539062 80.113281 82.621094 79.277344 82.78125 C 75.464844 83.523438 74.546875 85.683594 74.742188 86.582031 C 74.9375 87.476562 76.363281 93.6875 77.65625 99.996094 C 78.945312 106.308594 80.160156 106.074219 82.390625 106.035156 C 84.621094 105.996094 96.316406 106.035156 99.953125 106.113281 C 103.59375 106.191406 104.902344 105.023438 105.273438 103.269531 C 105.648438 101.519531 108.558594 88.429688 108.558594 88.429688 C 108.785156 87.523438 109.039062 86.199219 107.984375 86.980469 C 106.929688 87.757812 105.273438 90.203125 106.136719 91.886719 C 106.996094 93.574219 105.472656 94.953125 104.601562 93.890625 C 103.539062 92.597656 106.636719 88.832031 104.089844 88.820312 C 102.164062 88.808594 103.574219 91.535156 101.558594 91.371094 C 99.542969 91.207031 100.875 88.808594 99.183594 88.703125 C 97.492188 88.59375 98.242188 91.828125 96.824219 91.671875 C 95.40625 91.515625 95.980469 88.097656 94.46875 88.089844 C 92.972656 88.082031 93.207031 89.53125 91.875 89.472656 C 90.546875 89.414062 91.289062 86.988281 90.175781 84.984375 C 89.304688 83.417969 85.472656 82.503906 82.015625 82.53125 Z M 82.015625 82.53125 " fill-opacity="1" fill-rule="nonzero"/></g><g fill="#691e48" fill-opacity="1"><g transform="translate(44.88006, 129.050145)"><g><path d="M 5.539062 0.207031 C 8.652344 0.207031 10.621094 -1.371094 10.621094 -3.960938 C 10.621094 -5.644531 9.8125 -6.847656 6.160156 -8.691406 C 4.480469 -9.5625 3.859375 -10.019531 3.859375 -10.851562 C 3.859375 -11.511719 4.480469 -11.949219 5.3125 -11.949219 C 6.390625 -11.949219 7.136719 -11.660156 7.59375 -11.347656 C 7.820312 -11.203125 8.070312 -11.140625 8.296875 -11.140625 C 8.773438 -11.140625 9.230469 -11.390625 9.5 -11.804688 C 9.644531 -12.03125 9.707031 -12.28125 9.707031 -12.53125 C 9.707031 -12.988281 9.460938 -13.464844 9.042969 -13.710938 C 8.296875 -14.210938 7.117188 -14.730469 5.3125 -14.730469 C 2.738281 -14.730469 1.078125 -12.988281 1.078125 -10.851562 C 1.078125 -8.753906 2.15625 -7.613281 4.917969 -6.203125 C 6.824219 -5.226562 7.863281 -4.605469 7.863281 -3.898438 C 7.863281 -3.132812 7.179688 -2.574219 5.539062 -2.574219 C 4.109375 -2.574219 2.945312 -3.070312 2.199219 -3.628906 C 1.972656 -3.777344 1.699219 -3.859375 1.429688 -3.859375 C 0.996094 -3.859375 0.558594 -3.652344 0.289062 -3.234375 C 0.144531 -3.007812 0.0625 -2.738281 0.0625 -2.488281 C 0.0625 -2.03125 0.269531 -1.578125 0.683594 -1.308594 C 1.761719 -0.539062 3.402344 0.207031 5.539062 0.207031 Z M 5.539062 0.207031 "/></g></g></g><g fill="#691e48" fill-opacity="1"><g transform="translate(55.873396, 129.050145)"><g><path d="M 3.796875 0.164062 C 4.273438 0.164062 4.730469 -0.0820312 4.957031 -0.476562 C 5.414062 -1.308594 6.265625 -3.257812 6.949219 -4.9375 C 7.386719 -3.402344 7.902344 -1.660156 8.234375 -0.683594 C 8.421875 -0.0625 8.984375 0.207031 9.605469 0.207031 C 10.371094 0.207031 10.726562 -0.164062 11.015625 -0.621094 C 11.804688 -2.09375 13.628906 -7.15625 13.960938 -8.921875 C 13.980469 -9.003906 13.980469 -9.105469 13.980469 -9.191406 C 13.980469 -9.917969 13.402344 -10.578125 12.613281 -10.578125 C 11.96875 -10.578125 11.367188 -10.125 11.242188 -9.460938 C 11.121094 -8.773438 10.457031 -6.722656 9.832031 -4.980469 C 9.210938 -6.929688 8.503906 -9.191406 8.296875 -9.769531 C 8.070312 -10.269531 7.59375 -10.578125 7.054688 -10.578125 C 6.472656 -10.578125 5.933594 -10.207031 5.746094 -9.644531 C 5.519531 -8.859375 4.730469 -6.617188 4.046875 -4.832031 C 3.691406 -6.410156 3.339844 -8.402344 3.277344 -9.253906 C 3.234375 -10 2.59375 -10.578125 1.847656 -10.578125 C 1.058594 -10.578125 0.457031 -9.894531 0.496094 -9.105469 C 0.664062 -6.824219 1.699219 -2.574219 2.511719 -0.683594 C 2.71875 -0.164062 3.234375 0.164062 3.796875 0.164062 Z M 3.796875 0.164062 "/></g></g></g><g fill="#691e48" fill-opacity="1"><g transform="translate(70.351412, 129.050145)"><g><path d="M 5.726562 0.207031 C 6.742188 0.207031 7.902344 -0.1875 8.816406 -0.683594 C 9.292969 -0.933594 9.605469 -1.347656 9.605469 -1.886719 C 9.605469 -2.09375 9.5625 -2.300781 9.460938 -2.53125 C 9.230469 -3.027344 8.816406 -3.234375 8.359375 -3.234375 C 8.109375 -3.234375 7.839844 -3.175781 7.59375 -3.070312 C 7.03125 -2.800781 6.453125 -2.574219 5.683594 -2.574219 C 4.5 -2.574219 3.835938 -3.132812 3.566406 -4.109375 C 4.191406 -3.859375 4.855469 -3.691406 5.496094 -3.691406 C 7.863281 -3.691406 9.667969 -4.730469 9.667969 -6.824219 C 9.667969 -8.984375 7.945312 -10.578125 5.414062 -10.578125 C 2.40625 -10.578125 0.683594 -8.195312 0.683594 -5.351562 C 0.683594 -1.886719 2.28125 0.207031 5.726562 0.207031 Z M 3.734375 -6.722656 C 4.046875 -7.386719 4.605469 -7.800781 5.496094 -7.800781 C 6.367188 -7.800781 6.886719 -7.488281 6.886719 -7.117188 C 6.886719 -6.761719 6.554688 -6.367188 5.496094 -6.367188 C 4.875 -6.367188 4.230469 -6.554688 3.734375 -6.722656 Z M 3.734375 -6.722656 "/></g></g></g><g fill="#691e48" fill-opacity="1"><g transform="translate(80.66026, 129.050145)"><g><path d="M 5.726562 0.207031 C 6.742188 0.207031 7.902344 -0.1875 8.816406 -0.683594 C 9.292969 -0.933594 9.605469 -1.347656 9.605469 -1.886719 C 9.605469 -2.09375 9.5625 -2.300781 9.460938 -2.53125 C 9.230469 -3.027344 8.816406 -3.234375 8.359375 -3.234375 C 8.109375 -3.234375 7.839844 -3.175781 7.59375 -3.070312 C 7.03125 -2.800781 6.453125 -2.574219 5.683594 -2.574219 C 4.5 -2.574219 3.835938 -3.132812 3.566406 -4.109375 C 4.191406 -3.859375 4.855469 -3.691406 5.496094 -3.691406 C 7.863281 -3.691406 9.667969 -4.730469 9.667969 -6.824219 C 9.667969 -8.984375 7.945312 -10.578125 5.414062 -10.578125 C 2.40625 -10.578125 0.683594 -8.195312 0.683594 -5.351562 C 0.683594 -1.886719 2.28125 0.207031 5.726562 0.207031 Z M 3.734375 -6.722656 C 4.046875 -7.386719 4.605469 -7.800781 5.496094 -7.800781 C 6.367188 -7.800781 6.886719 -7.488281 6.886719 -7.117188 C 6.886719 -6.761719 6.554688 -6.367188 5.496094 -6.367188 C 4.875 -6.367188 4.230469 -6.554688 3.734375 -6.722656 Z M 3.734375 -6.722656 "/></g></g></g><g fill="#691e48" fill-opacity="1"><g transform="translate(90.969108, 129.050145)"><g><path d="M 5.457031 0.207031 C 6.203125 0.207031 6.949219 0 7.507812 -0.351562 C 7.964844 -0.601562 8.214844 -1.058594 8.214844 -1.535156 C 8.214844 -1.761719 8.132812 -2.011719 8.007812 -2.242188 C 7.738281 -2.695312 7.28125 -2.945312 6.804688 -2.945312 C 6.574219 -2.945312 6.328125 -2.863281 6.097656 -2.738281 C 5.933594 -2.613281 5.683594 -2.574219 5.457031 -2.574219 C 5 -2.574219 4.710938 -2.988281 4.6875 -3.628906 C 4.585938 -4.855469 4.542969 -6.246094 4.542969 -7.675781 C 5.226562 -7.65625 5.933594 -7.632812 6.636719 -7.59375 C 7.425781 -7.570312 8.089844 -8.195312 8.089844 -9.003906 C 8.089844 -9.707031 7.53125 -10.332031 6.785156 -10.371094 C 6.058594 -10.414062 5.332031 -10.433594 4.605469 -10.433594 L 4.6875 -11.90625 C 4.730469 -12.695312 4.128906 -13.378906 3.277344 -13.378906 C 2.574219 -13.378906 1.972656 -12.800781 1.929688 -12.09375 C 1.886719 -11.574219 1.867188 -11.015625 1.847656 -10.433594 L 1.265625 -10.433594 C 0.496094 -10.433594 -0.125 -9.8125 -0.125 -9.042969 C -0.125 -8.277344 0.519531 -7.65625 1.285156 -7.65625 L 1.785156 -7.675781 C 1.761719 -6.121094 1.804688 -4.605469 1.929688 -3.339844 C 2.136719 -1.078125 3.691406 0.207031 5.457031 0.207031 Z M 5.457031 0.207031 "/></g></g></g><g fill="#691e48" fill-opacity="1"><g transform="translate(99.763777, 129.050145)"><g><path d="M 6.078125 0.207031 C 8.296875 0.207031 10.1875 -1.578125 10.703125 -3.941406 C 10.726562 -4.023438 10.726562 -4.128906 10.726562 -4.210938 C 10.726562 -4.9375 10.144531 -5.582031 9.375 -5.582031 C 8.714844 -5.582031 8.109375 -5.125 7.988281 -4.4375 C 7.71875 -3.445312 7.074219 -2.574219 6.078125 -2.574219 C 4.335938 -2.574219 3.445312 -4.167969 3.445312 -7.34375 C 3.445312 -10.351562 4.625 -11.949219 5.996094 -11.949219 C 6.992188 -11.949219 7.570312 -11.285156 7.78125 -10.394531 C 7.902344 -9.707031 8.503906 -9.273438 9.148438 -9.273438 C 9.957031 -9.273438 10.519531 -9.9375 10.519531 -10.664062 C 10.519531 -10.746094 10.519531 -10.851562 10.496094 -10.933594 C 10 -13.214844 8.464844 -14.730469 5.996094 -14.730469 C 3.320312 -14.730469 0.683594 -12.34375 0.683594 -7.34375 C 0.683594 -1.929688 3.113281 0.207031 6.078125 0.207031 Z M 6.078125 0.207031 "/></g></g></g><g fill="#691e48" fill-opacity="1"><g transform="translate(110.964537, 129.050145)"><g><path d="M 4.542969 0.207031 C 5.789062 0.207031 6.949219 -0.269531 7.863281 -1.058594 L 8.257812 -0.351562 C 8.527344 0.0820312 8.960938 0.3125 9.398438 0.3125 C 9.707031 0.3125 10.019531 0.207031 10.289062 0.0195312 C 10.683594 -0.25 10.890625 -0.683594 10.890625 -1.097656 C 10.890625 -1.285156 10.851562 -1.472656 10.765625 -1.640625 C 10.496094 -2.21875 10.0625 -2.925781 9.523438 -3.628906 C 9.707031 -4.230469 9.8125 -4.894531 9.8125 -5.582031 C 9.8125 -8.503906 7.71875 -10.578125 4.855469 -10.578125 C 3.671875 -10.578125 2.386719 -10.207031 1.429688 -9.644531 C 0.953125 -9.335938 0.726562 -8.921875 0.726562 -8.484375 C 0.726562 -8.257812 0.789062 -8.027344 0.890625 -7.800781 C 1.097656 -7.363281 1.515625 -7.054688 2.054688 -7.054688 C 2.324219 -7.054688 2.613281 -7.136719 2.925781 -7.324219 C 3.484375 -7.675781 4.046875 -7.800781 4.75 -7.800781 C 5.890625 -7.800781 6.804688 -7.199219 7.074219 -5.914062 C 6.347656 -6.367188 5.558594 -6.660156 4.769531 -6.660156 C 2.324219 -6.660156 0.644531 -5.433594 0.644531 -3.234375 C 0.644531 -1.265625 2.199219 0.207031 4.542969 0.207031 Z M 3.421875 -3.234375 C 3.421875 -3.691406 3.796875 -3.898438 4.5 -3.898438 C 5.144531 -3.898438 5.726562 -3.609375 6.246094 -3.152344 C 5.765625 -2.757812 5.144531 -2.574219 4.460938 -2.574219 C 3.859375 -2.574219 3.421875 -2.757812 3.421875 -3.234375 Z M 3.421875 -3.234375 "/></g></g></g><g fill="#691e48" fill-opacity="1"><g transform="translate(121.937131, 129.050145)"><g><path d="M 2.71875 0.207031 C 3.546875 0.207031 4.167969 -0.457031 4.128906 -1.265625 L 4.066406 -2.425781 C 4.398438 -2.90625 4.730469 -3.402344 5.101562 -3.898438 C 5.871094 -2.550781 6.722656 -1.285156 7.71875 -0.226562 C 7.988281 0.0625 8.359375 0.207031 8.714844 0.207031 C 9.066406 0.207031 9.398438 0.0820312 9.667969 -0.1875 C 9.957031 -0.457031 10.101562 -0.808594 10.101562 -1.183594 C 10.101562 -1.515625 9.976562 -1.867188 9.707031 -2.136719 C 8.671875 -3.296875 7.820312 -4.6875 6.992188 -6.183594 C 7.675781 -6.90625 8.382812 -7.570312 9.066406 -8.089844 C 9.4375 -8.359375 9.625 -8.773438 9.625 -9.191406 C 9.625 -9.480469 9.523438 -9.769531 9.335938 -10.019531 C 9.042969 -10.394531 8.628906 -10.578125 8.195312 -10.578125 C 7.925781 -10.578125 7.632812 -10.496094 7.386719 -10.308594 C 6.140625 -9.335938 4.980469 -8.152344 3.941406 -6.886719 C 3.921875 -8.484375 3.921875 -10.144531 3.921875 -11.804688 C 3.921875 -12.65625 3.921875 -13.503906 3.921875 -14.355469 C 3.921875 -15.125 3.296875 -15.746094 2.53125 -15.746094 C 1.785156 -15.746094 1.160156 -15.125 1.160156 -14.375 C 1.160156 -13.359375 1.140625 -12.324219 1.140625 -11.304688 C 1.140625 -7.757812 1.203125 -4.273438 1.371094 -1.121094 C 1.390625 -0.375 2.011719 0.207031 2.71875 0.207031 Z M 2.71875 0.207031 "/></g></g></g><g fill="#691e48" fill-opacity="1"><g transform="translate(132.308207, 129.050145)"><g><path d="M 5.726562 0.207031 C 6.742188 0.207031 7.902344 -0.1875 8.816406 -0.683594 C 9.292969 -0.933594 9.605469 -1.347656 9.605469 -1.886719 C 9.605469 -2.09375 9.5625 -2.300781 9.460938 -2.53125 C 9.230469 -3.027344 8.816406 -3.234375 8.359375 -3.234375 C 8.109375 -3.234375 7.839844 -3.175781 7.59375 -3.070312 C 7.03125 -2.800781 6.453125 -2.574219 5.683594 -2.574219 C 4.5 -2.574219 3.835938 -3.132812 3.566406 -4.109375 C 4.191406 -3.859375 4.855469 -3.691406 5.496094 -3.691406 C 7.863281 -3.691406 9.667969 -4.730469 9.667969 -6.824219 C 9.667969 -8.984375 7.945312 -10.578125 5.414062 -10.578125 C 2.40625 -10.578125 0.683594 -8.195312 0.683594 -5.351562 C 0.683594 -1.886719 2.28125 0.207031 5.726562 0.207031 Z M 3.734375 -6.722656 C 4.046875 -7.386719 4.605469 -7.800781 5.496094 -7.800781 C 6.367188 -7.800781 6.886719 -7.488281 6.886719 -7.117188 C 6.886719 -6.761719 6.554688 -6.367188 5.496094 -6.367188 C 4.875 -6.367188 4.230469 -6.554688 3.734375 -6.722656 Z M 3.734375 -6.722656 "/></g></g></g><g fill="#691e48" fill-opacity="1"><g transform="translate(60.13825, 140.637017)"><g><path d="M 3.453125 -4.078125 C 3.585938 -4.015625 3.65625 -3.910156 3.65625 -3.765625 C 3.65625 -3.679688 3.625 -3.597656 3.5625 -3.515625 C 3.488281 -3.429688 3.40625 -3.390625 3.3125 -3.390625 C 3.238281 -3.390625 3.164062 -3.40625 3.09375 -3.4375 C 2.894531 -3.53125 2.679688 -3.578125 2.453125 -3.578125 C 2.160156 -3.578125 1.910156 -3.515625 1.703125 -3.390625 C 1.492188 -3.273438 1.332031 -3.109375 1.21875 -2.890625 C 1.101562 -2.671875 1.046875 -2.421875 1.046875 -2.140625 C 1.046875 -1.660156 1.171875 -1.296875 1.421875 -1.046875 C 1.679688 -0.796875 2.023438 -0.671875 2.453125 -0.671875 C 2.703125 -0.671875 2.914062 -0.71875 3.09375 -0.8125 C 3.164062 -0.84375 3.234375 -0.859375 3.296875 -0.859375 C 3.398438 -0.859375 3.488281 -0.816406 3.5625 -0.734375 C 3.625 -0.648438 3.65625 -0.566406 3.65625 -0.484375 C 3.65625 -0.410156 3.640625 -0.347656 3.609375 -0.296875 C 3.578125 -0.242188 3.53125 -0.203125 3.46875 -0.171875 C 3.144531 -0.015625 2.804688 0.0625 2.453125 0.0625 C 2.046875 0.0625 1.675781 -0.0195312 1.34375 -0.1875 C 1.007812 -0.363281 0.742188 -0.613281 0.546875 -0.9375 C 0.347656 -1.269531 0.25 -1.671875 0.25 -2.140625 C 0.25 -2.554688 0.34375 -2.929688 0.53125 -3.265625 C 0.71875 -3.597656 0.976562 -3.851562 1.3125 -4.03125 C 1.644531 -4.21875 2.023438 -4.3125 2.453125 -4.3125 C 2.816406 -4.3125 3.148438 -4.234375 3.453125 -4.078125 Z M 3.453125 -4.078125 "/></g></g></g><g fill="#691e48" fill-opacity="1"><g transform="translate(65.71822, 140.637017)"><g><path d="M 3.828125 -0.484375 C 3.847656 -0.421875 3.859375 -0.367188 3.859375 -0.328125 C 3.859375 -0.222656 3.820312 -0.132812 3.75 -0.0625 C 3.675781 0 3.597656 0.03125 3.515625 0.03125 C 3.441406 0.03125 3.375 0.0078125 3.3125 -0.03125 C 3.25 -0.0820312 3.203125 -0.144531 3.171875 -0.21875 L 2.859375 -0.96875 L 1.03125 -0.96875 L 0.703125 -0.21875 C 0.679688 -0.132812 0.640625 -0.0703125 0.578125 -0.03125 C 0.515625 0.0078125 0.453125 0.03125 0.390625 0.03125 C 0.285156 0.03125 0.203125 0.00390625 0.140625 -0.046875 C 0.0859375 -0.109375 0.0625 -0.1875 0.0625 -0.28125 C 0.0625 -0.320312 0.0664062 -0.363281 0.078125 -0.40625 L 1.609375 -4.0625 C 1.640625 -4.144531 1.6875 -4.207031 1.75 -4.25 C 1.8125 -4.300781 1.882812 -4.320312 1.96875 -4.3125 C 2.039062 -4.3125 2.109375 -4.289062 2.171875 -4.25 C 2.234375 -4.207031 2.28125 -4.144531 2.3125 -4.0625 Z M 1.328125 -1.671875 L 2.546875 -1.671875 L 1.9375 -3.09375 Z M 1.328125 -1.671875 "/></g></g></g><g fill="#691e48" fill-opacity="1"><g transform="translate(71.371668, 140.637017)"><g><path d="M 3.75 -0.640625 C 3.769531 -0.609375 3.785156 -0.566406 3.796875 -0.515625 C 3.816406 -0.472656 3.828125 -0.429688 3.828125 -0.390625 C 3.828125 -0.273438 3.785156 -0.179688 3.703125 -0.109375 C 3.617188 -0.0351562 3.519531 0 3.40625 0 C 3.351562 0 3.300781 -0.0078125 3.25 -0.03125 C 3.207031 -0.0625 3.171875 -0.0976562 3.140625 -0.140625 L 1.8125 -1.890625 L 1.21875 -1.328125 L 1.21875 -0.375 C 1.21875 -0.257812 1.179688 -0.164062 1.109375 -0.09375 C 1.046875 -0.03125 0.957031 0 0.84375 0 C 0.726562 0 0.632812 -0.0351562 0.5625 -0.109375 C 0.488281 -0.179688 0.453125 -0.269531 0.453125 -0.375 L 0.453125 -3.90625 C 0.453125 -4.019531 0.488281 -4.109375 0.5625 -4.171875 C 0.644531 -4.242188 0.738281 -4.28125 0.84375 -4.28125 C 0.957031 -4.28125 1.046875 -4.242188 1.109375 -4.171875 C 1.179688 -4.109375 1.21875 -4.019531 1.21875 -3.90625 L 1.21875 -2.25 L 3.1875 -4.171875 C 3.28125 -4.265625 3.378906 -4.3125 3.484375 -4.3125 C 3.578125 -4.3125 3.65625 -4.269531 3.71875 -4.1875 C 3.789062 -4.113281 3.828125 -4.035156 3.828125 -3.953125 C 3.828125 -3.867188 3.789062 -3.789062 3.71875 -3.71875 L 2.375 -2.4375 Z M 3.75 -0.640625 "/></g></g></g><g fill="#691e48" fill-opacity="1"><g transform="translate(77.123082, 140.637017)"><g><path d="M 2.890625 -0.703125 C 2.992188 -0.703125 3.082031 -0.664062 3.15625 -0.59375 C 3.226562 -0.519531 3.265625 -0.4375 3.265625 -0.34375 C 3.265625 -0.25 3.226562 -0.164062 3.15625 -0.09375 C 3.082031 -0.03125 2.992188 0 2.890625 0 L 0.828125 0 C 0.722656 0 0.632812 -0.0351562 0.5625 -0.109375 C 0.488281 -0.179688 0.453125 -0.269531 0.453125 -0.375 L 0.453125 -3.90625 C 0.453125 -4.019531 0.488281 -4.109375 0.5625 -4.171875 C 0.632812 -4.242188 0.722656 -4.28125 0.828125 -4.28125 L 2.890625 -4.28125 C 2.992188 -4.28125 3.082031 -4.242188 3.15625 -4.171875 C 3.226562 -4.109375 3.265625 -4.023438 3.265625 -3.921875 C 3.265625 -3.816406 3.226562 -3.734375 3.15625 -3.671875 C 3.082031 -3.609375 2.992188 -3.578125 2.890625 -3.578125 L 1.21875 -3.578125 L 1.21875 -2.546875 L 2.609375 -2.546875 C 2.710938 -2.546875 2.800781 -2.507812 2.875 -2.4375 C 2.945312 -2.375 2.984375 -2.289062 2.984375 -2.1875 C 2.984375 -2.082031 2.945312 -2 2.875 -1.9375 C 2.8125 -1.875 2.722656 -1.84375 2.609375 -1.84375 L 1.21875 -1.84375 L 1.21875 -0.703125 Z M 2.890625 -0.703125 "/></g></g></g><g fill="#691e48" fill-opacity="1"><g transform="translate(82.366288, 140.637017)"><g/></g></g><g fill="#691e48" fill-opacity="1"><g transform="translate(85.821566, 140.637017)"><g><path d="M 4.03125 -0.625 C 4.082031 -0.570312 4.117188 -0.519531 4.140625 -0.46875 C 4.171875 -0.414062 4.1875 -0.359375 4.1875 -0.296875 C 4.1875 -0.234375 4.160156 -0.164062 4.109375 -0.09375 C 4.054688 -0.0195312 3.984375 0.015625 3.890625 0.015625 C 3.796875 0.015625 3.726562 -0.00390625 3.6875 -0.046875 L 3.34375 -0.34375 L 3.140625 -0.515625 C 2.765625 -0.128906 2.285156 0.0625 1.703125 0.0625 C 1.421875 0.0625 1.160156 0 0.921875 -0.125 C 0.691406 -0.25 0.507812 -0.414062 0.375 -0.625 C 0.25 -0.832031 0.1875 -1.050781 0.1875 -1.28125 C 0.1875 -1.882812 0.484375 -2.316406 1.078125 -2.578125 C 1.003906 -2.691406 0.945312 -2.796875 0.90625 -2.890625 C 0.863281 -2.984375 0.84375 -3.085938 0.84375 -3.203125 C 0.84375 -3.410156 0.894531 -3.597656 1 -3.765625 C 1.113281 -3.941406 1.269531 -4.082031 1.46875 -4.1875 C 1.675781 -4.289062 1.914062 -4.34375 2.1875 -4.34375 C 2.46875 -4.34375 2.71875 -4.296875 2.9375 -4.203125 C 3.164062 -4.109375 3.320312 -3.984375 3.40625 -3.828125 C 3.4375 -3.753906 3.453125 -3.675781 3.453125 -3.59375 C 3.453125 -3.507812 3.421875 -3.441406 3.359375 -3.390625 C 3.304688 -3.335938 3.234375 -3.3125 3.140625 -3.3125 C 3.035156 -3.3125 2.953125 -3.347656 2.890625 -3.421875 C 2.804688 -3.535156 2.707031 -3.613281 2.59375 -3.65625 C 2.476562 -3.707031 2.34375 -3.734375 2.1875 -3.734375 C 2.007812 -3.734375 1.867188 -3.6875 1.765625 -3.59375 C 1.660156 -3.5 1.609375 -3.378906 1.609375 -3.234375 C 1.609375 -3.109375 1.660156 -2.976562 1.765625 -2.84375 C 1.867188 -2.707031 2.007812 -2.554688 2.1875 -2.390625 C 2.300781 -2.273438 2.359375 -2.21875 2.359375 -2.21875 C 2.484375 -2.070312 2.710938 -1.84375 3.046875 -1.53125 C 3.128906 -1.71875 3.1875 -1.921875 3.21875 -2.140625 C 3.226562 -2.203125 3.253906 -2.25 3.296875 -2.28125 C 3.335938 -2.320312 3.410156 -2.34375 3.515625 -2.34375 C 3.609375 -2.34375 3.679688 -2.304688 3.734375 -2.234375 C 3.796875 -2.160156 3.828125 -2.078125 3.828125 -1.984375 L 3.828125 -1.921875 C 3.785156 -1.609375 3.691406 -1.320312 3.546875 -1.0625 C 3.710938 -0.914062 3.875 -0.769531 4.03125 -0.625 Z M 1.875 -0.625 C 2.164062 -0.625 2.421875 -0.734375 2.640625 -0.953125 C 2.234375 -1.316406 1.894531 -1.65625 1.625 -1.96875 L 1.515625 -2.09375 C 1.296875 -2.03125 1.144531 -1.941406 1.0625 -1.828125 C 0.976562 -1.710938 0.9375 -1.566406 0.9375 -1.390625 C 0.9375 -1.179688 1.007812 -1 1.15625 -0.84375 C 1.3125 -0.695312 1.550781 -0.625 1.875 -0.625 Z M 1.875 -0.625 "/></g></g></g><g fill="#691e48" fill-opacity="1"><g transform="translate(91.903623, 140.637017)"><g/></g></g><g fill="#691e48" fill-opacity="1"><g transform="translate(95.3589, 140.637017)"><g><path d="M 3.03125 -2.375 C 3.25 -2.289062 3.425781 -2.160156 3.5625 -1.984375 C 3.695312 -1.804688 3.765625 -1.578125 3.765625 -1.296875 C 3.765625 -0.816406 3.625 -0.476562 3.34375 -0.28125 C 3.070312 -0.09375 2.742188 0 2.359375 0 L 0.828125 0 C 0.722656 0 0.632812 -0.0351562 0.5625 -0.109375 C 0.488281 -0.179688 0.453125 -0.269531 0.453125 -0.375 L 0.453125 -3.90625 C 0.453125 -4.019531 0.488281 -4.109375 0.5625 -4.171875 C 0.632812 -4.242188 0.722656 -4.28125 0.828125 -4.28125 L 2.375 -4.28125 C 3.15625 -4.28125 3.546875 -3.921875 3.546875 -3.203125 C 3.546875 -3.015625 3.5 -2.847656 3.40625 -2.703125 C 3.320312 -2.566406 3.195312 -2.457031 3.03125 -2.375 Z M 2.75 -3.0625 C 2.75 -3.226562 2.707031 -3.351562 2.625 -3.4375 C 2.539062 -3.519531 2.421875 -3.5625 2.265625 -3.5625 L 1.25 -3.5625 L 1.25 -2.609375 L 2.28125 -2.609375 C 2.40625 -2.609375 2.515625 -2.648438 2.609375 -2.734375 C 2.703125 -2.816406 2.75 -2.925781 2.75 -3.0625 Z M 2.359375 -0.703125 C 2.546875 -0.703125 2.691406 -0.753906 2.796875 -0.859375 C 2.910156 -0.960938 2.96875 -1.109375 2.96875 -1.296875 C 2.96875 -1.546875 2.90625 -1.707031 2.78125 -1.78125 C 2.65625 -1.851562 2.5 -1.890625 2.3125 -1.890625 L 1.25 -1.890625 L 1.25 -0.703125 Z M 2.359375 -0.703125 "/></g></g></g><g fill="#691e48" fill-opacity="1"><g transform="translate(101.110313, 140.637017)"><g><path d="M 3.828125 -0.484375 C 3.847656 -0.421875 3.859375 -0.367188 3.859375 -0.328125 C 3.859375 -0.222656 3.820312 -0.132812 3.75 -0.0625 C 3.675781 0 3.597656 0.03125 3.515625 0.03125 C 3.441406 0.03125 3.375 0.0078125 3.3125 -0.03125 C 3.25 -0.0820312 3.203125 -0.144531 3.171875 -0.21875 L 2.859375 -0.96875 L 1.03125 -0.96875 L 0.703125 -0.21875 C 0.679688 -0.132812 0.640625 -0.0703125 0.578125 -0.03125 C 0.515625 0.0078125 0.453125 0.03125 0.390625 0.03125 C 0.285156 0.03125 0.203125 0.00390625 0.140625 -0.046875 C 0.0859375 -0.109375 0.0625 -0.1875 0.0625 -0.28125 C 0.0625 -0.320312 0.0664062 -0.363281 0.078125 -0.40625 L 1.609375 -4.0625 C 1.640625 -4.144531 1.6875 -4.207031 1.75 -4.25 C 1.8125 -4.300781 1.882812 -4.320312 1.96875 -4.3125 C 2.039062 -4.3125 2.109375 -4.289062 2.171875 -4.25 C 2.234375 -4.207031 2.28125 -4.144531 2.3125 -4.0625 Z M 1.328125 -1.671875 L 2.546875 -1.671875 L 1.9375 -3.09375 Z M 1.328125 -1.671875 "/></g></g></g><g fill="#691e48" fill-opacity="1"><g transform="translate(106.76376, 140.637017)"><g><path d="M 3.75 -0.640625 C 3.769531 -0.609375 3.785156 -0.566406 3.796875 -0.515625 C 3.816406 -0.472656 3.828125 -0.429688 3.828125 -0.390625 C 3.828125 -0.273438 3.785156 -0.179688 3.703125 -0.109375 C 3.617188 -0.0351562 3.519531 0 3.40625 0 C 3.351562 0 3.300781 -0.0078125 3.25 -0.03125 C 3.207031 -0.0625 3.171875 -0.0976562 3.140625 -0.140625 L 1.8125 -1.890625 L 1.21875 -1.328125 L 1.21875 -0.375 C 1.21875 -0.257812 1.179688 -0.164062 1.109375 -0.09375 C 1.046875 -0.03125 0.957031 0 0.84375 0 C 0.726562 0 0.632812 -0.0351562 0.5625 -0.109375 C 0.488281 -0.179688 0.453125 -0.269531 0.453125 -0.375 L 0.453125 -3.90625 C 0.453125 -4.019531 0.488281 -4.109375 0.5625 -4.171875 C 0.644531 -4.242188 0.738281 -4.28125 0.84375 -4.28125 C 0.957031 -4.28125 1.046875 -4.242188 1.109375 -4.171875 C 1.179688 -4.109375 1.21875 -4.019531 1.21875 -3.90625 L 1.21875 -2.25 L 3.1875 -4.171875 C 3.28125 -4.265625 3.378906 -4.3125 3.484375 -4.3125 C 3.578125 -4.3125 3.65625 -4.269531 3.71875 -4.1875 C 3.789062 -4.113281 3.828125 -4.035156 3.828125 -3.953125 C 3.828125 -3.867188 3.789062 -3.789062 3.71875 -3.71875 L 2.375 -2.4375 Z M 3.75 -0.640625 "/></g></g></g><g fill="#691e48" fill-opacity="1"><g transform="translate(112.515173, 140.637017)"><g><path d="M 2.890625 -0.703125 C 2.992188 -0.703125 3.082031 -0.664062 3.15625 -0.59375 C 3.226562 -0.519531 3.265625 -0.4375 3.265625 -0.34375 C 3.265625 -0.25 3.226562 -0.164062 3.15625 -0.09375 C 3.082031 -0.03125 2.992188 0 2.890625 0 L 0.828125 0 C 0.722656 0 0.632812 -0.0351562 0.5625 -0.109375 C 0.488281 -0.179688 0.453125 -0.269531 0.453125 -0.375 L 0.453125 -3.90625 C 0.453125 -4.019531 0.488281 -4.109375 0.5625 -4.171875 C 0.632812 -4.242188 0.722656 -4.28125 0.828125 -4.28125 L 2.890625 -4.28125 C 2.992188 -4.28125 3.082031 -4.242188 3.15625 -4.171875 C 3.226562 -4.109375 3.265625 -4.023438 3.265625 -3.921875 C 3.265625 -3.816406 3.226562 -3.734375 3.15625 -3.671875 C 3.082031 -3.609375 2.992188 -3.578125 2.890625 -3.578125 L 1.21875 -3.578125 L 1.21875 -2.546875 L 2.609375 -2.546875 C 2.710938 -2.546875 2.800781 -2.507812 2.875 -2.4375 C 2.945312 -2.375 2.984375 -2.289062 2.984375 -2.1875 C 2.984375 -2.082031 2.945312 -2 2.875 -1.9375 C 2.8125 -1.875 2.722656 -1.84375 2.609375 -1.84375 L 1.21875 -1.84375 L 1.21875 -0.703125 Z M 2.890625 -0.703125 "/></g></g></g><g fill="#691e48" fill-opacity="1"><g transform="translate(117.75838, 140.637017)"><g><path d="M 3.828125 -0.59375 C 3.878906 -0.5625 3.921875 -0.519531 3.953125 -0.46875 C 3.984375 -0.414062 4 -0.363281 4 -0.3125 C 4 -0.238281 3.972656 -0.171875 3.921875 -0.109375 C 3.859375 -0.0351562 3.765625 0 3.640625 0 C 3.535156 0 3.445312 -0.0195312 3.375 -0.0625 C 3.070312 -0.226562 2.921875 -0.566406 2.921875 -1.078125 C 2.921875 -1.222656 2.875 -1.335938 2.78125 -1.421875 C 2.6875 -1.515625 2.550781 -1.5625 2.375 -1.5625 L 1.21875 -1.5625 L 1.21875 -0.375 C 1.21875 -0.257812 1.1875 -0.164062 1.125 -0.09375 C 1.070312 -0.03125 1 0 0.90625 0 C 0.78125 0 0.671875 -0.0351562 0.578125 -0.109375 C 0.492188 -0.179688 0.453125 -0.269531 0.453125 -0.375 L 0.453125 -3.90625 C 0.453125 -4.019531 0.488281 -4.109375 0.5625 -4.171875 C 0.632812 -4.242188 0.722656 -4.28125 0.828125 -4.28125 L 2.59375 -4.28125 C 2.8125 -4.28125 3.015625 -4.222656 3.203125 -4.109375 C 3.390625 -3.992188 3.535156 -3.835938 3.640625 -3.640625 C 3.753906 -3.441406 3.8125 -3.21875 3.8125 -2.96875 C 3.8125 -2.769531 3.753906 -2.570312 3.640625 -2.375 C 3.535156 -2.175781 3.394531 -2.019531 3.21875 -1.90625 C 3.476562 -1.726562 3.617188 -1.488281 3.640625 -1.1875 C 3.648438 -1.125 3.65625 -1.0625 3.65625 -1 C 3.675781 -0.875 3.691406 -0.78125 3.703125 -0.71875 C 3.722656 -0.664062 3.765625 -0.625 3.828125 -0.59375 Z M 2.5625 -2.1875 C 2.632812 -2.1875 2.707031 -2.222656 2.78125 -2.296875 C 2.851562 -2.367188 2.910156 -2.460938 2.953125 -2.578125 C 2.992188 -2.691406 3.015625 -2.816406 3.015625 -2.953125 C 3.015625 -3.066406 2.992188 -3.171875 2.953125 -3.265625 C 2.910156 -3.359375 2.851562 -3.429688 2.78125 -3.484375 C 2.707031 -3.546875 2.632812 -3.578125 2.5625 -3.578125 L 1.21875 -3.578125 L 1.21875 -2.1875 Z M 2.5625 -2.1875 "/></g></g></g><g fill="#691e48" fill-opacity="1"><g transform="translate(123.705737, 140.637017)"><g><path d="M 3.5625 -3.921875 C 3.5625 -3.835938 3.535156 -3.765625 3.484375 -3.703125 L 2.21875 -1.875 L 2.21875 -0.375 C 2.21875 -0.269531 2.179688 -0.179688 2.109375 -0.109375 C 2.035156 -0.0351562 1.953125 0 1.859375 0 C 1.753906 0 1.664062 -0.0351562 1.59375 -0.109375 C 1.519531 -0.179688 1.484375 -0.269531 1.484375 -0.375 L 1.484375 -1.953125 L 0.21875 -3.640625 C 0.144531 -3.742188 0.109375 -3.84375 0.109375 -3.9375 C 0.109375 -4.039062 0.148438 -4.128906 0.234375 -4.203125 C 0.316406 -4.273438 0.40625 -4.3125 0.5 -4.3125 C 0.613281 -4.3125 0.710938 -4.253906 0.796875 -4.140625 L 1.875 -2.640625 L 2.890625 -4.125 C 2.972656 -4.25 3.070312 -4.3125 3.1875 -4.3125 C 3.289062 -4.3125 3.378906 -4.269531 3.453125 -4.1875 C 3.523438 -4.113281 3.5625 -4.023438 3.5625 -3.921875 Z M 3.5625 -3.921875 "/></g></g></g></svg>