<svg xmlns="http://www.w3.org/2000/svg" xmlns:xlink="http://www.w3.org/1999/xlink" width="250" zoomAndPan="magnify" viewBox="0 0 187.5 187.499992" height="250" preserveAspectRatio="xMidYMid meet" version="1.0"><defs><g/><clipPath id="id1"><path d="M 0 0 L 187 0 L 187 187 L 0 187 Z M 0 0 " clip-rule="nonzero"/></clipPath><clipPath id="id2"><path d="M 69.378906 40.246094 L 82 40.246094 L 82 53 L 69.378906 53 Z M 69.378906 40.246094 " clip-rule="nonzero"/></clipPath><clipPath id="id3"><path d="M 81 40.246094 L 121.128906 40.246094 L 121.128906 53 L 81 53 Z M 81 40.246094 " clip-rule="nonzero"/></clipPath><clipPath id="id4"><path d="M 69.378906 51 L 117 51 L 117 101.746094 L 69.378906 101.746094 Z M 69.378906 51 " clip-rule="nonzero"/></clipPath></defs><g clip-path="url(#id1)"><path fill="#ffffff" d="M 0 0 L 187.5 0 L 187.5 195 L 0 195 Z M 0 0 " fill-opacity="1" fill-rule="nonzero"/><path fill="#ffffff" d="M 0 0 L 187.5 0 L 187.5 187.5 L 0 187.5 Z M 0 0 " fill-opacity="1" fill-rule="nonzero"/><path fill="#ffffff" d="M 0 0 L 187.5 0 L 187.5 187.5 L 0 187.5 Z M 0 0 " fill-opacity="1" fill-rule="nonzero"/><path fill="#ffffff" d="M 0 0 L 187.5 0 L 187.5 187.5 L 0 187.5 Z M 0 0 " fill-opacity="1" fill-rule="nonzero"/></g><path fill="#744723" d="M 92.902344 58.492188 L 91.238281 60.164062 L 92.902344 61.835938 L 94.5625 60.164062 L 92.902344 58.492188 " fill-opacity="1" fill-rule="nonzero"/><path fill="#744723" d="M 104.542969 73.523438 L 106.207031 71.855469 L 104.542969 70.183594 L 102.878906 71.855469 L 104.542969 73.523438 " fill-opacity="1" fill-rule="nonzero"/><path fill="#744723" d="M 81.257812 70.183594 L 79.59375 71.855469 L 81.257812 73.523438 L 82.921875 71.855469 L 81.257812 70.183594 " fill-opacity="1" fill-rule="nonzero"/><g clip-path="url(#id2)"><path fill="#744723" d="M 71.730469 46.195312 C 71.730469 44.242188 73.3125 42.652344 75.257812 42.652344 C 77.203125 42.652344 78.785156 44.242188 78.785156 46.195312 C 78.785156 48.148438 77.203125 49.738281 75.257812 49.738281 C 73.3125 49.738281 71.730469 48.148438 71.730469 46.195312 Z M 81.140625 46.195312 C 81.140625 42.941406 78.5 40.289062 75.257812 40.289062 C 72.015625 40.289062 69.378906 42.941406 69.378906 46.195312 C 69.378906 49.449219 72.015625 52.101562 75.257812 52.101562 C 78.5 52.101562 81.140625 49.449219 81.140625 46.195312 " fill-opacity="1" fill-rule="nonzero"/></g><path fill="#744723" d="M 76.433594 46.195312 C 76.433594 45.542969 75.90625 45.015625 75.257812 45.015625 C 74.609375 45.015625 74.082031 45.542969 74.082031 46.195312 C 74.082031 46.847656 74.609375 47.375 75.257812 47.375 C 75.90625 47.375 76.433594 46.847656 76.433594 46.195312 " fill-opacity="1" fill-rule="nonzero"/><g clip-path="url(#id3)"><path fill="#744723" d="M 81.011719 52.101562 L 115.246094 52.101562 C 118.488281 52.101562 121.128906 49.449219 121.128906 46.195312 C 121.128906 42.941406 118.488281 40.289062 115.246094 40.289062 L 81.011719 40.289062 C 82.539062 41.792969 83.492188 43.882812 83.492188 46.195312 C 83.492188 48.507812 82.539062 50.597656 81.011719 52.101562 " fill-opacity="1" fill-rule="nonzero"/></g><path fill="#744723" d="M 78.785156 86.347656 L 78.785156 83.984375 L 81.140625 83.984375 L 81.140625 86.347656 Z M 88.742188 82.710938 L 91.238281 80.207031 L 84.585938 73.523438 L 82.089844 76.03125 C 81.867188 76.25 81.570312 76.375 81.257812 76.375 C 80.945312 76.375 80.648438 76.25 80.425781 76.03125 L 77.097656 72.691406 C 76.878906 72.46875 76.753906 72.167969 76.753906 71.855469 C 76.753906 71.542969 76.878906 71.242188 77.097656 71.019531 L 80.425781 67.679688 C 80.886719 67.21875 81.628906 67.21875 82.089844 67.679688 L 84.585938 70.183594 L 91.238281 63.503906 L 88.742188 61 C 88.523438 60.777344 88.398438 60.476562 88.398438 60.164062 C 88.398438 59.851562 88.523438 59.550781 88.742188 59.328125 L 92.070312 55.988281 C 92.527344 55.527344 93.273438 55.527344 93.730469 55.988281 L 97.058594 59.328125 C 97.28125 59.550781 97.402344 59.851562 97.402344 60.164062 C 97.402344 60.476562 97.28125 60.777344 97.058594 61 L 94.5625 63.503906 L 101.21875 70.183594 L 103.710938 67.679688 C 104.171875 67.21875 104.917969 67.21875 105.375 67.679688 L 108.703125 71.019531 C 108.921875 71.242188 109.046875 71.542969 109.046875 71.855469 C 109.046875 72.167969 108.921875 72.46875 108.703125 72.691406 L 105.375 76.03125 C 105.15625 76.25 104.855469 76.375 104.542969 76.375 C 104.230469 76.375 103.933594 76.25 103.710938 76.03125 L 101.21875 73.523438 L 94.5625 80.207031 L 97.058594 82.710938 C 97.28125 82.933594 97.402344 83.234375 97.402344 83.546875 C 97.402344 83.859375 97.28125 84.160156 97.058594 84.378906 L 93.730469 87.722656 C 93.273438 88.183594 92.527344 88.183594 92.070312 87.722656 L 88.742188 84.378906 C 88.523438 84.160156 88.398438 83.859375 88.398438 83.546875 C 88.398438 83.234375 88.523438 82.933594 88.742188 82.710938 Z M 83.492188 81.625 L 83.492188 79.261719 L 85.84375 79.261719 L 85.84375 81.625 Z M 83.492188 63.910156 L 83.492188 61.546875 L 85.84375 61.546875 L 85.84375 63.910156 Z M 78.785156 59.1875 L 78.785156 56.824219 L 81.140625 56.824219 L 81.140625 59.1875 Z M 107.015625 56.824219 L 107.015625 59.1875 L 104.660156 59.1875 L 104.660156 56.824219 Z M 102.308594 61.546875 L 102.308594 63.910156 L 99.957031 63.910156 L 99.957031 61.546875 Z M 102.308594 79.261719 L 102.308594 81.625 L 99.957031 81.625 L 99.957031 79.261719 Z M 107.015625 82.804688 L 107.015625 85.167969 L 104.660156 85.167969 L 104.660156 82.804688 Z M 79.863281 91.070312 L 105.9375 91.070312 C 106.433594 88.109375 108.769531 85.765625 111.71875 85.265625 L 111.71875 54.460938 L 75.257812 54.460938 C 74.859375 54.460938 74.464844 54.433594 74.082031 54.375 L 74.082031 85.265625 C 77.03125 85.765625 79.367188 88.109375 79.863281 91.070312 " fill-opacity="1" fill-rule="nonzero"/><path fill="#744723" d="M 94.5625 83.546875 L 92.902344 81.875 L 91.238281 83.546875 L 92.902344 85.214844 L 94.5625 83.546875 " fill-opacity="1" fill-rule="nonzero"/><path fill="#744723" d="M 91.238281 71.855469 L 92.902344 70.183594 L 94.5625 71.855469 L 92.902344 73.523438 Z M 92.902344 65.175781 L 86.246094 71.855469 L 92.902344 78.535156 L 99.554688 71.855469 L 92.902344 65.175781 " fill-opacity="1" fill-rule="nonzero"/><g clip-path="url(#id4)"><path fill="#744723" d="M 106.71875 97.9375 C 106.1875 98.3125 105.839844 98.929688 105.839844 99.632812 C 105.839844 100.773438 106.761719 101.699219 107.894531 101.699219 C 109.03125 101.699219 109.953125 100.773438 109.953125 99.632812 C 109.953125 98.929688 109.605469 98.3125 109.074219 97.9375 L 109.074219 95.796875 L 112.894531 95.796875 L 112.894531 97.9375 C 112.363281 98.3125 112.011719 98.929688 112.011719 99.632812 C 112.011719 100.773438 112.933594 101.699219 114.070312 101.699219 C 115.207031 101.699219 116.128906 100.773438 116.128906 99.632812 C 116.128906 98.929688 115.78125 98.3125 115.246094 97.9375 L 115.246094 95.796875 L 116.421875 95.796875 L 116.421875 54.375 C 116.039062 54.433594 115.648438 54.460938 115.246094 54.460938 L 114.070312 54.460938 L 114.070312 86.347656 C 114.070312 87 113.542969 87.527344 112.894531 87.527344 C 110.300781 87.527344 108.191406 89.648438 108.191406 92.253906 C 108.191406 92.90625 107.664062 93.433594 107.015625 93.433594 L 78.785156 93.433594 C 78.136719 93.433594 77.609375 92.90625 77.609375 92.253906 C 77.609375 89.648438 75.5 87.527344 72.90625 87.527344 C 72.257812 87.527344 71.730469 87 71.730469 86.347656 L 71.730469 53.664062 C 70.847656 53.242188 70.054688 52.667969 69.378906 51.972656 L 69.378906 95.796875 L 70.554688 95.796875 L 70.554688 97.9375 C 70.019531 98.3125 69.671875 98.929688 69.671875 99.632812 C 69.671875 100.773438 70.59375 101.699219 71.730469 101.699219 C 72.867188 101.699219 73.789062 100.773438 73.789062 99.632812 C 73.789062 98.929688 73.4375 98.3125 72.90625 97.9375 L 72.90625 95.796875 L 76.433594 95.796875 L 76.433594 97.9375 C 75.902344 98.3125 75.550781 98.929688 75.550781 99.632812 C 75.550781 100.773438 76.472656 101.699219 77.609375 101.699219 C 78.746094 101.699219 79.667969 100.773438 79.667969 99.632812 C 79.667969 98.929688 79.320312 98.3125 78.785156 97.9375 L 78.785156 95.796875 L 82.316406 95.796875 L 82.316406 97.9375 C 81.78125 98.3125 81.433594 98.929688 81.433594 99.632812 C 81.433594 100.773438 82.355469 101.699219 83.492188 101.699219 C 84.628906 101.699219 85.550781 100.773438 85.550781 99.632812 C 85.550781 98.929688 85.199219 98.3125 84.667969 97.9375 L 84.667969 95.796875 L 88.488281 95.796875 L 88.488281 97.9375 C 87.957031 98.3125 87.609375 98.929688 87.609375 99.632812 C 87.609375 100.773438 88.53125 101.699219 89.667969 101.699219 C 90.804688 101.699219 91.722656 100.773438 91.722656 99.632812 C 91.722656 98.929688 91.375 98.3125 90.84375 97.9375 L 90.84375 95.796875 L 94.957031 95.796875 L 94.957031 97.9375 C 94.425781 98.3125 94.078125 98.929688 94.078125 99.632812 C 94.078125 100.773438 95 101.699219 96.136719 101.699219 C 97.273438 101.699219 98.191406 100.773438 98.191406 99.632812 C 98.191406 98.929688 97.84375 98.3125 97.3125 97.9375 L 97.3125 95.796875 L 100.839844 95.796875 L 100.839844 97.9375 C 100.304688 98.3125 99.957031 98.929688 99.957031 99.632812 C 99.957031 100.773438 100.878906 101.699219 102.015625 101.699219 C 103.152344 101.699219 104.074219 100.773438 104.074219 99.632812 C 104.074219 98.929688 103.726562 98.3125 103.191406 97.9375 L 103.191406 95.796875 L 106.71875 95.796875 L 106.71875 97.9375 " fill-opacity="1" fill-rule="nonzero"/></g><g fill="#744723" fill-opacity="1"><g transform="translate(42.218934, 118.927252)"><g><path d="M 6.75 -1.054688 C 3.910156 -1.054688 1.835938 -3.535156 1.835938 -5.949219 C 1.835938 -8.347656 3.671875 -10.84375 6.75 -10.84375 C 9.605469 -10.84375 11.542969 -9.347656 11.542969 -7.90625 L 12.851562 -7.699219 C 12.851562 -10.402344 9.945312 -12.085938 6.800781 -12.085938 C 3.398438 -12.085938 0.542969 -9.332031 0.542969 -5.949219 C 0.542969 -2.566406 3.398438 0.1875 6.800781 0.1875 C 11.609375 0.1875 12.730469 -3.945312 12.730469 -3.945312 L 12.1875 -4.316406 C 12.1875 -4.316406 10.964844 -1.054688 6.75 -1.054688 Z M 6.75 -1.054688 "/></g></g></g><g fill="#744723" fill-opacity="1"><g transform="translate(55.5964, 118.927252)"><g><path d="M 10.164062 -1.511719 L 10.164062 -4.503906 C 10.164062 -6.121094 9.46875 -7.277344 8.601562 -8.039062 C 7.75 -8.824219 6.699219 -9.179688 5.234375 -9.179688 C 1.769531 -9.179688 1.257812 -6.222656 1.257812 -6.222656 L 1.800781 -5.863281 C 2.515625 -7.140625 3.144531 -7.9375 5.234375 -7.9375 C 7.445312 -7.9375 8.855469 -6.664062 8.855469 -4.503906 L 8.855469 -4.386719 C 8.125 -4.589844 5.660156 -5.152344 3.605469 -5.152344 C 1.921875 -5.152344 0.511719 -4.46875 0.511719 -2.957031 C 0.511719 -0.695312 3.144531 0.171875 5.234375 0.171875 C 6.765625 0.171875 7.988281 -0.527344 8.855469 -1.648438 L 8.992188 0.015625 L 11.304688 0.015625 C 11.304688 0.015625 10.164062 -0.492188 10.164062 -1.511719 Z M 5.234375 -1.070312 C 3.398438 -1.070312 1.800781 -1.613281 1.800781 -2.804688 C 1.800781 -5.03125 7.429688 -3.996094 8.769531 -3.738281 C 8.515625 -2.480469 7.242188 -1.070312 5.234375 -1.070312 Z M 5.234375 -1.070312 "/></g></g></g><g fill="#744723" fill-opacity="1"><g transform="translate(67.155074, 118.927252)"><g><path d="M 6.203125 -9.179688 C 4.589844 -9.179688 3.347656 -8.195312 2.617188 -6.714844 L 2.636719 -9.007812 L 0.476562 -9.007812 C 0.476562 -9.007812 1.308594 -8.5 1.308594 -7.480469 L 1.308594 -1.511719 C 1.308594 -0.492188 0.476562 0 0.476562 0 L 3.449219 0 C 3.449219 0 2.617188 -0.492188 2.617188 -1.511719 L 2.617188 -4.625 C 2.617188 -6.460938 3.976562 -7.9375 6.203125 -7.9375 C 7.460938 -7.9375 7.851562 -6.867188 7.851562 -5.066406 L 9.164062 -4.914062 C 9.09375 -7.277344 8.261719 -9.179688 6.203125 -9.179688 Z M 6.203125 -9.179688 "/></g></g></g><g fill="#744723" fill-opacity="1"><g transform="translate(76.724977, 118.927252)"><g><path d="M 6.136719 -9.179688 C 4.523438 -9.179688 3.265625 -8.175781 2.550781 -6.699219 L 2.550781 -9.007812 L 0.40625 -9.007812 C 0.40625 -9.007812 1.242188 -8.515625 1.242188 -7.496094 L 1.242188 2.449219 C 1.242188 3.46875 0.40625 3.960938 0.40625 3.960938 L 3.398438 3.960938 C 3.398438 3.960938 2.550781 3.449219 2.550781 2.449219 C 2.550781 1.222656 2.550781 -0.578125 2.550781 -2.3125 C 3.265625 -0.832031 4.523438 0.1875 6.136719 0.1875 C 8.480469 0.1875 10.539062 -1.921875 10.539062 -4.503906 C 10.539062 -7.089844 8.480469 -9.179688 6.136719 -9.179688 Z M 6.136719 -1.070312 C 3.738281 -1.070312 2.550781 -2.617188 2.550781 -4.503906 C 2.550781 -6.253906 3.722656 -7.9375 6.136719 -7.9375 C 7.71875 -7.9375 9.230469 -6.359375 9.230469 -4.503906 C 9.230469 -2.703125 7.769531 -1.070312 6.136719 -1.070312 Z M 6.136719 -1.070312 "/></g></g></g><g fill="#744723" fill-opacity="1"><g transform="translate(87.875698, 118.927252)"><g><path d="M 9.894531 -3.265625 C 9.894531 -3.265625 8.941406 -1.070312 5.863281 -1.070312 C 3.128906 -1.070312 1.886719 -3.007812 1.886719 -4.675781 C 2.566406 -4.523438 5.082031 -3.910156 7.140625 -3.910156 C 9.503906 -3.910156 10.234375 -5.203125 10.234375 -6.152344 C 10.234375 -7.105469 9.382812 -9.179688 5.507812 -9.179688 C 1.683594 -9.179688 0.59375 -6.390625 0.59375 -4.488281 C 0.59375 -3.144531 1.394531 0.171875 5.898438 0.171875 C 9.46875 0.171875 10.453125 -2.921875 10.453125 -2.921875 Z M 5.507812 -7.9375 C 7.851562 -7.9375 8.941406 -6.917969 8.941406 -6.203125 C 8.941406 -3.910156 2.90625 -5.152344 1.988281 -5.335938 C 2.242188 -6.613281 3.570312 -7.9375 5.507812 -7.9375 Z M 5.507812 -7.9375 "/></g></g></g><g fill="#744723" fill-opacity="1"><g transform="translate(98.907435, 118.927252)"><g><path d="M 4.828125 -7.9375 L 5.660156 -9.007812 L 2.652344 -9.007812 L 2.652344 -11.832031 L 1.34375 -11.832031 L 1.34375 -9.007812 L 0.511719 -9.007812 L 0.511719 -7.9375 L 1.34375 -7.9375 L 1.34375 0 L 3.46875 0 C 3.46875 0 2.636719 -0.492188 2.636719 -1.511719 L 2.636719 -7.9375 Z M 4.828125 -7.9375 "/></g></g></g><g fill="#744723" fill-opacity="1"><g transform="translate(104.669775, 118.927252)"><g/></g></g><g fill="#744723" fill-opacity="1"><g transform="translate(109.769193, 118.927252)"><g><path d="M 6.816406 -10.828125 C 9.636719 -10.828125 11.796875 -8.535156 11.796875 -5.933594 C 11.796875 -3.382812 9.636719 -1.054688 6.816406 -1.054688 C 3.976562 -1.054688 1.835938 -3.382812 1.835938 -5.933594 C 1.835938 -8.535156 3.996094 -10.828125 6.816406 -10.828125 Z M 0.542969 -5.933594 C 0.542969 -2.550781 3.433594 0.1875 6.816406 0.1875 C 10.199219 0.1875 13.089844 -2.550781 13.089844 -5.933594 C 13.089844 -9.316406 10.199219 -12.070312 6.816406 -12.070312 C 3.433594 -12.070312 0.542969 -9.316406 0.542969 -5.933594 Z M 0.542969 -5.933594 "/></g></g></g><g fill="#744723" fill-opacity="1"><g transform="translate(123.418629, 118.927252)"><g><path d="M 7.445312 0 L 10.4375 0 C 10.4375 0 9.585938 -0.492188 9.585938 -1.511719 L 9.585938 -4.589844 C 9.570312 -7.140625 8.652344 -9.179688 6.171875 -9.179688 C 4.554688 -9.179688 3.332031 -8.195312 2.617188 -6.714844 L 2.617188 -9.007812 L 0.476562 -9.007812 C 0.476562 -9.007812 1.308594 -8.5 1.308594 -7.480469 L 1.308594 -1.511719 C 1.308594 -0.492188 0.476562 0 0.476562 0 L 3.449219 0 C 3.449219 0 2.601562 -0.492188 2.601562 -1.511719 L 2.617188 -4.625 C 2.617188 -6.410156 3.945312 -7.9375 6.171875 -7.9375 C 7.769531 -7.9375 8.296875 -6.476562 8.296875 -4.757812 L 8.296875 -1.511719 C 8.296875 -0.492188 7.445312 0 7.445312 0 Z M 7.445312 0 "/></g></g></g><g fill="#744723" fill-opacity="1"><g transform="translate(134.246386, 118.927252)"><g><path d="M 9.894531 -3.265625 C 9.894531 -3.265625 8.941406 -1.070312 5.863281 -1.070312 C 3.128906 -1.070312 1.886719 -3.007812 1.886719 -4.675781 C 2.566406 -4.523438 5.082031 -3.910156 7.140625 -3.910156 C 9.503906 -3.910156 10.234375 -5.203125 10.234375 -6.152344 C 10.234375 -7.105469 9.382812 -9.179688 5.507812 -9.179688 C 1.683594 -9.179688 0.59375 -6.390625 0.59375 -4.488281 C 0.59375 -3.144531 1.394531 0.171875 5.898438 0.171875 C 9.46875 0.171875 10.453125 -2.921875 10.453125 -2.921875 Z M 5.507812 -7.9375 C 7.851562 -7.9375 8.941406 -6.917969 8.941406 -6.203125 C 8.941406 -3.910156 2.90625 -5.152344 1.988281 -5.335938 C 2.242188 -6.613281 3.570312 -7.9375 5.507812 -7.9375 Z M 5.507812 -7.9375 "/></g></g></g><g fill="#744723" fill-opacity="1"><g transform="translate(65.838071, 129.502259)"><g><path d="M 1.9375 -3.109375 C 1.550781 -3.109375 1.253906 -2.984375 1.046875 -2.734375 C 0.835938 -2.492188 0.734375 -2.160156 0.734375 -1.734375 C 0.734375 -1.316406 0.84375 -0.976562 1.0625 -0.71875 C 1.28125 -0.457031 1.578125 -0.328125 1.953125 -0.328125 C 2.429688 -0.328125 2.796875 -0.566406 3.046875 -1.046875 L 3.421875 -0.859375 C 3.273438 -0.566406 3.070312 -0.34375 2.8125 -0.1875 C 2.5625 -0.03125 2.269531 0.046875 1.9375 0.046875 C 1.582031 0.046875 1.28125 -0.0234375 1.03125 -0.171875 C 0.78125 -0.316406 0.585938 -0.519531 0.453125 -0.78125 C 0.316406 -1.050781 0.25 -1.367188 0.25 -1.734375 C 0.25 -2.285156 0.394531 -2.710938 0.6875 -3.015625 C 0.988281 -3.328125 1.398438 -3.484375 1.921875 -3.484375 C 2.296875 -3.484375 2.601562 -3.410156 2.84375 -3.265625 C 3.09375 -3.128906 3.273438 -2.921875 3.390625 -2.640625 L 2.953125 -2.5 C 2.867188 -2.695312 2.738281 -2.847656 2.5625 -2.953125 C 2.382812 -3.054688 2.175781 -3.109375 1.9375 -3.109375 Z M 1.9375 -3.109375 "/></g></g></g><g fill="#744723" fill-opacity="1"><g transform="translate(69.447503, 129.502259)"><g><path d="M 2.84375 0 L 2.453125 -1 L 0.890625 -1 L 0.5 0 L 0.015625 0 L 1.40625 -3.4375 L 1.9375 -3.4375 L 3.328125 0 Z M 1.671875 -3.09375 L 1.65625 -3.015625 C 1.613281 -2.878906 1.550781 -2.707031 1.46875 -2.5 L 1.03125 -1.375 L 2.3125 -1.375 L 1.875 -2.5 C 1.832031 -2.613281 1.785156 -2.742188 1.734375 -2.890625 Z M 1.671875 -3.09375 "/></g></g></g><g fill="#744723" fill-opacity="1"><g transform="translate(72.781161, 129.502259)"><g><path d="M 2.84375 0 L 1.953125 -1.421875 L 0.875 -1.421875 L 0.875 0 L 0.40625 0 L 0.40625 -3.4375 L 2.03125 -3.4375 C 2.414062 -3.4375 2.710938 -3.347656 2.921875 -3.171875 C 3.140625 -3.003906 3.25 -2.765625 3.25 -2.453125 C 3.25 -2.203125 3.171875 -1.988281 3.015625 -1.8125 C 2.867188 -1.632812 2.664062 -1.523438 2.40625 -1.484375 L 3.375 0 Z M 2.78125 -2.453125 C 2.78125 -2.648438 2.707031 -2.800781 2.5625 -2.90625 C 2.425781 -3.007812 2.234375 -3.0625 1.984375 -3.0625 L 0.875 -3.0625 L 0.875 -1.796875 L 2 -1.796875 C 2.25 -1.796875 2.441406 -1.851562 2.578125 -1.96875 C 2.710938 -2.082031 2.78125 -2.242188 2.78125 -2.453125 Z M 2.78125 -2.453125 "/></g></g></g><g fill="#744723" fill-opacity="1"><g transform="translate(76.390593, 129.502259)"><g><path d="M 3.078125 -2.40625 C 3.078125 -2.082031 2.96875 -1.820312 2.75 -1.625 C 2.539062 -1.4375 2.253906 -1.34375 1.890625 -1.34375 L 0.875 -1.34375 L 0.875 0 L 0.40625 0 L 0.40625 -3.4375 L 1.859375 -3.4375 C 2.242188 -3.4375 2.539062 -3.34375 2.75 -3.15625 C 2.96875 -2.976562 3.078125 -2.726562 3.078125 -2.40625 Z M 2.609375 -2.40625 C 2.609375 -2.84375 2.335938 -3.0625 1.796875 -3.0625 L 0.875 -3.0625 L 0.875 -1.703125 L 1.828125 -1.703125 C 2.347656 -1.703125 2.609375 -1.9375 2.609375 -2.40625 Z M 2.609375 -2.40625 "/></g></g></g><g fill="#744723" fill-opacity="1"><g transform="translate(79.724251, 129.502259)"><g><path d="M 0.40625 0 L 0.40625 -3.4375 L 3.015625 -3.4375 L 3.015625 -3.0625 L 0.875 -3.0625 L 0.875 -1.953125 L 2.875 -1.953125 L 2.875 -1.578125 L 0.875 -1.578125 L 0.875 -0.375 L 3.125 -0.375 L 3.125 0 Z M 0.40625 0 "/></g></g></g><g fill="#744723" fill-opacity="1"><g transform="translate(83.057908, 129.502259)"><g><path d="M 1.765625 -3.0625 L 1.765625 0 L 1.296875 0 L 1.296875 -3.0625 L 0.109375 -3.0625 L 0.109375 -3.4375 L 2.9375 -3.4375 L 2.9375 -3.0625 Z M 1.765625 -3.0625 "/></g></g></g><g fill="#744723" fill-opacity="1"><g transform="translate(86.110917, 129.502259)"><g><path d="M 3.109375 -0.953125 C 3.109375 -0.628906 2.984375 -0.378906 2.734375 -0.203125 C 2.484375 -0.0351562 2.132812 0.046875 1.6875 0.046875 C 0.84375 0.046875 0.359375 -0.242188 0.234375 -0.828125 L 0.671875 -0.921875 C 0.722656 -0.710938 0.832031 -0.554688 1 -0.453125 C 1.175781 -0.359375 1.410156 -0.3125 1.703125 -0.3125 C 2.003906 -0.3125 2.234375 -0.363281 2.390625 -0.46875 C 2.554688 -0.570312 2.640625 -0.722656 2.640625 -0.921875 C 2.640625 -1.035156 2.613281 -1.125 2.5625 -1.1875 C 2.507812 -1.257812 2.4375 -1.316406 2.34375 -1.359375 C 2.257812 -1.410156 2.148438 -1.453125 2.015625 -1.484375 C 1.890625 -1.515625 1.75 -1.550781 1.59375 -1.59375 C 1.320312 -1.644531 1.113281 -1.703125 0.96875 -1.765625 C 0.832031 -1.828125 0.722656 -1.894531 0.640625 -1.96875 C 0.554688 -2.039062 0.492188 -2.125 0.453125 -2.21875 C 0.410156 -2.320312 0.390625 -2.441406 0.390625 -2.578125 C 0.390625 -2.867188 0.5 -3.09375 0.71875 -3.25 C 0.945312 -3.40625 1.269531 -3.484375 1.6875 -3.484375 C 2.082031 -3.484375 2.382812 -3.421875 2.59375 -3.296875 C 2.800781 -3.179688 2.945312 -2.984375 3.03125 -2.703125 L 2.5625 -2.625 C 2.507812 -2.800781 2.410156 -2.929688 2.265625 -3.015625 C 2.128906 -3.097656 1.9375 -3.140625 1.6875 -3.140625 C 1.414062 -3.140625 1.207031 -3.09375 1.0625 -3 C 0.914062 -2.90625 0.84375 -2.769531 0.84375 -2.59375 C 0.84375 -2.488281 0.867188 -2.398438 0.921875 -2.328125 C 0.984375 -2.265625 1.066406 -2.207031 1.171875 -2.15625 C 1.273438 -2.101562 1.484375 -2.046875 1.796875 -1.984375 C 1.898438 -1.953125 2.003906 -1.925781 2.109375 -1.90625 C 2.222656 -1.882812 2.328125 -1.851562 2.421875 -1.8125 C 2.515625 -1.78125 2.601562 -1.738281 2.6875 -1.6875 C 2.769531 -1.644531 2.84375 -1.585938 2.90625 -1.515625 C 2.96875 -1.453125 3.015625 -1.375 3.046875 -1.28125 C 3.085938 -1.1875 3.109375 -1.078125 3.109375 -0.953125 Z M 3.109375 -0.953125 "/></g></g></g><g fill="#744723" fill-opacity="1"><g transform="translate(89.444575, 129.502259)"><g/></g></g><g fill="#744723" fill-opacity="1"><g transform="translate(90.833195, 129.502259)"><g><path d="M 2.90625 0.03125 C 2.625 0.03125 2.382812 -0.0703125 2.1875 -0.28125 C 2.0625 -0.175781 1.921875 -0.09375 1.765625 -0.03125 C 1.609375 0.0195312 1.445312 0.046875 1.28125 0.046875 C 0.925781 0.046875 0.648438 -0.0351562 0.453125 -0.203125 C 0.265625 -0.367188 0.171875 -0.601562 0.171875 -0.90625 C 0.171875 -1.351562 0.453125 -1.703125 1.015625 -1.953125 C 0.960938 -2.054688 0.914062 -2.175781 0.875 -2.3125 C 0.832031 -2.445312 0.8125 -2.570312 0.8125 -2.6875 C 0.8125 -2.9375 0.882812 -3.125 1.03125 -3.25 C 1.1875 -3.382812 1.398438 -3.453125 1.671875 -3.453125 C 1.921875 -3.453125 2.117188 -3.390625 2.265625 -3.265625 C 2.421875 -3.148438 2.5 -2.984375 2.5 -2.765625 C 2.5 -2.578125 2.421875 -2.40625 2.265625 -2.25 C 2.117188 -2.101562 1.863281 -1.957031 1.5 -1.8125 C 1.675781 -1.476562 1.910156 -1.140625 2.203125 -0.796875 C 2.390625 -1.066406 2.53125 -1.398438 2.625 -1.796875 L 2.984375 -1.703125 C 2.878906 -1.296875 2.707031 -0.910156 2.46875 -0.546875 C 2.625 -0.390625 2.789062 -0.3125 2.96875 -0.3125 C 3.082031 -0.3125 3.175781 -0.328125 3.25 -0.359375 L 3.25 -0.03125 C 3.164062 0.0078125 3.050781 0.03125 2.90625 0.03125 Z M 2.125 -2.765625 C 2.125 -2.878906 2.082031 -2.972656 2 -3.046875 C 1.914062 -3.128906 1.804688 -3.171875 1.671875 -3.171875 C 1.515625 -3.171875 1.394531 -3.125 1.3125 -3.03125 C 1.226562 -2.945312 1.1875 -2.832031 1.1875 -2.6875 C 1.1875 -2.5 1.238281 -2.300781 1.34375 -2.09375 C 1.5625 -2.175781 1.71875 -2.25 1.8125 -2.3125 C 1.914062 -2.382812 1.992188 -2.457031 2.046875 -2.53125 C 2.097656 -2.601562 2.125 -2.679688 2.125 -2.765625 Z M 1.9375 -0.53125 C 1.613281 -0.90625 1.351562 -1.273438 1.15625 -1.640625 C 0.78125 -1.484375 0.59375 -1.238281 0.59375 -0.90625 C 0.59375 -0.707031 0.65625 -0.550781 0.78125 -0.4375 C 0.90625 -0.320312 1.078125 -0.265625 1.296875 -0.265625 C 1.410156 -0.265625 1.523438 -0.285156 1.640625 -0.328125 C 1.753906 -0.378906 1.851562 -0.445312 1.9375 -0.53125 Z M 1.9375 -0.53125 "/></g></g></g><g fill="#744723" fill-opacity="1"><g transform="translate(94.166853, 129.502259)"><g/></g></g><g fill="#744723" fill-opacity="1"><g transform="translate(95.555473, 129.502259)"><g><path d="M 0.875 -3.0625 L 0.875 -1.78125 L 2.796875 -1.78125 L 2.796875 -1.390625 L 0.875 -1.390625 L 0.875 0 L 0.40625 0 L 0.40625 -3.4375 L 2.859375 -3.4375 L 2.859375 -3.0625 Z M 0.875 -3.0625 "/></g></g></g><g fill="#744723" fill-opacity="1"><g transform="translate(98.608482, 129.502259)"><g><path d="M 0.40625 0 L 0.40625 -3.4375 L 0.875 -3.4375 L 0.875 -0.375 L 2.609375 -0.375 L 2.609375 0 Z M 0.40625 0 "/></g></g></g><g fill="#744723" fill-opacity="1"><g transform="translate(101.38816, 129.502259)"><g><path d="M 3.65625 -1.734375 C 3.65625 -1.378906 3.582031 -1.066406 3.4375 -0.796875 C 3.300781 -0.523438 3.101562 -0.316406 2.84375 -0.171875 C 2.59375 -0.0234375 2.289062 0.046875 1.9375 0.046875 C 1.582031 0.046875 1.273438 -0.0195312 1.015625 -0.15625 C 0.765625 -0.300781 0.570312 -0.507812 0.4375 -0.78125 C 0.300781 -1.050781 0.234375 -1.367188 0.234375 -1.734375 C 0.234375 -2.285156 0.382812 -2.710938 0.6875 -3.015625 C 0.988281 -3.328125 1.410156 -3.484375 1.953125 -3.484375 C 2.296875 -3.484375 2.597656 -3.414062 2.859375 -3.28125 C 3.117188 -3.144531 3.316406 -2.941406 3.453125 -2.671875 C 3.585938 -2.410156 3.65625 -2.097656 3.65625 -1.734375 Z M 3.171875 -1.734375 C 3.171875 -2.160156 3.0625 -2.492188 2.84375 -2.734375 C 2.632812 -2.984375 2.335938 -3.109375 1.953125 -3.109375 C 1.554688 -3.109375 1.25 -2.988281 1.03125 -2.75 C 0.8125 -2.507812 0.703125 -2.171875 0.703125 -1.734375 C 0.703125 -1.304688 0.8125 -0.960938 1.03125 -0.703125 C 1.25 -0.453125 1.550781 -0.328125 1.9375 -0.328125 C 2.332031 -0.328125 2.632812 -0.445312 2.84375 -0.6875 C 3.0625 -0.9375 3.171875 -1.285156 3.171875 -1.734375 Z M 3.171875 -1.734375 "/></g></g></g><g fill="#744723" fill-opacity="1"><g transform="translate(105.275803, 129.502259)"><g><path d="M 3.65625 -1.734375 C 3.65625 -1.378906 3.582031 -1.066406 3.4375 -0.796875 C 3.300781 -0.523438 3.101562 -0.316406 2.84375 -0.171875 C 2.59375 -0.0234375 2.289062 0.046875 1.9375 0.046875 C 1.582031 0.046875 1.273438 -0.0195312 1.015625 -0.15625 C 0.765625 -0.300781 0.570312 -0.507812 0.4375 -0.78125 C 0.300781 -1.050781 0.234375 -1.367188 0.234375 -1.734375 C 0.234375 -2.285156 0.382812 -2.710938 0.6875 -3.015625 C 0.988281 -3.328125 1.410156 -3.484375 1.953125 -3.484375 C 2.296875 -3.484375 2.597656 -3.414062 2.859375 -3.28125 C 3.117188 -3.144531 3.316406 -2.941406 3.453125 -2.671875 C 3.585938 -2.410156 3.65625 -2.097656 3.65625 -1.734375 Z M 3.171875 -1.734375 C 3.171875 -2.160156 3.0625 -2.492188 2.84375 -2.734375 C 2.632812 -2.984375 2.335938 -3.109375 1.953125 -3.109375 C 1.554688 -3.109375 1.25 -2.988281 1.03125 -2.75 C 0.8125 -2.507812 0.703125 -2.171875 0.703125 -1.734375 C 0.703125 -1.304688 0.8125 -0.960938 1.03125 -0.703125 C 1.25 -0.453125 1.550781 -0.328125 1.9375 -0.328125 C 2.332031 -0.328125 2.632812 -0.445312 2.84375 -0.6875 C 3.0625 -0.9375 3.171875 -1.285156 3.171875 -1.734375 Z M 3.171875 -1.734375 "/></g></g></g><g fill="#744723" fill-opacity="1"><g transform="translate(109.163446, 129.502259)"><g><path d="M 2.84375 0 L 1.953125 -1.421875 L 0.875 -1.421875 L 0.875 0 L 0.40625 0 L 0.40625 -3.4375 L 2.03125 -3.4375 C 2.414062 -3.4375 2.710938 -3.347656 2.921875 -3.171875 C 3.140625 -3.003906 3.25 -2.765625 3.25 -2.453125 C 3.25 -2.203125 3.171875 -1.988281 3.015625 -1.8125 C 2.867188 -1.632812 2.664062 -1.523438 2.40625 -1.484375 L 3.375 0 Z M 2.78125 -2.453125 C 2.78125 -2.648438 2.707031 -2.800781 2.5625 -2.90625 C 2.425781 -3.007812 2.234375 -3.0625 1.984375 -3.0625 L 0.875 -3.0625 L 0.875 -1.796875 L 2 -1.796875 C 2.25 -1.796875 2.441406 -1.851562 2.578125 -1.96875 C 2.710938 -2.082031 2.78125 -2.242188 2.78125 -2.453125 Z M 2.78125 -2.453125 "/></g></g></g><g fill="#744723" fill-opacity="1"><g transform="translate(112.772878, 129.502259)"><g><path d="M 0.46875 0 L 0.46875 -3.4375 L 0.921875 -3.4375 L 0.921875 0 Z M 0.46875 0 "/></g></g></g><g fill="#744723" fill-opacity="1"><g transform="translate(114.161498, 129.502259)"><g><path d="M 2.640625 0 L 0.796875 -2.9375 L 0.8125 -2.6875 L 0.828125 -2.28125 L 0.828125 0 L 0.40625 0 L 0.40625 -3.4375 L 0.953125 -3.4375 L 2.8125 -0.484375 C 2.789062 -0.804688 2.78125 -1.039062 2.78125 -1.1875 L 2.78125 -3.4375 L 3.203125 -3.4375 L 3.203125 0 Z M 2.640625 0 "/></g></g></g><g fill="#744723" fill-opacity="1"><g transform="translate(117.77093, 129.502259)"><g><path d="M 0.25 -1.734375 C 0.25 -2.296875 0.398438 -2.726562 0.703125 -3.03125 C 1.003906 -3.332031 1.425781 -3.484375 1.96875 -3.484375 C 2.34375 -3.484375 2.648438 -3.421875 2.890625 -3.296875 C 3.128906 -3.171875 3.3125 -2.96875 3.4375 -2.6875 L 3 -2.546875 C 2.894531 -2.742188 2.753906 -2.882812 2.578125 -2.96875 C 2.410156 -3.0625 2.203125 -3.109375 1.953125 -3.109375 C 1.554688 -3.109375 1.25 -2.988281 1.03125 -2.75 C 0.820312 -2.507812 0.71875 -2.171875 0.71875 -1.734375 C 0.71875 -1.296875 0.828125 -0.953125 1.046875 -0.703125 C 1.273438 -0.453125 1.585938 -0.328125 1.984375 -0.328125 C 2.210938 -0.328125 2.421875 -0.359375 2.609375 -0.421875 C 2.804688 -0.492188 2.96875 -0.585938 3.09375 -0.703125 L 3.09375 -1.328125 L 2.0625 -1.328125 L 2.0625 -1.71875 L 3.515625 -1.71875 L 3.515625 -0.53125 C 3.335938 -0.34375 3.113281 -0.195312 2.84375 -0.09375 C 2.582031 0 2.296875 0.046875 1.984375 0.046875 C 1.628906 0.046875 1.320312 -0.0195312 1.0625 -0.15625 C 0.800781 -0.300781 0.597656 -0.507812 0.453125 -0.78125 C 0.316406 -1.050781 0.25 -1.367188 0.25 -1.734375 Z M 0.25 -1.734375 "/></g></g></g></svg>