<svg xmlns="http://www.w3.org/2000/svg" xmlns:xlink="http://www.w3.org/1999/xlink" width="250" zoomAndPan="magnify" viewBox="0 0 187.5 187.499992" height="250" preserveAspectRatio="xMidYMid meet" version="1.0"><defs><g/><clipPath id="id1"><path d="M 0 0 L 187 0 L 187 187 L 0 187 Z M 0 0 " clip-rule="nonzero"/></clipPath><clipPath id="id2"><path d="M 84 97 L 91 97 L 91 105.453125 L 84 105.453125 Z M 84 97 " clip-rule="nonzero"/></clipPath><clipPath id="id3"><path d="M 96 97 L 104 97 L 104 105.453125 L 96 105.453125 Z M 96 97 " clip-rule="nonzero"/></clipPath><clipPath id="id4"><path d="M 79 49.953125 L 108 49.953125 L 108 78 L 79 78 Z M 79 49.953125 " clip-rule="nonzero"/></clipPath><clipPath id="id5"><path d="M 103 73 L 116.707031 73 L 116.707031 93 L 103 93 Z M 103 73 " clip-rule="nonzero"/></clipPath></defs><g clip-path="url(#id1)"><path fill="#ffffff" d="M 0 0 L 187.5 0 L 187.5 195 L 0 195 Z M 0 0 " fill-opacity="1" fill-rule="nonzero"/><path fill="#ffffff" d="M 0 0 L 187.5 0 L 187.5 187.5 L 0 187.5 Z M 0 0 " fill-opacity="1" fill-rule="nonzero"/><path fill="#ffffff" d="M 0 0 L 187.5 0 L 187.5 187.5 L 0 187.5 Z M 0 0 " fill-opacity="1" fill-rule="nonzero"/><path fill="#ffffff" d="M 0 0 L 187.5 0 L 187.5 187.5 L 0 187.5 Z M 0 0 " fill-opacity="1" fill-rule="nonzero"/></g><g clip-path="url(#id2)"><path fill="#eb5b60" d="M 90.214844 102.621094 L 89.144531 102.621094 L 89.144531 97.273438 L 87.296875 97.273438 L 87.296875 102.621094 L 87.117188 102.621094 C 86.878906 102.617188 84.789062 102.601562 84.101562 103.742188 C 83.953125 103.988281 84.03125 104.308594 84.277344 104.453125 C 84.359375 104.503906 84.453125 104.527344 84.542969 104.527344 C 84.722656 104.527344 84.890625 104.4375 84.992188 104.277344 C 85.230469 103.878906 86.078125 103.714844 86.699219 103.671875 C 86.460938 104.015625 86.316406 104.449219 86.363281 104.996094 C 86.386719 105.265625 86.613281 105.46875 86.878906 105.46875 C 86.894531 105.46875 86.910156 105.46875 86.925781 105.464844 C 87.210938 105.441406 87.425781 105.191406 87.398438 104.90625 C 87.332031 104.121094 88.066406 103.785156 88.507812 103.65625 L 90.210938 103.65625 C 90.496094 103.65625 90.730469 103.425781 90.730469 103.136719 C 90.734375 102.855469 90.5 102.621094 90.214844 102.621094 Z M 90.214844 102.621094 " fill-opacity="1" fill-rule="nonzero"/></g><g clip-path="url(#id3)"><path fill="#eb5b60" d="M 96.988281 102.621094 L 98.054688 102.621094 L 98.054688 97.273438 L 99.902344 97.273438 L 99.902344 102.621094 L 100.085938 102.621094 C 100.324219 102.617188 102.414062 102.601562 103.101562 103.742188 C 103.25 103.988281 103.167969 104.308594 102.925781 104.453125 C 102.839844 104.503906 102.75 104.527344 102.65625 104.527344 C 102.480469 104.527344 102.308594 104.4375 102.210938 104.277344 C 101.96875 103.878906 101.121094 103.714844 100.5 103.671875 C 100.742188 104.015625 100.886719 104.449219 100.835938 104.996094 C 100.8125 105.265625 100.589844 105.46875 100.320312 105.46875 C 100.304688 105.46875 100.292969 105.46875 100.277344 105.464844 C 99.988281 105.441406 99.777344 105.191406 99.804688 104.90625 C 99.871094 104.121094 99.132812 103.785156 98.691406 103.65625 L 96.992188 103.65625 C 96.703125 103.65625 96.472656 103.425781 96.472656 103.136719 C 96.464844 102.855469 96.699219 102.621094 96.988281 102.621094 Z M 96.988281 102.621094 " fill-opacity="1" fill-rule="nonzero"/></g><path fill="#fab526" d="M 109.894531 83.71875 C 109.894531 84.242188 109.871094 84.765625 109.816406 85.285156 C 109.765625 85.808594 109.6875 86.324219 109.585938 86.839844 C 109.484375 87.355469 109.355469 87.863281 109.203125 88.363281 C 109.050781 88.867188 108.871094 89.359375 108.671875 89.84375 C 108.46875 90.328125 108.242188 90.800781 107.996094 91.261719 C 107.746094 91.726562 107.476562 92.175781 107.183594 92.609375 C 106.890625 93.046875 106.578125 93.464844 106.242188 93.871094 C 105.910156 94.277344 105.554688 94.664062 105.183594 95.035156 C 104.8125 95.40625 104.421875 95.757812 104.011719 96.089844 C 103.605469 96.421875 103.183594 96.734375 102.746094 97.027344 C 102.308594 97.316406 101.855469 97.585938 101.390625 97.832031 C 100.925781 98.082031 100.449219 98.304688 99.964844 98.503906 C 99.476562 98.707031 98.980469 98.882812 98.476562 99.035156 C 97.972656 99.1875 97.460938 99.3125 96.945312 99.414062 C 96.429688 99.519531 95.910156 99.59375 95.382812 99.644531 C 94.859375 99.699219 94.335938 99.722656 93.808594 99.722656 C 93.28125 99.722656 92.753906 99.699219 92.230469 99.644531 C 91.707031 99.59375 91.1875 99.519531 90.667969 99.414062 C 90.152344 99.3125 89.640625 99.1875 89.136719 99.035156 C 88.632812 98.882812 88.136719 98.707031 87.652344 98.503906 C 87.164062 98.304688 86.6875 98.082031 86.222656 97.832031 C 85.757812 97.585938 85.308594 97.316406 84.871094 97.027344 C 84.433594 96.734375 84.007812 96.421875 83.601562 96.089844 C 83.195312 95.757812 82.804688 95.40625 82.433594 95.035156 C 82.058594 94.664062 81.707031 94.277344 81.371094 93.871094 C 81.039062 93.464844 80.722656 93.046875 80.429688 92.609375 C 80.140625 92.175781 79.867188 91.726562 79.621094 91.261719 C 79.371094 90.800781 79.144531 90.328125 78.945312 89.84375 C 78.742188 89.359375 78.566406 88.867188 78.414062 88.363281 C 78.261719 87.863281 78.132812 87.355469 78.03125 86.839844 C 77.925781 86.324219 77.847656 85.808594 77.796875 85.285156 C 77.746094 84.765625 77.71875 84.242188 77.71875 83.71875 C 77.71875 83.191406 77.746094 82.671875 77.796875 82.148438 C 77.847656 81.625 77.925781 81.109375 78.03125 80.59375 C 78.132812 80.082031 78.261719 79.574219 78.414062 79.070312 C 78.566406 78.570312 78.742188 78.078125 78.945312 77.59375 C 79.144531 77.109375 79.371094 76.632812 79.621094 76.171875 C 79.867188 75.710938 80.140625 75.261719 80.429688 74.824219 C 80.722656 74.390625 81.039062 73.96875 81.371094 73.5625 C 81.707031 73.15625 82.058594 72.769531 82.433594 72.398438 C 82.804688 72.027344 83.195312 71.675781 83.601562 71.34375 C 84.007812 71.011719 84.433594 70.699219 84.871094 70.410156 C 85.308594 70.117188 85.757812 69.847656 86.222656 69.601562 C 86.6875 69.355469 87.164062 69.128906 87.652344 68.929688 C 88.136719 68.730469 88.632812 68.554688 89.136719 68.402344 C 89.640625 68.25 90.152344 68.121094 90.667969 68.019531 C 91.1875 67.917969 91.707031 67.839844 92.230469 67.789062 C 92.753906 67.738281 93.28125 67.710938 93.808594 67.710938 C 94.335938 67.710938 94.859375 67.738281 95.382812 67.789062 C 95.910156 67.839844 96.429688 67.917969 96.945312 68.019531 C 97.460938 68.121094 97.972656 68.25 98.476562 68.402344 C 98.980469 68.554688 99.476562 68.730469 99.964844 68.929688 C 100.449219 69.128906 100.925781 69.355469 101.390625 69.601562 C 101.855469 69.847656 102.308594 70.117188 102.746094 70.410156 C 103.183594 70.699219 103.605469 71.011719 104.011719 71.34375 C 104.421875 71.675781 104.8125 72.027344 105.183594 72.398438 C 105.554688 72.769531 105.910156 73.15625 106.242188 73.5625 C 106.578125 73.96875 106.890625 74.390625 107.183594 74.824219 C 107.476562 75.261719 107.746094 75.710938 107.996094 76.171875 C 108.242188 76.632812 108.46875 77.109375 108.671875 77.59375 C 108.871094 78.078125 109.050781 78.570312 109.203125 79.070312 C 109.355469 79.574219 109.484375 80.082031 109.585938 80.59375 C 109.6875 81.109375 109.765625 81.625 109.816406 82.148438 C 109.871094 82.671875 109.894531 83.191406 109.894531 83.71875 Z M 109.894531 83.71875 " fill-opacity="1" fill-rule="nonzero"/><g clip-path="url(#id4)"><path fill="#ffd91d" d="M 107.765625 63.851562 C 107.765625 64.765625 107.679688 65.667969 107.5 66.5625 C 107.320312 67.457031 107.054688 68.324219 106.703125 69.167969 C 106.355469 70.007812 105.925781 70.808594 105.414062 71.566406 C 104.90625 72.328125 104.328125 73.027344 103.679688 73.671875 C 103.03125 74.316406 102.324219 74.894531 101.5625 75.398438 C 100.800781 75.90625 99.996094 76.335938 99.148438 76.683594 C 98.304688 77.03125 97.429688 77.296875 96.53125 77.472656 C 95.632812 77.652344 94.722656 77.742188 93.808594 77.742188 C 92.890625 77.742188 91.984375 77.652344 91.085938 77.472656 C 90.183594 77.296875 89.3125 77.03125 88.464844 76.683594 C 87.617188 76.335938 86.8125 75.90625 86.050781 75.398438 C 85.289062 74.894531 84.585938 74.316406 83.9375 73.671875 C 83.289062 73.027344 82.710938 72.328125 82.199219 71.566406 C 81.691406 70.808594 81.261719 70.007812 80.910156 69.167969 C 80.558594 68.324219 80.296875 67.457031 80.117188 66.5625 C 79.9375 65.667969 79.847656 64.765625 79.847656 63.851562 C 79.847656 62.941406 79.9375 62.035156 80.117188 61.140625 C 80.296875 60.246094 80.558594 59.378906 80.910156 58.535156 C 81.261719 57.695312 81.691406 56.894531 82.199219 56.136719 C 82.710938 55.378906 83.289062 54.675781 83.9375 54.03125 C 84.585938 53.386719 85.289062 52.808594 86.050781 52.304688 C 86.8125 51.796875 87.617188 51.367188 88.464844 51.019531 C 89.3125 50.671875 90.183594 50.40625 91.085938 50.230469 C 91.984375 50.050781 92.890625 49.960938 93.808594 49.960938 C 94.722656 49.960938 95.632812 50.050781 96.53125 50.230469 C 97.429688 50.40625 98.304688 50.671875 99.148438 51.019531 C 99.996094 51.367188 100.800781 51.796875 101.5625 52.304688 C 102.324219 52.808594 103.03125 53.386719 103.679688 54.03125 C 104.328125 54.675781 104.90625 55.378906 105.414062 56.136719 C 105.925781 56.894531 106.355469 57.695312 106.703125 58.535156 C 107.054688 59.378906 107.320312 60.246094 107.5 61.140625 C 107.679688 62.035156 107.765625 62.941406 107.765625 63.851562 Z M 107.765625 63.851562 " fill-opacity="1" fill-rule="nonzero"/></g><path fill="#ef808c" d="M 89.339844 67.714844 L 93.808594 64.90625 L 97.90625 67.714844 Z M 89.339844 67.714844 " fill-opacity="1" fill-rule="nonzero"/><path fill="#eb5b60" d="M 89.339844 67.714844 L 93.808594 70.453125 L 97.90625 67.714844 Z M 89.339844 67.714844 " fill-opacity="1" fill-rule="nonzero"/><path fill="#414343" d="M 89.339844 63.453125 C 89.339844 63.597656 89.308594 63.742188 89.253906 63.878906 C 89.195312 64.011719 89.117188 64.132812 89.011719 64.238281 C 88.90625 64.34375 88.785156 64.421875 88.648438 64.480469 C 88.511719 64.535156 88.367188 64.5625 88.21875 64.5625 C 88.074219 64.5625 87.929688 64.535156 87.792969 64.480469 C 87.65625 64.421875 87.535156 64.34375 87.429688 64.238281 C 87.324219 64.132812 87.246094 64.011719 87.1875 63.878906 C 87.132812 63.742188 87.101562 63.597656 87.101562 63.453125 C 87.101562 63.304688 87.132812 63.164062 87.1875 63.027344 C 87.246094 62.890625 87.324219 62.769531 87.429688 62.664062 C 87.535156 62.5625 87.65625 62.480469 87.792969 62.425781 C 87.929688 62.367188 88.074219 62.339844 88.21875 62.339844 C 88.367188 62.339844 88.511719 62.367188 88.648438 62.425781 C 88.785156 62.480469 88.90625 62.5625 89.011719 62.664062 C 89.117188 62.769531 89.195312 62.890625 89.253906 63.027344 C 89.308594 63.164062 89.339844 63.304688 89.339844 63.453125 Z M 89.339844 63.453125 " fill-opacity="1" fill-rule="nonzero"/><path fill="#414343" d="M 100.140625 63.453125 C 100.140625 63.597656 100.113281 63.742188 100.058594 63.878906 C 100 64.011719 99.921875 64.132812 99.816406 64.238281 C 99.710938 64.34375 99.589844 64.421875 99.453125 64.480469 C 99.316406 64.535156 99.171875 64.5625 99.023438 64.5625 C 98.875 64.5625 98.734375 64.535156 98.597656 64.480469 C 98.460938 64.421875 98.339844 64.34375 98.234375 64.238281 C 98.128906 64.132812 98.050781 64.011719 97.992188 63.878906 C 97.9375 63.742188 97.90625 63.597656 97.90625 63.453125 C 97.90625 63.304688 97.9375 63.164062 97.992188 63.027344 C 98.050781 62.890625 98.128906 62.769531 98.234375 62.664062 C 98.339844 62.5625 98.460938 62.480469 98.597656 62.425781 C 98.734375 62.367188 98.875 62.339844 99.023438 62.339844 C 99.171875 62.339844 99.316406 62.367188 99.453125 62.425781 C 99.589844 62.480469 99.710938 62.5625 99.816406 62.664062 C 99.921875 62.769531 100 62.890625 100.058594 63.027344 C 100.113281 63.164062 100.140625 63.304688 100.140625 63.453125 Z M 100.140625 63.453125 " fill-opacity="1" fill-rule="nonzero"/><path fill="#ffd91d" d="M 83.597656 82.234375 C 82.859375 87.523438 79.835938 93.171875 73.996094 92.402344 C 73.257812 92.304688 72.515625 92.066406 71.984375 91.550781 C 71.15625 90.742188 71.042969 89.40625 71.453125 88.328125 C 71.863281 87.25 72.703125 86.390625 73.59375 85.652344 C 72.023438 85.722656 70.960938 83.839844 71.269531 82.3125 C 71.582031 80.78125 72.789062 79.609375 73.976562 78.589844 C 75.148438 77.585938 76.363281 76.628906 77.617188 75.722656 C 78.644531 74.980469 81.4375 72.449219 82.292969 73.351562 C 83.117188 74.214844 83.488281 76.546875 83.644531 77.667969 C 83.832031 79.023438 83.820312 80.613281 83.597656 82.234375 Z M 83.597656 82.234375 " fill-opacity="1" fill-rule="nonzero"/><g clip-path="url(#id5)"><path fill="#ffd91d" d="M 104.066406 82.234375 C 104.804688 87.523438 107.828125 93.171875 113.667969 92.402344 C 114.402344 92.304688 115.148438 92.066406 115.679688 91.550781 C 116.503906 90.742188 116.617188 89.40625 116.210938 88.328125 C 115.800781 87.25 114.960938 86.390625 114.070312 85.652344 C 115.640625 85.722656 116.703125 83.839844 116.394531 82.3125 C 116.082031 80.78125 114.875 79.609375 113.6875 78.589844 C 112.515625 77.585938 111.300781 76.628906 110.046875 75.722656 C 109.019531 74.980469 106.226562 72.449219 105.367188 73.351562 C 104.546875 74.214844 104.175781 76.546875 104.019531 77.667969 C 103.832031 79.023438 103.84375 80.613281 104.066406 82.234375 Z M 104.066406 82.234375 " fill-opacity="1" fill-rule="nonzero"/></g><g fill="#fab526" fill-opacity="1"><g transform="translate(45.414205, 121.191163)"><g><path d="M 3.15625 -8.546875 C 3.195312 -8.222656 3.21875 -7.390625 3.21875 -6.046875 L 4.421875 -6.046875 C 5.066406 -6.046875 5.664062 -6.078125 6.21875 -6.140625 C 6.28125 -6.003906 6.3125 -5.789062 6.3125 -5.5 C 6.3125 -5.125 6.222656 -4.863281 6.046875 -4.71875 C 5.867188 -4.570312 5.5625 -4.5 5.125 -4.5 L 3.21875 -4.5 L 3.21875 -3.09375 C 3.21875 -1.914062 3.335938 -0.941406 3.578125 -0.171875 C 3.484375 -0.128906 3.289062 -0.0820312 3 -0.03125 C 2.707031 0.0195312 2.476562 0.046875 2.3125 0.046875 C 1.726562 0.046875 1.335938 -0.0546875 1.140625 -0.265625 C 0.941406 -0.472656 0.84375 -0.851562 0.84375 -1.40625 C 0.84375 -1.570312 0.847656 -1.859375 0.859375 -2.265625 C 0.867188 -2.671875 0.875 -3.054688 0.875 -3.421875 L 0.875 -6.453125 C 0.875 -7.804688 0.800781 -8.992188 0.65625 -10.015625 C 1.96875 -10.097656 3.300781 -10.140625 4.65625 -10.140625 C 6.125 -10.140625 7.078125 -10.0625 7.515625 -9.90625 C 7.703125 -9.832031 7.796875 -9.628906 7.796875 -9.296875 C 7.796875 -8.898438 7.738281 -8.550781 7.625 -8.25 C 6.945312 -8.46875 5.8125 -8.578125 4.21875 -8.578125 C 4.007812 -8.578125 3.65625 -8.566406 3.15625 -8.546875 Z M 3.15625 -8.546875 "/></g></g></g><g fill="#fab526" fill-opacity="1"><g transform="translate(53.211361, 121.191163)"><g><path d="M 1.953125 -4.78125 C 1.054688 -4.945312 0.609375 -5.328125 0.609375 -5.921875 C 0.609375 -6.328125 0.898438 -6.671875 1.484375 -6.953125 C 2.066406 -7.242188 2.769531 -7.390625 3.59375 -7.390625 C 4.65625 -7.390625 5.441406 -7.1875 5.953125 -6.78125 C 6.460938 -6.375 6.71875 -5.695312 6.71875 -4.75 C 6.71875 -4.675781 6.710938 -4.378906 6.703125 -3.859375 C 6.691406 -3.335938 6.6875 -2.945312 6.6875 -2.6875 C 6.6875 -1.519531 6.785156 -0.648438 6.984375 -0.078125 C 6.535156 0.046875 6.132812 0.109375 5.78125 0.109375 C 5.050781 0.109375 4.628906 -0.1875 4.515625 -0.78125 C 4.265625 -0.488281 3.945312 -0.257812 3.5625 -0.09375 C 3.1875 0.0703125 2.804688 0.15625 2.421875 0.15625 C 1.859375 0.15625 1.382812 -0.0234375 1 -0.390625 C 0.625 -0.753906 0.4375 -1.289062 0.4375 -2 C 0.4375 -2.5625 0.550781 -2.972656 0.78125 -3.234375 C 1.007812 -3.503906 1.320312 -3.707031 1.71875 -3.84375 C 2.488281 -4.082031 3.40625 -4.234375 4.46875 -4.296875 C 4.46875 -4.910156 4.394531 -5.34375 4.25 -5.59375 C 4.113281 -5.84375 3.832031 -5.96875 3.40625 -5.96875 C 3.144531 -5.96875 2.867188 -5.859375 2.578125 -5.640625 C 2.296875 -5.429688 2.085938 -5.144531 1.953125 -4.78125 Z M 4.453125 -3.203125 C 4.148438 -3.148438 3.914062 -3.101562 3.75 -3.0625 C 3.582031 -3.019531 3.40625 -2.957031 3.21875 -2.875 C 3.03125 -2.789062 2.898438 -2.675781 2.828125 -2.53125 C 2.753906 -2.394531 2.71875 -2.222656 2.71875 -2.015625 C 2.71875 -1.765625 2.773438 -1.578125 2.890625 -1.453125 C 3.015625 -1.328125 3.171875 -1.265625 3.359375 -1.265625 C 3.785156 -1.265625 4.140625 -1.390625 4.421875 -1.640625 C 4.410156 -1.734375 4.40625 -1.890625 4.40625 -2.109375 C 4.40625 -2.460938 4.421875 -2.828125 4.453125 -3.203125 Z M 4.453125 -3.203125 "/></g></g></g><g fill="#fab526" fill-opacity="1"><g transform="translate(60.733493, 121.191163)"><g><path d="M 4.6875 -4.9375 C 4.601562 -5.25 4.457031 -5.488281 4.25 -5.65625 C 4.050781 -5.832031 3.832031 -5.921875 3.59375 -5.921875 C 3.363281 -5.921875 3.164062 -5.859375 3 -5.734375 C 2.84375 -5.617188 2.765625 -5.441406 2.765625 -5.203125 C 2.765625 -4.960938 2.878906 -4.769531 3.109375 -4.625 C 3.347656 -4.488281 3.640625 -4.375 3.984375 -4.28125 C 4.328125 -4.195312 4.664062 -4.09375 5 -3.96875 C 5.34375 -3.84375 5.632812 -3.628906 5.875 -3.328125 C 6.113281 -3.035156 6.234375 -2.660156 6.234375 -2.203125 C 6.234375 -1.429688 5.925781 -0.84375 5.3125 -0.4375 C 4.695312 -0.0390625 3.972656 0.15625 3.140625 0.15625 C 2.878906 0.15625 2.617188 0.140625 2.359375 0.109375 C 2.109375 0.0859375 1.816406 0.0390625 1.484375 -0.03125 C 1.148438 -0.113281 0.882812 -0.25 0.6875 -0.4375 C 0.488281 -0.625 0.390625 -0.851562 0.390625 -1.125 C 0.390625 -1.675781 0.800781 -2.101562 1.625 -2.40625 C 1.726562 -2.039062 1.921875 -1.765625 2.203125 -1.578125 C 2.492188 -1.398438 2.796875 -1.3125 3.109375 -1.3125 C 3.785156 -1.3125 4.125 -1.550781 4.125 -2.03125 C 4.125 -2.269531 3.941406 -2.460938 3.578125 -2.609375 C 3.222656 -2.753906 2.832031 -2.875 2.40625 -2.96875 C 1.976562 -3.070312 1.582031 -3.289062 1.21875 -3.625 C 0.863281 -3.96875 0.6875 -4.425781 0.6875 -5 C 0.6875 -5.71875 0.992188 -6.296875 1.609375 -6.734375 C 2.222656 -7.171875 2.914062 -7.390625 3.6875 -7.390625 C 4.039062 -7.390625 4.394531 -7.347656 4.75 -7.265625 C 5.113281 -7.191406 5.441406 -7.046875 5.734375 -6.828125 C 6.035156 -6.609375 6.1875 -6.34375 6.1875 -6.03125 C 6.1875 -5.757812 6.0625 -5.523438 5.8125 -5.328125 C 5.5625 -5.128906 5.1875 -5 4.6875 -4.9375 Z M 4.6875 -4.9375 "/></g></g></g><g fill="#fab526" fill-opacity="1"><g transform="translate(67.371111, 121.191163)"><g><path d="M 1.484375 -2.765625 L 1.484375 -5.796875 C 0.953125 -5.785156 0.5 -5.753906 0.125 -5.703125 C 0.0390625 -5.921875 0 -6.132812 0 -6.34375 C 0 -6.9375 0.410156 -7.234375 1.234375 -7.234375 L 1.453125 -7.234375 C 1.421875 -7.859375 1.390625 -8.378906 1.359375 -8.796875 C 1.679688 -8.921875 2.050781 -8.984375 2.46875 -8.984375 C 2.738281 -8.984375 2.953125 -8.96875 3.109375 -8.9375 C 3.273438 -8.914062 3.429688 -8.832031 3.578125 -8.6875 C 3.722656 -8.550781 3.796875 -8.347656 3.796875 -8.078125 C 3.796875 -7.910156 3.78125 -7.625 3.75 -7.21875 C 4.800781 -7.21875 5.640625 -7.257812 6.265625 -7.34375 C 6.335938 -7.195312 6.375 -6.976562 6.375 -6.6875 C 6.375 -6.15625 6.070312 -5.867188 5.46875 -5.828125 C 5.082031 -5.804688 4.5 -5.796875 3.71875 -5.796875 C 3.6875 -4.796875 3.671875 -3.796875 3.671875 -2.796875 C 3.671875 -2.546875 3.675781 -2.351562 3.6875 -2.21875 C 3.695312 -2.09375 3.722656 -1.941406 3.765625 -1.765625 C 3.816406 -1.585938 3.898438 -1.457031 4.015625 -1.375 C 4.128906 -1.289062 4.28125 -1.25 4.46875 -1.25 C 4.96875 -1.25 5.375 -1.398438 5.6875 -1.703125 C 6.101562 -1.410156 6.3125 -1.113281 6.3125 -0.8125 C 6.3125 -0.519531 6.132812 -0.285156 5.78125 -0.109375 C 5.4375 0.0664062 5.015625 0.15625 4.515625 0.15625 C 3.410156 0.15625 2.628906 -0.0859375 2.171875 -0.578125 C 1.710938 -1.066406 1.484375 -1.796875 1.484375 -2.765625 Z M 1.484375 -2.765625 "/></g></g></g><g fill="#fab526" fill-opacity="1"><g transform="translate(73.889802, 121.191163)"><g><path d="M 5.59375 -7.390625 C 6.007812 -7.390625 6.316406 -7.320312 6.515625 -7.1875 C 6.722656 -7.0625 6.828125 -6.847656 6.828125 -6.546875 C 6.828125 -6.367188 6.804688 -6.175781 6.765625 -5.96875 C 7.429688 -4.644531 7.890625 -3.390625 8.140625 -2.203125 C 8.742188 -4.078125 9.046875 -5.570312 9.046875 -6.6875 C 9.046875 -6.851562 9.03125 -7.007812 9 -7.15625 C 9.332031 -7.3125 9.6875 -7.390625 10.0625 -7.390625 C 10.476562 -7.390625 10.785156 -7.320312 10.984375 -7.1875 C 11.191406 -7.0625 11.296875 -6.847656 11.296875 -6.546875 C 11.296875 -5.960938 11.070312 -5.019531 10.625 -3.71875 C 10.175781 -2.425781 9.734375 -1.457031 9.296875 -0.8125 C 8.921875 -0.238281 8.351562 0.046875 7.59375 0.046875 C 7.269531 0.046875 6.953125 0 6.640625 -0.09375 C 6.453125 -1.050781 6.21875 -2.066406 5.9375 -3.140625 C 5.582031 -2.148438 5.210938 -1.375 4.828125 -0.8125 C 4.453125 -0.238281 3.882812 0.046875 3.125 0.046875 C 2.800781 0.046875 2.484375 0 2.171875 -0.09375 C 1.953125 -1.21875 1.59375 -2.5 1.09375 -3.9375 C 0.59375 -5.375 0.175781 -6.285156 -0.15625 -6.671875 C 0.3125 -7.097656 0.800781 -7.3125 1.3125 -7.3125 C 1.863281 -7.3125 2.269531 -7.003906 2.53125 -6.390625 C 2.988281 -5.015625 3.367188 -3.617188 3.671875 -2.203125 C 4.273438 -4.078125 4.578125 -5.570312 4.578125 -6.6875 C 4.578125 -6.851562 4.5625 -7.007812 4.53125 -7.15625 C 4.863281 -7.3125 5.21875 -7.390625 5.59375 -7.390625 Z M 5.59375 -7.390625 "/></g></g></g><g fill="#fab526" fill-opacity="1"><g transform="translate(85.507488, 121.191163)"><g><path d="M 1.953125 -4.78125 C 1.054688 -4.945312 0.609375 -5.328125 0.609375 -5.921875 C 0.609375 -6.328125 0.898438 -6.671875 1.484375 -6.953125 C 2.066406 -7.242188 2.769531 -7.390625 3.59375 -7.390625 C 4.65625 -7.390625 5.441406 -7.1875 5.953125 -6.78125 C 6.460938 -6.375 6.71875 -5.695312 6.71875 -4.75 C 6.71875 -4.675781 6.710938 -4.378906 6.703125 -3.859375 C 6.691406 -3.335938 6.6875 -2.945312 6.6875 -2.6875 C 6.6875 -1.519531 6.785156 -0.648438 6.984375 -0.078125 C 6.535156 0.046875 6.132812 0.109375 5.78125 0.109375 C 5.050781 0.109375 4.628906 -0.1875 4.515625 -0.78125 C 4.265625 -0.488281 3.945312 -0.257812 3.5625 -0.09375 C 3.1875 0.0703125 2.804688 0.15625 2.421875 0.15625 C 1.859375 0.15625 1.382812 -0.0234375 1 -0.390625 C 0.625 -0.753906 0.4375 -1.289062 0.4375 -2 C 0.4375 -2.5625 0.550781 -2.972656 0.78125 -3.234375 C 1.007812 -3.503906 1.320312 -3.707031 1.71875 -3.84375 C 2.488281 -4.082031 3.40625 -4.234375 4.46875 -4.296875 C 4.46875 -4.910156 4.394531 -5.34375 4.25 -5.59375 C 4.113281 -5.84375 3.832031 -5.96875 3.40625 -5.96875 C 3.144531 -5.96875 2.867188 -5.859375 2.578125 -5.640625 C 2.296875 -5.429688 2.085938 -5.144531 1.953125 -4.78125 Z M 4.453125 -3.203125 C 4.148438 -3.148438 3.914062 -3.101562 3.75 -3.0625 C 3.582031 -3.019531 3.40625 -2.957031 3.21875 -2.875 C 3.03125 -2.789062 2.898438 -2.675781 2.828125 -2.53125 C 2.753906 -2.394531 2.71875 -2.222656 2.71875 -2.015625 C 2.71875 -1.765625 2.773438 -1.578125 2.890625 -1.453125 C 3.015625 -1.328125 3.171875 -1.265625 3.359375 -1.265625 C 3.785156 -1.265625 4.140625 -1.390625 4.421875 -1.640625 C 4.410156 -1.734375 4.40625 -1.890625 4.40625 -2.109375 C 4.40625 -2.460938 4.421875 -2.828125 4.453125 -3.203125 Z M 4.453125 -3.203125 "/></g></g></g><g fill="#fab526" fill-opacity="1"><g transform="translate(93.02962, 121.191163)"><g><path d="M 6.28125 -7.390625 C 7.039062 -7.390625 7.421875 -7.132812 7.421875 -6.625 C 7.421875 -6.144531 7.238281 -5.332031 6.875 -4.1875 C 6.519531 -3.050781 6.09375 -1.957031 5.59375 -0.90625 C 4.875 0.59375 4.101562 1.9375 3.28125 3.125 C 2.976562 3.582031 2.625 3.8125 2.21875 3.8125 C 1.707031 3.8125 1.210938 3.5 0.734375 2.875 C 1.585938 2.238281 2.378906 1.34375 3.109375 0.1875 C 1.734375 -3.613281 0.695312 -5.851562 0 -6.53125 C 0.65625 -7.050781 1.222656 -7.3125 1.703125 -7.3125 C 1.929688 -7.3125 2.113281 -7.257812 2.25 -7.15625 C 2.394531 -7.050781 2.519531 -6.890625 2.625 -6.671875 C 2.78125 -6.316406 3.019531 -5.582031 3.34375 -4.46875 C 3.675781 -3.363281 3.929688 -2.394531 4.109375 -1.5625 C 4.378906 -2.394531 4.628906 -3.304688 4.859375 -4.296875 C 5.085938 -5.296875 5.203125 -6.015625 5.203125 -6.453125 C 5.203125 -6.703125 5.1875 -6.9375 5.15625 -7.15625 C 5.507812 -7.3125 5.882812 -7.390625 6.28125 -7.390625 Z M 6.28125 -7.390625 "/></g></g></g><g fill="#fab526" fill-opacity="1"><g transform="translate(100.745008, 121.191163)"><g/></g></g><g fill="#fab526" fill-opacity="1"><g transform="translate(104.52094, 121.191163)"><g><path d="M 8 -2.6875 C 8.769531 -2.34375 9.15625 -1.929688 9.15625 -1.453125 C 9.15625 -1.148438 9.03125 -0.882812 8.78125 -0.65625 C 8.53125 -0.4375 8.21875 -0.269531 7.84375 -0.15625 C 7.476562 -0.0507812 7.128906 0.0234375 6.796875 0.078125 C 6.460938 0.128906 6.160156 0.15625 5.890625 0.15625 C 5.222656 0.15625 4.585938 0.0664062 3.984375 -0.109375 C 3.390625 -0.285156 2.820312 -0.566406 2.28125 -0.953125 C 1.738281 -1.335938 1.300781 -1.878906 0.96875 -2.578125 C 0.644531 -3.285156 0.484375 -4.113281 0.484375 -5.0625 C 0.484375 -6.6875 0.96875 -7.957031 1.9375 -8.875 C 2.90625 -9.789062 4.210938 -10.25 5.859375 -10.25 C 6.742188 -10.25 7.488281 -10.085938 8.09375 -9.765625 C 8.695312 -9.453125 9 -9.0625 9 -8.59375 C 9 -8.238281 8.851562 -7.945312 8.5625 -7.71875 C 8.269531 -7.5 7.878906 -7.359375 7.390625 -7.296875 C 7.210938 -7.765625 6.9375 -8.113281 6.5625 -8.34375 C 6.1875 -8.582031 5.785156 -8.703125 5.359375 -8.703125 C 4.660156 -8.703125 4.082031 -8.382812 3.625 -7.75 C 3.175781 -7.113281 2.953125 -6.316406 2.953125 -5.359375 C 2.953125 -4.234375 3.179688 -3.289062 3.640625 -2.53125 C 4.109375 -1.769531 4.757812 -1.390625 5.59375 -1.390625 C 6.0625 -1.390625 6.507812 -1.492188 6.9375 -1.703125 C 7.375 -1.910156 7.726562 -2.238281 8 -2.6875 Z M 8 -2.6875 "/></g></g></g><g fill="#fab526" fill-opacity="1"><g transform="translate(114.094562, 121.191163)"><g><path d="M 1.828125 -11.328125 C 2.210938 -11.328125 2.507812 -11.257812 2.71875 -11.125 C 2.9375 -10.988281 3.046875 -10.726562 3.046875 -10.34375 C 3.046875 -10.28125 3.023438 -9.832031 2.984375 -9 C 2.953125 -8.164062 2.9375 -7.539062 2.9375 -7.125 L 2.9375 -6.453125 C 3.570312 -7.066406 4.300781 -7.375 5.125 -7.375 C 5.8125 -7.375 6.378906 -7.175781 6.828125 -6.78125 C 7.273438 -6.382812 7.5 -5.820312 7.5 -5.09375 C 7.5 -5.070312 7.488281 -4.703125 7.46875 -3.984375 C 7.457031 -3.273438 7.453125 -2.738281 7.453125 -2.375 C 7.453125 -1.5 7.535156 -0.757812 7.703125 -0.15625 C 7.265625 -0.0195312 6.820312 0.046875 6.375 0.046875 C 5.5625 0.046875 5.15625 -0.265625 5.15625 -0.890625 C 5.15625 -1.253906 5.171875 -1.925781 5.203125 -2.90625 C 5.242188 -3.882812 5.265625 -4.472656 5.265625 -4.671875 C 5.265625 -5.085938 5.175781 -5.398438 5 -5.609375 C 4.832031 -5.816406 4.617188 -5.921875 4.359375 -5.921875 C 3.929688 -5.921875 3.457031 -5.671875 2.9375 -5.171875 C 2.957031 -3.878906 2.96875 -2.941406 2.96875 -2.359375 C 2.96875 -1.460938 2.992188 -0.679688 3.046875 -0.015625 C 2.710938 0.015625 2.414062 0.03125 2.15625 0.03125 C 1.132812 0.03125 0.625 -0.210938 0.625 -0.703125 C 0.625 -0.742188 0.632812 -1.097656 0.65625 -1.765625 C 0.6875 -2.429688 0.703125 -3.125 0.703125 -3.84375 L 0.703125 -7.5625 C 0.703125 -9.007812 0.664062 -10.195312 0.59375 -11.125 C 0.976562 -11.257812 1.390625 -11.328125 1.828125 -11.328125 Z M 1.828125 -11.328125 "/></g></g></g><g fill="#fab526" fill-opacity="1"><g transform="translate(122.38972, 121.191163)"><g><path d="M 1.953125 -7.921875 C 1.566406 -7.921875 1.238281 -8.054688 0.96875 -8.328125 C 0.695312 -8.597656 0.5625 -8.9375 0.5625 -9.34375 C 0.5625 -9.75 0.703125 -10.085938 0.984375 -10.359375 C 1.265625 -10.628906 1.597656 -10.765625 1.984375 -10.765625 C 2.359375 -10.765625 2.679688 -10.628906 2.953125 -10.359375 C 3.222656 -10.085938 3.359375 -9.75 3.359375 -9.34375 C 3.359375 -8.945312 3.210938 -8.609375 2.921875 -8.328125 C 2.640625 -8.054688 2.316406 -7.921875 1.953125 -7.921875 Z M 1.984375 -7.28125 C 2.367188 -7.28125 2.664062 -7.210938 2.875 -7.078125 C 3.09375 -6.953125 3.203125 -6.695312 3.203125 -6.3125 C 3.203125 -6.25 3.179688 -5.800781 3.140625 -4.96875 C 3.109375 -4.132812 3.09375 -3.507812 3.09375 -3.09375 C 3.09375 -1.65625 3.179688 -0.675781 3.359375 -0.15625 C 2.929688 -0.0195312 2.507812 0.046875 2.09375 0.046875 C 1.613281 0.046875 1.28125 -0.0351562 1.09375 -0.203125 C 0.90625 -0.367188 0.8125 -0.613281 0.8125 -0.9375 C 0.8125 -1.101562 0.816406 -1.484375 0.828125 -2.078125 C 0.847656 -2.679688 0.859375 -3.160156 0.859375 -3.515625 C 0.859375 -4.972656 0.820312 -6.160156 0.75 -7.078125 C 1.132812 -7.210938 1.546875 -7.28125 1.984375 -7.28125 Z M 1.984375 -7.28125 "/></g></g></g><g fill="#fab526" fill-opacity="1"><g transform="translate(126.299444, 121.191163)"><g><path d="M 4.28125 -1.296875 C 4.59375 -1.296875 4.890625 -1.375 5.171875 -1.53125 C 5.453125 -1.6875 5.644531 -1.898438 5.75 -2.171875 C 6.195312 -2.015625 6.492188 -1.859375 6.640625 -1.703125 C 6.785156 -1.554688 6.859375 -1.375 6.859375 -1.15625 C 6.859375 -0.738281 6.613281 -0.414062 6.125 -0.1875 C 5.632812 0.0390625 5 0.15625 4.21875 0.15625 C 3.082031 0.15625 2.164062 -0.160156 1.46875 -0.796875 C 0.78125 -1.429688 0.4375 -2.316406 0.4375 -3.453125 C 0.4375 -4.128906 0.550781 -4.722656 0.78125 -5.234375 C 1.007812 -5.753906 1.304688 -6.164062 1.671875 -6.46875 C 2.035156 -6.78125 2.429688 -7.007812 2.859375 -7.15625 C 3.285156 -7.3125 3.71875 -7.390625 4.15625 -7.390625 C 4.800781 -7.390625 5.414062 -7.253906 6 -6.984375 C 6.582031 -6.722656 6.875 -6.363281 6.875 -5.90625 C 6.875 -5.28125 6.375 -4.90625 5.375 -4.78125 C 5.289062 -5.125 5.128906 -5.394531 4.890625 -5.59375 C 4.648438 -5.800781 4.390625 -5.90625 4.109375 -5.90625 C 3.734375 -5.90625 3.410156 -5.710938 3.140625 -5.328125 C 2.867188 -4.953125 2.734375 -4.394531 2.734375 -3.65625 C 2.734375 -2.082031 3.25 -1.296875 4.28125 -1.296875 Z M 4.28125 -1.296875 "/></g></g></g><g fill="#fab526" fill-opacity="1"><g transform="translate(133.561429, 121.191163)"><g><path d="M 2.9375 -6.140625 C 3.789062 -6.953125 4.671875 -7.359375 5.578125 -7.359375 C 6.109375 -7.359375 6.5625 -7.175781 6.9375 -6.8125 C 7.3125 -6.457031 7.5 -6.003906 7.5 -5.453125 C 7.5 -4.921875 7.320312 -4.421875 6.96875 -3.953125 C 6.625 -3.492188 6.128906 -3.21875 5.484375 -3.125 C 5.878906 -2.363281 6.175781 -1.863281 6.375 -1.625 C 6.59375 -1.375 6.867188 -1.25 7.203125 -1.25 C 7.441406 -1.25 7.722656 -1.296875 8.046875 -1.390625 C 8.171875 -1.117188 8.234375 -0.882812 8.234375 -0.6875 C 8.234375 -0.425781 8.066406 -0.21875 7.734375 -0.0625 C 7.398438 0.0820312 7.054688 0.15625 6.703125 0.15625 C 6.304688 0.15625 5.992188 0.117188 5.765625 0.046875 C 5.546875 -0.0234375 5.328125 -0.171875 5.109375 -0.390625 C 4.679688 -0.835938 4.1875 -1.710938 3.625 -3.015625 C 3.394531 -3.066406 3.28125 -3.203125 3.28125 -3.421875 C 3.28125 -3.554688 3.335938 -3.769531 3.453125 -4.0625 C 3.660156 -4.03125 3.859375 -4.015625 4.046875 -4.015625 C 4.453125 -4.015625 4.765625 -4.125 4.984375 -4.34375 C 5.203125 -4.570312 5.3125 -4.832031 5.3125 -5.125 C 5.3125 -5.375 5.25 -5.566406 5.125 -5.703125 C 5 -5.835938 4.832031 -5.90625 4.625 -5.90625 C 4.15625 -5.90625 3.59375 -5.578125 2.9375 -4.921875 L 2.9375 -3.734375 C 2.9375 -2.273438 2.972656 -1.085938 3.046875 -0.171875 C 2.660156 -0.0351562 2.25 0.03125 1.8125 0.03125 C 1.425781 0.03125 1.125 -0.03125 0.90625 -0.15625 C 0.695312 -0.289062 0.59375 -0.550781 0.59375 -0.9375 C 0.59375 -1 0.609375 -1.445312 0.640625 -2.28125 C 0.679688 -3.113281 0.703125 -3.738281 0.703125 -4.15625 L 0.703125 -7.5625 C 0.703125 -9.007812 0.664062 -10.195312 0.59375 -11.125 C 0.976562 -11.257812 1.390625 -11.328125 1.828125 -11.328125 C 2.210938 -11.328125 2.507812 -11.257812 2.71875 -11.125 C 2.9375 -10.988281 3.046875 -10.726562 3.046875 -10.34375 C 3.046875 -10.269531 3.035156 -10.023438 3.015625 -9.609375 C 2.992188 -9.191406 2.972656 -8.660156 2.953125 -8.015625 C 2.941406 -7.367188 2.9375 -6.742188 2.9375 -6.140625 Z M 2.9375 -6.140625 "/></g></g></g><g fill="#fab526" fill-opacity="1"><g transform="translate(44.246393, 132.169985)"><g><path d="M 0.234375 -0.265625 L 0.625 -0.265625 L 0.625 -2.171875 L 0.234375 -2.171875 L 0.234375 -2.4375 L 0.625 -2.4375 L 0.625 -3.359375 C 0.625 -3.597656 0.65625 -3.804688 0.71875 -3.984375 C 0.789062 -4.171875 0.882812 -4.328125 1 -4.453125 C 1.125 -4.585938 1.269531 -4.6875 1.4375 -4.75 C 1.601562 -4.8125 1.78125 -4.847656 1.96875 -4.859375 L 1.96875 -4.609375 C 1.820312 -4.597656 1.679688 -4.5625 1.546875 -4.5 C 1.410156 -4.445312 1.296875 -4.367188 1.203125 -4.265625 C 1.109375 -4.160156 1.03125 -4.03125 0.96875 -3.875 C 0.914062 -3.726562 0.890625 -3.554688 0.890625 -3.359375 L 0.890625 -2.4375 L 1.703125 -2.4375 L 1.703125 -2.171875 L 0.890625 -2.171875 L 0.890625 -0.265625 L 1.484375 -0.265625 L 1.484375 0 L 0.234375 0 Z M 0.234375 -0.265625 "/></g></g></g><g fill="#fab526" fill-opacity="1"><g transform="translate(46.213465, 132.169985)"><g><path d="M 0.234375 -0.265625 L 0.734375 -0.265625 L 0.734375 -2.171875 L 0.265625 -2.171875 L 0.265625 -2.4375 L 0.953125 -2.4375 L 0.953125 -2.203125 C 0.960938 -2.128906 0.96875 -2.0625 0.96875 -2 C 0.976562 -1.9375 0.984375 -1.867188 0.984375 -1.796875 C 1.078125 -2.015625 1.21875 -2.179688 1.40625 -2.296875 C 1.601562 -2.421875 1.800781 -2.484375 2 -2.484375 L 1.984375 -2.21875 C 1.847656 -2.21875 1.71875 -2.191406 1.59375 -2.140625 C 1.476562 -2.097656 1.375 -2.035156 1.28125 -1.953125 C 1.195312 -1.878906 1.128906 -1.785156 1.078125 -1.671875 C 1.023438 -1.566406 1 -1.453125 1 -1.328125 L 1 -0.265625 L 1.484375 -0.265625 L 1.484375 0 L 0.234375 0 Z M 0.234375 -0.265625 "/></g></g></g><g fill="#fab526" fill-opacity="1"><g transform="translate(48.446708, 132.169985)"><g><path d="M 0.234375 -0.265625 L 0.71875 -0.265625 L 0.71875 -2.171875 L 0.234375 -2.171875 L 0.234375 -2.4375 L 1 -2.4375 L 1 -0.265625 L 1.484375 -0.265625 L 1.484375 0 L 0.234375 0 Z M 0.65625 -3.296875 C 0.65625 -3.359375 0.675781 -3.410156 0.71875 -3.453125 C 0.757812 -3.492188 0.8125 -3.515625 0.875 -3.515625 C 0.925781 -3.515625 0.972656 -3.492188 1.015625 -3.453125 C 1.054688 -3.410156 1.078125 -3.359375 1.078125 -3.296875 C 1.078125 -3.234375 1.054688 -3.179688 1.015625 -3.140625 C 0.972656 -3.097656 0.925781 -3.078125 0.875 -3.078125 C 0.8125 -3.078125 0.757812 -3.097656 0.71875 -3.140625 C 0.675781 -3.179688 0.65625 -3.234375 0.65625 -3.296875 Z M 0.65625 -3.296875 "/></g></g></g><g fill="#fab526" fill-opacity="1"><g transform="translate(50.154097, 132.169985)"><g><path d="M 1.5 -2.21875 C 1.34375 -2.21875 1.195312 -2.179688 1.0625 -2.109375 C 0.925781 -2.046875 0.8125 -1.957031 0.71875 -1.84375 C 0.632812 -1.738281 0.570312 -1.613281 0.53125 -1.46875 C 0.5 -1.332031 0.5 -1.1875 0.53125 -1.03125 C 0.8125 -1.144531 1.097656 -1.257812 1.390625 -1.375 C 1.679688 -1.488281 1.972656 -1.601562 2.265625 -1.71875 C 2.191406 -1.863281 2.085938 -1.984375 1.953125 -2.078125 C 1.816406 -2.171875 1.664062 -2.21875 1.5 -2.21875 Z M 2.609375 -1.578125 C 2.273438 -1.441406 1.941406 -1.304688 1.609375 -1.171875 C 1.273438 -1.046875 0.941406 -0.914062 0.609375 -0.78125 C 0.679688 -0.613281 0.796875 -0.476562 0.953125 -0.375 C 1.109375 -0.269531 1.289062 -0.21875 1.5 -0.21875 C 1.632812 -0.21875 1.757812 -0.238281 1.875 -0.28125 C 1.988281 -0.332031 2.085938 -0.40625 2.171875 -0.5 C 2.203125 -0.457031 2.226562 -0.421875 2.25 -0.390625 C 2.28125 -0.359375 2.3125 -0.328125 2.34375 -0.296875 C 2.226562 -0.191406 2.097656 -0.109375 1.953125 -0.046875 C 1.816406 0.015625 1.664062 0.046875 1.5 0.046875 C 1.320312 0.046875 1.15625 0.015625 1 -0.046875 C 0.84375 -0.117188 0.707031 -0.210938 0.59375 -0.328125 C 0.476562 -0.441406 0.390625 -0.570312 0.328125 -0.71875 C 0.265625 -0.875 0.234375 -1.039062 0.234375 -1.21875 C 0.234375 -1.394531 0.265625 -1.554688 0.328125 -1.703125 C 0.390625 -1.859375 0.476562 -1.992188 0.59375 -2.109375 C 0.707031 -2.222656 0.84375 -2.3125 1 -2.375 C 1.15625 -2.445312 1.320312 -2.484375 1.5 -2.484375 C 1.625 -2.484375 1.742188 -2.457031 1.859375 -2.40625 C 1.984375 -2.363281 2.09375 -2.300781 2.1875 -2.21875 C 2.28125 -2.144531 2.363281 -2.050781 2.4375 -1.9375 C 2.519531 -1.832031 2.578125 -1.710938 2.609375 -1.578125 Z M 2.609375 -1.578125 "/></g></g></g><g fill="#fab526" fill-opacity="1"><g transform="translate(53.017058, 132.169985)"><g><path d="M 2.53125 -0.265625 C 2.53125 -0.316406 2.53125 -0.363281 2.53125 -0.40625 C 2.539062 -0.457031 2.546875 -0.507812 2.546875 -0.5625 C 2.515625 -0.488281 2.46875 -0.414062 2.40625 -0.34375 C 2.34375 -0.269531 2.265625 -0.203125 2.171875 -0.140625 C 2.085938 -0.0859375 1.988281 -0.0390625 1.875 0 C 1.757812 0.03125 1.632812 0.046875 1.5 0.046875 C 1.320312 0.046875 1.15625 0.015625 1 -0.046875 C 0.84375 -0.117188 0.707031 -0.210938 0.59375 -0.328125 C 0.476562 -0.441406 0.390625 -0.570312 0.328125 -0.71875 C 0.265625 -0.875 0.234375 -1.039062 0.234375 -1.21875 C 0.234375 -1.394531 0.265625 -1.554688 0.328125 -1.703125 C 0.390625 -1.859375 0.476562 -1.992188 0.59375 -2.109375 C 0.707031 -2.222656 0.84375 -2.3125 1 -2.375 C 1.15625 -2.445312 1.320312 -2.484375 1.5 -2.484375 C 1.625 -2.484375 1.738281 -2.460938 1.84375 -2.421875 C 1.957031 -2.390625 2.0625 -2.34375 2.15625 -2.28125 C 2.25 -2.226562 2.328125 -2.164062 2.390625 -2.09375 C 2.453125 -2.019531 2.5 -1.945312 2.53125 -1.875 C 2.53125 -1.957031 2.523438 -2.046875 2.515625 -2.140625 C 2.515625 -2.234375 2.515625 -2.320312 2.515625 -2.40625 L 2.515625 -4.609375 L 2.0625 -4.609375 L 2.0625 -4.859375 L 2.78125 -4.859375 L 2.78125 -0.265625 L 3.265625 -0.265625 L 3.265625 0 L 2.53125 0 Z M 0.5 -1.21875 C 0.5 -1.082031 0.523438 -0.953125 0.578125 -0.828125 C 0.628906 -0.703125 0.695312 -0.59375 0.78125 -0.5 C 0.875 -0.414062 0.984375 -0.347656 1.109375 -0.296875 C 1.234375 -0.242188 1.363281 -0.21875 1.5 -0.21875 C 1.644531 -0.21875 1.773438 -0.242188 1.890625 -0.296875 C 2.015625 -0.347656 2.125 -0.414062 2.21875 -0.5 C 2.3125 -0.59375 2.382812 -0.703125 2.4375 -0.828125 C 2.488281 -0.953125 2.515625 -1.082031 2.515625 -1.21875 C 2.515625 -1.351562 2.488281 -1.484375 2.4375 -1.609375 C 2.382812 -1.734375 2.3125 -1.835938 2.21875 -1.921875 C 2.125 -2.015625 2.015625 -2.085938 1.890625 -2.140625 C 1.773438 -2.191406 1.644531 -2.21875 1.5 -2.21875 C 1.363281 -2.21875 1.234375 -2.191406 1.109375 -2.140625 C 0.984375 -2.085938 0.875 -2.015625 0.78125 -1.921875 C 0.695312 -1.835938 0.628906 -1.734375 0.578125 -1.609375 C 0.523438 -1.484375 0.5 -1.351562 0.5 -1.21875 Z M 0.5 -1.21875 "/></g></g></g><g fill="#fab526" fill-opacity="1"><g transform="translate(56.509737, 132.169985)"><g/></g></g><g fill="#fab526" fill-opacity="1"><g transform="translate(58.457327, 132.169985)"><g><path d="M 2.296875 -0.234375 C 2.191406 -0.148438 2.070312 -0.0820312 1.9375 -0.03125 C 1.800781 0.0195312 1.65625 0.046875 1.5 0.046875 C 1.320312 0.046875 1.15625 0.015625 1 -0.046875 C 0.84375 -0.117188 0.707031 -0.210938 0.59375 -0.328125 C 0.476562 -0.441406 0.390625 -0.570312 0.328125 -0.71875 C 0.265625 -0.875 0.234375 -1.039062 0.234375 -1.21875 C 0.234375 -1.394531 0.265625 -1.554688 0.328125 -1.703125 C 0.390625 -1.859375 0.476562 -1.992188 0.59375 -2.109375 C 0.707031 -2.222656 0.84375 -2.3125 1 -2.375 C 1.15625 -2.445312 1.320312 -2.484375 1.5 -2.484375 C 1.65625 -2.484375 1.800781 -2.457031 1.9375 -2.40625 C 2.070312 -2.351562 2.195312 -2.285156 2.3125 -2.203125 L 2.3125 -1.5625 L 2.0625 -1.5625 L 2.0625 -2.046875 C 1.976562 -2.109375 1.890625 -2.148438 1.796875 -2.171875 C 1.703125 -2.203125 1.601562 -2.21875 1.5 -2.21875 C 1.351562 -2.21875 1.21875 -2.191406 1.09375 -2.140625 C 0.976562 -2.085938 0.875 -2.015625 0.78125 -1.921875 C 0.695312 -1.835938 0.628906 -1.734375 0.578125 -1.609375 C 0.523438 -1.484375 0.5 -1.351562 0.5 -1.21875 C 0.5 -1.082031 0.523438 -0.953125 0.578125 -0.828125 C 0.628906 -0.703125 0.695312 -0.59375 0.78125 -0.5 C 0.875 -0.414062 0.976562 -0.347656 1.09375 -0.296875 C 1.21875 -0.242188 1.351562 -0.21875 1.5 -0.21875 C 1.75 -0.21875 1.960938 -0.289062 2.140625 -0.4375 Z M 2.296875 -0.234375 "/></g></g></g><g fill="#fab526" fill-opacity="1"><g transform="translate(60.995688, 132.169985)"><g><path d="M 2.0625 -0.265625 L 2.5625 -0.265625 L 2.5625 -1.6875 C 2.550781 -1.820312 2.5 -1.941406 2.40625 -2.046875 C 2.3125 -2.148438 2.175781 -2.207031 2 -2.21875 C 1.863281 -2.21875 1.734375 -2.191406 1.609375 -2.140625 C 1.492188 -2.097656 1.390625 -2.035156 1.296875 -1.953125 C 1.203125 -1.878906 1.128906 -1.789062 1.078125 -1.6875 C 1.023438 -1.582031 1 -1.460938 1 -1.328125 L 1 -0.265625 L 1.484375 -0.265625 L 1.484375 0 L 0.234375 0 L 0.234375 -0.265625 L 0.734375 -0.265625 L 0.734375 -4.609375 L 0.25 -4.609375 L 0.25 -4.859375 L 1 -4.859375 L 1 -2.09375 L 0.984375 -1.796875 C 1.066406 -2.003906 1.203125 -2.164062 1.390625 -2.28125 C 1.578125 -2.40625 1.796875 -2.472656 2.046875 -2.484375 C 2.285156 -2.484375 2.472656 -2.414062 2.609375 -2.28125 C 2.753906 -2.144531 2.828125 -1.96875 2.828125 -1.75 L 2.828125 -0.265625 L 3.3125 -0.265625 L 3.3125 0 L 2.0625 0 Z M 2.0625 -0.265625 "/></g></g></g><g fill="#fab526" fill-opacity="1"><g transform="translate(64.53381, 132.169985)"><g><path d="M 0.234375 -0.265625 L 0.71875 -0.265625 L 0.71875 -2.171875 L 0.234375 -2.171875 L 0.234375 -2.4375 L 1 -2.4375 L 1 -0.265625 L 1.484375 -0.265625 L 1.484375 0 L 0.234375 0 Z M 0.65625 -3.296875 C 0.65625 -3.359375 0.675781 -3.410156 0.71875 -3.453125 C 0.757812 -3.492188 0.8125 -3.515625 0.875 -3.515625 C 0.925781 -3.515625 0.972656 -3.492188 1.015625 -3.453125 C 1.054688 -3.410156 1.078125 -3.359375 1.078125 -3.296875 C 1.078125 -3.234375 1.054688 -3.179688 1.015625 -3.140625 C 0.972656 -3.097656 0.925781 -3.078125 0.875 -3.078125 C 0.8125 -3.078125 0.757812 -3.097656 0.71875 -3.140625 C 0.675781 -3.179688 0.65625 -3.234375 0.65625 -3.296875 Z M 0.65625 -3.296875 "/></g></g></g><g fill="#fab526" fill-opacity="1"><g transform="translate(66.241199, 132.169985)"><g><path d="M 2.296875 -0.234375 C 2.191406 -0.148438 2.070312 -0.0820312 1.9375 -0.03125 C 1.800781 0.0195312 1.65625 0.046875 1.5 0.046875 C 1.320312 0.046875 1.15625 0.015625 1 -0.046875 C 0.84375 -0.117188 0.707031 -0.210938 0.59375 -0.328125 C 0.476562 -0.441406 0.390625 -0.570312 0.328125 -0.71875 C 0.265625 -0.875 0.234375 -1.039062 0.234375 -1.21875 C 0.234375 -1.394531 0.265625 -1.554688 0.328125 -1.703125 C 0.390625 -1.859375 0.476562 -1.992188 0.59375 -2.109375 C 0.707031 -2.222656 0.84375 -2.3125 1 -2.375 C 1.15625 -2.445312 1.320312 -2.484375 1.5 -2.484375 C 1.65625 -2.484375 1.800781 -2.457031 1.9375 -2.40625 C 2.070312 -2.351562 2.195312 -2.285156 2.3125 -2.203125 L 2.3125 -1.5625 L 2.0625 -1.5625 L 2.0625 -2.046875 C 1.976562 -2.109375 1.890625 -2.148438 1.796875 -2.171875 C 1.703125 -2.203125 1.601562 -2.21875 1.5 -2.21875 C 1.351562 -2.21875 1.21875 -2.191406 1.09375 -2.140625 C 0.976562 -2.085938 0.875 -2.015625 0.78125 -1.921875 C 0.695312 -1.835938 0.628906 -1.734375 0.578125 -1.609375 C 0.523438 -1.484375 0.5 -1.351562 0.5 -1.21875 C 0.5 -1.082031 0.523438 -0.953125 0.578125 -0.828125 C 0.628906 -0.703125 0.695312 -0.59375 0.78125 -0.5 C 0.875 -0.414062 0.976562 -0.347656 1.09375 -0.296875 C 1.21875 -0.242188 1.351562 -0.21875 1.5 -0.21875 C 1.75 -0.21875 1.960938 -0.289062 2.140625 -0.4375 Z M 2.296875 -0.234375 "/></g></g></g><g fill="#fab526" fill-opacity="1"><g transform="translate(68.77956, 132.169985)"><g><path d="M 1.828125 -0.265625 L 2.140625 -0.265625 C 2.015625 -0.429688 1.890625 -0.597656 1.765625 -0.765625 C 1.640625 -0.941406 1.515625 -1.117188 1.390625 -1.296875 L 0.96875 -0.90625 L 0.96875 -0.265625 L 1.484375 -0.265625 L 1.484375 0 L 0.234375 0 L 0.234375 -0.265625 L 0.703125 -0.265625 L 0.703125 -4.609375 L 0.25 -4.609375 L 0.25 -4.859375 L 0.96875 -4.859375 L 0.96875 -1.234375 L 1.984375 -2.171875 L 1.59375 -2.171875 L 1.59375 -2.4375 L 2.78125 -2.4375 L 2.78125 -2.171875 L 2.328125 -2.171875 C 2.191406 -2.046875 2.066406 -1.925781 1.953125 -1.8125 C 1.847656 -1.707031 1.726562 -1.59375 1.59375 -1.46875 C 1.726562 -1.257812 1.867188 -1.054688 2.015625 -0.859375 C 2.171875 -0.660156 2.320312 -0.460938 2.46875 -0.265625 L 3.03125 -0.265625 L 3.03125 0 L 1.828125 0 Z M 1.828125 -0.265625 "/></g></g></g><g fill="#fab526" fill-opacity="1"><g transform="translate(72.045023, 132.169985)"><g><path d="M 1.5 -2.21875 C 1.34375 -2.21875 1.195312 -2.179688 1.0625 -2.109375 C 0.925781 -2.046875 0.8125 -1.957031 0.71875 -1.84375 C 0.632812 -1.738281 0.570312 -1.613281 0.53125 -1.46875 C 0.5 -1.332031 0.5 -1.1875 0.53125 -1.03125 C 0.8125 -1.144531 1.097656 -1.257812 1.390625 -1.375 C 1.679688 -1.488281 1.972656 -1.601562 2.265625 -1.71875 C 2.191406 -1.863281 2.085938 -1.984375 1.953125 -2.078125 C 1.816406 -2.171875 1.664062 -2.21875 1.5 -2.21875 Z M 2.609375 -1.578125 C 2.273438 -1.441406 1.941406 -1.304688 1.609375 -1.171875 C 1.273438 -1.046875 0.941406 -0.914062 0.609375 -0.78125 C 0.679688 -0.613281 0.796875 -0.476562 0.953125 -0.375 C 1.109375 -0.269531 1.289062 -0.21875 1.5 -0.21875 C 1.632812 -0.21875 1.757812 -0.238281 1.875 -0.28125 C 1.988281 -0.332031 2.085938 -0.40625 2.171875 -0.5 C 2.203125 -0.457031 2.226562 -0.421875 2.25 -0.390625 C 2.28125 -0.359375 2.3125 -0.328125 2.34375 -0.296875 C 2.226562 -0.191406 2.097656 -0.109375 1.953125 -0.046875 C 1.816406 0.015625 1.664062 0.046875 1.5 0.046875 C 1.320312 0.046875 1.15625 0.015625 1 -0.046875 C 0.84375 -0.117188 0.707031 -0.210938 0.59375 -0.328125 C 0.476562 -0.441406 0.390625 -0.570312 0.328125 -0.71875 C 0.265625 -0.875 0.234375 -1.039062 0.234375 -1.21875 C 0.234375 -1.394531 0.265625 -1.554688 0.328125 -1.703125 C 0.390625 -1.859375 0.476562 -1.992188 0.59375 -2.109375 C 0.707031 -2.222656 0.84375 -2.3125 1 -2.375 C 1.15625 -2.445312 1.320312 -2.484375 1.5 -2.484375 C 1.625 -2.484375 1.742188 -2.457031 1.859375 -2.40625 C 1.984375 -2.363281 2.09375 -2.300781 2.1875 -2.21875 C 2.28125 -2.144531 2.363281 -2.050781 2.4375 -1.9375 C 2.519531 -1.832031 2.578125 -1.710938 2.609375 -1.578125 Z M 2.609375 -1.578125 "/></g></g></g><g fill="#fab526" fill-opacity="1"><g transform="translate(74.907984, 132.169985)"><g><path d="M 2.0625 -0.265625 L 2.5625 -0.265625 L 2.5625 -1.6875 C 2.550781 -1.820312 2.5 -1.941406 2.40625 -2.046875 C 2.3125 -2.148438 2.175781 -2.207031 2 -2.21875 C 1.863281 -2.21875 1.734375 -2.191406 1.609375 -2.140625 C 1.492188 -2.097656 1.390625 -2.035156 1.296875 -1.953125 C 1.203125 -1.878906 1.128906 -1.789062 1.078125 -1.6875 C 1.023438 -1.582031 1 -1.460938 1 -1.328125 L 1 -0.265625 L 1.484375 -0.265625 L 1.484375 0 L 0.234375 0 L 0.234375 -0.265625 L 0.734375 -0.265625 L 0.734375 -2.171875 L 0.265625 -2.171875 L 0.265625 -2.4375 L 0.953125 -2.4375 L 0.953125 -2.203125 C 0.960938 -2.128906 0.96875 -2.0625 0.96875 -2 C 0.976562 -1.9375 0.984375 -1.867188 0.984375 -1.796875 C 1.066406 -2.003906 1.203125 -2.171875 1.390625 -2.296875 C 1.585938 -2.421875 1.804688 -2.484375 2.046875 -2.484375 C 2.285156 -2.484375 2.472656 -2.414062 2.609375 -2.28125 C 2.753906 -2.144531 2.828125 -1.96875 2.828125 -1.75 L 2.828125 -0.265625 L 3.3125 -0.265625 L 3.3125 0 L 2.0625 0 Z M 2.0625 -0.265625 "/></g></g></g><g fill="#fab526" fill-opacity="1"><g transform="translate(78.446106, 132.169985)"><g/></g></g><g fill="#fab526" fill-opacity="1"><g transform="translate(80.393696, 132.169985)"><g><path d="M 0.234375 -0.265625 L 0.703125 -0.265625 L 0.703125 -4.609375 L 0.25 -4.609375 L 0.25 -4.859375 L 0.96875 -4.859375 L 0.96875 -0.265625 L 1.484375 -0.265625 L 1.484375 0 L 0.234375 0 Z M 0.234375 -0.265625 "/></g></g></g><g fill="#fab526" fill-opacity="1"><g transform="translate(82.101085, 132.169985)"><g><path d="M 0.234375 -0.265625 L 0.71875 -0.265625 L 0.71875 -2.171875 L 0.234375 -2.171875 L 0.234375 -2.4375 L 1 -2.4375 L 1 -0.265625 L 1.484375 -0.265625 L 1.484375 0 L 0.234375 0 Z M 0.65625 -3.296875 C 0.65625 -3.359375 0.675781 -3.410156 0.71875 -3.453125 C 0.757812 -3.492188 0.8125 -3.515625 0.875 -3.515625 C 0.925781 -3.515625 0.972656 -3.492188 1.015625 -3.453125 C 1.054688 -3.410156 1.078125 -3.359375 1.078125 -3.296875 C 1.078125 -3.234375 1.054688 -3.179688 1.015625 -3.140625 C 0.972656 -3.097656 0.925781 -3.078125 0.875 -3.078125 C 0.8125 -3.078125 0.757812 -3.097656 0.71875 -3.140625 C 0.675781 -3.179688 0.65625 -3.234375 0.65625 -3.296875 Z M 0.65625 -3.296875 "/></g></g></g><g fill="#fab526" fill-opacity="1"><g transform="translate(83.808473, 132.169985)"><g><path d="M 1.828125 -0.265625 L 2.140625 -0.265625 C 2.015625 -0.429688 1.890625 -0.597656 1.765625 -0.765625 C 1.640625 -0.941406 1.515625 -1.117188 1.390625 -1.296875 L 0.96875 -0.90625 L 0.96875 -0.265625 L 1.484375 -0.265625 L 1.484375 0 L 0.234375 0 L 0.234375 -0.265625 L 0.703125 -0.265625 L 0.703125 -4.609375 L 0.25 -4.609375 L 0.25 -4.859375 L 0.96875 -4.859375 L 0.96875 -1.234375 L 1.984375 -2.171875 L 1.59375 -2.171875 L 1.59375 -2.4375 L 2.78125 -2.4375 L 2.78125 -2.171875 L 2.328125 -2.171875 C 2.191406 -2.046875 2.066406 -1.925781 1.953125 -1.8125 C 1.847656 -1.707031 1.726562 -1.59375 1.59375 -1.46875 C 1.726562 -1.257812 1.867188 -1.054688 2.015625 -0.859375 C 2.171875 -0.660156 2.320312 -0.460938 2.46875 -0.265625 L 3.03125 -0.265625 L 3.03125 0 L 1.828125 0 Z M 1.828125 -0.265625 "/></g></g></g><g fill="#fab526" fill-opacity="1"><g transform="translate(87.073936, 132.169985)"><g><path d="M 1.5 -2.21875 C 1.34375 -2.21875 1.195312 -2.179688 1.0625 -2.109375 C 0.925781 -2.046875 0.8125 -1.957031 0.71875 -1.84375 C 0.632812 -1.738281 0.570312 -1.613281 0.53125 -1.46875 C 0.5 -1.332031 0.5 -1.1875 0.53125 -1.03125 C 0.8125 -1.144531 1.097656 -1.257812 1.390625 -1.375 C 1.679688 -1.488281 1.972656 -1.601562 2.265625 -1.71875 C 2.191406 -1.863281 2.085938 -1.984375 1.953125 -2.078125 C 1.816406 -2.171875 1.664062 -2.21875 1.5 -2.21875 Z M 2.609375 -1.578125 C 2.273438 -1.441406 1.941406 -1.304688 1.609375 -1.171875 C 1.273438 -1.046875 0.941406 -0.914062 0.609375 -0.78125 C 0.679688 -0.613281 0.796875 -0.476562 0.953125 -0.375 C 1.109375 -0.269531 1.289062 -0.21875 1.5 -0.21875 C 1.632812 -0.21875 1.757812 -0.238281 1.875 -0.28125 C 1.988281 -0.332031 2.085938 -0.40625 2.171875 -0.5 C 2.203125 -0.457031 2.226562 -0.421875 2.25 -0.390625 C 2.28125 -0.359375 2.3125 -0.328125 2.34375 -0.296875 C 2.226562 -0.191406 2.097656 -0.109375 1.953125 -0.046875 C 1.816406 0.015625 1.664062 0.046875 1.5 0.046875 C 1.320312 0.046875 1.15625 0.015625 1 -0.046875 C 0.84375 -0.117188 0.707031 -0.210938 0.59375 -0.328125 C 0.476562 -0.441406 0.390625 -0.570312 0.328125 -0.71875 C 0.265625 -0.875 0.234375 -1.039062 0.234375 -1.21875 C 0.234375 -1.394531 0.265625 -1.554688 0.328125 -1.703125 C 0.390625 -1.859375 0.476562 -1.992188 0.59375 -2.109375 C 0.707031 -2.222656 0.84375 -2.3125 1 -2.375 C 1.15625 -2.445312 1.320312 -2.484375 1.5 -2.484375 C 1.625 -2.484375 1.742188 -2.457031 1.859375 -2.40625 C 1.984375 -2.363281 2.09375 -2.300781 2.1875 -2.21875 C 2.28125 -2.144531 2.363281 -2.050781 2.4375 -1.9375 C 2.519531 -1.832031 2.578125 -1.710938 2.609375 -1.578125 Z M 2.609375 -1.578125 "/></g></g></g><g fill="#fab526" fill-opacity="1"><g transform="translate(89.936897, 132.169985)"><g/></g></g><g fill="#fab526" fill-opacity="1"><g transform="translate(91.884487, 132.169985)"><g><path d="M 0.59375 1.359375 L 1.140625 1.359375 C 1.253906 1.140625 1.367188 0.914062 1.484375 0.6875 C 1.597656 0.457031 1.710938 0.234375 1.828125 0.015625 C 1.640625 -0.347656 1.453125 -0.710938 1.265625 -1.078125 C 1.085938 -1.441406 0.90625 -1.804688 0.71875 -2.171875 L 0.234375 -2.171875 L 0.234375 -2.4375 L 1.421875 -2.4375 L 1.421875 -2.171875 L 1.015625 -2.171875 C 1.179688 -1.847656 1.34375 -1.523438 1.5 -1.203125 C 1.664062 -0.890625 1.820312 -0.570312 1.96875 -0.25 C 2.101562 -0.5625 2.253906 -0.878906 2.421875 -1.203125 C 2.585938 -1.523438 2.75 -1.847656 2.90625 -2.171875 L 2.53125 -2.171875 L 2.53125 -2.4375 L 3.671875 -2.4375 L 3.671875 -2.171875 L 3.203125 -2.171875 C 2.898438 -1.578125 2.601562 -0.988281 2.3125 -0.40625 C 2.019531 0.175781 1.726562 0.765625 1.4375 1.359375 L 1.84375 1.359375 L 1.84375 1.625 L 0.59375 1.625 Z M 0.59375 1.359375 "/></g></g></g><g fill="#fab526" fill-opacity="1"><g transform="translate(95.786164, 132.169985)"><g><path d="M 0.234375 -1.21875 C 0.234375 -1.394531 0.265625 -1.554688 0.328125 -1.703125 C 0.398438 -1.859375 0.492188 -1.992188 0.609375 -2.109375 C 0.722656 -2.222656 0.851562 -2.3125 1 -2.375 C 1.15625 -2.445312 1.320312 -2.484375 1.5 -2.484375 C 1.675781 -2.484375 1.84375 -2.445312 2 -2.375 C 2.15625 -2.3125 2.289062 -2.222656 2.40625 -2.109375 C 2.53125 -1.992188 2.625 -1.859375 2.6875 -1.703125 C 2.75 -1.554688 2.78125 -1.394531 2.78125 -1.21875 C 2.78125 -1.039062 2.75 -0.875 2.6875 -0.71875 C 2.625 -0.570312 2.53125 -0.441406 2.40625 -0.328125 C 2.289062 -0.210938 2.15625 -0.117188 2 -0.046875 C 1.84375 0.015625 1.675781 0.046875 1.5 0.046875 C 1.320312 0.046875 1.15625 0.015625 1 -0.046875 C 0.851562 -0.117188 0.722656 -0.210938 0.609375 -0.328125 C 0.492188 -0.441406 0.398438 -0.570312 0.328125 -0.71875 C 0.265625 -0.875 0.234375 -1.039062 0.234375 -1.21875 Z M 0.5 -1.21875 C 0.5 -1.082031 0.523438 -0.953125 0.578125 -0.828125 C 0.628906 -0.703125 0.695312 -0.59375 0.78125 -0.5 C 0.875 -0.414062 0.984375 -0.347656 1.109375 -0.296875 C 1.234375 -0.242188 1.363281 -0.21875 1.5 -0.21875 C 1.632812 -0.21875 1.765625 -0.242188 1.890625 -0.296875 C 2.015625 -0.347656 2.117188 -0.414062 2.203125 -0.5 C 2.296875 -0.59375 2.367188 -0.703125 2.421875 -0.828125 C 2.472656 -0.953125 2.5 -1.082031 2.5 -1.21875 C 2.5 -1.351562 2.472656 -1.484375 2.421875 -1.609375 C 2.367188 -1.734375 2.296875 -1.835938 2.203125 -1.921875 C 2.117188 -2.015625 2.015625 -2.085938 1.890625 -2.140625 C 1.765625 -2.191406 1.632812 -2.21875 1.5 -2.21875 C 1.363281 -2.21875 1.234375 -2.191406 1.109375 -2.140625 C 0.984375 -2.085938 0.875 -2.015625 0.78125 -1.921875 C 0.695312 -1.835938 0.628906 -1.734375 0.578125 -1.609375 C 0.523438 -1.484375 0.5 -1.351562 0.5 -1.21875 Z M 0.5 -1.21875 "/></g></g></g><g fill="#fab526" fill-opacity="1"><g transform="translate(98.804928, 132.169985)"><g><path d="M 0.234375 -2.4375 L 0.96875 -2.4375 L 0.96875 -0.75 C 0.976562 -0.601562 1.03125 -0.476562 1.125 -0.375 C 1.21875 -0.28125 1.351562 -0.226562 1.53125 -0.21875 C 1.664062 -0.21875 1.789062 -0.238281 1.90625 -0.28125 C 2.03125 -0.320312 2.140625 -0.378906 2.234375 -0.453125 C 2.328125 -0.535156 2.398438 -0.628906 2.453125 -0.734375 C 2.503906 -0.847656 2.53125 -0.972656 2.53125 -1.109375 L 2.53125 -2.171875 L 2.0625 -2.171875 L 2.0625 -2.4375 L 2.8125 -2.4375 L 2.8125 -0.234375 L 3.265625 -0.234375 L 3.265625 0 L 2.5625 0 L 2.5625 -0.625 C 2.46875 -0.414062 2.320312 -0.25 2.125 -0.125 C 1.9375 -0.0078125 1.722656 0.046875 1.484375 0.046875 C 1.253906 0.046875 1.066406 -0.015625 0.921875 -0.140625 C 0.785156 -0.273438 0.710938 -0.453125 0.703125 -0.671875 L 0.703125 -2.171875 L 0.234375 -2.171875 Z M 0.234375 -2.4375 "/></g></g></g><g fill="#fab526" fill-opacity="1"><g transform="translate(102.304104, 132.169985)"><g><path d="M 0.234375 -0.265625 L 0.734375 -0.265625 L 0.734375 -2.171875 L 0.265625 -2.171875 L 0.265625 -2.4375 L 0.953125 -2.4375 L 0.953125 -2.203125 C 0.960938 -2.128906 0.96875 -2.0625 0.96875 -2 C 0.976562 -1.9375 0.984375 -1.867188 0.984375 -1.796875 C 1.078125 -2.015625 1.21875 -2.179688 1.40625 -2.296875 C 1.601562 -2.421875 1.800781 -2.484375 2 -2.484375 L 1.984375 -2.21875 C 1.847656 -2.21875 1.71875 -2.191406 1.59375 -2.140625 C 1.476562 -2.097656 1.375 -2.035156 1.28125 -1.953125 C 1.195312 -1.878906 1.128906 -1.785156 1.078125 -1.671875 C 1.023438 -1.566406 1 -1.453125 1 -1.328125 L 1 -0.265625 L 1.484375 -0.265625 L 1.484375 0 L 0.234375 0 Z M 0.234375 -0.265625 "/></g></g></g><g fill="#fab526" fill-opacity="1"><g transform="translate(104.537347, 132.169985)"><g/></g></g><g fill="#fab526" fill-opacity="1"><g transform="translate(106.484937, 132.169985)"><g><path d="M 3.890625 -0.265625 L 4.390625 -0.265625 L 4.390625 -1.6875 C 4.390625 -1.820312 4.34375 -1.941406 4.25 -2.046875 C 4.15625 -2.148438 4.015625 -2.207031 3.828125 -2.21875 C 3.703125 -2.21875 3.578125 -2.195312 3.453125 -2.15625 C 3.335938 -2.113281 3.234375 -2.050781 3.140625 -1.96875 C 3.046875 -1.894531 2.972656 -1.800781 2.921875 -1.6875 C 2.867188 -1.582031 2.835938 -1.46875 2.828125 -1.34375 L 2.828125 -0.265625 L 3.3125 -0.265625 L 3.3125 0 L 2.0625 0 L 2.0625 -0.265625 L 2.5625 -0.265625 L 2.5625 -1.6875 C 2.550781 -1.820312 2.5 -1.941406 2.40625 -2.046875 C 2.3125 -2.148438 2.175781 -2.207031 2 -2.21875 C 1.863281 -2.21875 1.734375 -2.191406 1.609375 -2.140625 C 1.492188 -2.097656 1.390625 -2.035156 1.296875 -1.953125 C 1.203125 -1.878906 1.128906 -1.789062 1.078125 -1.6875 C 1.023438 -1.582031 1 -1.460938 1 -1.328125 L 1 -0.265625 L 1.484375 -0.265625 L 1.484375 0 L 0.234375 0 L 0.234375 -0.265625 L 0.734375 -0.265625 L 0.734375 -2.171875 L 0.265625 -2.171875 L 0.265625 -2.4375 L 0.953125 -2.4375 L 0.953125 -2.203125 C 0.960938 -2.128906 0.96875 -2.0625 0.96875 -2 C 0.976562 -1.9375 0.984375 -1.867188 0.984375 -1.796875 C 1.066406 -2.003906 1.203125 -2.171875 1.390625 -2.296875 C 1.578125 -2.421875 1.796875 -2.484375 2.046875 -2.484375 C 2.265625 -2.484375 2.441406 -2.421875 2.578125 -2.296875 C 2.710938 -2.179688 2.796875 -2.023438 2.828125 -1.828125 C 2.921875 -2.023438 3.054688 -2.179688 3.234375 -2.296875 C 3.421875 -2.421875 3.632812 -2.484375 3.875 -2.484375 C 4.113281 -2.484375 4.300781 -2.414062 4.4375 -2.28125 C 4.582031 -2.144531 4.65625 -1.96875 4.65625 -1.75 L 4.65625 -0.265625 L 5.140625 -0.265625 L 5.140625 0 L 3.890625 0 Z M 3.890625 -0.265625 "/></g></g></g><g fill="#fab526" fill-opacity="1"><g transform="translate(111.860289, 132.169985)"><g><path d="M 0.234375 -1.21875 C 0.234375 -1.394531 0.265625 -1.554688 0.328125 -1.703125 C 0.390625 -1.859375 0.476562 -1.992188 0.59375 -2.109375 C 0.707031 -2.222656 0.84375 -2.3125 1 -2.375 C 1.15625 -2.445312 1.320312 -2.484375 1.5 -2.484375 C 1.625 -2.484375 1.742188 -2.460938 1.859375 -2.421875 C 1.972656 -2.390625 2.070312 -2.34375 2.15625 -2.28125 C 2.25 -2.226562 2.328125 -2.160156 2.390625 -2.078125 C 2.453125 -2.003906 2.5 -1.929688 2.53125 -1.859375 C 2.53125 -1.953125 2.535156 -2.046875 2.546875 -2.140625 C 2.554688 -2.234375 2.5625 -2.332031 2.5625 -2.4375 L 2.78125 -2.4375 L 2.78125 -0.265625 L 3.265625 -0.265625 L 3.265625 0 L 2.53125 0 L 2.53125 -0.265625 C 2.53125 -0.316406 2.53125 -0.363281 2.53125 -0.40625 C 2.539062 -0.457031 2.546875 -0.507812 2.546875 -0.5625 C 2.515625 -0.488281 2.46875 -0.414062 2.40625 -0.34375 C 2.34375 -0.269531 2.265625 -0.203125 2.171875 -0.140625 C 2.085938 -0.0859375 1.988281 -0.0390625 1.875 0 C 1.757812 0.03125 1.632812 0.046875 1.5 0.046875 C 1.320312 0.046875 1.15625 0.015625 1 -0.046875 C 0.84375 -0.117188 0.707031 -0.210938 0.59375 -0.328125 C 0.476562 -0.441406 0.390625 -0.570312 0.328125 -0.71875 C 0.265625 -0.875 0.234375 -1.039062 0.234375 -1.21875 Z M 0.5 -1.21875 C 0.5 -1.082031 0.523438 -0.953125 0.578125 -0.828125 C 0.628906 -0.703125 0.695312 -0.59375 0.78125 -0.5 C 0.875 -0.414062 0.984375 -0.347656 1.109375 -0.296875 C 1.234375 -0.242188 1.363281 -0.21875 1.5 -0.21875 C 1.644531 -0.21875 1.773438 -0.242188 1.890625 -0.296875 C 2.015625 -0.347656 2.125 -0.414062 2.21875 -0.5 C 2.3125 -0.59375 2.382812 -0.703125 2.4375 -0.828125 C 2.488281 -0.953125 2.515625 -1.082031 2.515625 -1.21875 C 2.515625 -1.351562 2.488281 -1.484375 2.4375 -1.609375 C 2.382812 -1.734375 2.3125 -1.835938 2.21875 -1.921875 C 2.125 -2.015625 2.015625 -2.085938 1.890625 -2.140625 C 1.773438 -2.191406 1.644531 -2.21875 1.5 -2.21875 C 1.363281 -2.21875 1.234375 -2.191406 1.109375 -2.140625 C 0.984375 -2.085938 0.875 -2.015625 0.78125 -1.921875 C 0.695312 -1.835938 0.628906 -1.734375 0.578125 -1.609375 C 0.523438 -1.484375 0.5 -1.351562 0.5 -1.21875 Z M 0.5 -1.21875 "/></g></g></g><g fill="#fab526" fill-opacity="1"><g transform="translate(115.352968, 132.169985)"><g><path d="M 3.890625 -0.265625 L 4.390625 -0.265625 L 4.390625 -1.6875 C 4.390625 -1.820312 4.34375 -1.941406 4.25 -2.046875 C 4.15625 -2.148438 4.015625 -2.207031 3.828125 -2.21875 C 3.703125 -2.21875 3.578125 -2.195312 3.453125 -2.15625 C 3.335938 -2.113281 3.234375 -2.050781 3.140625 -1.96875 C 3.046875 -1.894531 2.972656 -1.800781 2.921875 -1.6875 C 2.867188 -1.582031 2.835938 -1.46875 2.828125 -1.34375 L 2.828125 -0.265625 L 3.3125 -0.265625 L 3.3125 0 L 2.0625 0 L 2.0625 -0.265625 L 2.5625 -0.265625 L 2.5625 -1.6875 C 2.550781 -1.820312 2.5 -1.941406 2.40625 -2.046875 C 2.3125 -2.148438 2.175781 -2.207031 2 -2.21875 C 1.863281 -2.21875 1.734375 -2.191406 1.609375 -2.140625 C 1.492188 -2.097656 1.390625 -2.035156 1.296875 -1.953125 C 1.203125 -1.878906 1.128906 -1.789062 1.078125 -1.6875 C 1.023438 -1.582031 1 -1.460938 1 -1.328125 L 1 -0.265625 L 1.484375 -0.265625 L 1.484375 0 L 0.234375 0 L 0.234375 -0.265625 L 0.734375 -0.265625 L 0.734375 -2.171875 L 0.265625 -2.171875 L 0.265625 -2.4375 L 0.953125 -2.4375 L 0.953125 -2.203125 C 0.960938 -2.128906 0.96875 -2.0625 0.96875 -2 C 0.976562 -1.9375 0.984375 -1.867188 0.984375 -1.796875 C 1.066406 -2.003906 1.203125 -2.171875 1.390625 -2.296875 C 1.578125 -2.421875 1.796875 -2.484375 2.046875 -2.484375 C 2.265625 -2.484375 2.441406 -2.421875 2.578125 -2.296875 C 2.710938 -2.179688 2.796875 -2.023438 2.828125 -1.828125 C 2.921875 -2.023438 3.054688 -2.179688 3.234375 -2.296875 C 3.421875 -2.421875 3.632812 -2.484375 3.875 -2.484375 C 4.113281 -2.484375 4.300781 -2.414062 4.4375 -2.28125 C 4.582031 -2.144531 4.65625 -1.96875 4.65625 -1.75 L 4.65625 -0.265625 L 5.140625 -0.265625 L 5.140625 0 L 3.890625 0 Z M 3.890625 -0.265625 "/></g></g></g><g fill="#fab526" fill-opacity="1"><g transform="translate(120.728321, 132.169985)"><g><path d="M 0.234375 -1.21875 C 0.234375 -1.394531 0.265625 -1.554688 0.328125 -1.703125 C 0.390625 -1.859375 0.476562 -1.992188 0.59375 -2.109375 C 0.707031 -2.222656 0.84375 -2.3125 1 -2.375 C 1.15625 -2.445312 1.320312 -2.484375 1.5 -2.484375 C 1.625 -2.484375 1.742188 -2.460938 1.859375 -2.421875 C 1.972656 -2.390625 2.070312 -2.34375 2.15625 -2.28125 C 2.25 -2.226562 2.328125 -2.160156 2.390625 -2.078125 C 2.453125 -2.003906 2.5 -1.929688 2.53125 -1.859375 C 2.53125 -1.953125 2.535156 -2.046875 2.546875 -2.140625 C 2.554688 -2.234375 2.5625 -2.332031 2.5625 -2.4375 L 2.78125 -2.4375 L 2.78125 -0.265625 L 3.265625 -0.265625 L 3.265625 0 L 2.53125 0 L 2.53125 -0.265625 C 2.53125 -0.316406 2.53125 -0.363281 2.53125 -0.40625 C 2.539062 -0.457031 2.546875 -0.507812 2.546875 -0.5625 C 2.515625 -0.488281 2.46875 -0.414062 2.40625 -0.34375 C 2.34375 -0.269531 2.265625 -0.203125 2.171875 -0.140625 C 2.085938 -0.0859375 1.988281 -0.0390625 1.875 0 C 1.757812 0.03125 1.632812 0.046875 1.5 0.046875 C 1.320312 0.046875 1.15625 0.015625 1 -0.046875 C 0.84375 -0.117188 0.707031 -0.210938 0.59375 -0.328125 C 0.476562 -0.441406 0.390625 -0.570312 0.328125 -0.71875 C 0.265625 -0.875 0.234375 -1.039062 0.234375 -1.21875 Z M 0.5 -1.21875 C 0.5 -1.082031 0.523438 -0.953125 0.578125 -0.828125 C 0.628906 -0.703125 0.695312 -0.59375 0.78125 -0.5 C 0.875 -0.414062 0.984375 -0.347656 1.109375 -0.296875 C 1.234375 -0.242188 1.363281 -0.21875 1.5 -0.21875 C 1.644531 -0.21875 1.773438 -0.242188 1.890625 -0.296875 C 2.015625 -0.347656 2.125 -0.414062 2.21875 -0.5 C 2.3125 -0.59375 2.382812 -0.703125 2.4375 -0.828125 C 2.488281 -0.953125 2.515625 -1.082031 2.515625 -1.21875 C 2.515625 -1.351562 2.488281 -1.484375 2.4375 -1.609375 C 2.382812 -1.734375 2.3125 -1.835938 2.21875 -1.921875 C 2.125 -2.015625 2.015625 -2.085938 1.890625 -2.140625 C 1.773438 -2.191406 1.644531 -2.21875 1.5 -2.21875 C 1.363281 -2.21875 1.234375 -2.191406 1.109375 -2.140625 C 0.984375 -2.085938 0.875 -2.015625 0.78125 -1.921875 C 0.695312 -1.835938 0.628906 -1.734375 0.578125 -1.609375 C 0.523438 -1.484375 0.5 -1.351562 0.5 -1.21875 Z M 0.5 -1.21875 "/></g></g></g><g fill="#fab526" fill-opacity="1"><g transform="translate(124.221, 132.169985)"><g/></g></g><g fill="#fab526" fill-opacity="1"><g transform="translate(126.16859, 132.169985)"><g><path d="M 3.890625 -0.265625 L 4.390625 -0.265625 L 4.390625 -1.6875 C 4.390625 -1.820312 4.34375 -1.941406 4.25 -2.046875 C 4.15625 -2.148438 4.015625 -2.207031 3.828125 -2.21875 C 3.703125 -2.21875 3.578125 -2.195312 3.453125 -2.15625 C 3.335938 -2.113281 3.234375 -2.050781 3.140625 -1.96875 C 3.046875 -1.894531 2.972656 -1.800781 2.921875 -1.6875 C 2.867188 -1.582031 2.835938 -1.46875 2.828125 -1.34375 L 2.828125 -0.265625 L 3.3125 -0.265625 L 3.3125 0 L 2.0625 0 L 2.0625 -0.265625 L 2.5625 -0.265625 L 2.5625 -1.6875 C 2.550781 -1.820312 2.5 -1.941406 2.40625 -2.046875 C 2.3125 -2.148438 2.175781 -2.207031 2 -2.21875 C 1.863281 -2.21875 1.734375 -2.191406 1.609375 -2.140625 C 1.492188 -2.097656 1.390625 -2.035156 1.296875 -1.953125 C 1.203125 -1.878906 1.128906 -1.789062 1.078125 -1.6875 C 1.023438 -1.582031 1 -1.460938 1 -1.328125 L 1 -0.265625 L 1.484375 -0.265625 L 1.484375 0 L 0.234375 0 L 0.234375 -0.265625 L 0.734375 -0.265625 L 0.734375 -2.171875 L 0.265625 -2.171875 L 0.265625 -2.4375 L 0.953125 -2.4375 L 0.953125 -2.203125 C 0.960938 -2.128906 0.96875 -2.0625 0.96875 -2 C 0.976562 -1.9375 0.984375 -1.867188 0.984375 -1.796875 C 1.066406 -2.003906 1.203125 -2.171875 1.390625 -2.296875 C 1.578125 -2.421875 1.796875 -2.484375 2.046875 -2.484375 C 2.265625 -2.484375 2.441406 -2.421875 2.578125 -2.296875 C 2.710938 -2.179688 2.796875 -2.023438 2.828125 -1.828125 C 2.921875 -2.023438 3.054688 -2.179688 3.234375 -2.296875 C 3.421875 -2.421875 3.632812 -2.484375 3.875 -2.484375 C 4.113281 -2.484375 4.300781 -2.414062 4.4375 -2.28125 C 4.582031 -2.144531 4.65625 -1.96875 4.65625 -1.75 L 4.65625 -0.265625 L 5.140625 -0.265625 L 5.140625 0 L 3.890625 0 Z M 3.890625 -0.265625 "/></g></g></g><g fill="#fab526" fill-opacity="1"><g transform="translate(131.543942, 132.169985)"><g><path d="M 0.234375 -1.21875 C 0.234375 -1.394531 0.265625 -1.554688 0.328125 -1.703125 C 0.390625 -1.859375 0.476562 -1.992188 0.59375 -2.109375 C 0.707031 -2.222656 0.84375 -2.3125 1 -2.375 C 1.15625 -2.445312 1.320312 -2.484375 1.5 -2.484375 C 1.625 -2.484375 1.742188 -2.460938 1.859375 -2.421875 C 1.972656 -2.390625 2.070312 -2.34375 2.15625 -2.28125 C 2.25 -2.226562 2.328125 -2.160156 2.390625 -2.078125 C 2.453125 -2.003906 2.5 -1.929688 2.53125 -1.859375 C 2.53125 -1.953125 2.535156 -2.046875 2.546875 -2.140625 C 2.554688 -2.234375 2.5625 -2.332031 2.5625 -2.4375 L 2.78125 -2.4375 L 2.78125 -0.265625 L 3.265625 -0.265625 L 3.265625 0 L 2.53125 0 L 2.53125 -0.265625 C 2.53125 -0.316406 2.53125 -0.363281 2.53125 -0.40625 C 2.539062 -0.457031 2.546875 -0.507812 2.546875 -0.5625 C 2.515625 -0.488281 2.46875 -0.414062 2.40625 -0.34375 C 2.34375 -0.269531 2.265625 -0.203125 2.171875 -0.140625 C 2.085938 -0.0859375 1.988281 -0.0390625 1.875 0 C 1.757812 0.03125 1.632812 0.046875 1.5 0.046875 C 1.320312 0.046875 1.15625 0.015625 1 -0.046875 C 0.84375 -0.117188 0.707031 -0.210938 0.59375 -0.328125 C 0.476562 -0.441406 0.390625 -0.570312 0.328125 -0.71875 C 0.265625 -0.875 0.234375 -1.039062 0.234375 -1.21875 Z M 0.5 -1.21875 C 0.5 -1.082031 0.523438 -0.953125 0.578125 -0.828125 C 0.628906 -0.703125 0.695312 -0.59375 0.78125 -0.5 C 0.875 -0.414062 0.984375 -0.347656 1.109375 -0.296875 C 1.234375 -0.242188 1.363281 -0.21875 1.5 -0.21875 C 1.644531 -0.21875 1.773438 -0.242188 1.890625 -0.296875 C 2.015625 -0.347656 2.125 -0.414062 2.21875 -0.5 C 2.3125 -0.59375 2.382812 -0.703125 2.4375 -0.828125 C 2.488281 -0.953125 2.515625 -1.082031 2.515625 -1.21875 C 2.515625 -1.351562 2.488281 -1.484375 2.4375 -1.609375 C 2.382812 -1.734375 2.3125 -1.835938 2.21875 -1.921875 C 2.125 -2.015625 2.015625 -2.085938 1.890625 -2.140625 C 1.773438 -2.191406 1.644531 -2.21875 1.5 -2.21875 C 1.363281 -2.21875 1.234375 -2.191406 1.109375 -2.140625 C 0.984375 -2.085938 0.875 -2.015625 0.78125 -1.921875 C 0.695312 -1.835938 0.628906 -1.734375 0.578125 -1.609375 C 0.523438 -1.484375 0.5 -1.351562 0.5 -1.21875 Z M 0.5 -1.21875 "/></g></g></g><g fill="#fab526" fill-opacity="1"><g transform="translate(135.036621, 132.169985)"><g><path d="M 1.828125 -0.265625 L 2.140625 -0.265625 C 2.015625 -0.429688 1.890625 -0.597656 1.765625 -0.765625 C 1.640625 -0.941406 1.515625 -1.117188 1.390625 -1.296875 L 0.96875 -0.90625 L 0.96875 -0.265625 L 1.484375 -0.265625 L 1.484375 0 L 0.234375 0 L 0.234375 -0.265625 L 0.703125 -0.265625 L 0.703125 -4.609375 L 0.25 -4.609375 L 0.25 -4.859375 L 0.96875 -4.859375 L 0.96875 -1.234375 L 1.984375 -2.171875 L 1.59375 -2.171875 L 1.59375 -2.4375 L 2.78125 -2.4375 L 2.78125 -2.171875 L 2.328125 -2.171875 C 2.191406 -2.046875 2.066406 -1.925781 1.953125 -1.8125 C 1.847656 -1.707031 1.726562 -1.59375 1.59375 -1.46875 C 1.726562 -1.257812 1.867188 -1.054688 2.015625 -0.859375 C 2.171875 -0.660156 2.320312 -0.460938 2.46875 -0.265625 L 3.03125 -0.265625 L 3.03125 0 L 1.828125 0 Z M 1.828125 -0.265625 "/></g></g></g><g fill="#fab526" fill-opacity="1"><g transform="translate(138.302083, 132.169985)"><g><path d="M 1.5 -2.21875 C 1.34375 -2.21875 1.195312 -2.179688 1.0625 -2.109375 C 0.925781 -2.046875 0.8125 -1.957031 0.71875 -1.84375 C 0.632812 -1.738281 0.570312 -1.613281 0.53125 -1.46875 C 0.5 -1.332031 0.5 -1.1875 0.53125 -1.03125 C 0.8125 -1.144531 1.097656 -1.257812 1.390625 -1.375 C 1.679688 -1.488281 1.972656 -1.601562 2.265625 -1.71875 C 2.191406 -1.863281 2.085938 -1.984375 1.953125 -2.078125 C 1.816406 -2.171875 1.664062 -2.21875 1.5 -2.21875 Z M 2.609375 -1.578125 C 2.273438 -1.441406 1.941406 -1.304688 1.609375 -1.171875 C 1.273438 -1.046875 0.941406 -0.914062 0.609375 -0.78125 C 0.679688 -0.613281 0.796875 -0.476562 0.953125 -0.375 C 1.109375 -0.269531 1.289062 -0.21875 1.5 -0.21875 C 1.632812 -0.21875 1.757812 -0.238281 1.875 -0.28125 C 1.988281 -0.332031 2.085938 -0.40625 2.171875 -0.5 C 2.203125 -0.457031 2.226562 -0.421875 2.25 -0.390625 C 2.28125 -0.359375 2.3125 -0.328125 2.34375 -0.296875 C 2.226562 -0.191406 2.097656 -0.109375 1.953125 -0.046875 C 1.816406 0.015625 1.664062 0.046875 1.5 0.046875 C 1.320312 0.046875 1.15625 0.015625 1 -0.046875 C 0.84375 -0.117188 0.707031 -0.210938 0.59375 -0.328125 C 0.476562 -0.441406 0.390625 -0.570312 0.328125 -0.71875 C 0.265625 -0.875 0.234375 -1.039062 0.234375 -1.21875 C 0.234375 -1.394531 0.265625 -1.554688 0.328125 -1.703125 C 0.390625 -1.859375 0.476562 -1.992188 0.59375 -2.109375 C 0.707031 -2.222656 0.84375 -2.3125 1 -2.375 C 1.15625 -2.445312 1.320312 -2.484375 1.5 -2.484375 C 1.625 -2.484375 1.742188 -2.457031 1.859375 -2.40625 C 1.984375 -2.363281 2.09375 -2.300781 2.1875 -2.21875 C 2.28125 -2.144531 2.363281 -2.050781 2.4375 -1.9375 C 2.519531 -1.832031 2.578125 -1.710938 2.609375 -1.578125 Z M 2.609375 -1.578125 "/></g></g></g><g fill="#fab526" fill-opacity="1"><g transform="translate(141.165044, 132.169985)"><g><path d="M 0.578125 -0.671875 L 0.578125 -0.34375 C 0.660156 -0.28125 0.75 -0.242188 0.84375 -0.234375 C 0.9375 -0.222656 1.023438 -0.21875 1.109375 -0.21875 C 1.148438 -0.21875 1.195312 -0.222656 1.25 -0.234375 C 1.3125 -0.253906 1.367188 -0.28125 1.421875 -0.3125 C 1.472656 -0.351562 1.515625 -0.398438 1.546875 -0.453125 C 1.585938 -0.503906 1.609375 -0.570312 1.609375 -0.65625 C 1.609375 -0.769531 1.582031 -0.859375 1.53125 -0.921875 C 1.476562 -0.984375 1.40625 -1.03125 1.3125 -1.0625 C 1.226562 -1.101562 1.132812 -1.132812 1.03125 -1.15625 C 0.925781 -1.1875 0.828125 -1.222656 0.734375 -1.265625 C 0.648438 -1.316406 0.578125 -1.378906 0.515625 -1.453125 C 0.453125 -1.535156 0.421875 -1.648438 0.421875 -1.796875 C 0.421875 -1.910156 0.441406 -2.007812 0.484375 -2.09375 C 0.523438 -2.175781 0.578125 -2.242188 0.640625 -2.296875 C 0.710938 -2.359375 0.789062 -2.398438 0.875 -2.421875 C 0.957031 -2.453125 1.039062 -2.46875 1.125 -2.46875 C 1.132812 -2.46875 1.164062 -2.460938 1.21875 -2.453125 C 1.28125 -2.453125 1.34375 -2.441406 1.40625 -2.421875 C 1.476562 -2.410156 1.546875 -2.390625 1.609375 -2.359375 C 1.679688 -2.335938 1.742188 -2.300781 1.796875 -2.25 L 1.796875 -1.765625 L 1.546875 -1.765625 L 1.546875 -2.109375 C 1.515625 -2.128906 1.476562 -2.144531 1.4375 -2.15625 C 1.394531 -2.175781 1.351562 -2.1875 1.3125 -2.1875 C 1.269531 -2.195312 1.226562 -2.203125 1.1875 -2.203125 C 1.15625 -2.203125 1.132812 -2.203125 1.125 -2.203125 C 1.070312 -2.203125 1.019531 -2.191406 0.96875 -2.171875 C 0.914062 -2.160156 0.867188 -2.140625 0.828125 -2.109375 C 0.785156 -2.078125 0.75 -2.035156 0.71875 -1.984375 C 0.695312 -1.929688 0.6875 -1.867188 0.6875 -1.796875 C 0.6875 -1.703125 0.71875 -1.628906 0.78125 -1.578125 C 0.84375 -1.523438 0.914062 -1.476562 1 -1.4375 C 1.09375 -1.40625 1.191406 -1.375 1.296875 -1.34375 C 1.398438 -1.3125 1.492188 -1.269531 1.578125 -1.21875 C 1.671875 -1.164062 1.742188 -1.097656 1.796875 -1.015625 C 1.859375 -0.929688 1.890625 -0.820312 1.890625 -0.6875 C 1.890625 -0.613281 1.875 -0.53125 1.84375 -0.4375 C 1.8125 -0.351562 1.765625 -0.273438 1.703125 -0.203125 C 1.648438 -0.128906 1.570312 -0.0664062 1.46875 -0.015625 C 1.363281 0.0234375 1.242188 0.046875 1.109375 0.046875 C 1.054688 0.046875 1 0.0390625 0.9375 0.03125 C 0.875 0.03125 0.800781 0.0195312 0.71875 0 C 0.644531 -0.0078125 0.570312 -0.03125 0.5 -0.0625 C 0.4375 -0.09375 0.382812 -0.132812 0.34375 -0.1875 L 0.34375 -0.671875 Z M 0.578125 -0.671875 "/></g></g></g></svg>