<svg xmlns="http://www.w3.org/2000/svg" xmlns:xlink="http://www.w3.org/1999/xlink" width="250" zoomAndPan="magnify" viewBox="0 0 187.5 187.499992" height="250" preserveAspectRatio="xMidYMid meet" version="1.0"><defs><g/><clipPath id="id1"><path d="M 0 0 L 187 0 L 187 187 L 0 187 Z M 0 0 " clip-rule="nonzero"/></clipPath><clipPath id="id2"><path d="M 59 41.855469 L 122 41.855469 L 122 61 L 59 61 Z M 59 41.855469 " clip-rule="nonzero"/></clipPath><clipPath id="id3"><path d="M 58 54 L 136.460938 54 L 136.460938 99 L 58 99 Z M 58 54 " clip-rule="nonzero"/></clipPath><clipPath id="id4"><path d="M 58 54 L 136.460938 54 L 136.460938 94 L 58 94 Z M 58 54 " clip-rule="nonzero"/></clipPath><clipPath id="id5"><path d="M 57 91 L 132 91 L 132 121.355469 L 57 121.355469 Z M 57 91 " clip-rule="nonzero"/></clipPath></defs><g clip-path="url(#id1)"><path fill="#ffffff" d="M 0 0 L 187.5 0 L 187.5 195 L 0 195 Z M 0 0 " fill-opacity="1" fill-rule="nonzero"/><path fill="#ffffff" d="M 0 0 L 187.5 0 L 187.5 187.5 L 0 187.5 Z M 0 0 " fill-opacity="1" fill-rule="nonzero"/><path fill="#ffffff" d="M 0 0 L 187.5 0 L 187.5 187.5 L 0 187.5 Z M 0 0 " fill-opacity="1" fill-rule="nonzero"/><path fill="#ffffff" d="M 0 0 L 187.5 0 L 187.5 187.5 L 0 187.5 Z M 0 0 " fill-opacity="1" fill-rule="nonzero"/></g><path fill="#00c2cb" d="M 74.808594 90.289062 C 76.566406 92.085938 78.183594 94.011719 79.644531 96.050781 C 81.792969 96.113281 83.921875 96.316406 86.011719 96.652344 C 83.6875 93.152344 80.980469 89.941406 77.941406 87.082031 C 79.921875 83.40625 77.296875 77.535156 68.707031 73.265625 C 60.574219 69.304688 52.53125 70.917969 51.769531 75.191406 C 50.953125 79.492188 55.816406 83.648438 61.140625 87.140625 C 66.910156 90.890625 70.988281 92.367188 74.808594 90.289062 Z M 74.808594 90.289062 " fill-opacity="1" fill-rule="nonzero"/><path fill="#5ce1e6" d="M 74.808594 89.136719 C 76.566406 90.9375 78.183594 94.011719 79.644531 96.050781 C 81.792969 96.113281 83.921875 96.316406 86.011719 96.652344 C 83.6875 93.152344 80.980469 89.941406 77.941406 87.082031 C 79.921875 83.40625 77.296875 77.535156 68.707031 73.265625 C 60.574219 69.304688 52.53125 70.917969 51.769531 75.191406 C 50.953125 79.492188 55.816406 82.5 61.140625 85.992188 C 66.910156 89.738281 70.988281 91.21875 74.808594 89.136719 Z M 74.808594 89.136719 " fill-opacity="1" fill-rule="nonzero"/><g clip-path="url(#id2)"><path fill="#d0d2d3" d="M 67.34375 60.382812 C 71.296875 55.53125 76.628906 51.851562 82.746094 49.945312 C 84.910156 47.300781 88.199219 45.613281 91.871094 45.613281 C 95.375 45.613281 98.527344 47.148438 100.691406 49.582031 C 105.78125 50.945312 110.375 53.523438 114.148438 56.984375 C 116.429688 56.078125 118.769531 55.3125 121.160156 54.699219 C 114.050781 46.835938 103.777344 41.894531 92.351562 41.894531 C 78.78125 41.894531 66.84375 48.863281 59.898438 59.421875 C 62.464844 59.613281 64.941406 59.933594 67.34375 60.382812 Z M 67.34375 60.382812 " fill-opacity="1" fill-rule="nonzero"/></g><path fill="#d0d2d3" d="M 120.300781 64.640625 C 121.085938 66.003906 121.773438 67.425781 122.359375 68.902344 C 124.417969 68.140625 126.523438 67.492188 128.667969 66.957031 C 127.886719 64.902344 126.929688 62.933594 125.828125 61.0625 C 123.917969 62.125 122.074219 63.320312 120.300781 64.640625 Z M 120.300781 64.640625 " fill-opacity="1" fill-rule="nonzero"/><path fill="#d0d2d3" d="M 57.722656 63.160156 C 56.664062 65.246094 55.777344 67.433594 55.101562 69.714844 C 56.402344 69.304688 57.894531 69.085938 59.527344 69.085938 C 60.40625 69.085938 61.296875 69.152344 62.199219 69.273438 C 62.609375 68.199219 63.074219 67.152344 63.59375 66.140625 C 61.683594 65.035156 59.71875 64.039062 57.722656 63.160156 Z M 57.722656 63.160156 " fill-opacity="1" fill-rule="nonzero"/><path fill="#d0d2d3" d="M 64.949219 97.820312 C 63.359375 95.265625 62.113281 92.46875 61.285156 89.5 C 60.898438 89.261719 60.507812 89.011719 60.101562 88.75 C 57.859375 87.28125 55.507812 85.589844 53.613281 83.703125 C 54.050781 89.628906 55.824219 95.183594 58.621094 100.074219 C 60.65625 99.175781 62.773438 98.425781 64.949219 97.820312 Z M 64.949219 97.820312 " fill-opacity="1" fill-rule="nonzero"/><path fill="#d0d2d3" d="M 109.914062 108.101562 C 117.429688 105.488281 124.070312 100.628906 128.886719 94.011719 C 130.027344 90.851562 130.777344 87.5 131.066406 84.019531 C 128.488281 85.160156 126.042969 86.546875 123.757812 88.167969 C 121.824219 96.449219 116.707031 103.503906 109.769531 107.96875 Z M 109.914062 108.101562 " fill-opacity="1" fill-rule="nonzero"/><path fill="#00c2cb" d="M 97.511719 99.992188 C 99.128906 100.695312 100.695312 101.484375 102.203125 102.359375 C 104.351562 97.847656 107.179688 93.683594 110.589844 90.015625 C 113.289062 91.023438 116.914062 91.007812 119.371094 89.167969 C 123.277344 85.796875 127.863281 83.046875 133 81.160156 C 133.546875 80.996094 133.886719 80.476562 133.753906 79.984375 C 133.621094 79.492188 133.046875 79.21875 132.472656 79.390625 C 128.769531 80.496094 125.273438 82.035156 122.039062 83.941406 C 121.542969 84.234375 120.929688 84.132812 120.65625 83.699219 C 120.386719 83.269531 120.582031 82.65625 121.101562 82.351562 C 124.460938 80.367188 128.09375 78.769531 131.949219 77.621094 C 132.539062 77.441406 132.914062 76.914062 132.78125 76.421875 C 132.648438 75.929688 132.039062 75.667969 131.421875 75.851562 C 127.425781 77.042969 123.652344 78.703125 120.164062 80.761719 C 119.628906 81.078125 118.984375 80.992188 118.714844 80.5625 C 118.445312 80.128906 118.667969 79.5 119.226562 79.171875 C 122.84375 77.035156 126.75 75.316406 130.894531 74.082031 C 131.527344 73.890625 131.941406 73.351562 131.808594 72.859375 C 131.675781 72.367188 131.027344 72.113281 130.367188 72.3125 C 126.078125 73.589844 122.03125 75.371094 118.289062 77.578125 C 117.714844 77.917969 117.039062 77.851562 116.769531 77.421875 C 116.5 76.988281 116.753906 76.339844 117.351562 75.988281 C 121.222656 73.703125 125.40625 71.863281 129.839844 70.539062 C 130.519531 70.335938 130.96875 69.785156 130.835938 69.292969 C 130.703125 68.800781 130.019531 68.558594 129.3125 68.769531 C 122.480469 70.453125 116.089844 73.332031 110.378906 77.210938 C 106.976562 79.769531 106.214844 84.148438 107.308594 86.816406 C 103.414062 90.660156 100.101562 95.101562 97.511719 99.992188 Z M 97.511719 99.992188 " fill-opacity="1" fill-rule="nonzero"/><path fill="#5ce1e6" d="M 97.511719 99.992188 C 99.128906 100.695312 100.695312 101.484375 102.203125 102.359375 C 104.351562 97.847656 107.179688 92.535156 110.589844 88.867188 C 113.289062 89.875 116.914062 89.859375 119.371094 88.019531 C 123.277344 84.648438 127.863281 83.046875 133 81.160156 C 133.546875 80.996094 133.886719 80.476562 133.753906 79.984375 C 133.621094 79.492188 133.046875 79.21875 132.472656 79.390625 C 128.769531 80.496094 125.273438 82.035156 122.039062 83.941406 C 121.542969 84.234375 120.929688 84.132812 120.65625 83.699219 C 120.386719 83.269531 120.582031 82.65625 121.101562 82.351562 C 124.460938 80.367188 128.09375 78.769531 131.949219 77.621094 C 132.539062 77.441406 132.914062 76.914062 132.78125 76.421875 C 132.648438 75.929688 132.039062 75.667969 131.421875 75.851562 C 127.425781 77.042969 123.652344 78.703125 120.164062 80.761719 C 119.628906 81.078125 118.984375 80.992188 118.714844 80.5625 C 118.445312 80.128906 118.667969 79.5 119.226562 79.171875 C 122.84375 77.035156 126.75 75.316406 130.894531 74.082031 C 131.527344 73.890625 131.941406 73.351562 131.808594 72.859375 C 131.675781 72.367188 131.027344 72.113281 130.367188 72.3125 C 126.078125 73.589844 122.03125 75.371094 118.289062 77.578125 C 117.714844 77.917969 117.039062 77.851562 116.769531 77.421875 C 116.5 76.988281 116.753906 76.339844 117.351562 75.988281 C 121.222656 73.703125 125.40625 71.863281 129.839844 70.539062 C 130.519531 70.335938 130.96875 69.785156 130.835938 69.292969 C 130.703125 68.800781 130.019531 68.558594 129.3125 68.769531 C 122.480469 70.453125 116.089844 73.332031 110.378906 77.210938 C 106.976562 79.769531 106.214844 84.148438 107.308594 86.816406 C 103.414062 90.660156 100.101562 95.101562 97.511719 99.992188 Z M 97.511719 99.992188 " fill-opacity="1" fill-rule="nonzero"/><g clip-path="url(#id3)"><path fill="#53aa56" d="M 85.574219 84.863281 C 87.988281 88.859375 89.9375 93.167969 91.359375 97.707031 C 92.230469 97.957031 93.09375 98.226562 93.945312 98.523438 C 95.449219 93.125 97.554688 88.046875 100.164062 83.378906 C 108.332031 68.777344 121.421875 58.203125 136.453125 54.507812 C 136.339844 54.507812 136.230469 54.503906 136.121094 54.503906 C 118.78125 54.503906 103.925781 61.507812 92.363281 74.035156 C 81.652344 65.726562 71.222656 61.828125 58.359375 61.054688 C 69.71875 65.96875 79.230469 74.351562 85.574219 84.863281 Z M 85.574219 84.863281 " fill-opacity="1" fill-rule="nonzero"/></g><g clip-path="url(#id4)"><path fill="#58b25a" d="M 92.789062 93.066406 C 102.074219 68.816406 121.421875 58.203125 136.453125 54.507812 C 136.339844 54.507812 136.230469 54.503906 136.121094 54.503906 C 118.78125 54.503906 103.925781 61.507812 92.363281 74.03125 C 81.652344 65.726562 71.222656 61.828125 58.359375 61.054688 C 69.71875 65.96875 86.757812 76.484375 92.789062 93.066406 Z M 92.789062 93.066406 " fill-opacity="1" fill-rule="nonzero"/></g><path fill="#58b25a" d="M 99.773438 53.742188 C 100 54.285156 100.175781 54.84375 100.292969 55.417969 C 100.414062 55.992188 100.472656 56.574219 100.480469 57.160156 C 100.484375 57.75 100.429688 58.332031 100.320312 58.90625 C 100.210938 59.484375 100.042969 60.046875 99.824219 60.589844 C 99.601562 61.132812 99.332031 61.652344 99.007812 62.140625 C 98.6875 62.632812 98.320312 63.085938 97.910156 63.507812 C 97.496094 63.925781 97.046875 64.300781 96.5625 64.628906 C 96.078125 64.957031 95.566406 65.238281 95.023438 65.46875 C 94.484375 65.695312 93.925781 65.871094 93.351562 65.988281 C 92.777344 66.105469 92.195312 66.167969 91.609375 66.171875 C 91.023438 66.179688 90.441406 66.125 89.867188 66.015625 C 89.289062 65.902344 88.730469 65.738281 88.1875 65.519531 C 87.640625 65.296875 87.125 65.027344 86.632812 64.703125 C 86.144531 64.378906 85.691406 64.011719 85.273438 63.601562 C 84.855469 63.1875 84.480469 62.738281 84.152344 62.253906 C 83.820312 61.765625 83.542969 61.253906 83.3125 60.714844 C 83.085938 60.171875 82.910156 59.613281 82.792969 59.039062 C 82.675781 58.464844 82.613281 57.882812 82.609375 57.292969 C 82.605469 56.707031 82.65625 56.125 82.765625 55.546875 C 82.878906 54.972656 83.042969 54.410156 83.261719 53.867188 C 83.484375 53.324219 83.753906 52.804688 84.078125 52.3125 C 84.398438 51.824219 84.765625 51.367188 85.179688 50.949219 C 85.589844 50.53125 86.039062 50.15625 86.523438 49.828125 C 87.007812 49.496094 87.523438 49.21875 88.0625 48.988281 C 88.601562 48.761719 89.160156 48.585938 89.734375 48.46875 C 90.308594 48.347656 90.890625 48.289062 91.476562 48.28125 C 92.0625 48.277344 92.644531 48.332031 93.222656 48.441406 C 93.796875 48.550781 94.359375 48.71875 94.902344 48.9375 C 95.445312 49.160156 95.960938 49.429688 96.453125 49.753906 C 96.941406 50.078125 97.398438 50.445312 97.8125 50.855469 C 98.230469 51.269531 98.605469 51.71875 98.9375 52.203125 C 99.265625 52.6875 99.542969 53.203125 99.773438 53.742188 Z M 99.773438 53.742188 " fill-opacity="1" fill-rule="nonzero"/><path fill="#53aa56" d="M 91.542969 63.992188 C 86.804688 63.992188 82.929688 60.746094 82.628906 56.644531 C 82.617188 56.839844 82.609375 57.03125 82.609375 57.226562 C 82.609375 62.167969 86.609375 66.171875 91.542969 66.171875 C 96.480469 66.171875 100.480469 62.167969 100.480469 57.226562 C 100.480469 57.03125 100.472656 56.839844 100.460938 56.644531 C 100.160156 60.746094 96.285156 63.992188 91.542969 63.992188 Z M 91.542969 63.992188 " fill-opacity="1" fill-rule="nonzero"/><g clip-path="url(#id5)"><path fill="#53aa56" d="M 94.273438 114.285156 C 86.070312 114.285156 78.421875 111.902344 71.984375 107.789062 C 74.679688 108.773438 77.519531 109.578125 80.484375 110.179688 C 90.414062 112.191406 99.992188 111.550781 107.804688 108.859375 C 100.367188 102.023438 89.703125 97.738281 77.855469 97.738281 C 70.480469 97.738281 63.5625 99.398438 57.597656 102.296875 C 64.804688 113.726562 77.527344 121.316406 92.023438 121.316406 C 116.359375 121.316406 128.710938 101.820312 131.128906 91.863281 C 126.269531 101.484375 114.0625 114.285156 94.273438 114.285156 Z M 94.273438 114.285156 " fill-opacity="1" fill-rule="nonzero"/></g><path fill="#58b25a" d="M 94.273438 114.285156 C 86.070312 114.285156 78.421875 111.902344 71.984375 107.789062 C 74.679688 108.773438 77.519531 109.578125 80.484375 110.179688 C 90.414062 112.191406 99.992188 111.550781 107.804688 108.859375 C 100.367188 102.023438 89.703125 97.738281 77.855469 97.738281 C 70.480469 97.738281 63.5625 99.398438 57.597656 102.296875 C 64.804688 113.726562 77.527344 118.632812 92.023438 118.632812 C 116.359375 118.632812 128.710938 101.820312 131.128906 91.863281 C 126.269531 101.484375 114.0625 114.285156 94.273438 114.285156 Z M 94.273438 114.285156 " fill-opacity="1" fill-rule="nonzero"/><g fill="#00c2cb" fill-opacity="1"><g transform="translate(24.5625, 139.924977)"><g><path d="M 5.625 0 L 3.515625 -7.453125 L 3.453125 -7.453125 C 3.546875 -6.179688 3.59375 -5.195312 3.59375 -4.5 L 3.59375 0 L 1.125 0 L 1.125 -10.34375 L 4.84375 -10.34375 L 7 -3 L 7.0625 -3 L 9.171875 -10.34375 L 12.90625 -10.34375 L 12.90625 0 L 10.34375 0 L 10.34375 -4.53125 C 10.34375 -4.769531 10.34375 -5.03125 10.34375 -5.3125 C 10.351562 -5.601562 10.382812 -6.3125 10.4375 -7.4375 L 10.375 -7.4375 L 8.296875 0 Z M 5.625 0 "/></g></g></g><g fill="#00c2cb" fill-opacity="1"><g transform="translate(38.577277, 139.924977)"><g><path d="M 6.1875 0 L 5.65625 -1.0625 L 5.59375 -1.0625 C 5.226562 -0.601562 4.847656 -0.285156 4.453125 -0.109375 C 4.066406 0.0546875 3.566406 0.140625 2.953125 0.140625 C 2.203125 0.140625 1.609375 -0.0820312 1.171875 -0.53125 C 0.742188 -0.988281 0.53125 -1.628906 0.53125 -2.453125 C 0.53125 -3.304688 0.828125 -3.941406 1.421875 -4.359375 C 2.015625 -4.773438 2.875 -5.007812 4 -5.0625 L 5.34375 -5.109375 L 5.34375 -5.21875 C 5.34375 -5.875 5.015625 -6.203125 4.359375 -6.203125 C 3.773438 -6.203125 3.03125 -6.003906 2.125 -5.609375 L 1.328125 -7.4375 C 2.265625 -7.914062 3.445312 -8.15625 4.875 -8.15625 C 5.90625 -8.15625 6.703125 -7.898438 7.265625 -7.390625 C 7.828125 -6.890625 8.109375 -6.179688 8.109375 -5.265625 L 8.109375 0 Z M 4.140625 -1.8125 C 4.472656 -1.8125 4.757812 -1.914062 5 -2.125 C 5.238281 -2.34375 5.359375 -2.617188 5.359375 -2.953125 L 5.359375 -3.578125 L 4.71875 -3.546875 C 3.800781 -3.515625 3.34375 -3.179688 3.34375 -2.546875 C 3.34375 -2.054688 3.609375 -1.8125 4.140625 -1.8125 Z M 4.140625 -1.8125 "/></g></g></g><g fill="#00c2cb" fill-opacity="1"><g transform="translate(47.609022, 139.924977)"><g><path d="M 3.453125 0.140625 C 2.878906 0.140625 2.378906 -0.0195312 1.953125 -0.34375 C 1.523438 -0.664062 1.191406 -1.144531 0.953125 -1.78125 C 0.722656 -2.414062 0.609375 -3.15625 0.609375 -4 C 0.609375 -5.300781 0.867188 -6.316406 1.390625 -7.046875 C 1.921875 -7.785156 2.640625 -8.15625 3.546875 -8.15625 C 4.003906 -8.15625 4.398438 -8.066406 4.734375 -7.890625 C 5.066406 -7.710938 5.375 -7.410156 5.65625 -6.984375 L 5.71875 -6.984375 C 5.625 -7.617188 5.578125 -8.25 5.578125 -8.875 L 5.578125 -11.015625 L 8.375 -11.015625 L 8.375 0 L 6.28125 0 L 5.6875 -1.015625 L 5.578125 -1.015625 C 5.097656 -0.242188 4.390625 0.140625 3.453125 0.140625 Z M 4.578125 -2.046875 C 5.023438 -2.046875 5.335938 -2.179688 5.515625 -2.453125 C 5.703125 -2.734375 5.800781 -3.164062 5.8125 -3.75 L 5.8125 -3.96875 C 5.8125 -4.675781 5.707031 -5.179688 5.5 -5.484375 C 5.300781 -5.785156 4.984375 -5.9375 4.546875 -5.9375 C 4.179688 -5.9375 3.898438 -5.765625 3.703125 -5.421875 C 3.503906 -5.078125 3.40625 -4.585938 3.40625 -3.953125 C 3.40625 -3.328125 3.503906 -2.851562 3.703125 -2.53125 C 3.910156 -2.207031 4.203125 -2.046875 4.578125 -2.046875 Z M 4.578125 -2.046875 "/></g></g></g><g fill="#00c2cb" fill-opacity="1"><g transform="translate(56.930977, 139.924977)"><g><path d="M 4.828125 0.140625 C 3.492188 0.140625 2.457031 -0.210938 1.71875 -0.921875 C 0.976562 -1.628906 0.609375 -2.640625 0.609375 -3.953125 C 0.609375 -5.304688 0.945312 -6.34375 1.625 -7.0625 C 2.3125 -7.789062 3.289062 -8.15625 4.5625 -8.15625 C 5.769531 -8.15625 6.703125 -7.835938 7.359375 -7.203125 C 8.023438 -6.578125 8.359375 -5.675781 8.359375 -4.5 L 8.359375 -3.265625 L 3.40625 -3.265625 C 3.425781 -2.816406 3.585938 -2.460938 3.890625 -2.203125 C 4.203125 -1.953125 4.625 -1.828125 5.15625 -1.828125 C 5.644531 -1.828125 6.09375 -1.875 6.5 -1.96875 C 6.90625 -2.0625 7.347656 -2.21875 7.828125 -2.4375 L 7.828125 -0.453125 C 7.390625 -0.222656 6.941406 -0.0664062 6.484375 0.015625 C 6.023438 0.0976562 5.472656 0.140625 4.828125 0.140625 Z M 4.671875 -6.28125 C 4.335938 -6.28125 4.0625 -6.175781 3.84375 -5.96875 C 3.625 -5.769531 3.5 -5.445312 3.46875 -5 L 5.84375 -5 C 5.832031 -5.394531 5.722656 -5.707031 5.515625 -5.9375 C 5.304688 -6.164062 5.023438 -6.28125 4.671875 -6.28125 Z M 4.671875 -6.28125 "/></g></g></g><g fill="#00c2cb" fill-opacity="1"><g transform="translate(65.89194, 139.924977)"><g><path d="M 5.796875 -8.15625 C 6.035156 -8.15625 6.265625 -8.140625 6.484375 -8.109375 L 6.640625 -8.078125 L 6.390625 -5.46875 C 6.160156 -5.519531 5.847656 -5.546875 5.453125 -5.546875 C 4.847656 -5.546875 4.40625 -5.40625 4.125 -5.125 C 3.851562 -4.851562 3.71875 -4.457031 3.71875 -3.9375 L 3.71875 0 L 0.953125 0 L 0.953125 -8.015625 L 3.015625 -8.015625 L 3.453125 -6.734375 L 3.578125 -6.734375 C 3.804688 -7.160156 4.128906 -7.503906 4.546875 -7.765625 C 4.960938 -8.023438 5.378906 -8.15625 5.796875 -8.15625 Z M 5.796875 -8.15625 "/></g></g></g><g fill="#00c2cb" fill-opacity="1"><g transform="translate(72.694067, 139.924977)"><g><path d="M 6.1875 0 L 5.65625 -1.0625 L 5.59375 -1.0625 C 5.226562 -0.601562 4.847656 -0.285156 4.453125 -0.109375 C 4.066406 0.0546875 3.566406 0.140625 2.953125 0.140625 C 2.203125 0.140625 1.609375 -0.0820312 1.171875 -0.53125 C 0.742188 -0.988281 0.53125 -1.628906 0.53125 -2.453125 C 0.53125 -3.304688 0.828125 -3.941406 1.421875 -4.359375 C 2.015625 -4.773438 2.875 -5.007812 4 -5.0625 L 5.34375 -5.109375 L 5.34375 -5.21875 C 5.34375 -5.875 5.015625 -6.203125 4.359375 -6.203125 C 3.773438 -6.203125 3.03125 -6.003906 2.125 -5.609375 L 1.328125 -7.4375 C 2.265625 -7.914062 3.445312 -8.15625 4.875 -8.15625 C 5.90625 -8.15625 6.703125 -7.898438 7.265625 -7.390625 C 7.828125 -6.890625 8.109375 -6.179688 8.109375 -5.265625 L 8.109375 0 Z M 4.140625 -1.8125 C 4.472656 -1.8125 4.757812 -1.914062 5 -2.125 C 5.238281 -2.34375 5.359375 -2.617188 5.359375 -2.953125 L 5.359375 -3.578125 L 4.71875 -3.546875 C 3.800781 -3.515625 3.34375 -3.179688 3.34375 -2.546875 C 3.34375 -2.054688 3.609375 -1.8125 4.140625 -1.8125 Z M 4.140625 -1.8125 "/></g></g></g><g fill="#00c2cb" fill-opacity="1"><g transform="translate(81.725812, 139.924977)"><g/></g></g><g fill="#00c2cb" fill-opacity="1"><g transform="translate(85.491398, 139.924977)"><g><path d="M 3.875 0 L 1.125 0 L 1.125 -10.34375 L 7.234375 -10.34375 L 7.234375 -8.109375 L 3.875 -8.109375 L 3.875 -6.125 L 6.96875 -6.125 L 6.96875 -3.890625 L 3.875 -3.890625 Z M 3.875 0 "/></g></g></g><g fill="#00c2cb" fill-opacity="1"><g transform="translate(93.305698, 139.924977)"><g><path d="M 8.609375 -4.03125 C 8.609375 -2.71875 8.253906 -1.691406 7.546875 -0.953125 C 6.847656 -0.222656 5.863281 0.140625 4.59375 0.140625 C 3.375 0.140625 2.40625 -0.234375 1.6875 -0.984375 C 0.96875 -1.734375 0.609375 -2.75 0.609375 -4.03125 C 0.609375 -5.332031 0.957031 -6.34375 1.65625 -7.0625 C 2.363281 -7.789062 3.359375 -8.15625 4.640625 -8.15625 C 5.421875 -8.15625 6.113281 -7.988281 6.71875 -7.65625 C 7.320312 -7.320312 7.785156 -6.84375 8.109375 -6.21875 C 8.441406 -5.59375 8.609375 -4.863281 8.609375 -4.03125 Z M 3.421875 -4.03125 C 3.421875 -3.34375 3.507812 -2.816406 3.6875 -2.453125 C 3.875 -2.085938 4.1875 -1.90625 4.625 -1.90625 C 5.050781 -1.90625 5.351562 -2.085938 5.53125 -2.453125 C 5.707031 -2.816406 5.796875 -3.34375 5.796875 -4.03125 C 5.796875 -4.71875 5.707031 -5.234375 5.53125 -5.578125 C 5.351562 -5.929688 5.046875 -6.109375 4.609375 -6.109375 C 4.179688 -6.109375 3.875 -5.929688 3.6875 -5.578125 C 3.507812 -5.234375 3.421875 -4.71875 3.421875 -4.03125 Z M 3.421875 -4.03125 "/></g></g></g><g fill="#00c2cb" fill-opacity="1"><g transform="translate(102.542715, 139.924977)"><g><path d="M 8.609375 -4.03125 C 8.609375 -2.71875 8.253906 -1.691406 7.546875 -0.953125 C 6.847656 -0.222656 5.863281 0.140625 4.59375 0.140625 C 3.375 0.140625 2.40625 -0.234375 1.6875 -0.984375 C 0.96875 -1.734375 0.609375 -2.75 0.609375 -4.03125 C 0.609375 -5.332031 0.957031 -6.34375 1.65625 -7.0625 C 2.363281 -7.789062 3.359375 -8.15625 4.640625 -8.15625 C 5.421875 -8.15625 6.113281 -7.988281 6.71875 -7.65625 C 7.320312 -7.320312 7.785156 -6.84375 8.109375 -6.21875 C 8.441406 -5.59375 8.609375 -4.863281 8.609375 -4.03125 Z M 3.421875 -4.03125 C 3.421875 -3.34375 3.507812 -2.816406 3.6875 -2.453125 C 3.875 -2.085938 4.1875 -1.90625 4.625 -1.90625 C 5.050781 -1.90625 5.351562 -2.085938 5.53125 -2.453125 C 5.707031 -2.816406 5.796875 -3.34375 5.796875 -4.03125 C 5.796875 -4.71875 5.707031 -5.234375 5.53125 -5.578125 C 5.351562 -5.929688 5.046875 -6.109375 4.609375 -6.109375 C 4.179688 -6.109375 3.875 -5.929688 3.6875 -5.578125 C 3.507812 -5.234375 3.421875 -4.71875 3.421875 -4.03125 Z M 3.421875 -4.03125 "/></g></g></g><g fill="#00c2cb" fill-opacity="1"><g transform="translate(111.779733, 139.924977)"><g><path d="M 3.453125 0.140625 C 2.878906 0.140625 2.378906 -0.0195312 1.953125 -0.34375 C 1.523438 -0.664062 1.191406 -1.144531 0.953125 -1.78125 C 0.722656 -2.414062 0.609375 -3.15625 0.609375 -4 C 0.609375 -5.300781 0.867188 -6.316406 1.390625 -7.046875 C 1.921875 -7.785156 2.640625 -8.15625 3.546875 -8.15625 C 4.003906 -8.15625 4.398438 -8.066406 4.734375 -7.890625 C 5.066406 -7.710938 5.375 -7.410156 5.65625 -6.984375 L 5.71875 -6.984375 C 5.625 -7.617188 5.578125 -8.25 5.578125 -8.875 L 5.578125 -11.015625 L 8.375 -11.015625 L 8.375 0 L 6.28125 0 L 5.6875 -1.015625 L 5.578125 -1.015625 C 5.097656 -0.242188 4.390625 0.140625 3.453125 0.140625 Z M 4.578125 -2.046875 C 5.023438 -2.046875 5.335938 -2.179688 5.515625 -2.453125 C 5.703125 -2.734375 5.800781 -3.164062 5.8125 -3.75 L 5.8125 -3.96875 C 5.8125 -4.675781 5.707031 -5.179688 5.5 -5.484375 C 5.300781 -5.785156 4.984375 -5.9375 4.546875 -5.9375 C 4.179688 -5.9375 3.898438 -5.765625 3.703125 -5.421875 C 3.503906 -5.078125 3.40625 -4.585938 3.40625 -3.953125 C 3.40625 -3.328125 3.503906 -2.851562 3.703125 -2.53125 C 3.910156 -2.207031 4.203125 -2.046875 4.578125 -2.046875 Z M 4.578125 -2.046875 "/></g></g></g><g fill="#00c2cb" fill-opacity="1"><g transform="translate(121.101688, 139.924977)"><g/></g></g><g fill="#00c2cb" fill-opacity="1"><g transform="translate(124.867275, 139.924977)"><g><path d="M 1.125 -10.34375 L 4.734375 -10.34375 C 6.140625 -10.34375 7.179688 -10.132812 7.859375 -9.71875 C 8.546875 -9.300781 8.890625 -8.65625 8.890625 -7.78125 C 8.890625 -7.195312 8.738281 -6.695312 8.4375 -6.28125 C 8.144531 -5.875 7.753906 -5.613281 7.265625 -5.5 L 7.265625 -5.421875 C 7.910156 -5.253906 8.375 -4.972656 8.65625 -4.578125 C 8.945312 -4.179688 9.09375 -3.664062 9.09375 -3.03125 C 9.09375 -2.09375 8.738281 -1.351562 8.03125 -0.8125 C 7.320312 -0.269531 6.359375 0 5.140625 0 L 1.125 0 Z M 3.921875 -6.375 L 4.765625 -6.375 C 5.160156 -6.375 5.46875 -6.457031 5.6875 -6.625 C 5.90625 -6.789062 6.015625 -7.035156 6.015625 -7.359375 C 6.015625 -7.941406 5.578125 -8.234375 4.703125 -8.234375 L 3.921875 -8.234375 Z M 3.921875 -4.328125 L 3.921875 -2.15625 L 4.90625 -2.15625 C 5.769531 -2.15625 6.203125 -2.523438 6.203125 -3.265625 C 6.203125 -3.609375 6.085938 -3.867188 5.859375 -4.046875 C 5.628906 -4.234375 5.289062 -4.328125 4.84375 -4.328125 Z M 3.921875 -4.328125 "/></g></g></g><g fill="#00c2cb" fill-opacity="1"><g transform="translate(134.635149, 139.924977)"><g><path d="M 6.1875 0 L 5.65625 -1.0625 L 5.59375 -1.0625 C 5.226562 -0.601562 4.847656 -0.285156 4.453125 -0.109375 C 4.066406 0.0546875 3.566406 0.140625 2.953125 0.140625 C 2.203125 0.140625 1.609375 -0.0820312 1.171875 -0.53125 C 0.742188 -0.988281 0.53125 -1.628906 0.53125 -2.453125 C 0.53125 -3.304688 0.828125 -3.941406 1.421875 -4.359375 C 2.015625 -4.773438 2.875 -5.007812 4 -5.0625 L 5.34375 -5.109375 L 5.34375 -5.21875 C 5.34375 -5.875 5.015625 -6.203125 4.359375 -6.203125 C 3.773438 -6.203125 3.03125 -6.003906 2.125 -5.609375 L 1.328125 -7.4375 C 2.265625 -7.914062 3.445312 -8.15625 4.875 -8.15625 C 5.90625 -8.15625 6.703125 -7.898438 7.265625 -7.390625 C 7.828125 -6.890625 8.109375 -6.179688 8.109375 -5.265625 L 8.109375 0 Z M 4.140625 -1.8125 C 4.472656 -1.8125 4.757812 -1.914062 5 -2.125 C 5.238281 -2.34375 5.359375 -2.617188 5.359375 -2.953125 L 5.359375 -3.578125 L 4.71875 -3.546875 C 3.800781 -3.515625 3.34375 -3.179688 3.34375 -2.546875 C 3.34375 -2.054688 3.609375 -1.8125 4.140625 -1.8125 Z M 4.140625 -1.8125 "/></g></g></g><g fill="#00c2cb" fill-opacity="1"><g transform="translate(143.666894, 139.924977)"><g><path d="M 6.015625 0 L 6.015625 -4.375 C 6.015625 -4.90625 5.9375 -5.304688 5.78125 -5.578125 C 5.632812 -5.847656 5.390625 -5.984375 5.046875 -5.984375 C 4.578125 -5.984375 4.238281 -5.796875 4.03125 -5.421875 C 3.820312 -5.054688 3.71875 -4.421875 3.71875 -3.515625 L 3.71875 0 L 0.953125 0 L 0.953125 -8.015625 L 3.046875 -8.015625 L 3.390625 -7.03125 L 3.546875 -7.03125 C 3.785156 -7.40625 4.113281 -7.6875 4.53125 -7.875 C 4.945312 -8.0625 5.425781 -8.15625 5.96875 -8.15625 C 6.863281 -8.15625 7.554688 -7.898438 8.046875 -7.390625 C 8.535156 -6.878906 8.78125 -6.15625 8.78125 -5.21875 L 8.78125 0 Z M 6.015625 0 "/></g></g></g><g fill="#00c2cb" fill-opacity="1"><g transform="translate(153.378143, 139.924977)"><g><path d="M 3.640625 -4.515625 C 3.972656 -5.046875 4.257812 -5.457031 4.5 -5.75 L 6.296875 -8.015625 L 9.375 -8.015625 L 6.59375 -4.609375 L 9.5625 0 L 6.390625 0 L 4.640625 -2.875 L 3.734375 -2.1875 L 3.734375 0 L 0.953125 0 L 0.953125 -11.015625 L 3.734375 -11.015625 L 3.734375 -6.6875 C 3.734375 -5.945312 3.679688 -5.222656 3.578125 -4.515625 Z M 3.640625 -4.515625 "/></g></g></g><g fill="#737373" fill-opacity="1"><g transform="translate(48.11737, 149.325018)"><g><path d="M 2.96875 -1.109375 C 2.96875 -0.742188 2.835938 -0.457031 2.578125 -0.25 C 2.316406 -0.0390625 1.96875 0.0625 1.53125 0.0625 C 1.007812 0.0625 0.609375 0.00390625 0.328125 -0.109375 L 0.328125 -0.40625 C 0.628906 -0.28125 1.019531 -0.21875 1.5 -0.21875 C 1.851562 -0.21875 2.132812 -0.296875 2.34375 -0.453125 C 2.550781 -0.617188 2.65625 -0.832031 2.65625 -1.09375 C 2.65625 -1.257812 2.617188 -1.394531 2.546875 -1.5 C 2.484375 -1.601562 2.375 -1.695312 2.21875 -1.78125 C 2.0625 -1.875 1.832031 -1.972656 1.53125 -2.078125 C 1.09375 -2.222656 0.789062 -2.382812 0.625 -2.5625 C 0.457031 -2.738281 0.375 -2.972656 0.375 -3.265625 C 0.375 -3.578125 0.5 -3.832031 0.75 -4.03125 C 1 -4.238281 1.320312 -4.34375 1.71875 -4.34375 C 2.125 -4.34375 2.503906 -4.265625 2.859375 -4.109375 L 2.75 -3.859375 C 2.394531 -4.003906 2.054688 -4.078125 1.734375 -4.078125 C 1.410156 -4.078125 1.15625 -4.003906 0.96875 -3.859375 C 0.78125 -3.710938 0.6875 -3.515625 0.6875 -3.265625 C 0.6875 -3.109375 0.710938 -2.976562 0.765625 -2.875 C 0.828125 -2.769531 0.921875 -2.675781 1.046875 -2.59375 C 1.179688 -2.519531 1.410156 -2.425781 1.734375 -2.3125 C 2.066406 -2.195312 2.316406 -2.082031 2.484375 -1.96875 C 2.648438 -1.863281 2.769531 -1.738281 2.84375 -1.59375 C 2.925781 -1.457031 2.96875 -1.296875 2.96875 -1.109375 Z M 2.96875 -1.109375 "/></g></g><g transform="translate(51.386922, 149.325018)"><g><path d="M 1.8125 0.0625 C 1.351562 0.0625 0.992188 -0.078125 0.734375 -0.359375 C 0.472656 -0.648438 0.34375 -1.050781 0.34375 -1.5625 C 0.34375 -2.070312 0.46875 -2.476562 0.71875 -2.78125 C 0.96875 -3.09375 1.304688 -3.25 1.734375 -3.25 C 2.109375 -3.25 2.40625 -3.117188 2.625 -2.859375 C 2.84375 -2.597656 2.953125 -2.238281 2.953125 -1.78125 L 2.953125 -1.546875 L 0.65625 -1.546875 C 0.65625 -1.109375 0.753906 -0.773438 0.953125 -0.546875 C 1.160156 -0.316406 1.445312 -0.203125 1.8125 -0.203125 C 2 -0.203125 2.160156 -0.210938 2.296875 -0.234375 C 2.429688 -0.265625 2.609375 -0.320312 2.828125 -0.40625 L 2.828125 -0.140625 C 2.640625 -0.0664062 2.46875 -0.015625 2.3125 0.015625 C 2.164062 0.046875 2 0.0625 1.8125 0.0625 Z M 1.734375 -2.984375 C 1.429688 -2.984375 1.1875 -2.878906 1 -2.671875 C 0.8125 -2.472656 0.703125 -2.1875 0.671875 -1.8125 L 2.640625 -1.8125 C 2.640625 -2.175781 2.554688 -2.460938 2.390625 -2.671875 C 2.234375 -2.878906 2.015625 -2.984375 1.734375 -2.984375 Z M 1.734375 -2.984375 "/></g></g><g transform="translate(54.679911, 149.325018)"><g><path d="M 1.78125 -3.25 C 1.914062 -3.25 2.0625 -3.234375 2.21875 -3.203125 L 2.171875 -2.921875 C 2.035156 -2.960938 1.894531 -2.984375 1.75 -2.984375 C 1.476562 -2.984375 1.253906 -2.863281 1.078125 -2.625 C 0.910156 -2.394531 0.828125 -2.109375 0.828125 -1.765625 L 0.828125 0 L 0.53125 0 L 0.53125 -3.1875 L 0.78125 -3.1875 L 0.8125 -2.609375 L 0.828125 -2.609375 C 0.960938 -2.847656 1.101562 -3.015625 1.25 -3.109375 C 1.394531 -3.203125 1.570312 -3.25 1.78125 -3.25 Z M 1.78125 -3.25 "/></g></g><g transform="translate(57.014887, 149.325018)"><g><path d="M 1.234375 0 L 0 -3.1875 L 0.296875 -3.1875 L 1.125 -1.015625 C 1.226562 -0.742188 1.3125 -0.503906 1.375 -0.296875 L 1.390625 -0.296875 C 1.460938 -0.554688 1.539062 -0.800781 1.625 -1.03125 L 2.453125 -3.1875 L 2.75 -3.1875 L 1.53125 0 Z M 1.234375 0 "/></g></g><g transform="translate(59.76881, 149.325018)"><g><path d="M 0.828125 0 L 0.53125 0 L 0.53125 -3.1875 L 0.828125 -3.1875 Z M 0.5 -4.0625 C 0.5 -4.25 0.554688 -4.34375 0.671875 -4.34375 C 0.734375 -4.34375 0.78125 -4.316406 0.8125 -4.265625 C 0.851562 -4.222656 0.875 -4.15625 0.875 -4.0625 C 0.875 -3.976562 0.851562 -3.910156 0.8125 -3.859375 C 0.78125 -3.804688 0.734375 -3.78125 0.671875 -3.78125 C 0.554688 -3.78125 0.5 -3.875 0.5 -4.0625 Z M 0.5 -4.0625 "/></g></g><g transform="translate(61.125264, 149.325018)"><g><path d="M 2.75 0 L 2.75 -2.0625 C 2.75 -2.382812 2.679688 -2.617188 2.546875 -2.765625 C 2.410156 -2.910156 2.203125 -2.984375 1.921875 -2.984375 C 1.546875 -2.984375 1.269531 -2.882812 1.09375 -2.6875 C 0.914062 -2.5 0.828125 -2.191406 0.828125 -1.765625 L 0.828125 0 L 0.53125 0 L 0.53125 -3.1875 L 0.78125 -3.1875 L 0.828125 -2.75 L 0.859375 -2.75 C 1.054688 -3.082031 1.421875 -3.25 1.953125 -3.25 C 2.679688 -3.25 3.046875 -2.859375 3.046875 -2.078125 L 3.046875 0 Z M 2.75 0 "/></g></g><g transform="translate(64.664348, 149.325018)"><g><path d="M 3.015625 -3.1875 L 3.015625 -2.984375 L 2.359375 -2.9375 C 2.535156 -2.71875 2.625 -2.476562 2.625 -2.21875 C 2.625 -1.914062 2.519531 -1.664062 2.3125 -1.46875 C 2.113281 -1.28125 1.84375 -1.1875 1.5 -1.1875 C 1.351562 -1.1875 1.25 -1.191406 1.1875 -1.203125 C 1.070312 -1.140625 0.984375 -1.066406 0.921875 -0.984375 C 0.859375 -0.910156 0.828125 -0.828125 0.828125 -0.734375 C 0.828125 -0.628906 0.863281 -0.550781 0.9375 -0.5 C 1.019531 -0.457031 1.15625 -0.4375 1.34375 -0.4375 L 1.890625 -0.4375 C 2.242188 -0.4375 2.507812 -0.363281 2.6875 -0.21875 C 2.875 -0.0820312 2.96875 0.117188 2.96875 0.390625 C 2.96875 0.722656 2.828125 0.976562 2.546875 1.15625 C 2.273438 1.34375 1.890625 1.4375 1.390625 1.4375 C 0.992188 1.4375 0.679688 1.359375 0.453125 1.203125 C 0.234375 1.054688 0.125 0.84375 0.125 0.5625 C 0.125 0.34375 0.191406 0.160156 0.328125 0.015625 C 0.472656 -0.128906 0.660156 -0.226562 0.890625 -0.28125 C 0.796875 -0.320312 0.71875 -0.378906 0.65625 -0.453125 C 0.601562 -0.523438 0.578125 -0.609375 0.578125 -0.703125 C 0.578125 -0.921875 0.710938 -1.109375 0.984375 -1.265625 C 0.796875 -1.347656 0.648438 -1.46875 0.546875 -1.625 C 0.441406 -1.789062 0.390625 -1.976562 0.390625 -2.1875 C 0.390625 -2.507812 0.488281 -2.765625 0.6875 -2.953125 C 0.894531 -3.148438 1.171875 -3.25 1.515625 -3.25 C 1.722656 -3.25 1.882812 -3.226562 2 -3.1875 Z M 0.4375 0.546875 C 0.4375 0.984375 0.765625 1.203125 1.421875 1.203125 C 2.253906 1.203125 2.671875 0.929688 2.671875 0.390625 C 2.671875 0.203125 2.601562 0.0664062 2.46875 -0.015625 C 2.34375 -0.109375 2.132812 -0.15625 1.84375 -0.15625 L 1.3125 -0.15625 C 0.726562 -0.15625 0.4375 0.078125 0.4375 0.546875 Z M 0.6875 -2.1875 C 0.6875 -1.945312 0.757812 -1.757812 0.90625 -1.625 C 1.050781 -1.488281 1.25 -1.421875 1.5 -1.421875 C 1.769531 -1.421875 1.972656 -1.484375 2.109375 -1.609375 C 2.253906 -1.742188 2.328125 -1.941406 2.328125 -2.203125 C 2.328125 -2.472656 2.253906 -2.675781 2.109375 -2.8125 C 1.960938 -2.945312 1.757812 -3.015625 1.5 -3.015625 C 1.25 -3.015625 1.050781 -2.941406 0.90625 -2.796875 C 0.757812 -2.648438 0.6875 -2.445312 0.6875 -2.1875 Z M 0.6875 -2.1875 "/></g></g><g transform="translate(67.802063, 149.325018)"><g/></g><g transform="translate(69.360666, 149.325018)"><g><path d="M 1.375 -0.203125 C 1.5625 -0.203125 1.722656 -0.21875 1.859375 -0.25 L 1.859375 -0.015625 C 1.710938 0.0351562 1.550781 0.0625 1.375 0.0625 C 1.09375 0.0625 0.882812 -0.0078125 0.75 -0.15625 C 0.613281 -0.3125 0.546875 -0.550781 0.546875 -0.875 L 0.546875 -2.9375 L 0.078125 -2.9375 L 0.078125 -3.109375 L 0.546875 -3.234375 L 0.6875 -3.953125 L 0.84375 -3.953125 L 0.84375 -3.1875 L 1.78125 -3.1875 L 1.78125 -2.9375 L 0.84375 -2.9375 L 0.84375 -0.921875 C 0.84375 -0.671875 0.882812 -0.488281 0.96875 -0.375 C 1.050781 -0.257812 1.1875 -0.203125 1.375 -0.203125 Z M 1.375 -0.203125 "/></g></g><g transform="translate(71.370444, 149.325018)"><g><path d="M 2.75 0 L 2.75 -2.0625 C 2.75 -2.382812 2.679688 -2.617188 2.546875 -2.765625 C 2.410156 -2.910156 2.203125 -2.984375 1.921875 -2.984375 C 1.546875 -2.984375 1.269531 -2.882812 1.09375 -2.6875 C 0.914062 -2.5 0.828125 -2.191406 0.828125 -1.765625 L 0.828125 0 L 0.53125 0 L 0.53125 -4.5625 L 0.828125 -4.5625 L 0.828125 -3.109375 L 0.8125 -2.703125 L 0.828125 -2.703125 C 0.953125 -2.890625 1.101562 -3.023438 1.28125 -3.109375 C 1.457031 -3.203125 1.679688 -3.25 1.953125 -3.25 C 2.679688 -3.25 3.046875 -2.859375 3.046875 -2.078125 L 3.046875 0 Z M 2.75 0 "/></g></g><g transform="translate(74.909529, 149.325018)"><g><path d="M 1.8125 0.0625 C 1.351562 0.0625 0.992188 -0.078125 0.734375 -0.359375 C 0.472656 -0.648438 0.34375 -1.050781 0.34375 -1.5625 C 0.34375 -2.070312 0.46875 -2.476562 0.71875 -2.78125 C 0.96875 -3.09375 1.304688 -3.25 1.734375 -3.25 C 2.109375 -3.25 2.40625 -3.117188 2.625 -2.859375 C 2.84375 -2.597656 2.953125 -2.238281 2.953125 -1.78125 L 2.953125 -1.546875 L 0.65625 -1.546875 C 0.65625 -1.109375 0.753906 -0.773438 0.953125 -0.546875 C 1.160156 -0.316406 1.445312 -0.203125 1.8125 -0.203125 C 2 -0.203125 2.160156 -0.210938 2.296875 -0.234375 C 2.429688 -0.265625 2.609375 -0.320312 2.828125 -0.40625 L 2.828125 -0.140625 C 2.640625 -0.0664062 2.46875 -0.015625 2.3125 0.015625 C 2.164062 0.046875 2 0.0625 1.8125 0.0625 Z M 1.734375 -2.984375 C 1.429688 -2.984375 1.1875 -2.878906 1 -2.671875 C 0.8125 -2.472656 0.703125 -2.1875 0.671875 -1.8125 L 2.640625 -1.8125 C 2.640625 -2.175781 2.554688 -2.460938 2.390625 -2.671875 C 2.234375 -2.878906 2.015625 -2.984375 1.734375 -2.984375 Z M 1.734375 -2.984375 "/></g></g><g transform="translate(78.202518, 149.325018)"><g/></g><g transform="translate(79.761121, 149.325018)"><g><path d="M 1.71875 -2.9375 L 0.96875 -2.9375 L 0.96875 0 L 0.671875 0 L 0.671875 -2.9375 L 0.078125 -2.9375 L 0.078125 -3.109375 L 0.671875 -3.21875 L 0.671875 -3.453125 C 0.671875 -3.847656 0.742188 -4.132812 0.890625 -4.3125 C 1.035156 -4.5 1.269531 -4.59375 1.59375 -4.59375 C 1.769531 -4.59375 1.945312 -4.566406 2.125 -4.515625 L 2.0625 -4.265625 C 1.90625 -4.304688 1.75 -4.328125 1.59375 -4.328125 C 1.363281 -4.328125 1.203125 -4.257812 1.109375 -4.125 C 1.015625 -4 0.96875 -3.785156 0.96875 -3.484375 L 0.96875 -3.1875 L 1.71875 -3.1875 Z M 1.71875 -2.9375 "/></g></g><g transform="translate(81.559961, 149.325018)"><g><path d="M 3.171875 -1.59375 C 3.171875 -1.070312 3.039062 -0.664062 2.78125 -0.375 C 2.53125 -0.0820312 2.1875 0.0625 1.75 0.0625 C 1.46875 0.0625 1.21875 -0.00390625 1 -0.140625 C 0.789062 -0.273438 0.628906 -0.46875 0.515625 -0.71875 C 0.398438 -0.976562 0.34375 -1.269531 0.34375 -1.59375 C 0.34375 -2.113281 0.46875 -2.519531 0.71875 -2.8125 C 0.976562 -3.101562 1.328125 -3.25 1.765625 -3.25 C 2.203125 -3.25 2.546875 -3.097656 2.796875 -2.796875 C 3.046875 -2.503906 3.171875 -2.101562 3.171875 -1.59375 Z M 0.65625 -1.59375 C 0.65625 -1.15625 0.75 -0.8125 0.9375 -0.5625 C 1.132812 -0.320312 1.410156 -0.203125 1.765625 -0.203125 C 2.109375 -0.203125 2.375 -0.320312 2.5625 -0.5625 C 2.757812 -0.8125 2.859375 -1.15625 2.859375 -1.59375 C 2.859375 -2.03125 2.757812 -2.367188 2.5625 -2.609375 C 2.375 -2.859375 2.101562 -2.984375 1.75 -2.984375 C 1.394531 -2.984375 1.125 -2.863281 0.9375 -2.625 C 0.75 -2.382812 0.65625 -2.039062 0.65625 -1.59375 Z M 0.65625 -1.59375 "/></g></g><g transform="translate(85.075607, 149.325018)"><g><path d="M 3.171875 -1.59375 C 3.171875 -1.070312 3.039062 -0.664062 2.78125 -0.375 C 2.53125 -0.0820312 2.1875 0.0625 1.75 0.0625 C 1.46875 0.0625 1.21875 -0.00390625 1 -0.140625 C 0.789062 -0.273438 0.628906 -0.46875 0.515625 -0.71875 C 0.398438 -0.976562 0.34375 -1.269531 0.34375 -1.59375 C 0.34375 -2.113281 0.46875 -2.519531 0.71875 -2.8125 C 0.976562 -3.101562 1.328125 -3.25 1.765625 -3.25 C 2.203125 -3.25 2.546875 -3.097656 2.796875 -2.796875 C 3.046875 -2.503906 3.171875 -2.101562 3.171875 -1.59375 Z M 0.65625 -1.59375 C 0.65625 -1.15625 0.75 -0.8125 0.9375 -0.5625 C 1.132812 -0.320312 1.410156 -0.203125 1.765625 -0.203125 C 2.109375 -0.203125 2.375 -0.320312 2.5625 -0.5625 C 2.757812 -0.8125 2.859375 -1.15625 2.859375 -1.59375 C 2.859375 -2.03125 2.757812 -2.367188 2.5625 -2.609375 C 2.375 -2.859375 2.101562 -2.984375 1.75 -2.984375 C 1.394531 -2.984375 1.125 -2.863281 0.9375 -2.625 C 0.75 -2.382812 0.65625 -2.039062 0.65625 -1.59375 Z M 0.65625 -1.59375 "/></g></g><g transform="translate(88.591254, 149.325018)"><g><path d="M 1.703125 -3.25 C 1.929688 -3.25 2.128906 -3.207031 2.296875 -3.125 C 2.460938 -3.039062 2.613281 -2.894531 2.75 -2.6875 L 2.765625 -2.6875 C 2.753906 -2.9375 2.75 -3.175781 2.75 -3.40625 L 2.75 -4.5625 L 3.03125 -4.5625 L 3.03125 0 L 2.84375 0 L 2.765625 -0.484375 L 2.75 -0.484375 C 2.507812 -0.117188 2.160156 0.0625 1.703125 0.0625 C 1.265625 0.0625 0.925781 -0.0703125 0.6875 -0.34375 C 0.457031 -0.625 0.34375 -1.023438 0.34375 -1.546875 C 0.34375 -2.097656 0.457031 -2.519531 0.6875 -2.8125 C 0.925781 -3.101562 1.265625 -3.25 1.703125 -3.25 Z M 1.703125 -2.984375 C 1.347656 -2.984375 1.082031 -2.859375 0.90625 -2.609375 C 0.738281 -2.367188 0.65625 -2.015625 0.65625 -1.546875 C 0.65625 -0.648438 1.003906 -0.203125 1.703125 -0.203125 C 2.066406 -0.203125 2.332031 -0.304688 2.5 -0.515625 C 2.664062 -0.722656 2.75 -1.066406 2.75 -1.546875 L 2.75 -1.59375 C 2.75 -2.082031 2.664062 -2.4375 2.5 -2.65625 C 2.332031 -2.875 2.066406 -2.984375 1.703125 -2.984375 Z M 1.703125 -2.984375 "/></g></g><g transform="translate(92.162565, 149.325018)"><g/></g><g transform="translate(93.721169, 149.325018)"><g><path d="M 2.75 0 L 2.75 -2.0625 C 2.75 -2.382812 2.679688 -2.617188 2.546875 -2.765625 C 2.410156 -2.910156 2.203125 -2.984375 1.921875 -2.984375 C 1.546875 -2.984375 1.269531 -2.882812 1.09375 -2.6875 C 0.914062 -2.5 0.828125 -2.191406 0.828125 -1.765625 L 0.828125 0 L 0.53125 0 L 0.53125 -3.1875 L 0.78125 -3.1875 L 0.828125 -2.75 L 0.859375 -2.75 C 1.054688 -3.082031 1.421875 -3.25 1.953125 -3.25 C 2.679688 -3.25 3.046875 -2.859375 3.046875 -2.078125 L 3.046875 0 Z M 2.75 0 "/></g></g><g transform="translate(97.260253, 149.325018)"><g><path d="M 1.8125 0.0625 C 1.351562 0.0625 0.992188 -0.078125 0.734375 -0.359375 C 0.472656 -0.648438 0.34375 -1.050781 0.34375 -1.5625 C 0.34375 -2.070312 0.46875 -2.476562 0.71875 -2.78125 C 0.96875 -3.09375 1.304688 -3.25 1.734375 -3.25 C 2.109375 -3.25 2.40625 -3.117188 2.625 -2.859375 C 2.84375 -2.597656 2.953125 -2.238281 2.953125 -1.78125 L 2.953125 -1.546875 L 0.65625 -1.546875 C 0.65625 -1.109375 0.753906 -0.773438 0.953125 -0.546875 C 1.160156 -0.316406 1.445312 -0.203125 1.8125 -0.203125 C 2 -0.203125 2.160156 -0.210938 2.296875 -0.234375 C 2.429688 -0.265625 2.609375 -0.320312 2.828125 -0.40625 L 2.828125 -0.140625 C 2.640625 -0.0664062 2.46875 -0.015625 2.3125 0.015625 C 2.164062 0.046875 2 0.0625 1.8125 0.0625 Z M 1.734375 -2.984375 C 1.429688 -2.984375 1.1875 -2.878906 1 -2.671875 C 0.8125 -2.472656 0.703125 -2.1875 0.671875 -1.8125 L 2.640625 -1.8125 C 2.640625 -2.175781 2.554688 -2.460938 2.390625 -2.671875 C 2.234375 -2.878906 2.015625 -2.984375 1.734375 -2.984375 Z M 1.734375 -2.984375 "/></g></g><g transform="translate(100.553242, 149.325018)"><g><path d="M 1.8125 0.0625 C 1.351562 0.0625 0.992188 -0.078125 0.734375 -0.359375 C 0.472656 -0.648438 0.34375 -1.050781 0.34375 -1.5625 C 0.34375 -2.070312 0.46875 -2.476562 0.71875 -2.78125 C 0.96875 -3.09375 1.304688 -3.25 1.734375 -3.25 C 2.109375 -3.25 2.40625 -3.117188 2.625 -2.859375 C 2.84375 -2.597656 2.953125 -2.238281 2.953125 -1.78125 L 2.953125 -1.546875 L 0.65625 -1.546875 C 0.65625 -1.109375 0.753906 -0.773438 0.953125 -0.546875 C 1.160156 -0.316406 1.445312 -0.203125 1.8125 -0.203125 C 2 -0.203125 2.160156 -0.210938 2.296875 -0.234375 C 2.429688 -0.265625 2.609375 -0.320312 2.828125 -0.40625 L 2.828125 -0.140625 C 2.640625 -0.0664062 2.46875 -0.015625 2.3125 0.015625 C 2.164062 0.046875 2 0.0625 1.8125 0.0625 Z M 1.734375 -2.984375 C 1.429688 -2.984375 1.1875 -2.878906 1 -2.671875 C 0.8125 -2.472656 0.703125 -2.1875 0.671875 -1.8125 L 2.640625 -1.8125 C 2.640625 -2.175781 2.554688 -2.460938 2.390625 -2.671875 C 2.234375 -2.878906 2.015625 -2.984375 1.734375 -2.984375 Z M 1.734375 -2.984375 "/></g></g><g transform="translate(103.846232, 149.325018)"><g><path d="M 1.703125 -3.25 C 1.929688 -3.25 2.128906 -3.207031 2.296875 -3.125 C 2.460938 -3.039062 2.613281 -2.894531 2.75 -2.6875 L 2.765625 -2.6875 C 2.753906 -2.9375 2.75 -3.175781 2.75 -3.40625 L 2.75 -4.5625 L 3.03125 -4.5625 L 3.03125 0 L 2.84375 0 L 2.765625 -0.484375 L 2.75 -0.484375 C 2.507812 -0.117188 2.160156 0.0625 1.703125 0.0625 C 1.265625 0.0625 0.925781 -0.0703125 0.6875 -0.34375 C 0.457031 -0.625 0.34375 -1.023438 0.34375 -1.546875 C 0.34375 -2.097656 0.457031 -2.519531 0.6875 -2.8125 C 0.925781 -3.101562 1.265625 -3.25 1.703125 -3.25 Z M 1.703125 -2.984375 C 1.347656 -2.984375 1.082031 -2.859375 0.90625 -2.609375 C 0.738281 -2.367188 0.65625 -2.015625 0.65625 -1.546875 C 0.65625 -0.648438 1.003906 -0.203125 1.703125 -0.203125 C 2.066406 -0.203125 2.332031 -0.304688 2.5 -0.515625 C 2.664062 -0.722656 2.75 -1.066406 2.75 -1.546875 L 2.75 -1.59375 C 2.75 -2.082031 2.664062 -2.4375 2.5 -2.65625 C 2.332031 -2.875 2.066406 -2.984375 1.703125 -2.984375 Z M 1.703125 -2.984375 "/></g></g><g transform="translate(107.417543, 149.325018)"><g><path d="M 2.515625 -0.828125 C 2.515625 -0.546875 2.40625 -0.328125 2.1875 -0.171875 C 1.96875 -0.015625 1.660156 0.0625 1.265625 0.0625 C 0.835938 0.0625 0.5 -0.00390625 0.25 -0.140625 L 0.25 -0.453125 C 0.570312 -0.296875 0.910156 -0.21875 1.265625 -0.21875 C 1.578125 -0.21875 1.8125 -0.269531 1.96875 -0.375 C 2.132812 -0.476562 2.21875 -0.613281 2.21875 -0.78125 C 2.21875 -0.945312 2.148438 -1.082031 2.015625 -1.1875 C 1.890625 -1.300781 1.679688 -1.410156 1.390625 -1.515625 C 1.066406 -1.628906 0.835938 -1.726562 0.703125 -1.8125 C 0.578125 -1.894531 0.484375 -1.988281 0.421875 -2.09375 C 0.359375 -2.195312 0.328125 -2.320312 0.328125 -2.46875 C 0.328125 -2.707031 0.425781 -2.894531 0.625 -3.03125 C 0.820312 -3.175781 1.101562 -3.25 1.46875 -3.25 C 1.8125 -3.25 2.132812 -3.179688 2.4375 -3.046875 L 2.328125 -2.796875 C 2.015625 -2.921875 1.726562 -2.984375 1.46875 -2.984375 C 1.207031 -2.984375 1 -2.9375 0.84375 -2.84375 C 0.695312 -2.757812 0.625 -2.644531 0.625 -2.5 C 0.625 -2.332031 0.679688 -2.195312 0.796875 -2.09375 C 0.910156 -2 1.140625 -1.890625 1.484375 -1.765625 C 1.773438 -1.660156 1.984375 -1.566406 2.109375 -1.484375 C 2.242188 -1.398438 2.34375 -1.304688 2.40625 -1.203125 C 2.476562 -1.097656 2.515625 -0.972656 2.515625 -0.828125 Z M 2.515625 -0.828125 "/></g></g><g transform="translate(110.212482, 149.325018)"><g/></g><g transform="translate(111.771085, 149.325018)"><g><path d="M 3.171875 -1.59375 C 3.171875 -1.070312 3.039062 -0.664062 2.78125 -0.375 C 2.53125 -0.0820312 2.1875 0.0625 1.75 0.0625 C 1.46875 0.0625 1.21875 -0.00390625 1 -0.140625 C 0.789062 -0.273438 0.628906 -0.46875 0.515625 -0.71875 C 0.398438 -0.976562 0.34375 -1.269531 0.34375 -1.59375 C 0.34375 -2.113281 0.46875 -2.519531 0.71875 -2.8125 C 0.976562 -3.101562 1.328125 -3.25 1.765625 -3.25 C 2.203125 -3.25 2.546875 -3.097656 2.796875 -2.796875 C 3.046875 -2.503906 3.171875 -2.101562 3.171875 -1.59375 Z M 0.65625 -1.59375 C 0.65625 -1.15625 0.75 -0.8125 0.9375 -0.5625 C 1.132812 -0.320312 1.410156 -0.203125 1.765625 -0.203125 C 2.109375 -0.203125 2.375 -0.320312 2.5625 -0.5625 C 2.757812 -0.8125 2.859375 -1.15625 2.859375 -1.59375 C 2.859375 -2.03125 2.757812 -2.367188 2.5625 -2.609375 C 2.375 -2.859375 2.101562 -2.984375 1.75 -2.984375 C 1.394531 -2.984375 1.125 -2.863281 0.9375 -2.625 C 0.75 -2.382812 0.65625 -2.039062 0.65625 -1.59375 Z M 0.65625 -1.59375 "/></g></g><g transform="translate(115.286732, 149.325018)"><g><path d="M 1.71875 -2.9375 L 0.96875 -2.9375 L 0.96875 0 L 0.671875 0 L 0.671875 -2.9375 L 0.078125 -2.9375 L 0.078125 -3.109375 L 0.671875 -3.21875 L 0.671875 -3.453125 C 0.671875 -3.847656 0.742188 -4.132812 0.890625 -4.3125 C 1.035156 -4.5 1.269531 -4.59375 1.59375 -4.59375 C 1.769531 -4.59375 1.945312 -4.566406 2.125 -4.515625 L 2.0625 -4.265625 C 1.90625 -4.304688 1.75 -4.328125 1.59375 -4.328125 C 1.363281 -4.328125 1.203125 -4.257812 1.109375 -4.125 C 1.015625 -4 0.96875 -3.785156 0.96875 -3.484375 L 0.96875 -3.1875 L 1.71875 -3.1875 Z M 1.71875 -2.9375 "/></g></g><g transform="translate(117.085571, 149.325018)"><g/></g><g transform="translate(118.644175, 149.325018)"><g><path d="M 2.484375 0 L 0.890625 -3.953125 L 0.875 -3.953125 C 0.882812 -3.710938 0.890625 -3.46875 0.890625 -3.21875 L 0.890625 0 L 0.609375 0 L 0.609375 -4.28125 L 1.0625 -4.28125 L 2.59375 -0.515625 L 2.609375 -0.515625 L 4.125 -4.28125 L 4.578125 -4.28125 L 4.578125 0 L 4.265625 0 L 4.265625 -3.25 C 4.265625 -3.476562 4.28125 -3.710938 4.3125 -3.953125 L 4.28125 -3.953125 L 2.6875 0 Z M 2.484375 0 "/></g></g><g transform="translate(123.820965, 149.325018)"><g><path d="M 2.46875 0 L 2.390625 -0.5 L 2.375 -0.5 C 2.207031 -0.300781 2.039062 -0.15625 1.875 -0.0625 C 1.707031 0.0195312 1.507812 0.0625 1.28125 0.0625 C 0.96875 0.0625 0.722656 -0.015625 0.546875 -0.171875 C 0.367188 -0.335938 0.28125 -0.5625 0.28125 -0.84375 C 0.28125 -1.15625 0.410156 -1.394531 0.671875 -1.5625 C 0.929688 -1.738281 1.304688 -1.832031 1.796875 -1.84375 L 2.40625 -1.859375 L 2.40625 -2.078125 C 2.40625 -2.378906 2.34375 -2.601562 2.21875 -2.75 C 2.09375 -2.90625 1.894531 -2.984375 1.625 -2.984375 C 1.332031 -2.984375 1.023438 -2.90625 0.703125 -2.75 L 0.59375 -3 C 0.945312 -3.15625 1.296875 -3.234375 1.640625 -3.234375 C 1.984375 -3.234375 2.242188 -3.144531 2.421875 -2.96875 C 2.597656 -2.789062 2.6875 -2.507812 2.6875 -2.125 L 2.6875 0 Z M 1.296875 -0.203125 C 1.640625 -0.203125 1.90625 -0.296875 2.09375 -0.484375 C 2.289062 -0.679688 2.390625 -0.957031 2.390625 -1.3125 L 2.390625 -1.625 L 1.84375 -1.59375 C 1.394531 -1.570312 1.070312 -1.5 0.875 -1.375 C 0.6875 -1.257812 0.59375 -1.078125 0.59375 -0.828125 C 0.59375 -0.628906 0.65625 -0.472656 0.78125 -0.359375 C 0.90625 -0.253906 1.078125 -0.203125 1.296875 -0.203125 Z M 1.296875 -0.203125 "/></g></g><g transform="translate(126.999695, 149.325018)"><g><path d="M 1.703125 -3.25 C 1.929688 -3.25 2.128906 -3.207031 2.296875 -3.125 C 2.460938 -3.039062 2.613281 -2.894531 2.75 -2.6875 L 2.765625 -2.6875 C 2.753906 -2.9375 2.75 -3.175781 2.75 -3.40625 L 2.75 -4.5625 L 3.03125 -4.5625 L 3.03125 0 L 2.84375 0 L 2.765625 -0.484375 L 2.75 -0.484375 C 2.507812 -0.117188 2.160156 0.0625 1.703125 0.0625 C 1.265625 0.0625 0.925781 -0.0703125 0.6875 -0.34375 C 0.457031 -0.625 0.34375 -1.023438 0.34375 -1.546875 C 0.34375 -2.097656 0.457031 -2.519531 0.6875 -2.8125 C 0.925781 -3.101562 1.265625 -3.25 1.703125 -3.25 Z M 1.703125 -2.984375 C 1.347656 -2.984375 1.082031 -2.859375 0.90625 -2.609375 C 0.738281 -2.367188 0.65625 -2.015625 0.65625 -1.546875 C 0.65625 -0.648438 1.003906 -0.203125 1.703125 -0.203125 C 2.066406 -0.203125 2.332031 -0.304688 2.5 -0.515625 C 2.664062 -0.722656 2.75 -1.066406 2.75 -1.546875 L 2.75 -1.59375 C 2.75 -2.082031 2.664062 -2.4375 2.5 -2.65625 C 2.332031 -2.875 2.066406 -2.984375 1.703125 -2.984375 Z M 1.703125 -2.984375 "/></g></g><g transform="translate(130.571006, 149.325018)"><g><path d="M 1.8125 0.0625 C 1.351562 0.0625 0.992188 -0.078125 0.734375 -0.359375 C 0.472656 -0.648438 0.34375 -1.050781 0.34375 -1.5625 C 0.34375 -2.070312 0.46875 -2.476562 0.71875 -2.78125 C 0.96875 -3.09375 1.304688 -3.25 1.734375 -3.25 C 2.109375 -3.25 2.40625 -3.117188 2.625 -2.859375 C 2.84375 -2.597656 2.953125 -2.238281 2.953125 -1.78125 L 2.953125 -1.546875 L 0.65625 -1.546875 C 0.65625 -1.109375 0.753906 -0.773438 0.953125 -0.546875 C 1.160156 -0.316406 1.445312 -0.203125 1.8125 -0.203125 C 2 -0.203125 2.160156 -0.210938 2.296875 -0.234375 C 2.429688 -0.265625 2.609375 -0.320312 2.828125 -0.40625 L 2.828125 -0.140625 C 2.640625 -0.0664062 2.46875 -0.015625 2.3125 0.015625 C 2.164062 0.046875 2 0.0625 1.8125 0.0625 Z M 1.734375 -2.984375 C 1.429688 -2.984375 1.1875 -2.878906 1 -2.671875 C 0.8125 -2.472656 0.703125 -2.1875 0.671875 -1.8125 L 2.640625 -1.8125 C 2.640625 -2.175781 2.554688 -2.460938 2.390625 -2.671875 C 2.234375 -2.878906 2.015625 -2.984375 1.734375 -2.984375 Z M 1.734375 -2.984375 "/></g></g><g transform="translate(133.863996, 149.325018)"><g><path d="M 1.78125 -3.25 C 1.914062 -3.25 2.0625 -3.234375 2.21875 -3.203125 L 2.171875 -2.921875 C 2.035156 -2.960938 1.894531 -2.984375 1.75 -2.984375 C 1.476562 -2.984375 1.253906 -2.863281 1.078125 -2.625 C 0.910156 -2.394531 0.828125 -2.109375 0.828125 -1.765625 L 0.828125 0 L 0.53125 0 L 0.53125 -3.1875 L 0.78125 -3.1875 L 0.8125 -2.609375 L 0.828125 -2.609375 C 0.960938 -2.847656 1.101562 -3.015625 1.25 -3.109375 C 1.394531 -3.203125 1.570312 -3.25 1.78125 -3.25 Z M 1.78125 -3.25 "/></g></g><g transform="translate(136.198971, 149.325018)"><g><path d="M 2.46875 0 L 2.390625 -0.5 L 2.375 -0.5 C 2.207031 -0.300781 2.039062 -0.15625 1.875 -0.0625 C 1.707031 0.0195312 1.507812 0.0625 1.28125 0.0625 C 0.96875 0.0625 0.722656 -0.015625 0.546875 -0.171875 C 0.367188 -0.335938 0.28125 -0.5625 0.28125 -0.84375 C 0.28125 -1.15625 0.410156 -1.394531 0.671875 -1.5625 C 0.929688 -1.738281 1.304688 -1.832031 1.796875 -1.84375 L 2.40625 -1.859375 L 2.40625 -2.078125 C 2.40625 -2.378906 2.34375 -2.601562 2.21875 -2.75 C 2.09375 -2.90625 1.894531 -2.984375 1.625 -2.984375 C 1.332031 -2.984375 1.023438 -2.90625 0.703125 -2.75 L 0.59375 -3 C 0.945312 -3.15625 1.296875 -3.234375 1.640625 -3.234375 C 1.984375 -3.234375 2.242188 -3.144531 2.421875 -2.96875 C 2.597656 -2.789062 2.6875 -2.507812 2.6875 -2.125 L 2.6875 0 Z M 1.296875 -0.203125 C 1.640625 -0.203125 1.90625 -0.296875 2.09375 -0.484375 C 2.289062 -0.679688 2.390625 -0.957031 2.390625 -1.3125 L 2.390625 -1.625 L 1.84375 -1.59375 C 1.394531 -1.570312 1.070312 -1.5 0.875 -1.375 C 0.6875 -1.257812 0.59375 -1.078125 0.59375 -0.828125 C 0.59375 -0.628906 0.65625 -0.472656 0.78125 -0.359375 C 0.90625 -0.253906 1.078125 -0.203125 1.296875 -0.203125 Z M 1.296875 -0.203125 "/></g></g></g></svg>