<svg xmlns="http://www.w3.org/2000/svg" xmlns:xlink="http://www.w3.org/1999/xlink" width="250" zoomAndPan="magnify" viewBox="0 0 187.5 187.499992" height="250" preserveAspectRatio="xMidYMid meet" version="1.0"><defs><g/><clipPath id="id1"><path d="M 0 0 L 187 0 L 187 187 L 0 187 Z M 0 0 " clip-rule="nonzero"/></clipPath><clipPath id="id2"><path d="M 57.761719 45.800781 L 129.753906 45.800781 L 129.753906 85.535156 L 57.761719 85.535156 Z M 57.761719 45.800781 " clip-rule="nonzero"/></clipPath><clipPath id="id3"><path d="M 69.929688 89.546875 L 119.230469 89.546875 L 119.230469 102.050781 L 69.929688 102.050781 Z M 69.929688 89.546875 " clip-rule="nonzero"/></clipPath></defs><g clip-path="url(#id1)"><path fill="#ffffff" d="M 0 0 L 187.5 0 L 187.5 195 L 0 195 Z M 0 0 " fill-opacity="1" fill-rule="nonzero"/><path fill="#ffffff" d="M 0 0 L 187.5 0 L 187.5 187.5 L 0 187.5 Z M 0 0 " fill-opacity="1" fill-rule="nonzero"/><path fill="#ffffff" d="M 0 0 L 187.5 0 L 187.5 187.5 L 0 187.5 Z M 0 0 " fill-opacity="1" fill-rule="nonzero"/><path fill="#ffffff" d="M 0 0 L 187.5 0 L 187.5 187.5 L 0 187.5 Z M 0 0 " fill-opacity="1" fill-rule="nonzero"/></g><g clip-path="url(#id2)"><path fill="#9f2b00" d="M 127.644531 71.421875 C 127.074219 71.761719 126.5 72.09375 125.917969 72.414062 C 126.246094 72.527344 126.582031 72.636719 126.917969 72.746094 C 126.796875 72.925781 126.671875 73.105469 126.539062 73.285156 C 126.082031 73.132812 125.625 72.980469 125.175781 72.820312 C 125.085938 73.59375 124.980469 74.371094 124.855469 75.152344 C 124.621094 75.371094 124.375 75.589844 124.117188 75.800781 C 124.273438 74.921875 124.40625 74.042969 124.519531 73.164062 C 123.898438 73.488281 123.265625 73.804688 122.628906 74.109375 C 122.707031 74.234375 122.78125 74.359375 122.859375 74.484375 C 123.152344 74.425781 123.453125 74.523438 123.59375 74.746094 C 123.765625 75.019531 123.625 75.382812 123.273438 75.550781 C 122.921875 75.71875 122.5 75.625 122.335938 75.347656 C 122.199219 75.121094 122.273438 74.84375 122.488281 74.660156 C 122.414062 74.535156 122.335938 74.410156 122.261719 74.285156 C 121.625 74.585938 120.980469 74.875 120.328125 75.15625 C 121.308594 75.601562 122.3125 76.023438 123.335938 76.421875 C 123.136719 76.570312 122.929688 76.722656 122.71875 76.867188 C 121.636719 76.433594 120.578125 75.972656 119.546875 75.488281 C 119.28125 76.632812 118.976562 77.78125 118.632812 78.929688 C 119.332031 78.667969 120.023438 78.394531 120.714844 78.109375 C 120.644531 77.980469 120.574219 77.851562 120.507812 77.722656 C 120.199219 77.769531 119.902344 77.652344 119.78125 77.421875 C 119.632812 77.132812 119.804688 76.785156 120.160156 76.636719 C 120.519531 76.488281 120.933594 76.589844 121.09375 76.875 C 121.21875 77.101562 121.132812 77.378906 120.898438 77.558594 C 120.964844 77.675781 121.027344 77.792969 121.09375 77.910156 C 117.332031 80.132812 112.277344 81.914062 106.339844 82.980469 C 102.328125 83.699219 98.09375 84.066406 93.757812 84.066406 C 89.421875 84.066406 85.1875 83.699219 81.175781 82.980469 C 75.75 82.007812 71.0625 80.433594 67.421875 78.476562 C 67.839844 78.640625 68.253906 78.800781 68.675781 78.957031 C 68.738281 78.828125 68.800781 78.695312 68.863281 78.566406 C 68.621094 78.398438 68.523438 78.121094 68.640625 77.890625 C 68.78125 77.601562 69.191406 77.480469 69.558594 77.613281 C 69.921875 77.75 70.109375 78.089844 69.976562 78.382812 C 69.867188 78.621094 69.574219 78.75 69.265625 78.714844 C 69.203125 78.847656 69.140625 78.976562 69.078125 79.109375 C 69.78125 79.367188 70.488281 79.613281 71.199219 79.847656 C 70.796875 78.710938 70.433594 77.578125 70.113281 76.441406 C 69.011719 77.015625 67.878906 77.5625 66.714844 78.082031 C 66.511719 77.964844 66.3125 77.847656 66.113281 77.726562 C 67.246094 77.238281 68.34375 76.722656 69.414062 76.179688 C 68.75 75.925781 68.09375 75.664062 67.4375 75.386719 C 67.371094 75.515625 67.300781 75.644531 67.234375 75.773438 C 67.457031 75.949219 67.542969 76.222656 67.421875 76.453125 C 67.273438 76.738281 66.855469 76.847656 66.496094 76.695312 C 66.136719 76.542969 65.976562 76.1875 66.132812 75.90625 C 66.261719 75.675781 66.558594 75.566406 66.851562 75.613281 C 66.921875 75.484375 66.992188 75.355469 67.0625 75.230469 C 66.410156 74.949219 65.765625 74.660156 65.125 74.363281 C 65.316406 75.414062 65.539062 76.472656 65.792969 77.53125 C 65.496094 77.34375 65.210938 77.152344 64.929688 76.960938 C 64.710938 75.96875 64.523438 74.984375 64.359375 73.996094 C 63.675781 74.273438 62.984375 74.535156 62.28125 74.785156 C 62.136719 74.640625 61.996094 74.496094 61.859375 74.347656 C 62.476562 74.128906 63.089844 73.90625 63.695312 73.671875 C 63.0625 73.355469 62.4375 73.03125 61.820312 72.699219 C 61.734375 72.816406 61.652344 72.9375 61.570312 73.058594 C 61.773438 73.253906 61.828125 73.535156 61.679688 73.753906 C 61.628906 73.824219 61.5625 73.882812 61.484375 73.925781 C 61.199219 73.589844 60.9375 73.246094 60.699219 72.898438 C 60.851562 72.832031 61.035156 72.820312 61.210938 72.863281 C 61.292969 72.742188 61.378906 72.625 61.460938 72.503906 C 60.964844 72.230469 60.472656 71.949219 59.984375 71.664062 C 59.769531 71.21875 59.59375 70.769531 59.464844 70.3125 C 63.199219 73.894531 72.4375 76.121094 80.96875 77.070312 C 85.042969 77.527344 89.34375 77.757812 93.757812 77.757812 C 98.164062 77.757812 102.464844 77.527344 106.546875 77.070312 C 115.078125 76.121094 124.316406 73.894531 128.050781 70.3125 C 127.945312 70.683594 127.808594 71.054688 127.644531 71.421875 Z M 125.917969 73.898438 C 125.980469 73.867188 126.046875 73.839844 126.117188 73.824219 C 125.9375 74.039062 125.746094 74.253906 125.546875 74.464844 C 125.542969 74.25 125.675781 74.03125 125.917969 73.898438 Z M 64 75.910156 C 63.949219 75.996094 63.871094 76.066406 63.777344 76.113281 C 63.421875 75.828125 63.082031 75.539062 62.761719 75.246094 C 62.953125 75.011719 63.34375 74.949219 63.671875 75.109375 C 64.019531 75.277344 64.167969 75.636719 64 75.910156 Z M 59.96875 64.785156 C 62.910156 61.367188 72.523438 58.570312 84.523438 57.628906 C 84.46875 57.796875 84.414062 57.964844 84.363281 58.132812 C 84.878906 58.175781 85.40625 58.210938 85.933594 58.246094 C 86.886719 58.308594 87.855469 58.359375 88.835938 58.402344 C 90.445312 58.464844 92.085938 58.5 93.757812 58.5 C 97.011719 58.5 100.160156 58.371094 103.152344 58.132812 C 103.097656 57.964844 103.046875 57.796875 102.992188 57.628906 C 114.992188 58.570312 124.601562 61.367188 127.546875 64.785156 C 128.140625 65.476562 128.445312 66.171875 128.445312 66.863281 C 128.445312 66.902344 128.441406 66.941406 128.441406 66.980469 C 128.363281 67.070312 128.304688 67.183594 128.28125 67.308594 C 127.949219 69.011719 125.683594 70.765625 121.898438 72.242188 C 117.964844 73.78125 112.628906 74.957031 106.460938 75.648438 C 106.445312 75.480469 106.425781 75.3125 106.410156 75.140625 C 106.261719 73.65625 106.089844 72.203125 105.894531 70.792969 C 102.242188 71.414062 98.308594 71.765625 94.207031 71.789062 C 94.058594 71.789062 93.90625 71.789062 93.757812 71.789062 C 92.144531 71.789062 90.5625 71.742188 89.007812 71.644531 C 88.957031 71.542969 88.910156 71.441406 88.859375 71.339844 C 88.910156 71.441406 88.957031 71.542969 89.003906 71.644531 C 86.445312 71.480469 83.976562 71.195312 81.621094 70.792969 C 81.425781 72.203125 81.253906 73.65625 81.105469 75.144531 C 81.085938 75.3125 81.070312 75.480469 81.054688 75.652344 C 74.886719 74.957031 69.550781 73.78125 65.617188 72.246094 C 61.832031 70.765625 59.5625 69.011719 59.234375 67.308594 C 59.210938 67.179688 59.152344 67.070312 59.074219 66.976562 C 59.070312 66.941406 59.070312 66.902344 59.070312 66.863281 C 59.070312 66.175781 59.371094 65.476562 59.96875 64.785156 Z M 129.695312 67.355469 C 129.683594 67.273438 129.660156 67.199219 129.625 67.128906 C 129.632812 67.039062 129.636719 66.949219 129.636719 66.863281 C 129.636719 65.882812 129.238281 64.925781 128.453125 64.015625 C 125.226562 60.265625 115.320312 57.351562 102.605469 56.410156 C 102.59375 56.410156 102.585938 56.40625 102.574219 56.40625 C 102.570312 56.394531 102.566406 56.378906 102.5625 56.367188 C 102.488281 56.160156 102.414062 55.957031 102.339844 55.757812 C 100.027344 49.546875 97.03125 45.800781 93.757812 45.800781 C 92.0625 45.800781 90.445312 46.804688 88.957031 48.632812 C 88.039062 49.757812 87.171875 51.195312 86.367188 52.90625 C 85.953125 53.789062 85.554688 54.738281 85.175781 55.757812 C 85.101562 55.957031 85.027344 56.160156 84.953125 56.367188 C 84.949219 56.378906 84.945312 56.394531 84.9375 56.40625 C 84.929688 56.40625 84.917969 56.410156 84.910156 56.410156 C 72.195312 57.351562 62.289062 60.265625 59.0625 64.015625 C 58.277344 64.925781 57.878906 65.882812 57.878906 66.863281 C 57.878906 66.949219 57.882812 67.039062 57.890625 67.125 C 57.855469 67.199219 57.832031 67.273438 57.820312 67.355469 C 57.78125 67.695312 57.761719 68.035156 57.761719 68.367188 C 57.761719 71.996094 60.058594 75.441406 64.410156 78.339844 C 68.542969 81.09375 74.25 83.179688 80.921875 84.378906 C 85.015625 85.113281 89.335938 85.488281 93.757812 85.488281 C 98.175781 85.488281 102.496094 85.113281 106.597656 84.378906 C 113.265625 83.179688 118.972656 81.09375 123.105469 78.339844 C 127.457031 75.441406 129.753906 71.996094 129.753906 68.367188 C 129.753906 68.03125 129.734375 67.691406 129.695312 67.355469 " fill-opacity="1" fill-rule="nonzero"/></g><path fill="#9f2b00" d="M 73.332031 77.539062 C 73.28125 77.671875 73.226562 77.804688 73.171875 77.941406 C 73.414062 78.09375 73.535156 78.359375 73.441406 78.601562 C 73.324219 78.898438 72.921875 79.046875 72.546875 78.929688 C 72.171875 78.8125 71.972656 78.472656 72.097656 78.175781 C 72.195312 77.9375 72.480469 77.796875 72.777344 77.816406 C 72.832031 77.683594 72.886719 77.546875 72.941406 77.414062 C 72.261719 77.199219 71.585938 76.972656 70.917969 76.734375 C 71.257812 77.863281 71.636719 78.996094 72.058594 80.125 C 73.203125 79.492188 74.3125 78.828125 75.386719 78.140625 C 74.699219 77.953125 74.011719 77.75 73.332031 77.539062 " fill-opacity="1" fill-rule="nonzero"/><path fill="#9f2b00" d="M 72.8125 80.359375 C 73.53125 80.578125 74.25 80.785156 74.976562 80.980469 C 75.027344 80.84375 75.074219 80.707031 75.121094 80.570312 C 74.859375 80.425781 74.730469 80.160156 74.816406 79.917969 C 74.925781 79.617188 75.316406 79.457031 75.695312 79.558594 C 76.074219 79.65625 76.300781 79.980469 76.203125 80.285156 C 76.121094 80.53125 75.847656 80.6875 75.539062 80.683594 C 75.492188 80.820312 75.445312 80.957031 75.398438 81.089844 C 76.125 81.28125 76.855469 81.460938 77.589844 81.628906 C 77.054688 80.535156 76.5625 79.4375 76.109375 78.339844 C 75.050781 79.039062 73.949219 79.710938 72.8125 80.359375 " fill-opacity="1" fill-rule="nonzero"/><path fill="#9f2b00" d="M 79.4375 79.128906 C 79.402344 79.269531 79.363281 79.40625 79.324219 79.546875 C 79.585938 79.675781 79.734375 79.929688 79.667969 80.179688 C 79.589844 80.488281 79.207031 80.671875 78.820312 80.589844 C 78.433594 80.507812 78.195312 80.1875 78.285156 79.882812 C 78.355469 79.632812 78.621094 79.46875 78.917969 79.457031 C 78.957031 79.320312 78.996094 79.183594 79.035156 79.042969 C 78.335938 78.890625 77.636719 78.726562 76.945312 78.554688 C 77.414062 79.648438 77.925781 80.738281 78.476562 81.828125 C 79.539062 81.085938 80.566406 80.324219 81.550781 79.539062 C 80.84375 79.414062 80.140625 79.277344 79.4375 79.128906 " fill-opacity="1" fill-rule="nonzero"/><path fill="#9f2b00" d="M 79.253906 81.988281 C 79.992188 82.140625 80.734375 82.277344 81.480469 82.40625 C 81.511719 82.265625 81.542969 82.125 81.574219 81.984375 C 81.296875 81.863281 81.132812 81.613281 81.191406 81.363281 C 81.265625 81.050781 81.636719 80.855469 82.023438 80.921875 C 82.410156 80.988281 82.675781 81.289062 82.613281 81.601562 C 82.5625 81.851562 82.308594 82.035156 82 82.054688 C 81.96875 82.195312 81.941406 82.335938 81.910156 82.476562 C 82.65625 82.601562 83.402344 82.710938 84.152344 82.808594 C 83.492188 81.769531 82.871094 80.722656 82.292969 79.667969 C 81.320312 80.464844 80.304688 81.238281 79.253906 81.988281 " fill-opacity="1" fill-rule="nonzero"/><path fill="#9f2b00" d="M 85.691406 80.148438 C 85.671875 80.292969 85.648438 80.433594 85.628906 80.574219 C 85.902344 80.679688 86.082031 80.917969 86.042969 81.171875 C 86 81.484375 85.644531 81.707031 85.25 81.660156 C 84.855469 81.613281 84.582031 81.316406 84.632812 81.003906 C 84.675781 80.75 84.917969 80.5625 85.214844 80.523438 C 85.234375 80.382812 85.257812 80.242188 85.28125 80.101562 C 84.566406 80.015625 83.855469 79.914062 83.144531 79.804688 C 83.742188 80.851562 84.378906 81.894531 85.054688 82.921875 C 86.023438 82.089844 86.953125 81.234375 87.839844 80.363281 C 87.121094 80.304688 86.40625 80.230469 85.691406 80.148438 " fill-opacity="1" fill-rule="nonzero"/><path fill="#9f2b00" d="M 85.847656 83.011719 C 86.601562 83.09375 87.355469 83.164062 88.109375 83.222656 C 88.125 83.078125 88.136719 82.9375 88.152344 82.796875 C 87.863281 82.699219 87.671875 82.464844 87.699219 82.210938 C 87.734375 81.894531 88.082031 81.664062 88.472656 81.695312 C 88.867188 81.722656 89.167969 82 89.140625 82.316406 C 89.121094 82.570312 88.886719 82.773438 88.585938 82.828125 C 88.570312 82.96875 88.558594 83.113281 88.546875 83.253906 C 89.300781 83.308594 90.058594 83.347656 90.816406 83.378906 C 90.03125 82.40625 89.292969 81.417969 88.59375 80.421875 C 87.71875 81.304688 86.804688 82.167969 85.847656 83.011719 " fill-opacity="1" fill-rule="nonzero"/><path fill="#9f2b00" d="M 92.027344 80.589844 C 92.023438 80.730469 92.019531 80.875 92.015625 81.015625 C 92.300781 81.097656 92.503906 81.316406 92.5 81.574219 C 92.496094 81.890625 92.167969 82.140625 91.769531 82.132812 C 91.371094 82.121094 91.0625 81.851562 91.078125 81.535156 C 91.089844 81.28125 91.308594 81.070312 91.597656 81.003906 C 91.601562 80.863281 91.609375 80.71875 91.613281 80.578125 C 90.894531 80.554688 90.171875 80.523438 89.457031 80.480469 C 90.171875 81.46875 90.929688 82.445312 91.726562 83.40625 C 92.589844 82.488281 93.410156 81.550781 94.1875 80.605469 C 93.46875 80.609375 92.746094 80.605469 92.027344 80.589844 " fill-opacity="1" fill-rule="nonzero"/><path fill="#9f2b00" d="M 92.523438 83.421875 C 93.28125 83.433594 94.039062 83.433594 94.796875 83.421875 C 94.796875 83.28125 94.792969 83.136719 94.789062 82.992188 C 94.488281 82.925781 94.273438 82.710938 94.269531 82.453125 C 94.265625 82.136719 94.582031 81.878906 94.976562 81.871094 C 95.371094 81.863281 95.703125 82.109375 95.714844 82.425781 C 95.726562 82.683594 95.519531 82.90625 95.222656 82.984375 C 95.226562 83.128906 95.230469 83.269531 95.234375 83.414062 C 95.992188 83.398438 96.75 83.367188 97.507812 83.328125 C 96.613281 82.433594 95.757812 81.519531 94.945312 80.59375 C 94.179688 81.550781 93.371094 82.496094 92.523438 83.421875 " fill-opacity="1" fill-rule="nonzero"/><path fill="#9f2b00" d="M 98.378906 80.441406 C 98.394531 80.585938 98.40625 80.726562 98.417969 80.871094 C 98.710938 80.921875 98.941406 81.121094 98.964844 81.378906 C 99 81.691406 98.703125 81.972656 98.304688 82 C 97.910156 82.027344 97.570312 81.789062 97.546875 81.472656 C 97.527344 81.214844 97.722656 80.988281 98 80.898438 C 97.988281 80.753906 97.976562 80.613281 97.964844 80.46875 C 97.246094 80.515625 96.527344 80.550781 95.808594 80.570312 C 96.636719 81.488281 97.507812 82.390625 98.417969 83.273438 C 99.164062 82.277344 99.867188 81.273438 100.53125 80.257812 C 99.816406 80.332031 99.097656 80.394531 98.378906 80.441406 " fill-opacity="1" fill-rule="nonzero"/><path fill="#9f2b00" d="M 99.210938 83.214844 C 99.96875 83.15625 100.722656 83.085938 101.472656 83.003906 C 101.453125 82.863281 101.433594 82.722656 101.414062 82.578125 C 101.105469 82.539062 100.863281 82.34375 100.832031 82.089844 C 100.789062 81.773438 101.074219 81.488281 101.464844 81.445312 C 101.855469 81.402344 102.214844 81.617188 102.265625 81.929688 C 102.308594 82.183594 102.128906 82.425781 101.84375 82.53125 C 101.863281 82.671875 101.886719 82.8125 101.90625 82.957031 C 102.660156 82.871094 103.410156 82.769531 104.15625 82.660156 C 103.15625 81.855469 102.199219 81.027344 101.28125 80.179688 C 100.632812 81.199219 99.945312 82.214844 99.210938 83.214844 " fill-opacity="1" fill-rule="nonzero"/><path fill="#9f2b00" d="M 104.769531 80.132812 C 105.066406 80.160156 105.320312 80.335938 105.375 80.589844 C 105.445312 80.898438 105.183594 81.207031 104.792969 81.269531 C 104.402344 81.332031 104.035156 81.125 103.976562 80.8125 C 103.925781 80.558594 104.089844 80.316406 104.359375 80.199219 C 104.328125 80.058594 104.300781 79.917969 104.273438 79.777344 C 103.5625 79.890625 102.851562 79.988281 102.140625 80.078125 C 103.070312 80.914062 104.042969 81.726562 105.054688 82.523438 C 105.679688 81.464844 106.257812 80.402344 106.800781 79.332031 C 106.09375 79.472656 105.390625 79.597656 104.679688 79.710938 C 104.710938 79.851562 104.742188 79.992188 104.769531 80.132812 " fill-opacity="1" fill-rule="nonzero"/><path fill="#9f2b00" d="M 108.066406 81.972656 C 108.027344 81.832031 107.988281 81.695312 107.953125 81.554688 C 107.644531 81.546875 107.378906 81.375 107.316406 81.125 C 107.238281 80.816406 107.484375 80.503906 107.871094 80.425781 C 108.253906 80.34375 108.636719 80.523438 108.722656 80.832031 C 108.796875 81.082031 108.644531 81.335938 108.375 81.46875 C 108.414062 81.605469 108.453125 81.746094 108.492188 81.882812 C 109.226562 81.726562 109.960938 81.5625 110.695312 81.382812 C 109.601562 80.671875 108.550781 79.941406 107.539062 79.183594 C 107.011719 80.257812 106.449219 81.328125 105.839844 82.390625 C 106.585938 82.261719 107.324219 82.125 108.066406 81.972656 " fill-opacity="1" fill-rule="nonzero"/><path fill="#9f2b00" d="M 112.929688 77.832031 C 112.246094 78.035156 111.558594 78.226562 110.867188 78.40625 C 110.914062 78.542969 110.957031 78.679688 111.003906 78.816406 C 111.304688 78.8125 111.574219 78.964844 111.660156 79.210938 C 111.765625 79.511719 111.542969 79.839844 111.160156 79.941406 C 110.777344 80.039062 110.390625 79.867188 110.292969 79.5625 C 110.214844 79.316406 110.351562 79.058594 110.601562 78.917969 C 110.558594 78.78125 110.511719 78.644531 110.46875 78.507812 C 109.773438 78.683594 109.078125 78.851562 108.378906 79.003906 C 109.40625 79.746094 110.46875 80.464844 111.570312 81.160156 C 112.066406 80.054688 112.519531 78.945312 112.929688 77.832031 " fill-opacity="1" fill-rule="nonzero"/><path fill="#9f2b00" d="M 114.5 80.335938 C 114.445312 80.203125 114.394531 80.066406 114.339844 79.933594 C 114.03125 79.949219 113.746094 79.804688 113.65625 79.5625 C 113.539062 79.265625 113.75 78.929688 114.125 78.816406 C 114.496094 78.703125 114.898438 78.84375 115.023438 79.140625 C 115.121094 79.382812 115.003906 79.648438 114.75 79.804688 C 114.804688 79.941406 114.859375 80.074219 114.914062 80.207031 C 115.628906 79.984375 116.339844 79.75 117.046875 79.503906 C 115.878906 78.902344 114.742188 78.273438 113.648438 77.617188 C 113.25 78.730469 112.8125 79.847656 112.335938 80.960938 C 113.0625 80.761719 113.78125 80.554688 114.5 80.335938 " fill-opacity="1" fill-rule="nonzero"/><path fill="#9f2b00" d="M 118.859375 75.769531 C 118.199219 76.035156 117.539062 76.289062 116.871094 76.53125 C 116.933594 76.664062 116.992188 76.796875 117.054688 76.925781 C 117.351562 76.898438 117.640625 77.023438 117.753906 77.257812 C 117.894531 77.546875 117.710938 77.894531 117.34375 78.027344 C 116.972656 78.164062 116.566406 78.03125 116.433594 77.738281 C 116.328125 77.5 116.429688 77.230469 116.667969 77.066406 C 116.605469 76.9375 116.546875 76.804688 116.484375 76.671875 C 115.816406 76.910156 115.140625 77.140625 114.464844 77.359375 C 115.570312 78 116.714844 78.617188 117.894531 79.203125 C 118.253906 78.058594 118.574219 76.914062 118.859375 75.769531 " fill-opacity="1" fill-rule="nonzero"/><path fill="#9f2b00" d="M 86.910156 65.921875 C 88.253906 66.042969 89.628906 66.132812 91.023438 66.179688 C 91.925781 66.214844 92.835938 66.230469 93.757812 66.230469 C 97.679688 66.230469 101.453125 65.933594 104.980469 65.382812 C 104.859375 64.765625 104.730469 64.164062 104.597656 63.570312 C 101.183594 63.886719 97.539062 64.058594 93.757812 64.058594 C 92.550781 64.058594 91.359375 64.039062 90.183594 64.003906 C 89.160156 63.976562 88.148438 63.933594 87.152344 63.878906 C 86.917969 63.867188 86.683594 63.851562 86.449219 63.839844 C 85.25 63.765625 84.070312 63.675781 82.914062 63.570312 C 82.785156 64.164062 82.65625 64.765625 82.535156 65.382812 C 83.953125 65.605469 85.414062 65.785156 86.90625 65.921875 C 86.90625 65.921875 86.910156 65.921875 86.910156 65.921875 " fill-opacity="1" fill-rule="nonzero"/><g clip-path="url(#id3)"><path fill="#9f2b00" d="M 117.722656 94.992188 C 118.316406 95.710938 118.191406 96.390625 117.84375 97.003906 C 117.453125 97.691406 116.738281 98.097656 115.984375 98.316406 C 115.984375 98.316406 115.984375 98.320312 115.980469 98.320312 C 115.765625 98.382812 115.546875 98.429688 115.332031 98.464844 C 114.875 98.539062 112.886719 98.691406 111.308594 98.523438 C 109.464844 98.324219 107.359375 97.875 105.582031 96.660156 C 105.644531 96.695312 107.679688 97.820312 110.375 97.863281 C 110.234375 97.816406 110.09375 97.769531 109.953125 97.71875 C 107.515625 96.878906 105.414062 95.332031 103.730469 93.40625 C 102.167969 91.621094 100.210938 89.742188 97.707031 89.5625 C 96.394531 89.46875 95.289062 90.070312 94.566406 91 C 93.84375 90.070312 92.738281 89.46875 91.429688 89.5625 C 88.921875 89.742188 86.964844 91.621094 85.402344 93.40625 C 83.722656 95.332031 81.617188 96.878906 79.183594 97.71875 C 79.042969 97.769531 78.902344 97.816406 78.757812 97.863281 C 81.453125 97.820312 83.488281 96.695312 83.550781 96.660156 C 81.777344 97.875 79.667969 98.324219 77.824219 98.523438 C 76.246094 98.691406 74.257812 98.539062 73.800781 98.464844 C 73.589844 98.429688 73.371094 98.382812 73.152344 98.320312 C 73.152344 98.320312 73.152344 98.316406 73.148438 98.316406 C 72.398438 98.097656 71.679688 97.691406 71.289062 97.003906 C 70.941406 96.390625 70.816406 95.710938 71.414062 94.992188 C 70.398438 95.875 68.164062 99.277344 72.566406 100.964844 C 73.265625 101.230469 73.984375 101.4375 74.71875 101.59375 C 80.929688 102.898438 88.5 101.375 93.476562 97.40625 C 93.890625 97.074219 94.257812 96.707031 94.566406 96.292969 C 94.875 96.707031 95.246094 97.074219 95.660156 97.40625 C 100.636719 101.375 108.203125 102.898438 114.417969 101.59375 C 115.148438 101.4375 115.871094 101.230469 116.566406 100.964844 C 120.972656 99.277344 118.738281 95.875 117.722656 94.992188 " fill-opacity="1" fill-rule="nonzero"/></g><g fill="#000b26" fill-opacity="1"><g transform="translate(38.669906, 129.693368)"><g><path d="M 0.457031 -0.0898438 L 3.644531 -0.71875 L 3.570312 -2.164062 C 4.425781 -1.480469 5.871094 -0.875 7.710938 -1.238281 C 9.878906 -1.664062 12.339844 -3.210938 11.777344 -6.054688 C 10.933594 -10.339844 3.800781 -8.476562 3.429688 -10.355469 C 3.304688 -10.992188 3.96875 -11.464844 4.496094 -11.570312 C 5.773438 -11.820312 6.980469 -11.265625 7.246094 -9.914062 L 10.546875 -10.566406 L 9.644531 -15.140625 L 6.507812 -14.523438 L 6.628906 -12.957031 C 5.628906 -14.179688 3.984375 -14.367188 2.453125 -14.0625 C 0.664062 -13.710938 -1.644531 -11.984375 -1.113281 -9.289062 C -0.195312 -4.640625 6.683594 -6.621094 6.964844 -5.199219 C 7.117188 -4.433594 6.234375 -4.109375 5.597656 -3.984375 C 4.824219 -3.867188 3.242188 -3.820312 2.941406 -5.351562 L -0.449219 -4.683594 Z M 0.457031 -0.0898438 "/></g></g></g><g fill="#000b26" fill-opacity="1"><g transform="translate(51.374846, 127.171693)"><g><path d="M 6.910156 -0.652344 C 11.066406 -1.246094 13.019531 -4.117188 12.425781 -8.273438 C 11.832031 -12.410156 9.347656 -14.816406 4.839844 -14.171875 C 1.035156 -13.625 -1.222656 -10.503906 -0.652344 -6.53125 C 0.00390625 -1.933594 3.0625 -0.101562 6.910156 -0.652344 Z M 6.496094 -3.539062 C 5.316406 -3.371094 4.234375 -4.773438 3.890625 -7.183594 C 3.5625 -9.464844 4.105469 -11.191406 5.230469 -11.335938 C 6.644531 -11.539062 7.507812 -9.839844 7.824219 -7.613281 C 8.152344 -5.335938 7.652344 -3.703125 6.496094 -3.539062 Z M 6.496094 -3.539062 "/></g></g></g><g fill="#000b26" fill-opacity="1"><g transform="translate(64.691558, 125.176496)"><g><path d="M 12.628906 -10.742188 L 12.714844 -9.652344 L 13.203125 -3.464844 L 12.164062 -3.382812 L 12.355469 -0.972656 L 18.207031 -1.433594 L 18.019531 -3.84375 L 17 -3.761719 L 16.359375 -11.914062 L 17.375 -11.992188 L 17.1875 -14.382812 L 10.132812 -13.828125 L 8.898438 -6.757812 L 6.480469 -13.539062 L -0.539062 -12.984375 L -0.351562 -10.597656 L 0.632812 -10.675781 L 1.273438 -2.503906 L 0.273438 -2.425781 L 0.464844 -0.0351562 L 5.484375 -0.433594 L 5.292969 -2.820312 L 4.238281 -2.738281 L 3.664062 -10.035156 L 3.738281 -10.042969 C 3.867188 -9.121094 4.191406 -8.085938 4.308594 -7.777344 L 6.964844 -0.550781 L 10.835938 -0.855469 L 12.214844 -8.214844 C 12.308594 -8.648438 12.472656 -9.890625 12.554688 -10.738281 Z M 12.628906 -10.742188 "/></g></g></g><g fill="#000b26" fill-opacity="1"><g transform="translate(83.088622, 123.810021)"><g><path d="M 0.464844 -0.0078125 L 7.523438 -0.128906 C 11.109375 -0.1875 12.558594 -1.367188 12.511719 -3.984375 C 12.484375 -5.789062 11.351562 -6.753906 10.007812 -7.101562 C 11.390625 -7.683594 11.804688 -8.453125 11.777344 -10.011719 C 11.746094 -12.039062 10.257812 -13.164062 7.171875 -13.113281 L 0.242188 -12.996094 L 0.285156 -10.597656 L 1.363281 -10.617188 L 1.5 -2.441406 L 0.421875 -2.421875 Z M 5.207031 -10.625 L 6.378906 -10.644531 C 7.085938 -10.65625 7.613281 -10.164062 7.628906 -9.308594 C 7.644531 -8.417969 7.375 -7.875 6.390625 -7.859375 L 5.253906 -7.839844 Z M 5.347656 -2.507812 L 5.292969 -5.738281 L 6.722656 -5.765625 C 7.742188 -5.78125 8.292969 -5.101562 8.308594 -4.15625 C 8.328125 -3.152344 7.613281 -2.546875 6.832031 -2.53125 Z M 5.347656 -2.507812 "/></g></g></g><g fill="#000b26" fill-opacity="1"><g transform="translate(95.616214, 123.578247)"><g><path d="M 0.914062 -12.964844 L 0.832031 -10.53125 L 1.871094 -10.496094 L 1.589844 -2.398438 L 0.550781 -2.433594 L 0.464844 0.015625 L 6.460938 0.222656 L 6.546875 -2.226562 L 5.414062 -2.265625 L 5.515625 -5.144531 C 7.167969 -5.085938 7.359375 -4.671875 7.296875 -2.980469 C 7.222656 -0.808594 8.347656 0.511719 10.78125 0.597656 C 12.84375 0.667969 13.542969 -0.738281 13.597656 -2.28125 L 13.632812 -3.300781 L 12.386719 -3.34375 L 12.367188 -2.730469 C 12.351562 -2.359375 12.195312 -2.140625 11.917969 -2.152344 C 11.582031 -2.164062 11.488281 -2.632812 11.515625 -3.429688 C 11.5625 -4.765625 10.449219 -5.921875 9.175781 -6.152344 C 10.722656 -6.320312 11.910156 -7.300781 11.960938 -8.75 C 12.035156 -10.867188 11.257812 -12.605469 6.949219 -12.753906 Z M 5.695312 -10.382812 L 6.625 -10.347656 C 7.703125 -10.3125 8.296875 -9.734375 8.257812 -8.636719 C 8.222656 -7.652344 7.5 -7.15625 6.421875 -7.195312 L 5.585938 -7.222656 Z M 5.695312 -10.382812 "/></g></g></g><g fill="#000b26" fill-opacity="1"><g transform="translate(109.05828, 124.037651)"><g><path d="M 6.875 0.945312 C 11.058594 1.316406 13.617188 -1.03125 13.984375 -5.214844 C 14.355469 -9.378906 12.488281 -12.289062 7.953125 -12.6875 C 4.121094 -13.027344 1.210938 -10.507812 0.855469 -6.507812 C 0.445312 -1.882812 3.007812 0.601562 6.875 0.945312 Z M 7.132812 -1.960938 C 5.945312 -2.066406 5.214844 -3.679688 5.429688 -6.105469 C 5.632812 -8.398438 6.554688 -9.957031 7.679688 -9.839844 C 9.105469 -9.714844 9.558594 -7.863281 9.359375 -5.625 C 9.15625 -3.328125 8.296875 -1.859375 7.132812 -1.960938 Z M 7.132812 -1.960938 "/></g></g></g><g fill="#000b26" fill-opacity="1"><g transform="translate(122.515239, 125.231055)"><g><path d="M 0.460938 0.0664062 L 3.679688 0.523438 L 4.082031 -0.867188 C 4.664062 0.0625 5.828125 1.109375 7.6875 1.375 C 9.875 1.683594 12.707031 1.035156 13.117188 -1.835938 C 13.730469 -6.15625 6.382812 -6.75 6.652344 -8.644531 C 6.742188 -9.289062 7.527344 -9.515625 8.058594 -9.441406 C 9.347656 -9.257812 10.304688 -8.332031 10.109375 -6.972656 L 13.441406 -6.5 L 14.097656 -11.117188 L 10.933594 -11.566406 L 10.527344 -10.046875 C 9.988281 -11.53125 8.496094 -12.25 6.949219 -12.46875 C 5.148438 -12.726562 2.398438 -11.859375 2.011719 -9.136719 C 1.34375 -4.445312 8.496094 -4.046875 8.292969 -2.613281 C 8.179688 -1.839844 7.242188 -1.824219 6.597656 -1.914062 C 5.828125 -2.0625 4.320312 -2.539062 4.539062 -4.085938 L 1.117188 -4.570312 Z M 0.460938 0.0664062 "/></g></g></g><g fill="#000b26" fill-opacity="1"><g transform="translate(135.341242, 127.03887)"><g><path d="M 6.738281 1.664062 C 10.859375 2.472656 13.648438 0.40625 14.457031 -3.714844 C 15.261719 -7.816406 13.710938 -10.90625 9.242188 -11.78125 C 5.46875 -12.523438 2.308594 -10.320312 1.535156 -6.382812 C 0.640625 -1.824219 2.925781 0.914062 6.738281 1.664062 Z M 7.296875 -1.199219 C 6.132812 -1.429688 5.570312 -3.109375 6.039062 -5.5 C 6.484375 -7.761719 7.566406 -9.214844 8.671875 -8.976562 C 10.078125 -8.703125 10.332031 -6.816406 9.898438 -4.609375 C 9.457031 -2.347656 8.445312 -0.972656 7.296875 -1.199219 Z M 7.296875 -1.199219 "/></g></g></g><g fill="#000b26" fill-opacity="1"><g transform="translate(55.24832, 138.502992)"><g><path d="M 6.714844 -4.859375 L 6.714844 -1.207031 L 6.195312 -1.207031 L 6.195312 0 L 9.128906 0 L 9.128906 -1.207031 L 8.621094 -1.207031 L 8.621094 -5.292969 L 9.128906 -5.292969 L 9.128906 -6.492188 L 5.59375 -6.492188 L 4.699219 -3.019531 L 3.761719 -6.492188 L 0.242188 -6.492188 L 0.242188 -5.292969 L 0.734375 -5.292969 L 0.734375 -1.199219 L 0.230469 -1.199219 L 0.230469 0 L 2.75 0 L 2.75 -1.199219 L 2.21875 -1.199219 L 2.21875 -4.859375 L 2.257812 -4.859375 C 2.285156 -4.394531 2.40625 -3.863281 2.453125 -3.707031 L 3.492188 0 L 5.433594 0 L 6.410156 -3.613281 C 6.472656 -3.828125 6.605469 -4.441406 6.679688 -4.859375 Z M 6.714844 -4.859375 "/></g></g></g><g fill="#000b26" fill-opacity="1"><g transform="translate(64.609763, 138.502992)"><g><path d="M 0.230469 -6.492188 L 0.230469 -5.265625 L 0.816406 -5.265625 L 0.816406 -1.234375 L 0.230469 -1.234375 L 0.230469 0 L 5.832031 0 L 5.832031 -2.097656 L 4.226562 -2.097656 L 4.226562 -1.234375 L 2.738281 -1.234375 L 2.738281 -2.75 L 4.503906 -2.75 L 4.503906 -3.984375 L 2.738281 -3.984375 L 2.738281 -5.265625 L 4.226562 -5.265625 L 4.226562 -4.441406 L 5.832031 -4.441406 L 5.832031 -6.492188 Z M 0.230469 -6.492188 "/></g></g></g><g fill="#000b26" fill-opacity="1"><g transform="translate(70.674273, 138.502992)"><g><path d="M 3.316406 0 L 3.316406 -1.199219 L 2.488281 -1.199219 L 3.445312 -2.414062 L 3.640625 -2.15625 L 4.347656 -1.207031 L 3.816406 -1.207031 L 3.816406 0 L 7.523438 0 L 7.523438 -1.207031 L 6.984375 -1.207031 L 5.3125 -3.492188 L 6.714844 -5.285156 L 7.503906 -5.285156 L 7.503906 -6.492188 L 4.421875 -6.492188 L 4.421875 -5.285156 L 5.238281 -5.285156 L 4.292969 -4.050781 L 3.382812 -5.285156 L 3.917969 -5.285156 L 3.917969 -6.492188 L 0.242188 -6.492188 L 0.242188 -5.285156 L 0.722656 -5.285156 L 2.40625 -2.972656 L 1.039062 -1.199219 L 0.230469 -1.199219 L 0.230469 0 Z M 3.316406 0 "/></g></g></g><g fill="#000b26" fill-opacity="1"><g transform="translate(78.42904, 138.502992)"><g><path d="M 0.230469 -6.492188 L 0.230469 -5.265625 L 0.816406 -5.265625 L 0.816406 -1.234375 L 0.230469 -1.234375 L 0.230469 0 L 3.316406 0 L 3.316406 -1.234375 L 2.738281 -1.234375 L 2.738281 -5.265625 L 3.316406 -5.265625 L 3.316406 -6.492188 Z M 0.230469 -6.492188 "/></g></g></g><g fill="#000b26" fill-opacity="1"><g transform="translate(81.976731, 138.502992)"><g><path d="M 5.144531 -2.351562 C 5.0625 -2.257812 4.449219 -1.441406 3.667969 -1.441406 C 2.785156 -1.441406 2.3125 -2.265625 2.3125 -3.1875 C 2.3125 -4.199219 2.75 -5.023438 3.417969 -5.023438 C 4.078125 -5.023438 4.375 -4.457031 4.402344 -3.855469 L 6.066406 -3.855469 L 6.066406 -6.492188 L 4.605469 -6.492188 L 4.394531 -5.972656 C 4.308594 -6.085938 3.890625 -6.605469 2.964844 -6.605469 C 1.746094 -6.605469 0.140625 -5.324219 0.140625 -3.1875 C 0.140625 -1.113281 1.449219 0.148438 3.417969 0.148438 C 4.636719 0.148438 5.601562 -0.464844 6.234375 -1.160156 Z M 5.144531 -2.351562 "/></g></g></g><g fill="#000b26" fill-opacity="1"><g transform="translate(88.347713, 138.502992)"><g><path d="M 7.503906 0 L 7.503906 -1.21875 L 6.855469 -1.21875 L 5.210938 -6.492188 L 1.644531 -6.492188 L 1.644531 -5.292969 L 2.023438 -5.292969 L 0.769531 -1.21875 L 0.140625 -1.21875 L 0.140625 0 L 3.09375 0 L 3.09375 -1.21875 L 2.367188 -1.21875 L 2.5625 -1.847656 L 4.46875 -1.847656 L 4.664062 -1.21875 L 3.78125 -1.21875 L 3.78125 0 Z M 2.90625 -2.964844 L 3.511719 -4.96875 L 4.125 -2.964844 Z M 2.90625 -2.964844 "/></g></g></g><g fill="#000b26" fill-opacity="1"><g transform="translate(95.991038, 138.502992)"><g><path d="M 7.347656 -5.292969 L 7.347656 -6.492188 L 4.550781 -6.492188 L 4.550781 -5.292969 L 5.183594 -5.292969 L 5.183594 -3.082031 L 2.90625 -6.492188 L 0.242188 -6.492188 L 0.242188 -5.292969 L 0.78125 -5.292969 L 0.78125 -1.199219 L 0.230469 -1.199219 L 0.230469 0 L 3.082031 0 L 3.082031 -1.199219 L 2.367188 -1.199219 L 2.367188 -3.539062 L 4.738281 0 L 6.734375 0 L 6.734375 -5.292969 Z M 7.347656 -5.292969 "/></g></g></g><g fill="#000b26" fill-opacity="1"><g transform="translate(103.569349, 138.502992)"><g/></g></g><g fill="#000b26" fill-opacity="1"><g transform="translate(105.891138, 138.502992)"><g><path d="M 0.230469 -6.492188 L 0.230469 -5.265625 L 0.808594 -5.265625 L 0.808594 -1.234375 L 0.230469 -1.234375 L 0.230469 0 L 3.6875 0 L 3.6875 -1.234375 L 2.738281 -1.234375 L 2.738281 -2.414062 L 4.503906 -2.414062 L 4.503906 -3.652344 L 2.738281 -3.652344 L 2.738281 -5.265625 L 4.144531 -5.265625 L 4.144531 -4.441406 L 5.785156 -4.441406 L 5.785156 -6.492188 Z M 0.230469 -6.492188 "/></g></g></g><g fill="#000b26" fill-opacity="1"><g transform="translate(111.816338, 138.502992)"><g><path d="M 3.464844 0.167969 C 5.5625 0.167969 6.734375 -1.113281 6.734375 -3.214844 C 6.734375 -5.304688 5.675781 -6.667969 3.398438 -6.667969 C 1.476562 -6.667969 0.140625 -5.285156 0.140625 -3.277344 C 0.140625 -0.957031 1.523438 0.167969 3.464844 0.167969 Z M 3.464844 -1.292969 C 2.871094 -1.292969 2.433594 -2.0625 2.433594 -3.277344 C 2.433594 -4.429688 2.824219 -5.25 3.390625 -5.238281 C 4.105469 -5.238281 4.414062 -4.335938 4.414062 -3.214844 C 4.414062 -2.0625 4.050781 -1.292969 3.464844 -1.292969 Z M 3.464844 -1.292969 "/></g></g></g><g fill="#000b26" fill-opacity="1"><g transform="translate(118.688829, 138.502992)"><g><path d="M 3.464844 0.167969 C 5.5625 0.167969 6.734375 -1.113281 6.734375 -3.214844 C 6.734375 -5.304688 5.675781 -6.667969 3.398438 -6.667969 C 1.476562 -6.667969 0.140625 -5.285156 0.140625 -3.277344 C 0.140625 -0.957031 1.523438 0.167969 3.464844 0.167969 Z M 3.464844 -1.292969 C 2.871094 -1.292969 2.433594 -2.0625 2.433594 -3.277344 C 2.433594 -4.429688 2.824219 -5.25 3.390625 -5.238281 C 4.105469 -5.238281 4.414062 -4.335938 4.414062 -3.214844 C 4.414062 -2.0625 4.050781 -1.292969 3.464844 -1.292969 Z M 3.464844 -1.292969 "/></g></g></g><g fill="#000b26" fill-opacity="1"><g transform="translate(125.56132, 138.502992)"><g><path d="M 0.230469 0 L 3.027344 0 C 5.3125 0 6.59375 -1.21875 6.59375 -3.335938 C 6.59375 -5.109375 5.3125 -6.492188 3.066406 -6.492188 L 0.230469 -6.492188 L 0.230469 -5.265625 L 0.808594 -5.265625 L 0.808594 -1.234375 L 0.230469 -1.234375 Z M 2.710938 -1.234375 L 2.710938 -5.265625 L 3.066406 -5.265625 C 4.050781 -5.265625 4.457031 -4.328125 4.457031 -3.335938 C 4.457031 -2.171875 4.050781 -1.253906 3.066406 -1.234375 Z M 2.710938 -1.234375 "/></g></g></g></svg>