<svg xmlns="http://www.w3.org/2000/svg" xmlns:xlink="http://www.w3.org/1999/xlink" width="100" zoomAndPan="magnify" viewBox="0 0 75 30.000001" height="40" preserveAspectRatio="xMidYMid meet" version="1.0"><defs><filter x="0%" y="0%" width="100%" height="100%" id="id1"><feColorMatrix values="0 0 0 0 1 0 0 0 0 1 0 0 0 0 1 0 0 0 1 0" color-interpolation-filters="sRGB"/></filter><g/><clipPath id="id2"><path d="M 2.148438 4.398438 L 72.554688 4.398438 L 72.554688 24.71875 L 2.148438 24.71875 Z M 2.148438 4.398438 " clip-rule="nonzero"/></clipPath><mask id="id3"><g filter="url(#id1)"><rect x="-7.5" width="90" fill="#000000" y="-3" height="36.000001" fill-opacity="0.298"/></g></mask><clipPath id="id4"><path d="M 1 0.503906 L 64.796875 0.503906 L 64.796875 10 L 1 10 Z M 1 0.503906 " clip-rule="nonzero"/></clipPath><clipPath id="id5"><rect x="0" width="65" y="0" height="11"/></clipPath></defs><g clip-path="url(#id2)"><path fill="#a2e0e8" d="M 72.484375 14.507812 C 72.484375 20.089844 68.046875 24.71875 62.527344 24.71875 L 12.191406 24.71875 C 6.671875 24.71875 2.21875 20.074219 2.21875 14.507812 L 2.21875 14.371094 C 2.21875 8.804688 6.671875 4.398438 12.191406 4.398438 L 62.511719 4.398438 C 68.046875 4.398438 72.484375 8.804688 72.484375 14.371094 Z M 72.484375 14.507812 " fill-opacity="1" fill-rule="nonzero"/></g><g mask="url(#id3)"><g transform="matrix(1, 0, 0, 1, 4, 6)"><g clip-path="url(#id5)"><g clip-path="url(#id4)"><path fill="#ffffff" d="M 1.183594 9.855469 C 1.183594 5.707031 3.707031 0.617188 8.53125 0.617188 L 57.070312 0.617188 C 62.152344 0.617188 64.605469 5.3125 64.605469 9.480469 L 64.605469 9.839844 " fill-opacity="1" fill-rule="nonzero"/></g></g></g></g><g fill="#000000" fill-opacity="1"><g transform="translate(20.702062, 22.676643)"><g><path d="M 4.703125 0.1875 C 3.359375 0.1875 2.382812 -0.238281 1.78125 -1.09375 C 1.175781 -1.945312 0.875 -3.210938 0.875 -4.890625 L 0.875 -9.875 C 0.875 -11.019531 0.992188 -11.960938 1.234375 -12.703125 C 1.472656 -13.441406 1.882812 -14.007812 2.46875 -14.40625 C 3.050781 -14.8125 3.851562 -15.015625 4.875 -15.015625 C 6.238281 -15.015625 7.222656 -14.664062 7.828125 -13.96875 C 8.441406 -13.269531 8.75 -12.171875 8.75 -10.671875 L 8.75 -10.125 L 6.796875 -10.125 L 6.796875 -10.578125 C 6.796875 -11.296875 6.753906 -11.847656 6.671875 -12.234375 C 6.585938 -12.617188 6.40625 -12.90625 6.125 -13.09375 C 5.851562 -13.289062 5.445312 -13.390625 4.90625 -13.390625 C 4.332031 -13.390625 3.90625 -13.257812 3.625 -13 C 3.34375 -12.738281 3.160156 -12.382812 3.078125 -11.9375 C 2.992188 -11.5 2.953125 -10.914062 2.953125 -10.1875 L 2.953125 -4.671875 C 2.953125 -3.523438 3.085938 -2.703125 3.359375 -2.203125 C 3.640625 -1.710938 4.175781 -1.46875 4.96875 -1.46875 C 5.738281 -1.46875 6.265625 -1.738281 6.546875 -2.28125 C 6.835938 -2.820312 6.984375 -3.6875 6.984375 -4.875 L 6.984375 -5.890625 L 5.09375 -5.890625 L 5.09375 -7.375 L 8.859375 -7.375 L 8.859375 0 L 7.546875 0 L 7.34375 -1.703125 C 6.882812 -0.441406 6.003906 0.1875 4.703125 0.1875 Z M 4.703125 0.1875 "/></g></g></g><g fill="#000000" fill-opacity="1"><g transform="translate(30.528832, 22.676643)"><g><path d="M 1.15625 -14.890625 L 4.15625 -14.890625 C 5.65625 -14.890625 6.757812 -14.578125 7.46875 -13.953125 C 8.175781 -13.335938 8.53125 -12.332031 8.53125 -10.9375 C 8.53125 -9.019531 7.914062 -7.859375 6.6875 -7.453125 L 8.796875 0 L 6.796875 0 L 4.84375 -6.984375 L 3.234375 -6.984375 L 3.234375 0 L 1.15625 0 Z M 4.03125 -8.46875 C 4.914062 -8.46875 5.550781 -8.644531 5.9375 -9 C 6.320312 -9.351562 6.515625 -10 6.515625 -10.9375 C 6.515625 -11.550781 6.445312 -12.03125 6.3125 -12.375 C 6.1875 -12.726562 5.953125 -12.984375 5.609375 -13.140625 C 5.265625 -13.304688 4.78125 -13.390625 4.15625 -13.390625 L 3.234375 -13.390625 L 3.234375 -8.46875 Z M 4.03125 -8.46875 "/></g></g></g><g fill="#000000" fill-opacity="1"><g transform="translate(40.061718, 22.676643)"><g><path d="M 1.265625 -14.890625 L 3.3125 -14.890625 L 3.3125 0 L 1.265625 0 Z M 1.265625 -14.890625 "/></g></g></g><g fill="#000000" fill-opacity="1"><g transform="translate(44.61693, 22.676643)"><g><path d="M 1.15625 -14.890625 L 4.390625 -14.890625 C 5.992188 -14.890625 7.128906 -14.519531 7.796875 -13.78125 C 8.460938 -13.039062 8.796875 -11.894531 8.796875 -10.34375 L 8.796875 -4.875 C 8.796875 -3.226562 8.46875 -2.003906 7.8125 -1.203125 C 7.15625 -0.398438 6.070312 0 4.5625 0 L 1.15625 0 Z M 4.40625 -1.484375 C 5.132812 -1.484375 5.660156 -1.625 5.984375 -1.90625 C 6.304688 -2.1875 6.503906 -2.566406 6.578125 -3.046875 C 6.660156 -3.535156 6.703125 -4.269531 6.703125 -5.25 L 6.703125 -10.09375 C 6.703125 -10.9375 6.648438 -11.582031 6.546875 -12.03125 C 6.441406 -12.476562 6.222656 -12.804688 5.890625 -13.015625 C 5.566406 -13.234375 5.054688 -13.34375 4.359375 -13.34375 L 3.234375 -13.34375 L 3.234375 -1.484375 Z M 4.40625 -1.484375 "/></g></g></g></svg>