<svg xmlns="http://www.w3.org/2000/svg" xmlns:xlink="http://www.w3.org/1999/xlink" width="250" zoomAndPan="magnify" viewBox="0 0 187.5 187.499992" height="250" preserveAspectRatio="xMidYMid meet" version="1.0"><defs><g/><clipPath id="id1"><path d="M 0 0 L 187 0 L 187 187 L 0 187 Z M 0 0 " clip-rule="nonzero"/></clipPath><clipPath id="id2"><path d="M 70.03125 53 L 117.28125 53 L 117.28125 99 L 70.03125 99 Z M 70.03125 53 " clip-rule="nonzero"/></clipPath></defs><g clip-path="url(#id1)"><path fill="#ffffff" d="M 0 0 L 187.5 0 L 187.5 195 L 0 195 Z M 0 0 " fill-opacity="1" fill-rule="nonzero"/><path fill="#fdfafa" d="M 0 0 L 187.5 0 L 187.5 187.5 L 0 187.5 Z M 0 0 " fill-opacity="1" fill-rule="nonzero"/><path fill="#ffffff" d="M 0 0 L 187.5 0 L 187.5 187.5 L 0 187.5 Z M 0 0 " fill-opacity="1" fill-rule="nonzero"/><path fill="#fdfafa" d="M 0 0 L 187.5 0 L 187.5 187.5 L 0 187.5 Z M 0 0 " fill-opacity="1" fill-rule="nonzero"/></g><g clip-path="url(#id2)"><path fill="#101160" d="M 113.390625 78.363281 L 112.703125 77.578125 C 112.863281 77.515625 113 77.417969 113.105469 77.28125 C 113.273438 77.066406 117.28125 71.976562 117.28125 67.207031 C 117.28125 67.089844 117.132812 55.132812 104.109375 53.804688 C 103.855469 53.746094 98.054688 52.707031 93.65625 56.46875 C 92.238281 55.339844 89.316406 53.5 83.289062 53.785156 C 70.859375 54.992188 70.03125 67.027344 70.03125 67.167969 C 70.019531 69.222656 70.316406 71.230469 70.917969 73.195312 C 71.515625 75.15625 72.398438 76.984375 73.554688 78.679688 C 73.234375 79.097656 72.992188 79.554688 72.828125 80.054688 C 72.703125 80.414062 72.636719 80.78125 72.621094 81.160156 C 72.609375 81.539062 72.648438 81.914062 72.746094 82.28125 C 72.839844 82.648438 72.984375 82.992188 73.183594 83.316406 C 73.378906 83.640625 73.617188 83.929688 73.898438 84.179688 C 74.660156 85.019531 75.605469 85.449219 76.734375 85.46875 L 77.097656 85.46875 C 77.046875 86.070312 77.128906 86.65625 77.351562 87.21875 C 77.570312 87.78125 77.902344 88.269531 78.347656 88.675781 C 79.113281 89.515625 80.0625 89.945312 81.195312 89.960938 L 81.546875 89.960938 C 81.519531 90.554688 81.613281 91.121094 81.839844 91.671875 C 82.0625 92.21875 82.390625 92.691406 82.828125 93.089844 C 83.589844 93.925781 84.535156 94.355469 85.664062 94.375 L 86.015625 94.375 C 85.972656 94.980469 86.058594 95.5625 86.28125 96.125 C 86.503906 96.6875 86.835938 97.171875 87.277344 97.582031 C 88.039062 98.421875 88.984375 98.847656 90.113281 98.871094 C 91.28125 98.828125 92.285156 98.398438 93.125 97.582031 L 93.617188 97.078125 L 94.167969 97.632812 C 94.984375 98.449219 95.96875 98.875 97.121094 98.910156 C 98.253906 98.898438 99.207031 98.472656 99.976562 97.632812 C 100.417969 97.222656 100.75 96.734375 100.96875 96.167969 C 101.1875 95.605469 101.273438 95.019531 101.226562 94.414062 L 101.578125 94.414062 C 102.132812 94.417969 102.660156 94.304688 103.164062 94.085938 C 103.671875 93.863281 104.109375 93.546875 104.484375 93.140625 C 104.929688 92.730469 105.261719 92.246094 105.480469 91.683594 C 105.703125 91.117188 105.785156 90.535156 105.734375 89.933594 C 106.027344 89.941406 106.320312 89.921875 106.613281 89.871094 C 106.90625 89.820312 107.1875 89.742188 107.460938 89.632812 C 107.738281 89.523438 107.996094 89.390625 108.246094 89.226562 C 108.492188 89.0625 108.71875 88.878906 108.929688 88.667969 C 109.136719 88.457031 109.324219 88.230469 109.484375 87.980469 C 109.648438 87.734375 109.785156 87.472656 109.894531 87.195312 C 110 86.917969 110.082031 86.636719 110.132812 86.34375 C 110.183594 86.050781 110.203125 85.753906 110.191406 85.457031 C 110.789062 85.496094 111.359375 85.402344 111.914062 85.179688 C 112.464844 84.957031 112.941406 84.621094 113.34375 84.179688 C 113.621094 83.929688 113.855469 83.644531 114.050781 83.324219 C 114.242188 83.003906 114.386719 82.660156 114.484375 82.296875 C 114.578125 81.933594 114.621094 81.566406 114.609375 81.191406 C 114.597656 80.816406 114.535156 80.449219 114.417969 80.09375 C 114.195312 79.441406 113.855469 78.867188 113.390625 78.363281 Z M 94.394531 58.449219 C 98.105469 54.785156 103.6875 55.773438 103.824219 55.792969 C 115.136719 56.914062 115.3125 66.792969 115.3125 67.207031 C 115.3125 71.273438 111.601562 75.996094 111.570312 76.046875 C 111.53125 76.085938 111.5 76.132812 111.472656 76.183594 L 98.578125 61.566406 L 98.519531 61.566406 C 98.507812 61.507812 98.480469 61.457031 98.441406 61.417969 L 97.289062 61.417969 L 97.230469 61.464844 L 90.003906 68.742188 C 89.808594 68.960938 89.578125 69.128906 89.3125 69.246094 C 89.042969 69.367188 88.765625 69.425781 88.472656 69.425781 C 88.179688 69.425781 87.902344 69.367188 87.636719 69.246094 C 87.367188 69.128906 87.136719 68.960938 86.941406 68.742188 C 86.726562 68.542969 86.5625 68.3125 86.445312 68.046875 C 86.328125 67.777344 86.269531 67.5 86.269531 67.207031 C 86.269531 66.914062 86.328125 66.636719 86.445312 66.367188 C 86.5625 66.101562 86.726562 65.871094 86.941406 65.671875 Z M 78.347656 82.746094 C 77.894531 83.171875 77.355469 83.40625 76.734375 83.449219 C 76.152344 83.421875 75.667969 83.1875 75.289062 82.746094 C 75.070312 82.550781 74.902344 82.316406 74.78125 82.050781 C 74.664062 81.78125 74.605469 81.5 74.605469 81.207031 C 74.605469 80.914062 74.664062 80.632812 74.78125 80.363281 C 74.902344 80.097656 75.070312 79.863281 75.289062 79.667969 L 79.726562 75.195312 C 80.183594 74.765625 80.71875 74.527344 81.339844 74.480469 C 81.925781 74.511719 82.410156 74.746094 82.796875 75.183594 C 83.011719 75.378906 83.179688 75.609375 83.296875 75.875 C 83.417969 76.140625 83.476562 76.417969 83.480469 76.707031 C 83.484375 76.996094 83.425781 77.277344 83.3125 77.542969 C 83.199219 77.8125 83.039062 78.042969 82.828125 78.242188 Z M 81.195312 87.921875 C 80.609375 87.898438 80.121094 87.664062 79.738281 87.21875 C 79.523438 87.023438 79.355469 86.789062 79.238281 86.523438 C 79.121094 86.253906 79.0625 85.972656 79.0625 85.679688 C 79.0625 85.386719 79.121094 85.109375 79.238281 84.839844 C 79.355469 84.574219 79.523438 84.339844 79.738281 84.140625 L 84.195312 79.667969 C 84.644531 79.25 85.171875 79.015625 85.78125 78.964844 C 86.363281 78.992188 86.84375 79.226562 87.226562 79.667969 C 87.445312 79.863281 87.609375 80.097656 87.730469 80.367188 C 87.847656 80.632812 87.90625 80.914062 87.90625 81.207031 C 87.90625 81.5 87.847656 81.78125 87.730469 82.050781 C 87.609375 82.316406 87.445312 82.550781 87.226562 82.746094 L 82.828125 87.21875 C 82.363281 87.644531 81.820312 87.878906 81.195312 87.921875 Z M 87.257812 91.695312 C 86.800781 92.121094 86.261719 92.355469 85.644531 92.40625 C 85.058594 92.375 84.578125 92.140625 84.195312 91.695312 C 83.980469 91.496094 83.8125 91.265625 83.695312 90.996094 C 83.578125 90.726562 83.519531 90.449219 83.519531 90.15625 C 83.519531 89.863281 83.578125 89.582031 83.695312 89.3125 C 83.8125 89.046875 83.980469 88.8125 84.195312 88.617188 L 88.644531 84.179688 C 89.097656 83.757812 89.632812 83.523438 90.25 83.480469 C 90.828125 83.507812 91.308594 83.742188 91.6875 84.179688 C 91.902344 84.378906 92.070312 84.609375 92.1875 84.878906 C 92.304688 85.148438 92.363281 85.425781 92.363281 85.71875 C 92.363281 86.015625 92.304688 86.292969 92.1875 86.5625 C 92.070312 86.832031 91.902344 87.0625 91.6875 87.257812 Z M 91.6875 96.167969 C 91.230469 96.597656 90.6875 96.835938 90.0625 96.878906 C 89.480469 96.855469 89 96.621094 88.617188 96.175781 C 88.398438 95.980469 88.234375 95.75 88.113281 95.480469 C 87.996094 95.210938 87.9375 94.929688 87.9375 94.636719 C 87.9375 94.34375 87.996094 94.066406 88.113281 93.796875 C 88.234375 93.527344 88.398438 93.296875 88.617188 93.097656 L 93.066406 88.617188 C 93.519531 88.191406 94.054688 87.957031 94.667969 87.914062 C 95.25 87.945312 95.730469 88.179688 96.117188 88.617188 C 96.390625 88.851562 96.589844 89.140625 96.703125 89.484375 C 96.820312 89.832031 96.839844 90.179688 96.765625 90.535156 C 96.742188 90.589844 96.726562 90.644531 96.71875 90.703125 C 96.59375 91.082031 96.394531 91.410156 96.117188 91.695312 Z M 98.578125 96.167969 C 98.382812 96.386719 98.152344 96.554688 97.886719 96.675781 C 97.617188 96.792969 97.339844 96.855469 97.046875 96.855469 C 96.753906 96.855469 96.476562 96.792969 96.207031 96.675781 C 95.941406 96.554688 95.710938 96.386719 95.515625 96.167969 L 94.976562 95.625 L 97.59375 93.089844 C 97.761719 92.917969 97.914062 92.734375 98.046875 92.535156 L 98.636719 93.128906 C 98.851562 93.332031 99.015625 93.566406 99.128906 93.835938 C 99.242188 94.109375 99.296875 94.390625 99.289062 94.6875 C 99.285156 94.980469 99.21875 95.261719 99.097656 95.527344 C 98.972656 95.792969 98.800781 96.023438 98.578125 96.21875 Z M 111.957031 82.785156 C 111.761719 83.003906 111.527344 83.171875 111.261719 83.292969 C 110.996094 83.414062 110.714844 83.472656 110.425781 83.472656 C 110.132812 83.472656 109.851562 83.414062 109.585938 83.292969 C 109.320312 83.171875 109.089844 83.003906 108.894531 82.785156 L 105.515625 79.390625 C 105.324219 79.199219 105.09375 79.101562 104.820312 79.097656 C 104.550781 79.097656 104.316406 79.195312 104.125 79.386719 C 103.933594 79.578125 103.835938 79.8125 103.835938 80.085938 C 103.832031 80.359375 103.929688 80.59375 104.121094 80.785156 L 107.496094 84.179688 C 107.742188 84.371094 107.933594 84.605469 108.082031 84.878906 C 108.226562 85.152344 108.308594 85.445312 108.332031 85.753906 C 108.351562 86.066406 108.308594 86.367188 108.203125 86.65625 C 108.09375 86.949219 107.933594 87.207031 107.714844 87.425781 C 107.5 87.648438 107.246094 87.816406 106.960938 87.929688 C 106.671875 88.042969 106.375 88.09375 106.066406 88.078125 C 105.757812 88.0625 105.464844 87.984375 105.1875 87.84375 C 104.914062 87.703125 104.679688 87.511719 104.484375 87.269531 L 101.097656 83.863281 C 100.90625 83.671875 100.675781 83.578125 100.402344 83.578125 C 100.132812 83.578125 99.902344 83.671875 99.710938 83.863281 C 99.519531 84.058594 99.421875 84.292969 99.425781 84.566406 C 99.421875 84.839844 99.519531 85.074219 99.710938 85.269531 L 103.097656 88.664062 C 103.289062 88.871094 103.4375 89.105469 103.539062 89.371094 C 103.640625 89.632812 103.691406 89.90625 103.6875 90.191406 C 103.683594 90.476562 103.625 90.746094 103.515625 91.007812 C 103.40625 91.269531 103.253906 91.5 103.054688 91.699219 C 102.851562 91.902344 102.625 92.054688 102.363281 92.167969 C 102.105469 92.277344 101.835938 92.332031 101.550781 92.335938 C 101.269531 92.339844 101 92.292969 100.734375 92.191406 C 100.472656 92.085938 100.238281 91.9375 100.035156 91.742188 L 98.832031 90.535156 C 98.898438 89.914062 98.820312 89.3125 98.601562 88.730469 C 98.382812 88.148438 98.046875 87.644531 97.59375 87.21875 C 96.828125 86.378906 95.878906 85.949219 94.75 85.933594 L 94.394531 85.933594 C 94.4375 85.332031 94.351562 84.746094 94.128906 84.183594 C 93.910156 83.621094 93.578125 83.136719 93.132812 82.726562 C 92.371094 81.890625 91.425781 81.460938 90.300781 81.441406 L 89.945312 81.441406 C 89.984375 80.835938 89.886719 80.253906 89.660156 79.691406 C 89.433594 79.128906 89.09375 78.648438 88.644531 78.242188 C 87.871094 77.410156 86.914062 76.988281 85.78125 76.984375 C 85.660156 76.976562 85.539062 76.976562 85.417969 76.984375 C 85.464844 76.382812 85.378906 75.796875 85.160156 75.234375 C 84.9375 74.667969 84.609375 74.179688 84.167969 73.769531 C 83.402344 72.929688 82.453125 72.5 81.320312 72.480469 C 80.160156 72.527344 79.15625 72.957031 78.320312 73.769531 L 74.953125 77.253906 C 74.003906 75.777344 73.28125 74.199219 72.777344 72.515625 C 72.277344 70.832031 72.015625 69.113281 72 67.355469 C 72 66.929688 72.757812 56.882812 83.429688 55.855469 C 88.351562 55.625 90.878906 56.953125 92.199219 57.882812 L 85.542969 64.355469 C 85.34375 64.546875 85.167969 64.753906 85.007812 64.976562 C 84.851562 65.203125 84.71875 65.441406 84.609375 65.695312 C 84.503906 65.949219 84.421875 66.207031 84.363281 66.476562 C 84.308594 66.75 84.28125 67.019531 84.28125 67.296875 C 84.28125 67.570312 84.308594 67.84375 84.363281 68.113281 C 84.421875 68.382812 84.503906 68.644531 84.609375 68.898438 C 84.71875 69.148438 84.851562 69.390625 85.007812 69.613281 C 85.167969 69.839844 85.34375 70.046875 85.542969 70.234375 C 85.730469 70.4375 85.9375 70.613281 86.164062 70.773438 C 86.386719 70.929688 86.625 71.066406 86.875 71.175781 C 87.128906 71.285156 87.386719 71.367188 87.65625 71.421875 C 87.921875 71.476562 88.195312 71.503906 88.46875 71.503906 C 88.742188 71.503906 89.011719 71.476562 89.28125 71.421875 C 89.550781 71.367188 89.808594 71.285156 90.058594 71.175781 C 90.3125 71.066406 90.550781 70.929688 90.773438 70.773438 C 90.996094 70.613281 91.203125 70.4375 91.390625 70.234375 L 97.839844 63.761719 L 111.957031 79.796875 C 112.15625 79.992188 112.3125 80.21875 112.421875 80.480469 C 112.53125 80.738281 112.585938 81.007812 112.585938 81.292969 C 112.585938 81.574219 112.53125 81.84375 112.421875 82.101562 C 112.3125 82.363281 112.15625 82.589844 111.957031 82.785156 Z M 111.957031 82.785156 " fill-opacity="1" fill-rule="nonzero"/></g><g fill="#101160" fill-opacity="1"><g transform="translate(29.002316, 121.071769)"><g><path d="M 9.46875 -10.71875 C 9.757812 -10.71875 9.988281 -10.628906 10.15625 -10.453125 C 10.332031 -10.273438 10.421875 -10.039062 10.421875 -9.75 L 10.421875 -0.890625 C 10.421875 -0.597656 10.332031 -0.359375 10.15625 -0.171875 C 9.976562 0.00390625 9.75 0.09375 9.46875 0.09375 C 9.175781 0.09375 8.941406 0.00390625 8.765625 -0.171875 C 8.597656 -0.359375 8.515625 -0.597656 8.515625 -0.890625 L 8.515625 -4.625 L 3.0625 -4.625 L 3.0625 -0.890625 C 3.0625 -0.597656 2.972656 -0.359375 2.796875 -0.171875 C 2.617188 0.00390625 2.382812 0.09375 2.09375 0.09375 C 1.8125 0.09375 1.582031 0.00390625 1.40625 -0.171875 C 1.226562 -0.359375 1.140625 -0.597656 1.140625 -0.890625 L 1.140625 -9.75 C 1.140625 -10.039062 1.222656 -10.273438 1.390625 -10.453125 C 1.566406 -10.628906 1.800781 -10.71875 2.09375 -10.71875 C 2.382812 -10.71875 2.617188 -10.628906 2.796875 -10.453125 C 2.972656 -10.273438 3.0625 -10.039062 3.0625 -9.75 L 3.0625 -6.1875 L 8.515625 -6.1875 L 8.515625 -9.75 C 8.515625 -10.039062 8.597656 -10.273438 8.765625 -10.453125 C 8.941406 -10.628906 9.175781 -10.71875 9.46875 -10.71875 Z M 9.46875 -10.71875 "/></g></g></g><g fill="#101160" fill-opacity="1"><g transform="translate(41.923919, 121.071769)"><g><path d="M 10.796875 -1.15625 C 10.847656 -1.03125 10.875 -0.898438 10.875 -0.765625 C 10.875 -0.535156 10.78125 -0.335938 10.59375 -0.171875 C 10.414062 -0.015625 10.207031 0.0625 9.96875 0.0625 C 9.800781 0.0625 9.644531 0.0195312 9.5 -0.0625 C 9.363281 -0.15625 9.253906 -0.289062 9.171875 -0.46875 L 8.265625 -2.484375 L 2.953125 -2.484375 L 2.046875 -0.46875 C 1.972656 -0.289062 1.863281 -0.15625 1.71875 -0.0625 C 1.582031 0.0195312 1.425781 0.0625 1.25 0.0625 C 1.019531 0.0625 0.804688 -0.015625 0.609375 -0.171875 C 0.421875 -0.335938 0.328125 -0.535156 0.328125 -0.765625 C 0.328125 -0.898438 0.359375 -1.03125 0.421875 -1.15625 L 4.59375 -10.109375 C 4.675781 -10.316406 4.8125 -10.472656 5 -10.578125 C 5.1875 -10.679688 5.382812 -10.734375 5.59375 -10.734375 C 5.8125 -10.734375 6.007812 -10.679688 6.1875 -10.578125 C 6.375 -10.472656 6.515625 -10.316406 6.609375 -10.109375 Z M 3.625 -4 L 7.609375 -4 L 5.609375 -8.484375 Z M 3.625 -4 "/></g></g></g><g fill="#101160" fill-opacity="1"><g transform="translate(54.483251, 121.071769)"><g><path d="M 9.203125 -10.71875 C 9.484375 -10.71875 9.707031 -10.628906 9.875 -10.453125 C 10.039062 -10.273438 10.125 -10.039062 10.125 -9.75 L 10.125 -0.890625 C 10.125 -0.597656 10.035156 -0.359375 9.859375 -0.171875 C 9.691406 0.00390625 9.472656 0.09375 9.203125 0.09375 C 8.878906 0.09375 8.632812 -0.0195312 8.46875 -0.25 L 2.953125 -7.421875 L 2.953125 -0.890625 C 2.953125 -0.597656 2.867188 -0.359375 2.703125 -0.171875 C 2.546875 0.00390625 2.328125 0.09375 2.046875 0.09375 C 1.765625 0.09375 1.539062 0.00390625 1.375 -0.171875 C 1.21875 -0.359375 1.140625 -0.597656 1.140625 -0.890625 L 1.140625 -9.75 C 1.140625 -10.039062 1.222656 -10.273438 1.390625 -10.453125 C 1.566406 -10.628906 1.796875 -10.71875 2.078125 -10.71875 C 2.390625 -10.71875 2.632812 -10.601562 2.8125 -10.375 L 8.296875 -3.234375 L 8.296875 -9.75 C 8.296875 -10.039062 8.378906 -10.273438 8.546875 -10.453125 C 8.710938 -10.628906 8.929688 -10.71875 9.203125 -10.71875 Z M 9.203125 -10.71875 "/></g></g></g><g fill="#101160" fill-opacity="1"><g transform="translate(67.118055, 121.071769)"><g><path d="M 2.078125 0 C 1.785156 0 1.554688 -0.078125 1.390625 -0.234375 C 1.222656 -0.398438 1.140625 -0.628906 1.140625 -0.921875 L 1.140625 -9.71875 C 1.140625 -10.007812 1.222656 -10.234375 1.390625 -10.390625 C 1.554688 -10.554688 1.785156 -10.640625 2.078125 -10.640625 L 5.078125 -10.640625 C 6.816406 -10.640625 8.164062 -10.171875 9.125 -9.234375 C 10.082031 -8.304688 10.5625 -7.003906 10.5625 -5.328125 C 10.5625 -3.640625 10.082031 -2.328125 9.125 -1.390625 C 8.164062 -0.460938 6.816406 0 5.078125 0 Z M 4.953125 -1.578125 C 7.398438 -1.578125 8.625 -2.828125 8.625 -5.328125 C 8.625 -7.816406 7.398438 -9.0625 4.953125 -9.0625 L 3.09375 -9.0625 L 3.09375 -1.578125 Z M 4.953125 -1.578125 "/></g></g></g><g fill="#101160" fill-opacity="1"><g transform="translate(79.858524, 121.071769)"><g/></g></g><g fill="#101160" fill-opacity="1"><g transform="translate(85.308287, 121.071769)"><g><path d="M 2.109375 0.09375 C 1.816406 0.09375 1.582031 0.00390625 1.40625 -0.171875 C 1.226562 -0.359375 1.140625 -0.597656 1.140625 -0.890625 L 1.140625 -9.75 C 1.140625 -10.039062 1.226562 -10.273438 1.40625 -10.453125 C 1.582031 -10.628906 1.816406 -10.71875 2.109375 -10.71875 C 2.410156 -10.71875 2.648438 -10.628906 2.828125 -10.453125 C 3.003906 -10.273438 3.09375 -10.039062 3.09375 -9.75 L 3.09375 -0.890625 C 3.09375 -0.597656 3.003906 -0.359375 2.828125 -0.171875 C 2.648438 0.00390625 2.410156 0.09375 2.109375 0.09375 Z M 2.109375 0.09375 "/></g></g></g><g fill="#101160" fill-opacity="1"><g transform="translate(90.909, 121.071769)"><g><path d="M 9.203125 -10.71875 C 9.484375 -10.71875 9.707031 -10.628906 9.875 -10.453125 C 10.039062 -10.273438 10.125 -10.039062 10.125 -9.75 L 10.125 -0.890625 C 10.125 -0.597656 10.035156 -0.359375 9.859375 -0.171875 C 9.691406 0.00390625 9.472656 0.09375 9.203125 0.09375 C 8.878906 0.09375 8.632812 -0.0195312 8.46875 -0.25 L 2.953125 -7.421875 L 2.953125 -0.890625 C 2.953125 -0.597656 2.867188 -0.359375 2.703125 -0.171875 C 2.546875 0.00390625 2.328125 0.09375 2.046875 0.09375 C 1.765625 0.09375 1.539062 0.00390625 1.375 -0.171875 C 1.21875 -0.359375 1.140625 -0.597656 1.140625 -0.890625 L 1.140625 -9.75 C 1.140625 -10.039062 1.222656 -10.273438 1.390625 -10.453125 C 1.566406 -10.628906 1.796875 -10.71875 2.078125 -10.71875 C 2.390625 -10.71875 2.632812 -10.601562 2.8125 -10.375 L 8.296875 -3.234375 L 8.296875 -9.75 C 8.296875 -10.039062 8.378906 -10.273438 8.546875 -10.453125 C 8.710938 -10.628906 8.929688 -10.71875 9.203125 -10.71875 Z M 9.203125 -10.71875 "/></g></g></g><g fill="#101160" fill-opacity="1"><g transform="translate(103.543802, 121.071769)"><g/></g></g><g fill="#101160" fill-opacity="1"><g transform="translate(108.993566, 121.071769)"><g><path d="M 9.46875 -10.71875 C 9.757812 -10.71875 9.988281 -10.628906 10.15625 -10.453125 C 10.332031 -10.273438 10.421875 -10.039062 10.421875 -9.75 L 10.421875 -0.890625 C 10.421875 -0.597656 10.332031 -0.359375 10.15625 -0.171875 C 9.976562 0.00390625 9.75 0.09375 9.46875 0.09375 C 9.175781 0.09375 8.941406 0.00390625 8.765625 -0.171875 C 8.597656 -0.359375 8.515625 -0.597656 8.515625 -0.890625 L 8.515625 -4.625 L 3.0625 -4.625 L 3.0625 -0.890625 C 3.0625 -0.597656 2.972656 -0.359375 2.796875 -0.171875 C 2.617188 0.00390625 2.382812 0.09375 2.09375 0.09375 C 1.8125 0.09375 1.582031 0.00390625 1.40625 -0.171875 C 1.226562 -0.359375 1.140625 -0.597656 1.140625 -0.890625 L 1.140625 -9.75 C 1.140625 -10.039062 1.222656 -10.273438 1.390625 -10.453125 C 1.566406 -10.628906 1.800781 -10.71875 2.09375 -10.71875 C 2.382812 -10.71875 2.617188 -10.628906 2.796875 -10.453125 C 2.972656 -10.273438 3.0625 -10.039062 3.0625 -9.75 L 3.0625 -6.1875 L 8.515625 -6.1875 L 8.515625 -9.75 C 8.515625 -10.039062 8.597656 -10.273438 8.765625 -10.453125 C 8.941406 -10.628906 9.175781 -10.71875 9.46875 -10.71875 Z M 9.46875 -10.71875 "/></g></g></g><g fill="#101160" fill-opacity="1"><g transform="translate(121.915167, 121.071769)"><g><path d="M 10.796875 -1.15625 C 10.847656 -1.03125 10.875 -0.898438 10.875 -0.765625 C 10.875 -0.535156 10.78125 -0.335938 10.59375 -0.171875 C 10.414062 -0.015625 10.207031 0.0625 9.96875 0.0625 C 9.800781 0.0625 9.644531 0.0195312 9.5 -0.0625 C 9.363281 -0.15625 9.253906 -0.289062 9.171875 -0.46875 L 8.265625 -2.484375 L 2.953125 -2.484375 L 2.046875 -0.46875 C 1.972656 -0.289062 1.863281 -0.15625 1.71875 -0.0625 C 1.582031 0.0195312 1.425781 0.0625 1.25 0.0625 C 1.019531 0.0625 0.804688 -0.015625 0.609375 -0.171875 C 0.421875 -0.335938 0.328125 -0.535156 0.328125 -0.765625 C 0.328125 -0.898438 0.359375 -1.03125 0.421875 -1.15625 L 4.59375 -10.109375 C 4.675781 -10.316406 4.8125 -10.472656 5 -10.578125 C 5.1875 -10.679688 5.382812 -10.734375 5.59375 -10.734375 C 5.8125 -10.734375 6.007812 -10.679688 6.1875 -10.578125 C 6.375 -10.472656 6.515625 -10.316406 6.609375 -10.109375 Z M 3.625 -4 L 7.609375 -4 L 5.609375 -8.484375 Z M 3.625 -4 "/></g></g></g><g fill="#101160" fill-opacity="1"><g transform="translate(134.474497, 121.071769)"><g><path d="M 9.203125 -10.71875 C 9.484375 -10.71875 9.707031 -10.628906 9.875 -10.453125 C 10.039062 -10.273438 10.125 -10.039062 10.125 -9.75 L 10.125 -0.890625 C 10.125 -0.597656 10.035156 -0.359375 9.859375 -0.171875 C 9.691406 0.00390625 9.472656 0.09375 9.203125 0.09375 C 8.878906 0.09375 8.632812 -0.0195312 8.46875 -0.25 L 2.953125 -7.421875 L 2.953125 -0.890625 C 2.953125 -0.597656 2.867188 -0.359375 2.703125 -0.171875 C 2.546875 0.00390625 2.328125 0.09375 2.046875 0.09375 C 1.765625 0.09375 1.539062 0.00390625 1.375 -0.171875 C 1.21875 -0.359375 1.140625 -0.597656 1.140625 -0.890625 L 1.140625 -9.75 C 1.140625 -10.039062 1.222656 -10.273438 1.390625 -10.453125 C 1.566406 -10.628906 1.796875 -10.71875 2.078125 -10.71875 C 2.390625 -10.71875 2.632812 -10.601562 2.8125 -10.375 L 8.296875 -3.234375 L 8.296875 -9.75 C 8.296875 -10.039062 8.378906 -10.273438 8.546875 -10.453125 C 8.710938 -10.628906 8.929688 -10.71875 9.203125 -10.71875 Z M 9.203125 -10.71875 "/></g></g></g><g fill="#101160" fill-opacity="1"><g transform="translate(147.109299, 121.071769)"><g><path d="M 2.078125 0 C 1.785156 0 1.554688 -0.078125 1.390625 -0.234375 C 1.222656 -0.398438 1.140625 -0.628906 1.140625 -0.921875 L 1.140625 -9.71875 C 1.140625 -10.007812 1.222656 -10.234375 1.390625 -10.390625 C 1.554688 -10.554688 1.785156 -10.640625 2.078125 -10.640625 L 5.078125 -10.640625 C 6.816406 -10.640625 8.164062 -10.171875 9.125 -9.234375 C 10.082031 -8.304688 10.5625 -7.003906 10.5625 -5.328125 C 10.5625 -3.640625 10.082031 -2.328125 9.125 -1.390625 C 8.164062 -0.460938 6.816406 0 5.078125 0 Z M 4.953125 -1.578125 C 7.398438 -1.578125 8.625 -2.828125 8.625 -5.328125 C 8.625 -7.816406 7.398438 -9.0625 4.953125 -9.0625 L 3.09375 -9.0625 L 3.09375 -1.578125 Z M 4.953125 -1.578125 "/></g></g></g><g fill="#101160" fill-opacity="1"><g transform="translate(50.270098, 133.530707)"><g><path d="M 2.890625 -3.359375 C 2.972656 -3.359375 3.039062 -3.332031 3.09375 -3.28125 C 3.144531 -3.226562 3.171875 -3.15625 3.171875 -3.0625 L 3.171875 -0.28125 C 3.171875 -0.1875 3.144531 -0.109375 3.09375 -0.046875 C 3.039062 0.00390625 2.972656 0.03125 2.890625 0.03125 C 2.785156 0.03125 2.707031 -0.00390625 2.65625 -0.078125 L 0.921875 -2.328125 L 0.921875 -0.28125 C 0.921875 -0.1875 0.894531 -0.109375 0.84375 -0.046875 C 0.800781 0.00390625 0.734375 0.03125 0.640625 0.03125 C 0.554688 0.03125 0.488281 0.00390625 0.4375 -0.046875 C 0.382812 -0.109375 0.359375 -0.1875 0.359375 -0.28125 L 0.359375 -3.0625 C 0.359375 -3.15625 0.382812 -3.226562 0.4375 -3.28125 C 0.488281 -3.332031 0.5625 -3.359375 0.65625 -3.359375 C 0.75 -3.359375 0.820312 -3.320312 0.875 -3.25 L 2.609375 -1.015625 L 2.609375 -3.0625 C 2.609375 -3.15625 2.632812 -3.226562 2.6875 -3.28125 C 2.738281 -3.332031 2.804688 -3.359375 2.890625 -3.359375 Z M 2.890625 -3.359375 "/></g></g></g><g fill="#101160" fill-opacity="1"><g transform="translate(54.678499, 133.530707)"><g><path d="M 1.84375 0.046875 C 1.519531 0.046875 1.238281 -0.0195312 1 -0.15625 C 0.757812 -0.300781 0.570312 -0.503906 0.4375 -0.765625 C 0.3125 -1.023438 0.25 -1.328125 0.25 -1.671875 C 0.25 -2.015625 0.3125 -2.316406 0.4375 -2.578125 C 0.570312 -2.835938 0.757812 -3.035156 1 -3.171875 C 1.238281 -3.304688 1.519531 -3.375 1.84375 -3.375 C 2.164062 -3.375 2.445312 -3.304688 2.6875 -3.171875 C 2.925781 -3.035156 3.109375 -2.835938 3.234375 -2.578125 C 3.367188 -2.316406 3.4375 -2.015625 3.4375 -1.671875 C 3.4375 -1.328125 3.367188 -1.023438 3.234375 -0.765625 C 3.109375 -0.503906 2.925781 -0.300781 2.6875 -0.15625 C 2.445312 -0.0195312 2.164062 0.046875 1.84375 0.046875 Z M 1.84375 -0.4375 C 2.15625 -0.4375 2.394531 -0.539062 2.5625 -0.75 C 2.738281 -0.96875 2.828125 -1.273438 2.828125 -1.671875 C 2.828125 -2.066406 2.738281 -2.367188 2.5625 -2.578125 C 2.394531 -2.785156 2.15625 -2.890625 1.84375 -2.890625 C 1.53125 -2.890625 1.285156 -2.785156 1.109375 -2.578125 C 0.941406 -2.367188 0.859375 -2.066406 0.859375 -1.671875 C 0.859375 -1.273438 0.941406 -0.96875 1.109375 -0.75 C 1.285156 -0.539062 1.53125 -0.4375 1.84375 -0.4375 Z M 1.84375 -0.4375 "/></g></g></g><g fill="#101160" fill-opacity="1"><g transform="translate(59.238214, 133.530707)"><g><path d="M 2.890625 -3.359375 C 2.972656 -3.359375 3.039062 -3.332031 3.09375 -3.28125 C 3.144531 -3.226562 3.171875 -3.15625 3.171875 -3.0625 L 3.171875 -0.28125 C 3.171875 -0.1875 3.144531 -0.109375 3.09375 -0.046875 C 3.039062 0.00390625 2.972656 0.03125 2.890625 0.03125 C 2.785156 0.03125 2.707031 -0.00390625 2.65625 -0.078125 L 0.921875 -2.328125 L 0.921875 -0.28125 C 0.921875 -0.1875 0.894531 -0.109375 0.84375 -0.046875 C 0.800781 0.00390625 0.734375 0.03125 0.640625 0.03125 C 0.554688 0.03125 0.488281 0.00390625 0.4375 -0.046875 C 0.382812 -0.109375 0.359375 -0.1875 0.359375 -0.28125 L 0.359375 -3.0625 C 0.359375 -3.15625 0.382812 -3.226562 0.4375 -3.28125 C 0.488281 -3.332031 0.5625 -3.359375 0.65625 -3.359375 C 0.75 -3.359375 0.820312 -3.320312 0.875 -3.25 L 2.609375 -1.015625 L 2.609375 -3.0625 C 2.609375 -3.15625 2.632812 -3.226562 2.6875 -3.28125 C 2.738281 -3.332031 2.804688 -3.359375 2.890625 -3.359375 Z M 2.890625 -3.359375 "/></g></g></g><g fill="#101160" fill-opacity="1"><g transform="translate(63.646616, 133.530707)"><g><path d="M 0.546875 -1.03125 C 0.453125 -1.03125 0.378906 -1.050781 0.328125 -1.09375 C 0.285156 -1.132812 0.265625 -1.191406 0.265625 -1.265625 C 0.265625 -1.335938 0.285156 -1.394531 0.328125 -1.4375 C 0.378906 -1.476562 0.453125 -1.5 0.546875 -1.5 L 1.515625 -1.5 C 1.609375 -1.5 1.675781 -1.476562 1.71875 -1.4375 C 1.769531 -1.394531 1.796875 -1.335938 1.796875 -1.265625 C 1.796875 -1.191406 1.769531 -1.132812 1.71875 -1.09375 C 1.675781 -1.050781 1.609375 -1.03125 1.515625 -1.03125 Z M 0.546875 -1.03125 "/></g></g></g><g fill="#101160" fill-opacity="1"><g transform="translate(66.574981, 133.530707)"><g><path d="M 0.65625 0.03125 C 0.570312 0.03125 0.5 0.00390625 0.4375 -0.046875 C 0.382812 -0.109375 0.359375 -0.1875 0.359375 -0.28125 L 0.359375 -3.046875 C 0.359375 -3.140625 0.382812 -3.210938 0.4375 -3.265625 C 0.488281 -3.316406 0.5625 -3.34375 0.65625 -3.34375 L 1.8125 -3.34375 C 2.175781 -3.34375 2.457031 -3.25 2.65625 -3.0625 C 2.851562 -2.882812 2.953125 -2.632812 2.953125 -2.3125 C 2.953125 -2 2.851562 -1.75 2.65625 -1.5625 C 2.457031 -1.382812 2.175781 -1.296875 1.8125 -1.296875 L 0.96875 -1.296875 L 0.96875 -0.28125 C 0.96875 -0.1875 0.941406 -0.109375 0.890625 -0.046875 C 0.835938 0.00390625 0.757812 0.03125 0.65625 0.03125 Z M 1.75 -1.765625 C 2.164062 -1.765625 2.375 -1.945312 2.375 -2.3125 C 2.375 -2.675781 2.164062 -2.859375 1.75 -2.859375 L 0.96875 -2.859375 L 0.96875 -1.765625 Z M 1.75 -1.765625 "/></g></g></g><g fill="#101160" fill-opacity="1"><g transform="translate(70.572002, 133.530707)"><g><path d="M 3.03125 -0.390625 C 3.070312 -0.328125 3.09375 -0.269531 3.09375 -0.21875 C 3.09375 -0.144531 3.0625 -0.0820312 3 -0.03125 C 2.9375 0.0078125 2.867188 0.03125 2.796875 0.03125 C 2.742188 0.03125 2.691406 0.0195312 2.640625 0 C 2.597656 -0.0195312 2.5625 -0.0546875 2.53125 -0.109375 L 1.90625 -1.0625 C 1.84375 -1.164062 1.773438 -1.238281 1.703125 -1.28125 C 1.628906 -1.320312 1.535156 -1.34375 1.421875 -1.34375 L 0.96875 -1.34375 L 0.96875 -0.28125 C 0.96875 -0.1875 0.9375 -0.109375 0.875 -0.046875 C 0.820312 0.00390625 0.75 0.03125 0.65625 0.03125 C 0.570312 0.03125 0.5 0.00390625 0.4375 -0.046875 C 0.382812 -0.109375 0.359375 -0.1875 0.359375 -0.28125 L 0.359375 -3.046875 C 0.359375 -3.140625 0.382812 -3.210938 0.4375 -3.265625 C 0.488281 -3.316406 0.5625 -3.34375 0.65625 -3.34375 L 1.84375 -3.34375 C 2.21875 -3.34375 2.503906 -3.253906 2.703125 -3.078125 C 2.898438 -2.910156 3 -2.671875 3 -2.359375 C 3 -2.097656 2.925781 -1.882812 2.78125 -1.71875 C 2.632812 -1.550781 2.425781 -1.441406 2.15625 -1.390625 C 2.25 -1.367188 2.328125 -1.328125 2.390625 -1.265625 C 2.460938 -1.210938 2.53125 -1.140625 2.59375 -1.046875 Z M 1.75 -1.8125 C 1.976562 -1.8125 2.144531 -1.851562 2.25 -1.9375 C 2.363281 -2.019531 2.421875 -2.15625 2.421875 -2.34375 C 2.421875 -2.519531 2.363281 -2.648438 2.25 -2.734375 C 2.144531 -2.816406 1.976562 -2.859375 1.75 -2.859375 L 0.953125 -2.859375 L 0.953125 -1.8125 Z M 1.75 -1.8125 "/></g></g></g><g fill="#101160" fill-opacity="1"><g transform="translate(74.734522, 133.530707)"><g><path d="M 1.84375 0.046875 C 1.519531 0.046875 1.238281 -0.0195312 1 -0.15625 C 0.757812 -0.300781 0.570312 -0.503906 0.4375 -0.765625 C 0.3125 -1.023438 0.25 -1.328125 0.25 -1.671875 C 0.25 -2.015625 0.3125 -2.316406 0.4375 -2.578125 C 0.570312 -2.835938 0.757812 -3.035156 1 -3.171875 C 1.238281 -3.304688 1.519531 -3.375 1.84375 -3.375 C 2.164062 -3.375 2.445312 -3.304688 2.6875 -3.171875 C 2.925781 -3.035156 3.109375 -2.835938 3.234375 -2.578125 C 3.367188 -2.316406 3.4375 -2.015625 3.4375 -1.671875 C 3.4375 -1.328125 3.367188 -1.023438 3.234375 -0.765625 C 3.109375 -0.503906 2.925781 -0.300781 2.6875 -0.15625 C 2.445312 -0.0195312 2.164062 0.046875 1.84375 0.046875 Z M 1.84375 -0.4375 C 2.15625 -0.4375 2.394531 -0.539062 2.5625 -0.75 C 2.738281 -0.96875 2.828125 -1.273438 2.828125 -1.671875 C 2.828125 -2.066406 2.738281 -2.367188 2.5625 -2.578125 C 2.394531 -2.785156 2.15625 -2.890625 1.84375 -2.890625 C 1.53125 -2.890625 1.285156 -2.785156 1.109375 -2.578125 C 0.941406 -2.367188 0.859375 -2.066406 0.859375 -1.671875 C 0.859375 -1.273438 0.941406 -0.96875 1.109375 -0.75 C 1.285156 -0.539062 1.53125 -0.4375 1.84375 -0.4375 Z M 1.84375 -0.4375 "/></g></g></g><g fill="#101160" fill-opacity="1"><g transform="translate(79.294237, 133.530707)"><g><path d="M 0.65625 0.03125 C 0.570312 0.03125 0.5 0.00390625 0.4375 -0.046875 C 0.382812 -0.109375 0.359375 -0.1875 0.359375 -0.28125 L 0.359375 -3.046875 C 0.359375 -3.140625 0.382812 -3.210938 0.4375 -3.265625 C 0.488281 -3.316406 0.5625 -3.34375 0.65625 -3.34375 L 2.3125 -3.34375 C 2.507812 -3.34375 2.609375 -3.257812 2.609375 -3.09375 C 2.609375 -2.925781 2.507812 -2.84375 2.3125 -2.84375 L 0.96875 -2.84375 L 0.96875 -1.9375 L 2.21875 -1.9375 C 2.414062 -1.9375 2.515625 -1.851562 2.515625 -1.6875 C 2.515625 -1.53125 2.414062 -1.453125 2.21875 -1.453125 L 0.96875 -1.453125 L 0.96875 -0.28125 C 0.96875 -0.1875 0.9375 -0.109375 0.875 -0.046875 C 0.820312 0.00390625 0.75 0.03125 0.65625 0.03125 Z M 0.65625 0.03125 "/></g></g></g><g fill="#101160" fill-opacity="1"><g transform="translate(82.846768, 133.530707)"><g><path d="M 0.65625 0.03125 C 0.570312 0.03125 0.5 0.00390625 0.4375 -0.046875 C 0.382812 -0.109375 0.359375 -0.1875 0.359375 -0.28125 L 0.359375 -3.0625 C 0.359375 -3.15625 0.382812 -3.226562 0.4375 -3.28125 C 0.5 -3.332031 0.570312 -3.359375 0.65625 -3.359375 C 0.757812 -3.359375 0.835938 -3.332031 0.890625 -3.28125 C 0.941406 -3.226562 0.96875 -3.15625 0.96875 -3.0625 L 0.96875 -0.28125 C 0.96875 -0.1875 0.941406 -0.109375 0.890625 -0.046875 C 0.835938 0.00390625 0.757812 0.03125 0.65625 0.03125 Z M 0.65625 0.03125 "/></g></g></g><g fill="#101160" fill-opacity="1"><g transform="translate(85.051661, 133.530707)"><g><path d="M 1.453125 0.03125 C 1.359375 0.03125 1.28125 0.00390625 1.21875 -0.046875 C 1.164062 -0.109375 1.140625 -0.1875 1.140625 -0.28125 L 1.140625 -2.828125 L 0.28125 -2.828125 C 0.09375 -2.828125 0 -2.914062 0 -3.09375 C 0 -3.257812 0.09375 -3.34375 0.28125 -3.34375 L 2.625 -3.34375 C 2.8125 -3.34375 2.90625 -3.257812 2.90625 -3.09375 C 2.90625 -2.914062 2.8125 -2.828125 2.625 -2.828125 L 1.75 -2.828125 L 1.75 -0.28125 C 1.75 -0.1875 1.722656 -0.109375 1.671875 -0.046875 C 1.617188 0.00390625 1.546875 0.03125 1.453125 0.03125 Z M 1.453125 0.03125 "/></g></g></g><g fill="#101160" fill-opacity="1"><g transform="translate(88.826437, 133.530707)"><g/></g></g><g fill="#101160" fill-opacity="1"><g transform="translate(90.984049, 133.530707)"><g><path d="M 1.84375 0.046875 C 1.519531 0.046875 1.238281 -0.0195312 1 -0.15625 C 0.757812 -0.300781 0.570312 -0.503906 0.4375 -0.765625 C 0.3125 -1.023438 0.25 -1.328125 0.25 -1.671875 C 0.25 -2.015625 0.3125 -2.316406 0.4375 -2.578125 C 0.570312 -2.835938 0.757812 -3.035156 1 -3.171875 C 1.238281 -3.304688 1.519531 -3.375 1.84375 -3.375 C 2.164062 -3.375 2.445312 -3.304688 2.6875 -3.171875 C 2.925781 -3.035156 3.109375 -2.835938 3.234375 -2.578125 C 3.367188 -2.316406 3.4375 -2.015625 3.4375 -1.671875 C 3.4375 -1.328125 3.367188 -1.023438 3.234375 -0.765625 C 3.109375 -0.503906 2.925781 -0.300781 2.6875 -0.15625 C 2.445312 -0.0195312 2.164062 0.046875 1.84375 0.046875 Z M 1.84375 -0.4375 C 2.15625 -0.4375 2.394531 -0.539062 2.5625 -0.75 C 2.738281 -0.96875 2.828125 -1.273438 2.828125 -1.671875 C 2.828125 -2.066406 2.738281 -2.367188 2.5625 -2.578125 C 2.394531 -2.785156 2.15625 -2.890625 1.84375 -2.890625 C 1.53125 -2.890625 1.285156 -2.785156 1.109375 -2.578125 C 0.941406 -2.367188 0.859375 -2.066406 0.859375 -1.671875 C 0.859375 -1.273438 0.941406 -0.96875 1.109375 -0.75 C 1.285156 -0.539062 1.53125 -0.4375 1.84375 -0.4375 Z M 1.84375 -0.4375 "/></g></g></g><g fill="#101160" fill-opacity="1"><g transform="translate(95.543763, 133.530707)"><g><path d="M 3.03125 -0.390625 C 3.070312 -0.328125 3.09375 -0.269531 3.09375 -0.21875 C 3.09375 -0.144531 3.0625 -0.0820312 3 -0.03125 C 2.9375 0.0078125 2.867188 0.03125 2.796875 0.03125 C 2.742188 0.03125 2.691406 0.0195312 2.640625 0 C 2.597656 -0.0195312 2.5625 -0.0546875 2.53125 -0.109375 L 1.90625 -1.0625 C 1.84375 -1.164062 1.773438 -1.238281 1.703125 -1.28125 C 1.628906 -1.320312 1.535156 -1.34375 1.421875 -1.34375 L 0.96875 -1.34375 L 0.96875 -0.28125 C 0.96875 -0.1875 0.9375 -0.109375 0.875 -0.046875 C 0.820312 0.00390625 0.75 0.03125 0.65625 0.03125 C 0.570312 0.03125 0.5 0.00390625 0.4375 -0.046875 C 0.382812 -0.109375 0.359375 -0.1875 0.359375 -0.28125 L 0.359375 -3.046875 C 0.359375 -3.140625 0.382812 -3.210938 0.4375 -3.265625 C 0.488281 -3.316406 0.5625 -3.34375 0.65625 -3.34375 L 1.84375 -3.34375 C 2.21875 -3.34375 2.503906 -3.253906 2.703125 -3.078125 C 2.898438 -2.910156 3 -2.671875 3 -2.359375 C 3 -2.097656 2.925781 -1.882812 2.78125 -1.71875 C 2.632812 -1.550781 2.425781 -1.441406 2.15625 -1.390625 C 2.25 -1.367188 2.328125 -1.328125 2.390625 -1.265625 C 2.460938 -1.210938 2.53125 -1.140625 2.59375 -1.046875 Z M 1.75 -1.8125 C 1.976562 -1.8125 2.144531 -1.851562 2.25 -1.9375 C 2.363281 -2.019531 2.421875 -2.15625 2.421875 -2.34375 C 2.421875 -2.519531 2.363281 -2.648438 2.25 -2.734375 C 2.144531 -2.816406 1.976562 -2.859375 1.75 -2.859375 L 0.953125 -2.859375 L 0.953125 -1.8125 Z M 1.75 -1.8125 "/></g></g></g><g fill="#101160" fill-opacity="1"><g transform="translate(99.706285, 133.530707)"><g><path d="M 2.90625 -1.796875 C 2.976562 -1.796875 3.035156 -1.773438 3.078125 -1.734375 C 3.117188 -1.691406 3.140625 -1.640625 3.140625 -1.578125 L 3.140625 -0.546875 C 3.140625 -0.410156 3.117188 -0.3125 3.078125 -0.25 C 3.046875 -0.1875 2.972656 -0.132812 2.859375 -0.09375 C 2.734375 -0.0507812 2.582031 -0.0195312 2.40625 0 C 2.238281 0.03125 2.082031 0.046875 1.9375 0.046875 C 1.59375 0.046875 1.289062 -0.0195312 1.03125 -0.15625 C 0.78125 -0.289062 0.585938 -0.488281 0.453125 -0.75 C 0.316406 -1.007812 0.25 -1.316406 0.25 -1.671875 C 0.25 -2.023438 0.316406 -2.328125 0.453125 -2.578125 C 0.585938 -2.835938 0.773438 -3.035156 1.015625 -3.171875 C 1.265625 -3.304688 1.5625 -3.375 1.90625 -3.375 C 2.34375 -3.375 2.703125 -3.253906 2.984375 -3.015625 C 3.023438 -2.984375 3.050781 -2.945312 3.0625 -2.90625 C 3.082031 -2.875 3.09375 -2.835938 3.09375 -2.796875 C 3.09375 -2.722656 3.070312 -2.660156 3.03125 -2.609375 C 3 -2.566406 2.957031 -2.546875 2.90625 -2.546875 C 2.875 -2.546875 2.84375 -2.550781 2.8125 -2.5625 C 2.78125 -2.570312 2.75 -2.59375 2.71875 -2.625 C 2.570312 -2.71875 2.4375 -2.785156 2.3125 -2.828125 C 2.195312 -2.867188 2.066406 -2.890625 1.921875 -2.890625 C 1.578125 -2.890625 1.316406 -2.785156 1.140625 -2.578125 C 0.960938 -2.367188 0.875 -2.066406 0.875 -1.671875 C 0.875 -0.847656 1.234375 -0.4375 1.953125 -0.4375 C 2.171875 -0.4375 2.382812 -0.46875 2.59375 -0.53125 L 2.59375 -1.375 L 2.0625 -1.375 C 1.988281 -1.375 1.929688 -1.390625 1.890625 -1.421875 C 1.847656 -1.460938 1.828125 -1.519531 1.828125 -1.59375 C 1.828125 -1.65625 1.847656 -1.703125 1.890625 -1.734375 C 1.929688 -1.773438 1.988281 -1.796875 2.0625 -1.796875 Z M 2.90625 -1.796875 "/></g></g></g><g fill="#101160" fill-opacity="1"><g transform="translate(104.048488, 133.530707)"><g><path d="M 3.390625 -0.359375 C 3.398438 -0.316406 3.40625 -0.273438 3.40625 -0.234375 C 3.40625 -0.160156 3.375 -0.0976562 3.3125 -0.046875 C 3.257812 -0.00390625 3.195312 0.015625 3.125 0.015625 C 3.070312 0.015625 3.023438 0.00390625 2.984375 -0.015625 C 2.941406 -0.046875 2.90625 -0.0859375 2.875 -0.140625 L 2.59375 -0.78125 L 0.921875 -0.78125 L 0.640625 -0.140625 C 0.617188 -0.0859375 0.582031 -0.046875 0.53125 -0.015625 C 0.488281 0.00390625 0.441406 0.015625 0.390625 0.015625 C 0.316406 0.015625 0.25 -0.00390625 0.1875 -0.046875 C 0.132812 -0.0976562 0.109375 -0.160156 0.109375 -0.234375 C 0.109375 -0.273438 0.113281 -0.316406 0.125 -0.359375 L 1.4375 -3.171875 C 1.46875 -3.234375 1.507812 -3.28125 1.5625 -3.3125 C 1.625 -3.34375 1.6875 -3.359375 1.75 -3.359375 C 1.820312 -3.359375 1.882812 -3.34375 1.9375 -3.3125 C 2 -3.28125 2.046875 -3.234375 2.078125 -3.171875 Z M 1.140625 -1.25 L 2.390625 -1.25 L 1.765625 -2.65625 Z M 1.140625 -1.25 "/></g></g></g><g fill="#101160" fill-opacity="1"><g transform="translate(108.433245, 133.530707)"><g><path d="M 2.890625 -3.359375 C 2.972656 -3.359375 3.039062 -3.332031 3.09375 -3.28125 C 3.144531 -3.226562 3.171875 -3.15625 3.171875 -3.0625 L 3.171875 -0.28125 C 3.171875 -0.1875 3.144531 -0.109375 3.09375 -0.046875 C 3.039062 0.00390625 2.972656 0.03125 2.890625 0.03125 C 2.785156 0.03125 2.707031 -0.00390625 2.65625 -0.078125 L 0.921875 -2.328125 L 0.921875 -0.28125 C 0.921875 -0.1875 0.894531 -0.109375 0.84375 -0.046875 C 0.800781 0.00390625 0.734375 0.03125 0.640625 0.03125 C 0.554688 0.03125 0.488281 0.00390625 0.4375 -0.046875 C 0.382812 -0.109375 0.359375 -0.1875 0.359375 -0.28125 L 0.359375 -3.0625 C 0.359375 -3.15625 0.382812 -3.226562 0.4375 -3.28125 C 0.488281 -3.332031 0.5625 -3.359375 0.65625 -3.359375 C 0.75 -3.359375 0.820312 -3.320312 0.875 -3.25 L 2.609375 -1.015625 L 2.609375 -3.0625 C 2.609375 -3.15625 2.632812 -3.226562 2.6875 -3.28125 C 2.738281 -3.332031 2.804688 -3.359375 2.890625 -3.359375 Z M 2.890625 -3.359375 "/></g></g></g><g fill="#101160" fill-opacity="1"><g transform="translate(112.841646, 133.530707)"><g><path d="M 0.65625 0.03125 C 0.570312 0.03125 0.5 0.00390625 0.4375 -0.046875 C 0.382812 -0.109375 0.359375 -0.1875 0.359375 -0.28125 L 0.359375 -3.0625 C 0.359375 -3.15625 0.382812 -3.226562 0.4375 -3.28125 C 0.5 -3.332031 0.570312 -3.359375 0.65625 -3.359375 C 0.757812 -3.359375 0.835938 -3.332031 0.890625 -3.28125 C 0.941406 -3.226562 0.96875 -3.15625 0.96875 -3.0625 L 0.96875 -0.28125 C 0.96875 -0.1875 0.941406 -0.109375 0.890625 -0.046875 C 0.835938 0.00390625 0.757812 0.03125 0.65625 0.03125 Z M 0.65625 0.03125 "/></g></g></g><g fill="#101160" fill-opacity="1"><g transform="translate(115.046539, 133.530707)"><g><path d="M 2.453125 -0.484375 C 2.640625 -0.484375 2.734375 -0.40625 2.734375 -0.25 C 2.734375 -0.0820312 2.640625 0 2.453125 0 L 0.4375 0 C 0.351562 0 0.285156 -0.0195312 0.234375 -0.0625 C 0.191406 -0.113281 0.171875 -0.179688 0.171875 -0.265625 C 0.171875 -0.335938 0.195312 -0.410156 0.25 -0.484375 L 1.9375 -2.84375 L 0.453125 -2.84375 C 0.265625 -2.84375 0.171875 -2.925781 0.171875 -3.09375 C 0.171875 -3.257812 0.265625 -3.34375 0.453125 -3.34375 L 2.421875 -3.34375 C 2.492188 -3.34375 2.554688 -3.316406 2.609375 -3.265625 C 2.660156 -3.210938 2.6875 -3.148438 2.6875 -3.078125 C 2.6875 -3.003906 2.660156 -2.929688 2.609375 -2.859375 L 0.90625 -0.484375 Z M 2.453125 -0.484375 "/></g></g></g><g fill="#101160" fill-opacity="1"><g transform="translate(118.769302, 133.530707)"><g><path d="M 3.390625 -0.359375 C 3.398438 -0.316406 3.40625 -0.273438 3.40625 -0.234375 C 3.40625 -0.160156 3.375 -0.0976562 3.3125 -0.046875 C 3.257812 -0.00390625 3.195312 0.015625 3.125 0.015625 C 3.070312 0.015625 3.023438 0.00390625 2.984375 -0.015625 C 2.941406 -0.046875 2.90625 -0.0859375 2.875 -0.140625 L 2.59375 -0.78125 L 0.921875 -0.78125 L 0.640625 -0.140625 C 0.617188 -0.0859375 0.582031 -0.046875 0.53125 -0.015625 C 0.488281 0.00390625 0.441406 0.015625 0.390625 0.015625 C 0.316406 0.015625 0.25 -0.00390625 0.1875 -0.046875 C 0.132812 -0.0976562 0.109375 -0.160156 0.109375 -0.234375 C 0.109375 -0.273438 0.113281 -0.316406 0.125 -0.359375 L 1.4375 -3.171875 C 1.46875 -3.234375 1.507812 -3.28125 1.5625 -3.3125 C 1.625 -3.34375 1.6875 -3.359375 1.75 -3.359375 C 1.820312 -3.359375 1.882812 -3.34375 1.9375 -3.3125 C 2 -3.28125 2.046875 -3.234375 2.078125 -3.171875 Z M 1.140625 -1.25 L 2.390625 -1.25 L 1.765625 -2.65625 Z M 1.140625 -1.25 "/></g></g></g><g fill="#101160" fill-opacity="1"><g transform="translate(123.154059, 133.530707)"><g><path d="M 1.453125 0.03125 C 1.359375 0.03125 1.28125 0.00390625 1.21875 -0.046875 C 1.164062 -0.109375 1.140625 -0.1875 1.140625 -0.28125 L 1.140625 -2.828125 L 0.28125 -2.828125 C 0.09375 -2.828125 0 -2.914062 0 -3.09375 C 0 -3.257812 0.09375 -3.34375 0.28125 -3.34375 L 2.625 -3.34375 C 2.8125 -3.34375 2.90625 -3.257812 2.90625 -3.09375 C 2.90625 -2.914062 2.8125 -2.828125 2.625 -2.828125 L 1.75 -2.828125 L 1.75 -0.28125 C 1.75 -0.1875 1.722656 -0.109375 1.671875 -0.046875 C 1.617188 0.00390625 1.546875 0.03125 1.453125 0.03125 Z M 1.453125 0.03125 "/></g></g></g><g fill="#101160" fill-opacity="1"><g transform="translate(126.928835, 133.530707)"><g><path d="M 0.65625 0.03125 C 0.570312 0.03125 0.5 0.00390625 0.4375 -0.046875 C 0.382812 -0.109375 0.359375 -0.1875 0.359375 -0.28125 L 0.359375 -3.0625 C 0.359375 -3.15625 0.382812 -3.226562 0.4375 -3.28125 C 0.5 -3.332031 0.570312 -3.359375 0.65625 -3.359375 C 0.757812 -3.359375 0.835938 -3.332031 0.890625 -3.28125 C 0.941406 -3.226562 0.96875 -3.15625 0.96875 -3.0625 L 0.96875 -0.28125 C 0.96875 -0.1875 0.941406 -0.109375 0.890625 -0.046875 C 0.835938 0.00390625 0.757812 0.03125 0.65625 0.03125 Z M 0.65625 0.03125 "/></g></g></g><g fill="#101160" fill-opacity="1"><g transform="translate(129.133728, 133.530707)"><g><path d="M 1.84375 0.046875 C 1.519531 0.046875 1.238281 -0.0195312 1 -0.15625 C 0.757812 -0.300781 0.570312 -0.503906 0.4375 -0.765625 C 0.3125 -1.023438 0.25 -1.328125 0.25 -1.671875 C 0.25 -2.015625 0.3125 -2.316406 0.4375 -2.578125 C 0.570312 -2.835938 0.757812 -3.035156 1 -3.171875 C 1.238281 -3.304688 1.519531 -3.375 1.84375 -3.375 C 2.164062 -3.375 2.445312 -3.304688 2.6875 -3.171875 C 2.925781 -3.035156 3.109375 -2.835938 3.234375 -2.578125 C 3.367188 -2.316406 3.4375 -2.015625 3.4375 -1.671875 C 3.4375 -1.328125 3.367188 -1.023438 3.234375 -0.765625 C 3.109375 -0.503906 2.925781 -0.300781 2.6875 -0.15625 C 2.445312 -0.0195312 2.164062 0.046875 1.84375 0.046875 Z M 1.84375 -0.4375 C 2.15625 -0.4375 2.394531 -0.539062 2.5625 -0.75 C 2.738281 -0.96875 2.828125 -1.273438 2.828125 -1.671875 C 2.828125 -2.066406 2.738281 -2.367188 2.5625 -2.578125 C 2.394531 -2.785156 2.15625 -2.890625 1.84375 -2.890625 C 1.53125 -2.890625 1.285156 -2.785156 1.109375 -2.578125 C 0.941406 -2.367188 0.859375 -2.066406 0.859375 -1.671875 C 0.859375 -1.273438 0.941406 -0.96875 1.109375 -0.75 C 1.285156 -0.539062 1.53125 -0.4375 1.84375 -0.4375 Z M 1.84375 -0.4375 "/></g></g></g><g fill="#101160" fill-opacity="1"><g transform="translate(133.693443, 133.530707)"><g><path d="M 2.890625 -3.359375 C 2.972656 -3.359375 3.039062 -3.332031 3.09375 -3.28125 C 3.144531 -3.226562 3.171875 -3.15625 3.171875 -3.0625 L 3.171875 -0.28125 C 3.171875 -0.1875 3.144531 -0.109375 3.09375 -0.046875 C 3.039062 0.00390625 2.972656 0.03125 2.890625 0.03125 C 2.785156 0.03125 2.707031 -0.00390625 2.65625 -0.078125 L 0.921875 -2.328125 L 0.921875 -0.28125 C 0.921875 -0.1875 0.894531 -0.109375 0.84375 -0.046875 C 0.800781 0.00390625 0.734375 0.03125 0.640625 0.03125 C 0.554688 0.03125 0.488281 0.00390625 0.4375 -0.046875 C 0.382812 -0.109375 0.359375 -0.1875 0.359375 -0.28125 L 0.359375 -3.0625 C 0.359375 -3.15625 0.382812 -3.226562 0.4375 -3.28125 C 0.488281 -3.332031 0.5625 -3.359375 0.65625 -3.359375 C 0.75 -3.359375 0.820312 -3.320312 0.875 -3.25 L 2.609375 -1.015625 L 2.609375 -3.0625 C 2.609375 -3.15625 2.632812 -3.226562 2.6875 -3.28125 C 2.738281 -3.332031 2.804688 -3.359375 2.890625 -3.359375 Z M 2.890625 -3.359375 "/></g></g></g></svg>