<svg xmlns="http://www.w3.org/2000/svg" xmlns:xlink="http://www.w3.org/1999/xlink" width="100" zoomAndPan="magnify" viewBox="0 0 75 30.000001" height="40" preserveAspectRatio="xMidYMid meet" version="1.0"><defs><filter x="0%" y="0%" width="100%" height="100%" id="id1"><feColorMatrix values="0 0 0 0 1 0 0 0 0 1 0 0 0 0 1 0 0 0 1 0" color-interpolation-filters="sRGB"/></filter><g/><clipPath id="id2"><path d="M 2.148438 4.398438 L 72.554688 4.398438 L 72.554688 24.71875 L 2.148438 24.71875 Z M 2.148438 4.398438 " clip-rule="nonzero"/></clipPath><mask id="id3"><g filter="url(#id1)"><rect x="-7.5" width="90" fill="#000000" y="-3" height="36.000001" fill-opacity="0.298"/></g></mask><clipPath id="id4"><path d="M 1 0.503906 L 64.796875 0.503906 L 64.796875 10 L 1 10 Z M 1 0.503906 " clip-rule="nonzero"/></clipPath><clipPath id="id5"><rect x="0" width="65" y="0" height="11"/></clipPath></defs><g clip-path="url(#id2)"><path fill="#a2e0e8" d="M 72.484375 14.507812 C 72.484375 20.089844 68.046875 24.71875 62.527344 24.71875 L 12.191406 24.71875 C 6.671875 24.71875 2.21875 20.074219 2.21875 14.507812 L 2.21875 14.371094 C 2.21875 8.804688 6.671875 4.398438 12.191406 4.398438 L 62.511719 4.398438 C 68.046875 4.398438 72.484375 8.804688 72.484375 14.371094 Z M 72.484375 14.507812 " fill-opacity="1" fill-rule="nonzero"/></g><g mask="url(#id3)"><g transform="matrix(1, 0, 0, 1, 4, 6)"><g clip-path="url(#id5)"><g clip-path="url(#id4)"><path fill="#ffffff" d="M 1.183594 9.855469 C 1.183594 5.707031 3.707031 0.617188 8.53125 0.617188 L 57.070312 0.617188 C 62.152344 0.617188 64.605469 5.3125 64.605469 9.480469 L 64.605469 9.839844 " fill-opacity="1" fill-rule="nonzero"/></g></g></g></g><g fill="#000000" fill-opacity="1"><g transform="translate(23.441, 22.676643)"><g><path d="M 1.15625 -14.890625 L 3.234375 -14.890625 L 3.234375 -1.484375 L 7.03125 -1.484375 L 7.03125 0 L 1.15625 0 Z M 1.15625 -14.890625 "/></g></g></g><g fill="#000000" fill-opacity="1"><g transform="translate(30.733012, 22.676643)"><g><path d="M 1.265625 -14.890625 L 3.3125 -14.890625 L 3.3125 0 L 1.265625 0 Z M 1.265625 -14.890625 "/></g></g></g><g fill="#000000" fill-opacity="1"><g transform="translate(35.288224, 22.676643)"><g><path d="M 4.671875 0.171875 C 3.421875 0.171875 2.46875 -0.210938 1.8125 -0.984375 C 1.15625 -1.765625 0.789062 -2.828125 0.71875 -4.171875 L 2.546875 -4.671875 C 2.609375 -3.710938 2.796875 -2.9375 3.109375 -2.34375 C 3.421875 -1.757812 3.941406 -1.46875 4.671875 -1.46875 C 5.203125 -1.46875 5.601562 -1.617188 5.875 -1.921875 C 6.15625 -2.222656 6.296875 -2.65625 6.296875 -3.21875 C 6.296875 -3.832031 6.164062 -4.335938 5.90625 -4.734375 C 5.65625 -5.140625 5.25 -5.585938 4.6875 -6.078125 L 2.1875 -8.28125 C 1.6875 -8.726562 1.320312 -9.203125 1.09375 -9.703125 C 0.863281 -10.210938 0.75 -10.835938 0.75 -11.578125 C 0.75 -12.671875 1.0625 -13.515625 1.6875 -14.109375 C 2.3125 -14.710938 3.164062 -15.015625 4.25 -15.015625 C 5.425781 -15.015625 6.3125 -14.703125 6.90625 -14.078125 C 7.507812 -13.453125 7.875 -12.484375 8 -11.171875 L 6.234375 -10.6875 C 6.171875 -11.5625 6 -12.234375 5.71875 -12.703125 C 5.445312 -13.171875 4.957031 -13.40625 4.25 -13.40625 C 3.71875 -13.40625 3.3125 -13.269531 3.03125 -13 C 2.75 -12.726562 2.609375 -12.320312 2.609375 -11.78125 C 2.609375 -11.332031 2.679688 -10.957031 2.828125 -10.65625 C 2.972656 -10.363281 3.222656 -10.0625 3.578125 -9.75 L 6.09375 -7.546875 C 6.75 -6.972656 7.269531 -6.347656 7.65625 -5.671875 C 8.039062 -5.003906 8.234375 -4.238281 8.234375 -3.375 C 8.234375 -2.289062 7.898438 -1.425781 7.234375 -0.78125 C 6.578125 -0.144531 5.722656 0.171875 4.671875 0.171875 Z M 4.671875 0.171875 "/></g></g></g><g fill="#000000" fill-opacity="1"><g transform="translate(43.976191, 22.676643)"><g><path d="M 2.796875 -13.34375 L 0.28125 -13.34375 L 0.28125 -14.890625 L 7.3125 -14.890625 L 7.3125 -13.34375 L 4.875 -13.34375 L 4.875 0 L 2.796875 0 Z M 2.796875 -13.34375 "/></g></g></g></svg>