<svg xmlns="http://www.w3.org/2000/svg" xmlns:xlink="http://www.w3.org/1999/xlink" width="250" zoomAndPan="magnify" viewBox="0 0 187.5 187.499992" height="250" preserveAspectRatio="xMidYMid meet" version="1.0"><defs><g/><clipPath id="id1"><path d="M 0 0 L 187 0 L 187 187 L 0 187 Z M 0 0 " clip-rule="nonzero"/></clipPath><clipPath id="id2"><path d="M 66.253906 25 L 131.503906 25 L 131.503906 101.984375 L 66.253906 101.984375 Z M 66.253906 25 " clip-rule="nonzero"/></clipPath><clipPath id="id3"><path d="M 74.097656 46 L 86 46 L 86 56.8125 L 74.097656 56.8125 Z M 74.097656 46 " clip-rule="nonzero"/></clipPath><clipPath id="id4"><path d="M 95 62 L 107 62 L 107 73 L 95 73 Z M 95 62 " clip-rule="nonzero"/></clipPath><clipPath id="id5"><path d="M 92.488281 66.953125 L 101.214844 58.71875 L 108.9375 66.902344 L 100.207031 75.136719 Z M 92.488281 66.953125 " clip-rule="nonzero"/></clipPath><clipPath id="id6"><path d="M 92.488281 66.953125 L 101.214844 58.71875 L 108.9375 66.902344 L 100.207031 75.136719 Z M 92.488281 66.953125 " clip-rule="nonzero"/></clipPath><clipPath id="id7"><path d="M 71 70 L 83 70 L 83 82 L 71 82 Z M 71 70 " clip-rule="nonzero"/></clipPath><clipPath id="id8"><path d="M 71.476562 69.089844 L 84.183594 70.109375 L 83.226562 82.070312 L 70.515625 81.050781 Z M 71.476562 69.089844 " clip-rule="nonzero"/></clipPath><clipPath id="id9"><path d="M 71.476562 69.089844 L 84.183594 70.109375 L 83.226562 82.070312 L 70.515625 81.050781 Z M 71.476562 69.089844 " clip-rule="nonzero"/></clipPath></defs><g clip-path="url(#id1)"><path fill="#ffffff" d="M 0 0 L 187.5 0 L 187.5 195 L 0 195 Z M 0 0 " fill-opacity="1" fill-rule="nonzero"/><path fill="#ffffff" d="M 0 0 L 187.5 0 L 187.5 187.5 L 0 187.5 Z M 0 0 " fill-opacity="1" fill-rule="nonzero"/><path fill="#ffffff" d="M 0 0 L 187.5 0 L 187.5 187.5 L 0 187.5 Z M 0 0 " fill-opacity="1" fill-rule="nonzero"/><path fill="#ffffff" d="M 0 0 L 187.5 0 L 187.5 187.5 L 0 187.5 Z M 0 0 " fill-opacity="1" fill-rule="nonzero"/></g><g clip-path="url(#id2)"><path fill="#000000" d="M 131.144531 57.558594 C 130.992188 55.976562 130.136719 54.566406 129.1875 53.332031 C 128.238281 52.101562 127.222656 50.992188 126.183594 49.875 C 121.882812 45.261719 117.136719 41.164062 111.941406 37.582031 C 106.734375 33.964844 101.203125 30.9375 95.347656 28.503906 C 93.929688 27.917969 92.496094 27.371094 91.050781 26.863281 C 90.308594 26.609375 89.5625 26.363281 88.816406 26.128906 C 88.074219 25.867188 87.316406 25.644531 86.550781 25.457031 C 85.226562 25.179688 83.78125 25.535156 83.191406 26.839844 C 82.972656 27.375 82.839844 27.929688 82.789062 28.503906 C 82.679688 29.371094 82.585938 30.238281 82.488281 31.105469 L 81.863281 36.492188 C 81.863281 36.753906 81.988281 36.914062 82.242188 36.984375 C 87.765625 38.078125 93.042969 39.886719 98.078125 42.40625 C 103.1875 44.945312 108.019531 48.140625 112.148438 52.089844 C 114.386719 54.203125 116.351562 56.546875 118.039062 59.117188 C 118.398438 59.664062 119.28125 59.15625 118.921875 58.601562 C 115.847656 53.867188 111.695312 49.90625 107.117188 46.628906 C 102.316406 43.21875 97.140625 40.519531 91.59375 38.53125 C 88.769531 37.5 85.882812 36.683594 82.933594 36.078125 C 83.117188 34.5 83.300781 32.914062 83.484375 31.324219 C 83.585938 30.441406 83.6875 29.554688 83.789062 28.667969 C 83.828125 28.199219 83.925781 27.746094 84.09375 27.308594 C 84.660156 26.015625 86.1875 26.394531 87.257812 26.710938 C 88.644531 27.125 90.011719 27.574219 91.359375 28.058594 C 96.894531 30.058594 102.167969 32.605469 107.175781 35.695312 C 112.222656 38.785156 116.910156 42.34375 121.242188 46.375 C 123.363281 48.351562 125.375 50.433594 127.273438 52.625 C 128.90625 54.511719 131.507812 57.65625 129.285156 60.066406 C 128.78125 60.574219 128.234375 61.027344 127.640625 61.429688 C 126.984375 61.910156 126.324219 62.382812 125.65625 62.847656 C 124.328125 63.78125 122.980469 64.6875 121.613281 65.566406 C 118.878906 67.328125 116.082031 68.976562 113.214844 70.515625 C 111.785156 71.285156 110.335938 72.023438 108.871094 72.738281 C 107.800781 73.292969 106.699219 73.769531 105.558594 74.164062 C 106.332031 72.84375 106.949219 71.453125 107.40625 69.992188 C 108.109375 67.691406 108.367188 64.851562 107.03125 62.722656 C 105.4375 60.179688 102.117188 59.792969 99.550781 61.015625 C 97.125 62.171875 95.488281 64.683594 95.207031 67.324219 C 94.902344 70.0625 96.3125 72.679688 98.523438 74.242188 C 99.648438 75.039062 100.898438 75.5 102.273438 75.625 C 102.648438 75.660156 103.027344 75.664062 103.40625 75.636719 C 102.277344 77.273438 100.980469 78.769531 99.515625 80.117188 C 97.460938 82.003906 94.871094 83.421875 93.347656 85.816406 C 91.75 88.324219 91.96875 91.417969 90.800781 94.078125 C 90.316406 95.179688 89.601562 96.253906 88.523438 96.847656 C 88.042969 97.121094 87.523438 97.238281 86.972656 97.191406 C 86.421875 97.148438 85.929688 96.949219 85.5 96.601562 C 84.78125 96.050781 84.238281 95.101562 84.714844 94.230469 C 84.945312 93.800781 84.460938 93.238281 84.015625 93.53125 C 81.019531 95.5 77.953125 97.347656 74.808594 99.074219 C 74.03125 99.5 73.25 99.917969 72.46875 100.324219 C 71.933594 100.628906 71.359375 100.785156 70.746094 100.804688 C 70.195312 100.800781 69.671875 100.675781 69.179688 100.421875 C 68.691406 100.167969 68.285156 99.820312 67.960938 99.371094 C 67.113281 98.171875 67.371094 96.84375 67.542969 95.488281 C 67.769531 93.6875 68.027344 91.890625 68.324219 90.097656 C 68.902344 86.570312 69.585938 83.042969 70.4375 79.566406 C 70.578125 79 70.730469 78.433594 70.898438 77.867188 C 71.621094 79.578125 72.753906 81.109375 74.355469 82.144531 C 76.527344 83.546875 79.234375 83.65625 81.601562 82.679688 C 83.910156 81.726562 85.898438 79.789062 86.449219 77.292969 C 87.054688 74.550781 85.765625 71.714844 83.613281 69.980469 C 82.535156 69.085938 81.304688 68.519531 79.921875 68.285156 C 78.519531 68.074219 77.179688 68.28125 75.910156 68.90625 C 73.558594 70.023438 72.035156 72.273438 70.996094 74.589844 C 70.832031 73.601562 70.738281 72.609375 70.707031 71.609375 C 70.621094 68.945312 70.9375 66.300781 71.308594 63.664062 C 71.730469 60.644531 72.242188 57.625 73.183594 54.71875 C 73.417969 55.910156 74.007812 56.882812 74.957031 57.640625 C 76.847656 59.125 79.574219 59.644531 81.902344 59.152344 C 83.078125 58.929688 84.050781 58.363281 84.828125 57.453125 C 85.75 56.3125 86.28125 55.015625 86.421875 53.558594 C 86.734375 50.726562 85.503906 47.199219 82.707031 46.03125 C 79.941406 44.871094 76.5 46.273438 74.867188 48.671875 C 74.722656 48.882812 74.585938 49.101562 74.453125 49.320312 C 74.566406 48.742188 74.6875 48.171875 74.800781 47.601562 C 75.152344 45.78125 75.507812 43.960938 75.863281 42.136719 L 78.015625 31.066406 C 78.371094 29.285156 78.722656 27.507812 79.066406 25.734375 C 79.191406 25.097656 78.207031 24.820312 78.082031 25.472656 C 76.546875 33.367188 75.011719 41.261719 73.472656 49.160156 C 73.265625 50.15625 73.121094 51.164062 73.042969 52.179688 C 72.902344 52.527344 72.769531 52.875 72.636719 53.222656 C 72.042969 54.851562 71.570312 56.515625 71.21875 58.214844 C 70.851562 59.941406 70.578125 61.691406 70.332031 63.441406 C 70.125 64.921875 69.921875 66.402344 69.804688 67.894531 C 69.59375 70.609375 69.613281 73.410156 70.296875 76.050781 C 70.316406 76.121094 70.335938 76.1875 70.355469 76.257812 C 69.410156 78.914062 68.875 81.730469 68.320312 84.480469 C 67.546875 88.3125 66.921875 92.175781 66.449219 96.066406 C 66.351562 96.84375 66.257812 97.585938 66.417969 98.363281 C 66.558594 98.988281 66.824219 99.554688 67.214844 100.058594 C 67.609375 100.570312 68.089844 100.976562 68.65625 101.28125 C 69.222656 101.585938 69.828125 101.757812 70.46875 101.804688 C 72.074219 101.914062 73.46875 100.953125 74.816406 100.21875 C 76.496094 99.3125 78.160156 98.363281 79.796875 97.375 C 81.046875 96.621094 82.285156 95.851562 83.507812 95.0625 C 83.609375 96.914062 85.816406 98.457031 87.667969 98.191406 C 90.5 97.789062 91.882812 94.640625 92.4375 92.191406 C 92.796875 90.617188 92.996094 88.980469 93.609375 87.484375 C 94.1875 86.070312 95.214844 84.957031 96.363281 83.976562 C 97.511719 82.996094 98.730469 82.148438 99.855469 81.15625 C 101.035156 80.117188 102.117188 78.980469 103.101562 77.75 C 103.6875 77.011719 104.253906 76.238281 104.777344 75.433594 C 105.585938 75.246094 106.367188 74.988281 107.128906 74.664062 C 108.710938 74.007812 110.238281 73.21875 111.757812 72.4375 C 113.328125 71.632812 114.878906 70.792969 116.410156 69.917969 C 119.433594 68.195312 122.382812 66.34375 125.253906 64.371094 C 126.621094 63.429688 128.023438 62.5 129.300781 61.445312 C 130.484375 60.464844 131.296875 59.144531 131.144531 57.558594 Z M 73.363281 72.453125 C 74.761719 70.480469 76.984375 68.972656 79.496094 69.246094 C 81.953125 69.503906 84.167969 71.351562 85.109375 73.585938 C 86.046875 75.824219 85.484375 78.316406 83.785156 80.039062 C 82.976562 80.855469 82.03125 81.460938 80.949219 81.851562 C 79.871094 82.242188 78.757812 82.386719 77.613281 82.277344 C 75.347656 82.03125 73.441406 80.472656 72.347656 78.53125 C 71.949219 77.820312 71.632812 77.070312 71.402344 76.289062 C 71.882812 74.921875 72.535156 73.644531 73.363281 72.453125 Z M 74.027344 52.539062 L 74.027344 52.46875 C 74.417969 51.539062 74.871094 50.644531 75.382812 49.777344 C 76.058594 48.601562 77.011719 47.730469 78.242188 47.164062 C 79.492188 46.601562 80.988281 46.410156 82.285156 46.9375 C 83.582031 47.460938 84.496094 48.726562 84.972656 50.011719 C 85.859375 52.386719 85.589844 55.402344 83.652344 57.210938 C 82.140625 58.628906 79.535156 58.484375 77.699219 57.914062 C 76.734375 57.613281 75.78125 57.128906 75.09375 56.371094 C 74.179688 55.351562 73.980469 53.867188 74.027344 52.539062 Z M 104.125 74.507812 C 103.507812 74.613281 102.890625 74.632812 102.269531 74.566406 C 101.648438 74.503906 101.046875 74.355469 100.46875 74.128906 C 99.886719 73.898438 99.347656 73.597656 98.847656 73.222656 C 98.351562 72.847656 97.910156 72.414062 97.53125 71.917969 C 97.160156 71.4375 96.863281 70.910156 96.636719 70.34375 C 96.414062 69.777344 96.273438 69.191406 96.21875 68.585938 C 96.160156 67.980469 96.191406 67.378906 96.304688 66.777344 C 96.417969 66.179688 96.613281 65.609375 96.890625 65.066406 C 98.027344 62.777344 100.40625 61.105469 103.035156 61.359375 C 103.648438 61.410156 104.21875 61.585938 104.75 61.894531 C 105.28125 62.203125 105.722656 62.609375 106.070312 63.113281 C 106.675781 64.015625 106.910156 65.101562 106.9375 66.175781 C 107.007812 68.714844 106.03125 71.113281 104.832031 73.304688 C 104.613281 73.714844 104.375 74.113281 104.125 74.507812 Z M 104.125 74.507812 " fill-opacity="1" fill-rule="nonzero"/></g><g clip-path="url(#id3)"><path fill="#008037" d="M 75.253906 49.351562 C 75.253906 49.351562 74.105469 51.648438 74.785156 52.800781 C 75.464844 53.953125 76.171875 56.105469 78.042969 56.460938 C 79.910156 56.8125 83.054688 55.800781 84.035156 54.796875 C 85.015625 53.796875 86.089844 50.804688 84.007812 48.34375 C 81.925781 45.878906 78.996094 45.5625 75.253906 49.351562 Z M 75.253906 49.351562 " fill-opacity="1" fill-rule="nonzero"/></g><g clip-path="url(#id4)"><g clip-path="url(#id5)"><g clip-path="url(#id6)"><path fill="#ffbd59" d="M 95.925781 68.921875 C 95.925781 68.921875 96.667969 71.375 97.953125 71.746094 C 99.238281 72.117188 101.230469 73.199219 102.832031 72.175781 C 104.433594 71.148438 106.027344 68.253906 106.054688 66.851562 C 106.082031 65.449219 104.808594 62.535156 101.605469 62.175781 C 98.398438 61.8125 96.050781 63.59375 95.925781 68.921875 Z M 95.925781 68.921875 " fill-opacity="1" fill-rule="nonzero"/></g></g></g><g clip-path="url(#id7)"><g clip-path="url(#id8)"><g clip-path="url(#id9)"><path fill="#c8220b" d="M 72.371094 73.21875 C 72.371094 73.21875 70.960938 75.558594 71.582031 76.84375 C 72.203125 78.125 72.769531 80.476562 74.71875 81.011719 C 76.671875 81.546875 80.09375 80.734375 81.21875 79.753906 C 82.34375 78.773438 83.734375 75.683594 81.738281 72.886719 C 79.742188 70.09375 76.664062 69.503906 72.371094 73.21875 Z M 72.371094 73.21875 " fill-opacity="1" fill-rule="nonzero"/></g></g></g><g fill="#000000" fill-opacity="1"><g transform="translate(15.446091, 128.714044)"><g><path d="M 2.957031 3.460938 C 3.113281 3.460938 3.308594 3.347656 3.347656 3.191406 C 3.460938 2.722656 3.539062 2.257812 3.578125 1.789062 C 3.695312 0.777344 3.773438 -0.273438 3.8125 -1.324219 C 3.890625 -4.863281 4.433594 -8.324219 5.136719 -11.789062 C 5.71875 -14.628906 6.652344 -17.390625 8.015625 -19.996094 C 8.636719 -21.203125 9.375 -22.371094 10.269531 -23.382812 C 11.167969 -24.394531 12.253906 -25.132812 13.617188 -25.367188 C 15.289062 -25.679688 16.652344 -24.820312 17.039062 -23.1875 C 17.195312 -22.371094 17.273438 -21.554688 17.15625 -20.738281 L 17.039062 -19.453125 C 16.730469 -17.507812 16.300781 -15.640625 15.640625 -13.8125 C 15.40625 -13.1875 15.09375 -12.839844 14.433594 -12.800781 C 13.460938 -12.683594 12.566406 -12.332031 11.671875 -11.945312 C 10.738281 -11.59375 9.921875 -11.050781 9.222656 -10.425781 C 8.753906 -10 8.363281 -9.53125 8.09375 -8.949219 C 7.507812 -7.585938 8.363281 -6.265625 9.84375 -6.304688 C 10.195312 -6.304688 10.503906 -6.378906 10.816406 -6.457031 C 11.320312 -6.574219 11.75 -6.808594 12.175781 -7.121094 C 12.917969 -7.664062 13.578125 -8.285156 14.160156 -9.066406 C 14.746094 -9.804688 15.210938 -10.582031 15.601562 -11.4375 C 15.796875 -11.90625 16.066406 -12.101562 16.574219 -12.101562 C 17.507812 -12.101562 18.441406 -12.175781 19.375 -12.175781 C 20.582031 -12.214844 21.75 -12.175781 22.953125 -12.175781 C 23.1875 -12.175781 23.460938 -12.140625 23.65625 -12.332031 C 23.773438 -12.410156 23.847656 -12.527344 23.847656 -12.683594 C 23.847656 -12.839844 23.773438 -12.957031 23.617188 -13.035156 C 23.460938 -13.074219 23.265625 -13.113281 23.109375 -13.113281 C 21.085938 -13.074219 19.0625 -13.226562 17.078125 -13.035156 L 16.652344 -13.035156 C 16.535156 -13.074219 16.457031 -13.148438 16.457031 -13.265625 L 16.574219 -13.695312 C 17.273438 -15.601562 17.703125 -17.625 17.976562 -19.648438 C 18.128906 -20.894531 18.167969 -22.136719 17.898438 -23.421875 C 17.429688 -25.832031 15.058594 -26.691406 13.34375 -26.261719 C 12.175781 -25.988281 11.128906 -25.445312 10.230469 -24.628906 C 9.6875 -24.121094 9.183594 -23.539062 8.753906 -22.953125 C 7.625 -21.359375 6.730469 -19.609375 5.992188 -17.820312 C 4.667969 -14.511719 4.007812 -11.011719 3.460938 -7.507812 C 3.230469 -5.914062 3.035156 -4.28125 2.957031 -2.683594 C 2.957031 -2.375 3.035156 -2.023438 2.683594 -1.710938 C 2.605469 -1.984375 2.566406 -2.179688 2.566406 -2.375 C 2.375 -3.65625 2.335938 -4.941406 2.257812 -6.226562 C 2.179688 -7.859375 2.023438 -9.53125 1.90625 -11.167969 C 1.789062 -12.917969 1.75 -14.667969 1.632812 -16.457031 C 1.441406 -18.871094 1.207031 -21.320312 1.011719 -23.734375 C 0.933594 -24.277344 0.894531 -24.820312 0.816406 -25.328125 C 0.816406 -25.484375 0.738281 -25.640625 0.699219 -25.757812 C 0.621094 -25.871094 0.46875 -25.910156 0.3125 -25.871094 C 0.234375 -25.871094 0.117188 -25.792969 0.078125 -25.71875 C 0 -25.523438 -0.0390625 -25.367188 0 -25.171875 C 0 -24.550781 0.0390625 -23.886719 0.117188 -23.226562 C 0.273438 -21.085938 0.503906 -18.949219 0.660156 -16.808594 C 0.894531 -13.421875 1.089844 -10.078125 1.285156 -6.691406 C 1.441406 -3.8125 1.789062 -0.972656 2.140625 1.867188 C 2.21875 2.335938 2.296875 2.800781 2.488281 3.230469 C 2.566406 3.386719 2.761719 3.5 2.957031 3.460938 Z M 9.921875 -7.199219 C 9.066406 -7.199219 8.636719 -7.859375 8.949219 -8.597656 C 9.144531 -9.066406 9.492188 -9.453125 9.882812 -9.765625 C 10.660156 -10.464844 11.554688 -11.011719 12.566406 -11.320312 C 13.226562 -11.515625 13.851562 -11.984375 14.589844 -11.75 C 14.472656 -10.972656 14.007812 -10.425781 13.617188 -9.84375 C 13.074219 -9.027344 12.371094 -8.363281 11.554688 -7.820312 C 11.050781 -7.46875 10.464844 -7.238281 9.921875 -7.199219 Z M 9.921875 -7.199219 "/></g></g><g transform="translate(40.85187, 128.714044)"><g><path d="M 1.324219 -15.171875 C 1.710938 -15.328125 1.984375 -15.71875 1.984375 -16.066406 C 1.945312 -16.378906 1.789062 -16.613281 1.515625 -16.769531 C 1.363281 -16.847656 1.167969 -16.847656 1.011719 -16.691406 C 0.738281 -16.378906 0.542969 -15.992188 0.660156 -15.523438 C 0.738281 -15.25 1.089844 -15.058594 1.324219 -15.171875 Z M 5.019531 -5.136719 C 5.640625 -5.136719 6.304688 -5.175781 6.925781 -5.332031 C 8.324219 -5.640625 9.570312 -6.265625 10.699219 -7.082031 C 12.214844 -8.132812 13.539062 -9.414062 14.824219 -10.699219 C 15.289062 -11.167969 15.757812 -11.632812 16.183594 -12.101562 C 16.339844 -12.253906 16.378906 -12.488281 16.222656 -12.683594 C 16.066406 -12.839844 15.835938 -12.878906 15.640625 -12.722656 C 15.328125 -12.488281 15.019531 -12.214844 14.746094 -11.945312 C 13.734375 -10.855469 12.683594 -9.84375 11.554688 -8.871094 C 10.464844 -7.9375 9.296875 -7.121094 7.9375 -6.574219 C 6.652344 -6.070312 5.332031 -5.875 3.929688 -6.148438 C 2.996094 -6.304688 2.335938 -6.769531 1.867188 -7.546875 C 1.128906 -8.753906 0.777344 -10.039062 0.972656 -11.4375 C 1.011719 -11.75 1.050781 -12.101562 1.050781 -12.410156 C 1.089844 -12.605469 0.972656 -12.761719 0.777344 -12.800781 C 0.621094 -12.878906 0.351562 -12.761719 0.273438 -12.527344 C 0.195312 -12.253906 0.078125 -11.984375 0.0390625 -11.710938 C -0.117188 -10.230469 0.117188 -8.871094 0.777344 -7.546875 C 1.554688 -6.03125 2.761719 -5.175781 4.472656 -5.175781 C 4.628906 -5.136719 4.824219 -5.136719 5.019531 -5.136719 Z M 5.019531 -5.136719 "/></g></g><g transform="translate(56.025306, 128.714044)"><g><path d="M 0.816406 5.601562 C 1.167969 5.601562 1.554688 5.601562 1.90625 5.523438 C 3.230469 5.292969 4.320312 4.589844 5.175781 3.617188 C 7.042969 1.515625 8.171875 -0.933594 8.210938 -3.8125 C 8.210938 -4.472656 8.171875 -5.175781 8.132812 -5.835938 C 8.09375 -6.148438 8.171875 -6.417969 8.480469 -6.574219 L 8.988281 -6.925781 C 10.699219 -8.09375 12.527344 -9.027344 14.394531 -9.84375 C 16.457031 -10.816406 18.558594 -11.554688 20.699219 -12.292969 C 21.085938 -12.410156 21.242188 -12.644531 21.164062 -12.917969 C 21.085938 -13.113281 20.855469 -13.1875 20.542969 -13.113281 C 20.230469 -13.074219 19.957031 -12.996094 19.6875 -12.878906 C 19.257812 -12.761719 18.832031 -12.566406 18.363281 -12.410156 C 14.941406 -11.167969 11.59375 -9.726562 8.519531 -7.664062 C 8.324219 -7.546875 8.171875 -7.390625 7.859375 -7.46875 C 7.429688 -8.597656 7.003906 -9.726562 6.109375 -10.542969 C 6.265625 -11.011719 6.535156 -11.242188 6.730469 -11.515625 C 7.160156 -12.140625 7.546875 -12.800781 7.859375 -13.5 C 8.054688 -14.007812 8.132812 -14.511719 8.054688 -15.058594 C 7.9375 -16.066406 7.238281 -16.691406 6.226562 -16.691406 C 6.03125 -16.691406 5.796875 -16.652344 5.601562 -16.613281 C 3.65625 -16.261719 2.21875 -15.132812 0.972656 -13.695312 C 0.855469 -13.539062 0.777344 -13.382812 0.699219 -13.226562 C 0.660156 -13.035156 0.660156 -12.839844 0.816406 -12.722656 C 0.972656 -12.605469 1.167969 -12.644531 1.324219 -12.761719 C 1.476562 -12.917969 1.59375 -13.113281 1.75 -13.265625 C 2.296875 -13.890625 2.917969 -14.433594 3.617188 -14.863281 C 4.320312 -15.328125 5.058594 -15.640625 5.914062 -15.757812 C 6.847656 -15.914062 7.277344 -15.328125 7.199219 -14.511719 C 7.160156 -14.238281 7.082031 -13.96875 6.964844 -13.695312 C 6.730469 -13.113281 6.378906 -12.644531 6.070312 -12.101562 C 5.601562 -11.398438 5.175781 -11.011719 4.203125 -11.28125 C 3.460938 -11.476562 2.644531 -11.242188 1.984375 -10.777344 C 1.402344 -10.347656 1.402344 -9.53125 1.984375 -9.105469 C 2.21875 -8.949219 2.488281 -8.832031 2.761719 -8.792969 C 3.191406 -8.753906 3.617188 -8.832031 4.007812 -9.027344 C 4.359375 -9.222656 4.707031 -9.414062 5.019531 -9.648438 C 5.445312 -9.882812 5.523438 -9.882812 5.835938 -9.53125 C 6.417969 -8.832031 6.730469 -7.976562 7.003906 -7.121094 C 7.082031 -6.847656 6.964844 -6.613281 6.730469 -6.457031 C 6.1875 -6.03125 5.601562 -5.601562 5.019531 -5.136719 C 3.191406 -3.695312 1.554688 -2.0625 0.273438 -0.078125 C -0.195312 0.621094 -0.582031 1.324219 -0.855469 2.140625 C -1.011719 2.644531 -1.089844 3.191406 -1.050781 3.734375 C -0.972656 4.785156 -0.234375 5.523438 0.816406 5.601562 Z M 2.644531 -9.804688 C 2.605469 -9.804688 2.566406 -9.921875 2.566406 -9.960938 C 2.566406 -10.039062 2.605469 -10.078125 2.683594 -10.117188 C 3.035156 -10.386719 3.460938 -10.347656 3.851562 -10.425781 C 3.929688 -10.386719 4.007812 -10.386719 4.085938 -10.347656 C 4.125 -10.308594 4.164062 -10.230469 4.164062 -10.195312 C 3.929688 -9.804688 3.035156 -9.570312 2.644531 -9.804688 Z M 0.972656 4.707031 C 0.273438 4.667969 -0.15625 4.242188 -0.195312 3.539062 C -0.195312 3.191406 -0.15625 2.839844 -0.0390625 2.488281 C 0.234375 1.671875 0.621094 0.972656 1.089844 0.273438 C 1.984375 -1.011719 2.996094 -2.21875 4.203125 -3.269531 C 4.980469 -3.96875 5.796875 -4.589844 6.613281 -5.253906 C 6.769531 -5.367188 6.925781 -5.40625 7.042969 -5.484375 C 7.277344 -5.367188 7.277344 -5.175781 7.277344 -5.019531 C 7.546875 -1.789062 6.496094 0.972656 4.242188 3.308594 C 3.5 4.046875 2.605469 4.589844 1.515625 4.667969 C 1.324219 4.707031 1.128906 4.746094 0.972656 4.707031 Z M 0.972656 4.707031 "/></g></g><g transform="translate(76.023117, 128.714044)"><g><path d="M 0.816406 5.601562 C 1.167969 5.601562 1.554688 5.601562 1.90625 5.523438 C 3.230469 5.292969 4.320312 4.589844 5.175781 3.617188 C 7.042969 1.515625 8.171875 -0.933594 8.210938 -3.8125 C 8.210938 -4.472656 8.171875 -5.175781 8.132812 -5.835938 C 8.09375 -6.148438 8.171875 -6.417969 8.480469 -6.574219 L 8.988281 -6.925781 C 10.699219 -8.09375 12.527344 -9.027344 14.394531 -9.84375 C 16.457031 -10.816406 18.558594 -11.554688 20.699219 -12.292969 C 21.085938 -12.410156 21.242188 -12.644531 21.164062 -12.917969 C 21.085938 -13.113281 20.855469 -13.1875 20.542969 -13.113281 C 20.230469 -13.074219 19.957031 -12.996094 19.6875 -12.878906 C 19.257812 -12.761719 18.832031 -12.566406 18.363281 -12.410156 C 14.941406 -11.167969 11.59375 -9.726562 8.519531 -7.664062 C 8.324219 -7.546875 8.171875 -7.390625 7.859375 -7.46875 C 7.429688 -8.597656 7.003906 -9.726562 6.109375 -10.542969 C 6.265625 -11.011719 6.535156 -11.242188 6.730469 -11.515625 C 7.160156 -12.140625 7.546875 -12.800781 7.859375 -13.5 C 8.054688 -14.007812 8.132812 -14.511719 8.054688 -15.058594 C 7.9375 -16.066406 7.238281 -16.691406 6.226562 -16.691406 C 6.03125 -16.691406 5.796875 -16.652344 5.601562 -16.613281 C 3.65625 -16.261719 2.21875 -15.132812 0.972656 -13.695312 C 0.855469 -13.539062 0.777344 -13.382812 0.699219 -13.226562 C 0.660156 -13.035156 0.660156 -12.839844 0.816406 -12.722656 C 0.972656 -12.605469 1.167969 -12.644531 1.324219 -12.761719 C 1.476562 -12.917969 1.59375 -13.113281 1.75 -13.265625 C 2.296875 -13.890625 2.917969 -14.433594 3.617188 -14.863281 C 4.320312 -15.328125 5.058594 -15.640625 5.914062 -15.757812 C 6.847656 -15.914062 7.277344 -15.328125 7.199219 -14.511719 C 7.160156 -14.238281 7.082031 -13.96875 6.964844 -13.695312 C 6.730469 -13.113281 6.378906 -12.644531 6.070312 -12.101562 C 5.601562 -11.398438 5.175781 -11.011719 4.203125 -11.28125 C 3.460938 -11.476562 2.644531 -11.242188 1.984375 -10.777344 C 1.402344 -10.347656 1.402344 -9.53125 1.984375 -9.105469 C 2.21875 -8.949219 2.488281 -8.832031 2.761719 -8.792969 C 3.191406 -8.753906 3.617188 -8.832031 4.007812 -9.027344 C 4.359375 -9.222656 4.707031 -9.414062 5.019531 -9.648438 C 5.445312 -9.882812 5.523438 -9.882812 5.835938 -9.53125 C 6.417969 -8.832031 6.730469 -7.976562 7.003906 -7.121094 C 7.082031 -6.847656 6.964844 -6.613281 6.730469 -6.457031 C 6.1875 -6.03125 5.601562 -5.601562 5.019531 -5.136719 C 3.191406 -3.695312 1.554688 -2.0625 0.273438 -0.078125 C -0.195312 0.621094 -0.582031 1.324219 -0.855469 2.140625 C -1.011719 2.644531 -1.089844 3.191406 -1.050781 3.734375 C -0.972656 4.785156 -0.234375 5.523438 0.816406 5.601562 Z M 2.644531 -9.804688 C 2.605469 -9.804688 2.566406 -9.921875 2.566406 -9.960938 C 2.566406 -10.039062 2.605469 -10.078125 2.683594 -10.117188 C 3.035156 -10.386719 3.460938 -10.347656 3.851562 -10.425781 C 3.929688 -10.386719 4.007812 -10.386719 4.085938 -10.347656 C 4.125 -10.308594 4.164062 -10.230469 4.164062 -10.195312 C 3.929688 -9.804688 3.035156 -9.570312 2.644531 -9.804688 Z M 0.972656 4.707031 C 0.273438 4.667969 -0.15625 4.242188 -0.195312 3.539062 C -0.195312 3.191406 -0.15625 2.839844 -0.0390625 2.488281 C 0.234375 1.671875 0.621094 0.972656 1.089844 0.273438 C 1.984375 -1.011719 2.996094 -2.21875 4.203125 -3.269531 C 4.980469 -3.96875 5.796875 -4.589844 6.613281 -5.253906 C 6.769531 -5.367188 6.925781 -5.40625 7.042969 -5.484375 C 7.277344 -5.367188 7.277344 -5.175781 7.277344 -5.019531 C 7.546875 -1.789062 6.496094 0.972656 4.242188 3.308594 C 3.5 4.046875 2.605469 4.589844 1.515625 4.667969 C 1.324219 4.707031 1.128906 4.746094 0.972656 4.707031 Z M 0.972656 4.707031 "/></g></g><g transform="translate(96.020928, 128.714044)"><g><path d="M 5.796875 -8.871094 C 6.378906 -8.910156 6.964844 -8.910156 7.546875 -8.988281 C 7.859375 -8.988281 8.171875 -9.105469 8.480469 -9.183594 C 10.738281 -9.960938 12.839844 -11.011719 14.667969 -12.566406 C 14.785156 -12.644531 14.902344 -12.722656 15.019531 -12.839844 C 15.132812 -13.035156 15.171875 -13.226562 15.019531 -13.421875 C 14.902344 -13.617188 14.667969 -13.65625 14.472656 -13.5 C 14.121094 -13.265625 13.8125 -13.035156 13.5 -12.800781 C 12.023438 -11.632812 10.308594 -10.855469 8.558594 -10.195312 C 6.964844 -9.609375 5.253906 -9.648438 3.578125 -10.039062 C 3.113281 -10.15625 2.644531 -10.386719 2.21875 -10.621094 C 1.710938 -10.933594 1.363281 -11.359375 1.128906 -11.90625 C 1.011719 -12.175781 1.089844 -12.371094 1.441406 -12.449219 C 1.671875 -12.488281 1.90625 -12.527344 2.179688 -12.605469 C 2.839844 -12.722656 3.460938 -13.035156 3.96875 -13.5 C 4.394531 -13.929688 4.667969 -14.394531 4.746094 -15.019531 C 4.824219 -15.640625 4.628906 -16.105469 4.007812 -16.417969 C 3.308594 -16.808594 2.566406 -16.769531 1.867188 -16.378906 C -0.195312 -15.210938 -0.660156 -11.984375 1.089844 -10.308594 C 1.554688 -9.882812 2.0625 -9.609375 2.644531 -9.375 C 3.65625 -8.988281 4.746094 -8.871094 5.796875 -8.871094 Z M 1.476562 -13.421875 C 1.167969 -13.421875 1.011719 -13.539062 1.050781 -13.734375 C 1.207031 -14.667969 1.710938 -15.289062 2.566406 -15.679688 C 2.722656 -15.757812 2.917969 -15.757812 3.074219 -15.757812 C 3.773438 -15.71875 4.046875 -15.25 3.695312 -14.667969 C 3.191406 -13.773438 2.335938 -13.5 1.476562 -13.421875 Z M 1.476562 -13.421875 "/></g></g><g transform="translate(109.988271, 128.714044)"><g><path d="M 11.632812 -4.320312 C 12.253906 -4.359375 12.878906 -4.511719 13.5 -4.707031 C 14.941406 -5.253906 16.105469 -6.109375 17.15625 -7.160156 C 18.636719 -8.636719 19.6875 -10.464844 20.816406 -12.214844 C 20.894531 -12.292969 20.929688 -12.371094 20.929688 -12.488281 C 20.96875 -12.683594 20.894531 -12.839844 20.699219 -12.917969 C 20.582031 -12.996094 20.425781 -12.996094 20.308594 -12.917969 C 20.152344 -12.800781 20.035156 -12.644531 19.957031 -12.488281 L 18.441406 -10.269531 C 17.78125 -9.183594 16.964844 -8.25 16.066406 -7.390625 C 15.058594 -6.417969 13.890625 -5.71875 12.527344 -5.367188 C 11.011719 -4.980469 9.6875 -5.292969 8.519531 -6.339844 C 7.546875 -7.199219 6.808594 -8.25 6.304688 -9.453125 C 5.992188 -10.195312 5.71875 -10.933594 5.445312 -11.671875 C 5.058594 -12.761719 4.320312 -13.304688 3.152344 -13.226562 L 2.414062 -13.226562 C 1.554688 -13.226562 1.515625 -13.304688 1.710938 -14.085938 C 1.90625 -14.785156 2.0625 -15.484375 2.0625 -16.222656 C 2.101562 -17.003906 1.945312 -17.78125 1.554688 -18.480469 C 0.738281 -19.996094 -1.089844 -20.308594 -2.375 -19.179688 C -2.644531 -18.949219 -2.878906 -18.675781 -3.035156 -18.363281 C -3.929688 -16.535156 -3.5 -14.902344 -2.179688 -13.773438 C -0.972656 -12.644531 1.554688 -12.253906 2.996094 -12.332031 C 3.96875 -12.410156 4.242188 -12.175781 4.589844 -11.28125 C 4.902344 -10.542969 5.175781 -9.804688 5.484375 -9.066406 C 6.070312 -7.664062 6.925781 -6.457031 8.132812 -5.445312 C 9.144531 -4.628906 10.308594 -4.242188 11.632812 -4.320312 Z M 0.273438 -13.539062 C -0.390625 -13.695312 -1.011719 -13.96875 -1.554688 -14.433594 C -2.761719 -15.445312 -2.761719 -16.808594 -2.257812 -17.820312 C -1.867188 -18.714844 -0.972656 -19.101562 -0.15625 -18.871094 C 0.3125 -18.714844 0.660156 -18.441406 0.894531 -18.011719 C 1.246094 -17.390625 1.285156 -16.691406 1.324219 -16.105469 C 1.246094 -15.25 1.167969 -14.511719 0.894531 -13.8125 C 0.738281 -13.539062 0.621094 -13.460938 0.273438 -13.539062 Z M 0.273438 -13.539062 "/></g></g></g><g fill="#000000" fill-opacity="1"><g transform="translate(129.752639, 128.714044)"><g><path d="M 1.324219 -15.171875 C 1.710938 -15.328125 1.984375 -15.71875 1.984375 -16.066406 C 1.945312 -16.378906 1.789062 -16.613281 1.515625 -16.769531 C 1.363281 -16.847656 1.167969 -16.847656 1.011719 -16.691406 C 0.738281 -16.378906 0.542969 -15.992188 0.660156 -15.523438 C 0.738281 -15.25 1.089844 -15.058594 1.324219 -15.171875 Z M 5.019531 -5.136719 C 5.640625 -5.136719 6.304688 -5.175781 6.925781 -5.332031 C 8.324219 -5.640625 9.570312 -6.265625 10.699219 -7.082031 C 12.214844 -8.132812 13.539062 -9.414062 14.824219 -10.699219 C 15.289062 -11.167969 15.757812 -11.632812 16.183594 -12.101562 C 16.339844 -12.253906 16.378906 -12.488281 16.222656 -12.683594 C 16.066406 -12.839844 15.835938 -12.878906 15.640625 -12.722656 C 15.328125 -12.488281 15.019531 -12.214844 14.746094 -11.945312 C 13.734375 -10.855469 12.683594 -9.84375 11.554688 -8.871094 C 10.464844 -7.9375 9.296875 -7.121094 7.9375 -6.574219 C 6.652344 -6.070312 5.332031 -5.875 3.929688 -6.148438 C 2.996094 -6.304688 2.335938 -6.769531 1.867188 -7.546875 C 1.128906 -8.753906 0.777344 -10.039062 0.972656 -11.4375 C 1.011719 -11.75 1.050781 -12.101562 1.050781 -12.410156 C 1.089844 -12.605469 0.972656 -12.761719 0.777344 -12.800781 C 0.621094 -12.878906 0.351562 -12.761719 0.273438 -12.527344 C 0.195312 -12.253906 0.078125 -11.984375 0.0390625 -11.710938 C -0.117188 -10.230469 0.117188 -8.871094 0.777344 -7.546875 C 1.554688 -6.03125 2.761719 -5.175781 4.472656 -5.175781 C 4.628906 -5.136719 4.824219 -5.136719 5.019531 -5.136719 Z M 5.019531 -5.136719 "/></g></g></g><g fill="#000000" fill-opacity="1"><g transform="translate(144.926072, 128.714044)"><g><path d="M 14.007812 -4.863281 C 15.953125 -4.359375 17.859375 -4.628906 19.6875 -5.445312 C 21.046875 -6.070312 22.332031 -6.847656 23.539062 -7.78125 C 25.210938 -9.066406 26.613281 -10.582031 28.050781 -12.140625 L 28.207031 -12.371094 C 28.324219 -12.566406 28.285156 -12.839844 28.128906 -12.957031 C 27.972656 -13.074219 27.777344 -13.074219 27.625 -12.957031 C 27.46875 -12.839844 27.351562 -12.722656 27.234375 -12.605469 C 26.765625 -12.101562 26.300781 -11.59375 25.832031 -11.128906 C 24.121094 -9.335938 22.253906 -7.78125 20.035156 -6.652344 C 18.984375 -6.109375 17.859375 -5.757812 16.691406 -5.5625 C 13.265625 -5.136719 10.699219 -7.507812 10 -10 C 9.726562 -11.089844 9.726562 -12.175781 9.84375 -13.304688 C 9.882812 -13.929688 9.960938 -14.511719 10 -15.132812 C 10.039062 -15.367188 10.039062 -15.640625 10 -15.875 C 9.921875 -16.457031 9.492188 -16.691406 8.988281 -16.378906 C 8.753906 -16.261719 8.519531 -16.066406 8.210938 -15.835938 L 7.703125 -16.535156 C 7.277344 -17.117188 6.652344 -17.46875 5.914062 -17.585938 C 4.863281 -17.742188 3.890625 -17.546875 3.035156 -16.925781 C 2.527344 -16.574219 2.101562 -16.144531 1.75 -15.640625 C 0.933594 -14.511719 0.390625 -13.265625 0.15625 -11.90625 C 0 -11.203125 -0.0390625 -10.464844 0.117188 -9.765625 C 0.429688 -8.054688 1.90625 -7.46875 3.347656 -8.441406 C 3.539062 -8.558594 3.734375 -8.714844 3.929688 -8.910156 L 5.097656 -10.15625 C 6.070312 -11.28125 6.964844 -12.449219 7.78125 -13.65625 C 8.09375 -14.085938 8.402344 -14.472656 8.714844 -14.863281 C 8.753906 -14.902344 8.832031 -14.902344 8.910156 -14.902344 C 9.066406 -14.941406 9.066406 -14.785156 9.066406 -14.707031 C 8.949219 -13.734375 8.871094 -12.761719 8.871094 -11.789062 C 8.871094 -10.855469 9.027344 -9.921875 9.375 -9.066406 C 10.269531 -6.925781 11.75 -5.484375 14.007812 -4.863281 Z M 2.644531 -9.066406 C 1.984375 -8.714844 1.476562 -8.871094 1.128906 -9.53125 C 0.972656 -9.921875 0.894531 -10.308594 0.894531 -10.699219 C 1.050781 -12.605469 1.671875 -14.316406 3.035156 -15.71875 C 3.851562 -16.574219 4.863281 -16.964844 6.070312 -16.574219 C 6.808594 -16.339844 7.160156 -15.835938 7.390625 -15.132812 C 7.429688 -14.980469 7.429688 -14.785156 7.3125 -14.628906 L 7.082031 -14.277344 C 6.109375 -12.839844 5.058594 -11.515625 3.929688 -10.195312 C 3.539062 -9.765625 3.152344 -9.375 2.644531 -9.066406 Z M 2.644531 -9.066406 "/></g></g></g><g fill="#000000" fill-opacity="1"><g transform="translate(37.803193, 150.391206)"><g><path d="M 4.070312 -3.96875 C 4.863281 -4.242188 5.339844 -4.878906 5.339844 -5.742188 C 5.339844 -6.941406 4.503906 -7.605469 3.015625 -7.605469 L 1.082031 -7.605469 L 1.082031 0 L 3.015625 0 C 4.820312 0 5.828125 -0.777344 5.828125 -2.148438 C 5.828125 -3.132812 5.253906 -3.765625 4.070312 -3.96875 Z M 3.015625 -7.15625 C 4.183594 -7.15625 4.863281 -6.609375 4.863281 -5.671875 C 4.863281 -4.761719 4.113281 -4.113281 2.957031 -4.113281 L 1.558594 -4.113281 L 1.558594 -7.15625 Z M 1.558594 -0.449219 L 1.558594 -3.695312 L 3.074219 -3.695312 C 4.574219 -3.695312 5.339844 -3.160156 5.339844 -2.078125 C 5.339844 -1.039062 4.515625 -0.449219 3.015625 -0.449219 Z M 1.558594 -0.449219 "/></g></g></g><g fill="#000000" fill-opacity="1"><g transform="translate(45.766911, 150.391206)"><g><path d="M 4.691406 -2.742188 C 4.71875 -2.902344 4.734375 -3.089844 4.734375 -3.289062 C 4.734375 -4.503906 3.996094 -5.339844 2.84375 -5.339844 C 1.371094 -5.339844 0.492188 -4.140625 0.492188 -2.4375 C 0.492188 -0.851562 1.3125 0.144531 2.886719 0.144531 C 3.621094 0.144531 4.214844 -0.0859375 4.457031 -0.257812 L 4.53125 -0.707031 C 4.140625 -0.476562 3.5625 -0.289062 2.929688 -0.289062 C 1.617188 -0.289062 0.953125 -1.183594 0.953125 -2.496094 L 0.953125 -2.742188 Z M 2.757812 -4.90625 C 3.75 -4.90625 4.269531 -4.214844 4.269531 -3.230469 L 4.269531 -3.132812 L 1.011719 -3.132812 C 1.183594 -4.214844 1.832031 -4.90625 2.757812 -4.90625 Z M 2.757812 -4.90625 "/></g></g></g><g fill="#000000" fill-opacity="1"><g transform="translate(52.691968, 150.391206)"><g><path d="M 2.324219 0.128906 C 3.507812 0.128906 4.15625 -0.402344 4.15625 -1.242188 C 4.15625 -2.050781 3.738281 -2.394531 2.640625 -2.785156 L 2.238281 -2.929688 C 1.429688 -3.21875 1.140625 -3.519531 1.140625 -4.027344 C 1.140625 -4.515625 1.601562 -4.90625 2.496094 -4.90625 C 3.058594 -4.90625 3.519531 -4.777344 3.910156 -4.53125 L 3.910156 -5.050781 C 3.5625 -5.222656 3.089844 -5.339844 2.496094 -5.339844 C 1.398438 -5.339844 0.691406 -4.804688 0.691406 -3.96875 C 0.691406 -3.347656 0.96875 -2.902344 2.078125 -2.511719 L 2.480469 -2.367188 C 3.417969 -2.035156 3.707031 -1.746094 3.707031 -1.210938 C 3.707031 -0.679688 3.21875 -0.304688 2.367188 -0.304688 C 1.601562 -0.304688 1.097656 -0.519531 0.648438 -0.851562 L 0.503906 -0.417969 C 0.894531 -0.101562 1.457031 0.128906 2.324219 0.128906 Z M 2.324219 0.128906 "/></g></g></g><g fill="#000000" fill-opacity="1"><g transform="translate(59.025567, 150.391206)"><g><path d="M 3.707031 -5.195312 L 1.675781 -5.195312 L 1.675781 -6.769531 L 1.210938 -6.679688 L 1.210938 -5.195312 L 0.0703125 -5.195312 L 0.0703125 -4.777344 L 1.210938 -4.777344 L 1.210938 -1.167969 C 1.210938 -0.273438 1.628906 0.144531 2.453125 0.144531 C 2.871094 0.144531 3.304688 0.0429688 3.59375 -0.117188 L 3.664062 -0.5625 C 3.375 -0.433594 2.957031 -0.289062 2.539062 -0.289062 C 1.976562 -0.289062 1.675781 -0.578125 1.675781 -1.242188 L 1.675781 -4.777344 L 3.707031 -4.777344 Z M 3.707031 -5.195312 "/></g></g></g><g fill="#000000" fill-opacity="1"><g transform="translate(64.508044, 150.391206)"><g/></g></g><g fill="#000000" fill-opacity="1"><g transform="translate(69.06727, 150.391206)"><g><path d="M 3.03125 -5.339844 C 2.324219 -5.339844 1.816406 -5.035156 1.746094 -4.992188 L 1.441406 -4.53125 L 1.414062 -5.238281 L 1.011719 -5.152344 L 1.011719 2.742188 L 1.472656 2.742188 L 1.472656 -0.144531 C 1.789062 0.0429688 2.25 0.144531 2.710938 0.144531 C 4.269531 0.144531 5.238281 -1.023438 5.238281 -2.726562 C 5.238281 -4.34375 4.386719 -5.339844 3.03125 -5.339844 Z M 2.769531 -0.289062 C 2.292969 -0.289062 1.832031 -0.402344 1.472656 -0.636719 L 1.472656 -4.34375 C 1.875 -4.703125 2.367188 -4.90625 2.945312 -4.90625 C 4.070312 -4.90625 4.777344 -4.027344 4.777344 -2.699219 C 4.777344 -1.269531 3.996094 -0.289062 2.769531 -0.289062 Z M 2.769531 -0.289062 "/></g></g></g><g fill="#000000" fill-opacity="1"><g transform="translate(76.468377, 150.391206)"><g><path d="M 1.242188 -6.667969 C 1.457031 -6.667969 1.644531 -6.824219 1.644531 -7.054688 C 1.644531 -7.273438 1.457031 -7.429688 1.242188 -7.429688 C 1.023438 -7.429688 0.835938 -7.273438 0.835938 -7.054688 C 0.835938 -6.824219 1.023438 -6.667969 1.242188 -6.667969 Z M 1.472656 0 L 1.472656 -5.238281 L 1.011719 -5.152344 L 1.011719 0 Z M 1.472656 0 "/></g></g></g><g fill="#000000" fill-opacity="1"><g transform="translate(80.623678, 150.391206)"><g><path d="M 4.300781 -4.835938 L 4.300781 -5.195312 L 0.636719 -5.195312 L 0.636719 -4.777344 L 3.707031 -4.777344 L 0.535156 -0.359375 L 0.535156 0 L 4.316406 0 L 4.402344 -0.417969 L 1.125 -0.417969 Z M 4.300781 -4.835938 "/></g></g></g><g fill="#000000" fill-opacity="1"><g transform="translate(87.115962, 150.391206)"><g><path d="M 4.300781 -4.835938 L 4.300781 -5.195312 L 0.636719 -5.195312 L 0.636719 -4.777344 L 3.707031 -4.777344 L 0.535156 -0.359375 L 0.535156 0 L 4.316406 0 L 4.402344 -0.417969 L 1.125 -0.417969 Z M 4.300781 -4.835938 "/></g></g></g><g fill="#000000" fill-opacity="1"><g transform="translate(93.608246, 150.391206)"><g><path d="M 4.71875 -0.347656 C 4.414062 -0.347656 4.242188 -0.519531 4.242188 -0.867188 L 4.242188 -3.652344 C 4.242188 -4.847656 3.535156 -5.339844 2.480469 -5.339844 C 1.703125 -5.339844 1.140625 -5.09375 0.910156 -4.933594 L 0.835938 -4.488281 C 1.226562 -4.71875 1.773438 -4.90625 2.394531 -4.90625 C 3.21875 -4.90625 3.808594 -4.546875 3.808594 -3.5625 L 3.808594 -2.613281 L 2.351562 -2.613281 C 0.851562 -2.613281 0.503906 -1.816406 0.503906 -1.210938 C 0.503906 -0.417969 1.066406 0.144531 2.148438 0.144531 C 2.625 0.144531 3.101562 0.0273438 3.519531 -0.203125 L 3.824219 -0.589844 C 3.867188 -0.257812 4.070312 0.0585938 4.546875 0.0585938 C 4.734375 0.0585938 4.878906 0.0273438 4.992188 -0.015625 L 5.050781 -0.390625 C 5.050781 -0.390625 4.921875 -0.347656 4.71875 -0.347656 Z M 2.222656 -0.289062 C 1.34375 -0.289062 0.96875 -0.722656 0.96875 -1.269531 C 0.96875 -1.6875 1.253906 -2.207031 2.308594 -2.207031 L 3.808594 -2.207031 L 3.808594 -0.835938 C 3.390625 -0.476562 2.84375 -0.289062 2.222656 -0.289062 Z M 2.222656 -0.289062 "/></g></g></g><g fill="#000000" fill-opacity="1"><g transform="translate(100.576581, 150.391206)"><g/></g></g><g fill="#000000" fill-opacity="1"><g transform="translate(105.135809, 150.391206)"><g><path d="M 1.242188 -6.667969 C 1.457031 -6.667969 1.644531 -6.824219 1.644531 -7.054688 C 1.644531 -7.273438 1.457031 -7.429688 1.242188 -7.429688 C 1.023438 -7.429688 0.835938 -7.273438 0.835938 -7.054688 C 0.835938 -6.824219 1.023438 -6.667969 1.242188 -6.667969 Z M 1.472656 0 L 1.472656 -5.238281 L 1.011719 -5.152344 L 1.011719 0 Z M 1.472656 0 "/></g></g></g><g fill="#000000" fill-opacity="1"><g transform="translate(109.291113, 150.391206)"><g><path d="M 3.144531 -5.339844 C 2.324219 -5.339844 1.816406 -5.035156 1.746094 -4.992188 L 1.441406 -4.53125 L 1.414062 -5.238281 L 1.011719 -5.152344 L 1.011719 0 L 1.472656 0 L 1.472656 -4.34375 C 1.875 -4.703125 2.367188 -4.90625 3.015625 -4.90625 C 4.054688 -4.90625 4.558594 -4.34375 4.558594 -3.417969 L 4.558594 0 L 5.023438 0 L 5.023438 -3.507812 C 5.023438 -4.746094 4.300781 -5.339844 3.144531 -5.339844 Z M 3.144531 -5.339844 "/></g></g></g><g fill="#000000" fill-opacity="1"><g transform="translate(116.937465, 150.391206)"><g/></g></g><g fill="#000000" fill-opacity="1"><g transform="translate(121.496693, 150.391206)"><g><path d="M 3.707031 -5.195312 L 1.675781 -5.195312 L 1.675781 -6.769531 L 1.210938 -6.679688 L 1.210938 -5.195312 L 0.0703125 -5.195312 L 0.0703125 -4.777344 L 1.210938 -4.777344 L 1.210938 -1.167969 C 1.210938 -0.273438 1.628906 0.144531 2.453125 0.144531 C 2.871094 0.144531 3.304688 0.0429688 3.59375 -0.117188 L 3.664062 -0.5625 C 3.375 -0.433594 2.957031 -0.289062 2.539062 -0.289062 C 1.976562 -0.289062 1.675781 -0.578125 1.675781 -1.242188 L 1.675781 -4.777344 L 3.707031 -4.777344 Z M 3.707031 -5.195312 "/></g></g></g><g fill="#000000" fill-opacity="1"><g transform="translate(126.979173, 150.391206)"><g><path d="M 2.886719 0.144531 C 4.328125 0.144531 5.265625 -0.9375 5.265625 -2.667969 C 5.265625 -4.316406 4.328125 -5.339844 2.886719 -5.339844 C 1.441406 -5.339844 0.492188 -4.257812 0.492188 -2.523438 C 0.492188 -0.878906 1.441406 0.144531 2.886719 0.144531 Z M 2.886719 -0.289062 C 1.730469 -0.289062 0.953125 -1.183594 0.953125 -2.597656 C 0.953125 -4.011719 1.730469 -4.90625 2.886719 -4.90625 C 4.039062 -4.90625 4.804688 -4.011719 4.804688 -2.597656 C 4.804688 -1.183594 4.039062 -0.289062 2.886719 -0.289062 Z M 2.886719 -0.289062 "/></g></g></g><g fill="#000000" fill-opacity="1"><g transform="translate(134.409134, 150.391206)"><g><path d="M 5.496094 -0.5625 L 4.027344 -4.503906 L 3.609375 -4.414062 L 2.179688 -0.605469 L 0.679688 -5.238281 L 0.214844 -5.152344 L 1.90625 0 L 2.367188 0 L 3.824219 -3.839844 L 5.265625 0 L 5.730469 0 L 7.429688 -5.195312 L 6.96875 -5.195312 Z M 5.496094 -0.5625 "/></g></g></g><g fill="#000000" fill-opacity="1"><g transform="translate(143.728881, 150.391206)"><g><path d="M 3.144531 -5.339844 C 2.324219 -5.339844 1.816406 -5.035156 1.746094 -4.992188 L 1.441406 -4.53125 L 1.414062 -5.238281 L 1.011719 -5.152344 L 1.011719 0 L 1.472656 0 L 1.472656 -4.34375 C 1.875 -4.703125 2.367188 -4.90625 3.015625 -4.90625 C 4.054688 -4.90625 4.558594 -4.34375 4.558594 -3.417969 L 4.558594 0 L 5.023438 0 L 5.023438 -3.507812 C 5.023438 -4.746094 4.300781 -5.339844 3.144531 -5.339844 Z M 3.144531 -5.339844 "/></g></g></g></svg>