<svg xmlns="http://www.w3.org/2000/svg" xmlns:xlink="http://www.w3.org/1999/xlink" width="250" zoomAndPan="magnify" viewBox="0 0 187.5 187.499992" height="250" preserveAspectRatio="xMidYMid meet" version="1.0"><defs><g/><clipPath id="id1"><path d="M 0 0 L 187 0 L 187 187 L 0 187 Z M 0 0 " clip-rule="nonzero"/></clipPath><clipPath id="id2"><path d="M 69.1875 56.039062 L 118.6875 56.039062 L 118.6875 105.539062 L 69.1875 105.539062 Z M 69.1875 56.039062 " clip-rule="nonzero"/></clipPath></defs><g clip-path="url(#id1)"><path fill="#ffffff" d="M 0 0 L 187.5 0 L 187.5 195 L 0 195 Z M 0 0 " fill-opacity="1" fill-rule="nonzero"/><path fill="#ffffff" d="M 0 0 L 187.5 0 L 187.5 187.5 L 0 187.5 Z M 0 0 " fill-opacity="1" fill-rule="nonzero"/><path fill="#ffffff" d="M 0 0 L 187.5 0 L 187.5 187.5 L 0 187.5 Z M 0 0 " fill-opacity="1" fill-rule="nonzero"/></g><g fill="#33443c" fill-opacity="1"><g transform="translate(64.226948, 119.876357)"><g><path d="M 4.78125 0 L 2.84375 0 L -0.015625 -7.34375 L 1.984375 -7.34375 L 3.859375 -1.9375 L 5.75 -7.34375 L 7.671875 -7.34375 Z M 4.78125 0 "/></g></g></g><g fill="#33443c" fill-opacity="1"><g transform="translate(72.143977, 119.876357)"><g><path d="M 2.609375 0 L 0.734375 0 L 0.734375 -7.34375 L 2.609375 -7.34375 Z M 2.609375 0 "/></g></g></g><g fill="#33443c" fill-opacity="1"><g transform="translate(75.745491, 119.876357)"><g><path d="M 7.515625 0 L 5.875 0 L 2.484375 -4.53125 L 2.484375 0 L 0.734375 0 L 0.734375 -7.34375 L 2.390625 -7.34375 L 5.78125 -2.8125 L 5.78125 -7.34375 L 7.515625 -7.34375 Z M 7.515625 0 "/></g></g></g><g fill="#33443c" fill-opacity="1"><g transform="translate(84.261023, 119.876357)"><g><path d="M 6.484375 -5.875 L 2.609375 -5.875 L 2.609375 -4.421875 L 6.109375 -4.421875 L 6.109375 -2.953125 L 2.609375 -2.953125 L 2.609375 -1.46875 L 6.609375 -1.46875 L 6.609375 0 L 0.734375 0 L 0.734375 -7.34375 L 6.484375 -7.34375 Z M 6.484375 -5.875 "/></g></g></g><g fill="#33443c" fill-opacity="1"><g transform="translate(91.600554, 119.876357)"><g><path d="M 4.53125 -2.375 L 4.53125 0 L 2.671875 0 L 2.671875 -2.328125 L -0.046875 -7.34375 L 1.8125 -7.34375 L 3.59375 -4.140625 L 5.328125 -7.34375 L 7.1875 -7.34375 Z M 4.53125 -2.375 "/></g></g></g><g fill="#33443c" fill-opacity="1"><g transform="translate(99.003084, 119.876357)"><g><path d="M 5.625 -1.359375 L 2.40625 -1.359375 L 1.875 0 L -0.046875 0 L 3.125 -7.34375 L 5.046875 -7.34375 L 8.140625 0 L 6.140625 0 Z M 5.078125 -2.765625 L 4.015625 -5.484375 L 2.953125 -2.765625 Z M 5.078125 -2.765625 "/></g></g></g><g fill="#33443c" fill-opacity="1"><g transform="translate(107.350615, 119.876357)"><g><path d="M 5.171875 0 L 4.078125 -2.0625 L 2.609375 -2.0625 L 2.609375 0 L 0.734375 0 L 0.734375 -7.34375 L 4.015625 -7.34375 C 4.992188 -7.34375 5.75 -7.117188 6.28125 -6.671875 C 6.8125 -6.234375 7.078125 -5.601562 7.078125 -4.78125 C 7.078125 -3.65625 6.632812 -2.867188 5.75 -2.421875 L 7.28125 0 Z M 2.609375 -3.53125 L 4.015625 -3.53125 C 4.421875 -3.53125 4.734375 -3.628906 4.953125 -3.828125 C 5.179688 -4.035156 5.296875 -4.332031 5.296875 -4.71875 C 5.296875 -5.101562 5.179688 -5.390625 4.953125 -5.578125 C 4.734375 -5.773438 4.421875 -5.875 4.015625 -5.875 L 2.609375 -5.875 Z M 2.609375 -3.53125 "/></g></g></g><g fill="#33443c" fill-opacity="1"><g transform="translate(115.215143, 119.876357)"><g><path d="M 0.734375 -7.34375 L 3.890625 -7.34375 C 5.046875 -7.34375 5.984375 -7.003906 6.703125 -6.328125 C 7.429688 -5.648438 7.796875 -4.765625 7.796875 -3.671875 C 7.796875 -2.585938 7.425781 -1.703125 6.6875 -1.015625 C 5.957031 -0.335938 5.003906 0 3.828125 0 L 0.734375 0 Z M 2.609375 -5.859375 L 2.609375 -1.484375 L 3.9375 -1.484375 C 4.507812 -1.484375 4.976562 -1.6875 5.34375 -2.09375 C 5.71875 -2.5 5.90625 -3.019531 5.90625 -3.65625 C 5.90625 -4.300781 5.710938 -4.828125 5.328125 -5.234375 C 4.941406 -5.648438 4.453125 -5.859375 3.859375 -5.859375 Z M 2.609375 -5.859375 "/></g></g></g><g fill="#60941a" fill-opacity="1"><g transform="translate(70.745988, 126.038654)"><g><path d="M 2.25 -2.375 L 0.84375 -2.375 L 0.84375 -1.5625 L 2.109375 -1.5625 L 2.109375 -1.140625 L 0.84375 -1.140625 L 0.84375 0 L 0.375 0 L 0.375 -2.796875 L 2.25 -2.796875 Z M 2.25 -2.375 "/></g></g></g><g fill="#60941a" fill-opacity="1"><g transform="translate(73.246014, 126.038654)"><g><path d="M 2.171875 -0.625 L 0.765625 -0.625 L 0.5 0 L 0 0 L 1.234375 -2.796875 L 1.71875 -2.796875 L 2.953125 0 L 2.4375 0 Z M 2 -1.046875 L 1.46875 -2.296875 L 0.9375 -1.046875 Z M 2 -1.046875 "/></g></g></g><g fill="#60941a" fill-opacity="1"><g transform="translate(76.398045, 126.038654)"><g><path d="M 2.140625 0 L 1.625 -0.84375 C 1.601562 -0.84375 1.5625 -0.84375 1.5 -0.84375 L 0.84375 -0.84375 L 0.84375 0 L 0.375 0 L 0.375 -2.796875 L 1.5 -2.796875 C 1.863281 -2.796875 2.140625 -2.710938 2.328125 -2.546875 C 2.523438 -2.378906 2.625 -2.144531 2.625 -1.84375 C 2.625 -1.625 2.570312 -1.4375 2.46875 -1.28125 C 2.375 -1.125 2.234375 -1.007812 2.046875 -0.9375 L 2.6875 0 Z M 0.84375 -1.265625 L 1.5 -1.265625 C 1.957031 -1.265625 2.1875 -1.453125 2.1875 -1.828125 C 2.1875 -2.191406 1.957031 -2.375 1.5 -2.375 L 0.84375 -2.375 Z M 0.84375 -1.265625 "/></g></g></g><g fill="#60941a" fill-opacity="1"><g transform="translate(79.490073, 126.038654)"><g><path d="M 3.328125 0 L 2.890625 0 L 2.890625 -2.09375 L 2 -0.296875 L 1.703125 -0.296875 L 0.8125 -2.09375 L 0.8125 0 L 0.375 0 L 0.375 -2.796875 L 0.921875 -2.796875 L 1.859375 -0.9375 L 2.765625 -2.796875 L 3.328125 -2.796875 Z M 3.328125 0 "/></g></g></g><g fill="#60941a" fill-opacity="1"><g transform="translate(83.390112, 126.038654)"><g/></g></g><g fill="#60941a" fill-opacity="1"><g transform="translate(84.622123, 126.038654)"><g><path d="M 2.25 -2.375 L 0.84375 -2.375 L 0.84375 -1.5625 L 2.109375 -1.5625 L 2.109375 -1.140625 L 0.84375 -1.140625 L 0.84375 0 L 0.375 0 L 0.375 -2.796875 L 2.25 -2.796875 Z M 2.25 -2.375 "/></g></g></g><g fill="#60941a" fill-opacity="1"><g transform="translate(87.122148, 126.038654)"><g><path d="M 2.140625 0 L 1.625 -0.84375 C 1.601562 -0.84375 1.5625 -0.84375 1.5 -0.84375 L 0.84375 -0.84375 L 0.84375 0 L 0.375 0 L 0.375 -2.796875 L 1.5 -2.796875 C 1.863281 -2.796875 2.140625 -2.710938 2.328125 -2.546875 C 2.523438 -2.378906 2.625 -2.144531 2.625 -1.84375 C 2.625 -1.625 2.570312 -1.4375 2.46875 -1.28125 C 2.375 -1.125 2.234375 -1.007812 2.046875 -0.9375 L 2.6875 0 Z M 0.84375 -1.265625 L 1.5 -1.265625 C 1.957031 -1.265625 2.1875 -1.453125 2.1875 -1.828125 C 2.1875 -2.191406 1.957031 -2.375 1.5 -2.375 L 0.84375 -2.375 Z M 0.84375 -1.265625 "/></g></g></g><g fill="#60941a" fill-opacity="1"><g transform="translate(90.214175, 126.038654)"><g><path d="M 2.375 -2.375 L 0.84375 -2.375 L 0.84375 -1.625 L 2.203125 -1.625 L 2.203125 -1.203125 L 0.84375 -1.203125 L 0.84375 -0.421875 L 2.421875 -0.421875 L 2.421875 0 L 0.375 0 L 0.375 -2.796875 L 2.375 -2.796875 Z M 2.375 -2.375 "/></g></g></g><g fill="#60941a" fill-opacity="1"><g transform="translate(93.038202, 126.038654)"><g><path d="M 1.28125 -2.8125 C 1.644531 -2.8125 1.972656 -2.71875 2.265625 -2.53125 L 2.078125 -2.109375 C 1.785156 -2.285156 1.507812 -2.375 1.25 -2.375 C 1.113281 -2.375 1.003906 -2.347656 0.921875 -2.296875 C 0.835938 -2.242188 0.796875 -2.171875 0.796875 -2.078125 C 0.796875 -1.984375 0.832031 -1.90625 0.90625 -1.84375 C 0.976562 -1.78125 1.070312 -1.734375 1.1875 -1.703125 C 1.300781 -1.671875 1.421875 -1.628906 1.546875 -1.578125 C 1.679688 -1.535156 1.800781 -1.488281 1.90625 -1.4375 C 2.019531 -1.382812 2.113281 -1.300781 2.1875 -1.1875 C 2.257812 -1.082031 2.296875 -0.953125 2.296875 -0.796875 C 2.296875 -0.546875 2.195312 -0.347656 2 -0.203125 C 1.8125 -0.0546875 1.5625 0.015625 1.25 0.015625 C 1.03125 0.015625 0.820312 -0.0195312 0.625 -0.09375 C 0.425781 -0.175781 0.253906 -0.285156 0.109375 -0.421875 L 0.3125 -0.84375 C 0.445312 -0.707031 0.597656 -0.601562 0.765625 -0.53125 C 0.941406 -0.457031 1.101562 -0.421875 1.25 -0.421875 C 1.414062 -0.421875 1.546875 -0.453125 1.640625 -0.515625 C 1.734375 -0.578125 1.78125 -0.660156 1.78125 -0.765625 C 1.78125 -0.859375 1.742188 -0.9375 1.671875 -1 C 1.597656 -1.070312 1.503906 -1.125 1.390625 -1.15625 C 1.273438 -1.1875 1.148438 -1.222656 1.015625 -1.265625 C 0.890625 -1.304688 0.769531 -1.351562 0.65625 -1.40625 C 0.539062 -1.457031 0.445312 -1.535156 0.375 -1.640625 C 0.300781 -1.753906 0.265625 -1.890625 0.265625 -2.046875 C 0.265625 -2.273438 0.359375 -2.457031 0.546875 -2.59375 C 0.734375 -2.738281 0.976562 -2.8125 1.28125 -2.8125 Z M 1.28125 -2.8125 "/></g></g></g><g fill="#60941a" fill-opacity="1"><g transform="translate(95.726226, 126.038654)"><g><path d="M 2.796875 0 L 2.328125 0 L 2.328125 -1.15625 L 0.84375 -1.15625 L 0.84375 0 L 0.375 0 L 0.375 -2.796875 L 0.84375 -2.796875 L 0.84375 -1.578125 L 2.328125 -1.578125 L 2.328125 -2.796875 L 2.796875 -2.796875 Z M 2.796875 0 "/></g></g></g><g fill="#60941a" fill-opacity="1"><g transform="translate(99.090257, 126.038654)"><g/></g></g><g fill="#60941a" fill-opacity="1"><g transform="translate(100.322268, 126.038654)"><g><path d="M 2.28125 -2.375 L 1.390625 -2.375 L 1.390625 0 L 0.921875 0 L 0.921875 -2.375 L 0.03125 -2.375 L 0.03125 -2.796875 L 2.28125 -2.796875 Z M 2.28125 -2.375 "/></g></g></g><g fill="#60941a" fill-opacity="1"><g transform="translate(102.83829, 126.038654)"><g><path d="M 0.5625 -2.40625 C 0.84375 -2.675781 1.191406 -2.8125 1.609375 -2.8125 C 2.035156 -2.8125 2.390625 -2.675781 2.671875 -2.40625 C 2.960938 -2.132812 3.109375 -1.796875 3.109375 -1.390625 C 3.109375 -0.992188 2.960938 -0.660156 2.671875 -0.390625 C 2.390625 -0.117188 2.035156 0.015625 1.609375 0.015625 C 1.191406 0.015625 0.84375 -0.117188 0.5625 -0.390625 C 0.28125 -0.660156 0.140625 -0.992188 0.140625 -1.390625 C 0.140625 -1.796875 0.28125 -2.132812 0.5625 -2.40625 Z M 1.625 -2.390625 C 1.34375 -2.390625 1.101562 -2.289062 0.90625 -2.09375 C 0.707031 -1.90625 0.609375 -1.671875 0.609375 -1.390625 C 0.609375 -1.117188 0.707031 -0.882812 0.90625 -0.6875 C 1.113281 -0.5 1.351562 -0.40625 1.625 -0.40625 C 1.894531 -0.40625 2.128906 -0.5 2.328125 -0.6875 C 2.523438 -0.882812 2.625 -1.117188 2.625 -1.390625 C 2.625 -1.671875 2.523438 -1.90625 2.328125 -2.09375 C 2.128906 -2.289062 1.894531 -2.390625 1.625 -2.390625 Z M 1.625 -2.390625 "/></g></g></g><g fill="#60941a" fill-opacity="1"><g transform="translate(106.27832, 126.038654)"><g/></g></g><g fill="#60941a" fill-opacity="1"><g transform="translate(107.510331, 126.038654)"><g><path d="M 1.515625 -0.9375 L 1.515625 0 L 1.046875 0 L 1.046875 -0.921875 L 0 -2.796875 L 0.484375 -2.796875 L 1.28125 -1.4375 L 2.0625 -2.796875 L 2.546875 -2.796875 Z M 1.515625 -0.9375 "/></g></g></g><g fill="#60941a" fill-opacity="1"><g transform="translate(110.258358, 126.038654)"><g><path d="M 0.5625 -2.40625 C 0.84375 -2.675781 1.191406 -2.8125 1.609375 -2.8125 C 2.035156 -2.8125 2.390625 -2.675781 2.671875 -2.40625 C 2.960938 -2.132812 3.109375 -1.796875 3.109375 -1.390625 C 3.109375 -0.992188 2.960938 -0.660156 2.671875 -0.390625 C 2.390625 -0.117188 2.035156 0.015625 1.609375 0.015625 C 1.191406 0.015625 0.84375 -0.117188 0.5625 -0.390625 C 0.28125 -0.660156 0.140625 -0.992188 0.140625 -1.390625 C 0.140625 -1.796875 0.28125 -2.132812 0.5625 -2.40625 Z M 1.625 -2.390625 C 1.34375 -2.390625 1.101562 -2.289062 0.90625 -2.09375 C 0.707031 -1.90625 0.609375 -1.671875 0.609375 -1.390625 C 0.609375 -1.117188 0.707031 -0.882812 0.90625 -0.6875 C 1.113281 -0.5 1.351562 -0.40625 1.625 -0.40625 C 1.894531 -0.40625 2.128906 -0.5 2.328125 -0.6875 C 2.523438 -0.882812 2.625 -1.117188 2.625 -1.390625 C 2.625 -1.671875 2.523438 -1.90625 2.328125 -2.09375 C 2.128906 -2.289062 1.894531 -2.390625 1.625 -2.390625 Z M 1.625 -2.390625 "/></g></g></g><g fill="#60941a" fill-opacity="1"><g transform="translate(113.698391, 126.038654)"><g><path d="M 2.75 -2.796875 L 2.75 -1.15625 C 2.75 -0.789062 2.640625 -0.503906 2.421875 -0.296875 C 2.203125 -0.0859375 1.90625 0.015625 1.53125 0.015625 C 1.15625 0.015625 0.859375 -0.0859375 0.640625 -0.296875 C 0.421875 -0.503906 0.3125 -0.789062 0.3125 -1.15625 L 0.3125 -2.796875 L 0.78125 -2.796875 L 0.78125 -1.15625 C 0.78125 -0.925781 0.847656 -0.742188 0.984375 -0.609375 C 1.117188 -0.472656 1.300781 -0.40625 1.53125 -0.40625 C 1.757812 -0.40625 1.941406 -0.46875 2.078125 -0.59375 C 2.210938 -0.726562 2.28125 -0.914062 2.28125 -1.15625 L 2.28125 -2.796875 Z M 2.75 -2.796875 "/></g></g></g><path fill="#6b3e0a" d="M 73.828125 78.699219 C 73.625 78.464844 73.632812 78.105469 73.855469 77.882812 L 73.867188 77.871094 C 73.945312 77.792969 74.046875 77.742188 74.152344 77.714844 C 74.15625 77.460938 74.300781 77.207031 74.585938 77.140625 C 74.558594 77.078125 74.53125 77.015625 74.523438 76.949219 C 74.515625 76.875 74.527344 76.804688 74.53125 76.734375 C 74.542969 76.519531 74.484375 76.300781 74.375 76.140625 C 74.34375 76.09375 74.308594 76.050781 74.292969 75.996094 C 74.273438 75.9375 74.277344 75.875 74.273438 75.8125 C 74.261719 75.589844 74.164062 75.390625 74.085938 75.1875 C 73.96875 74.898438 73.886719 74.589844 73.84375 74.269531 C 73.804688 73.996094 73.789062 73.695312 73.640625 73.484375 C 73.640625 73.484375 73.636719 73.484375 73.636719 73.484375 C 73.488281 73.695312 73.472656 73.996094 73.433594 74.269531 C 73.390625 74.589844 73.308594 74.898438 73.195312 75.1875 C 73.113281 75.390625 73.015625 75.589844 73.003906 75.8125 C 73 75.875 73.003906 75.9375 72.984375 75.996094 C 72.96875 76.050781 72.933594 76.09375 72.902344 76.140625 C 72.792969 76.300781 72.734375 76.519531 72.746094 76.734375 C 72.75 76.804688 72.761719 76.875 72.753906 76.949219 C 72.742188 77.03125 72.703125 77.105469 72.675781 77.183594 C 72.617188 77.339844 72.601562 77.523438 72.625 77.691406 C 72.640625 77.800781 72.675781 77.90625 72.679688 78.015625 C 72.683594 78.125 72.660156 78.230469 72.644531 78.339844 C 72.601562 78.644531 72.660156 79.011719 72.882812 79.152344 C 72.984375 79.214844 73.105469 79.21875 73.222656 79.222656 C 73.34375 79.226562 73.464844 79.226562 73.585938 79.230469 C 73.605469 79.230469 73.621094 79.230469 73.636719 79.230469 C 73.65625 79.230469 73.671875 79.230469 73.691406 79.230469 C 73.707031 79.230469 73.722656 79.230469 73.738281 79.230469 C 73.695312 79.050781 73.722656 78.851562 73.828125 78.699219 " fill-opacity="1" fill-rule="nonzero"/><path fill="#6b3e0a" d="M 73.792969 79.941406 L 73.792969 79.367188 C 73.757812 79.304688 73.738281 79.234375 73.726562 79.164062 L 73.484375 79.164062 L 73.484375 80.050781 C 73.574219 79.988281 73.679688 79.949219 73.792969 79.941406 " fill-opacity="1" fill-rule="nonzero"/><path fill="#6b3e0a" d="M 77.261719 80.917969 L 76.902344 80.917969 L 76.902344 77.984375 L 77.261719 77.984375 L 77.261719 80.917969 " fill-opacity="1" fill-rule="nonzero"/><path fill="#6b3e0a" d="M 86.128906 83.164062 C 86.378906 83.089844 86.683594 83.015625 87.035156 82.933594 C 87.386719 82.851562 87.785156 82.773438 88.21875 82.703125 C 88.65625 82.628906 89.125 82.566406 89.625 82.515625 C 90.128906 82.46875 90.652344 82.425781 91.199219 82.40625 C 91.472656 82.394531 91.75 82.394531 92.03125 82.386719 C 92.171875 82.382812 92.316406 82.390625 92.457031 82.390625 C 92.597656 82.390625 92.742188 82.386719 92.882812 82.394531 C 93.457031 82.414062 94.039062 82.433594 94.621094 82.488281 L 95.058594 82.523438 C 95.203125 82.535156 95.347656 82.554688 95.492188 82.570312 C 95.636719 82.585938 95.78125 82.597656 95.925781 82.613281 C 96.070312 82.632812 96.214844 82.652344 96.355469 82.671875 C 96.5 82.691406 96.640625 82.710938 96.78125 82.730469 C 96.921875 82.75 97.066406 82.773438 97.203125 82.792969 C 97.484375 82.835938 97.761719 82.878906 98.03125 82.929688 C 98.574219 83.019531 99.097656 83.132812 99.597656 83.226562 C 99.632812 83.234375 99.671875 83.246094 99.707031 83.253906 C 99.230469 83.125 98.746094 83.023438 98.261719 82.875 C 96.523438 82.324219 94.867188 81.746094 93.035156 81.546875 C 92.992188 81.542969 92.949219 81.53125 92.910156 81.519531 C 92.792969 81.566406 92.65625 81.582031 92.515625 81.554688 C 92.304688 81.519531 92.117188 81.40625 91.953125 81.28125 C 91.945312 81.277344 91.941406 81.273438 91.9375 81.269531 C 91.660156 81.285156 91.382812 81.308594 91.117188 81.34375 C 90.542969 81.40625 89.992188 81.511719 89.480469 81.621094 C 88.964844 81.742188 88.484375 81.878906 88.046875 82.027344 C 87.613281 82.179688 87.222656 82.335938 86.886719 82.492188 C 86.546875 82.652344 86.261719 82.808594 86.03125 82.945312 C 85.800781 83.078125 85.628906 83.199219 85.515625 83.285156 C 85.398438 83.367188 85.34375 83.417969 85.34375 83.417969 C 85.34375 83.417969 85.414062 83.390625 85.546875 83.34375 C 85.679688 83.296875 85.878906 83.238281 86.128906 83.164062 " fill-opacity="1" fill-rule="nonzero"/><path fill="#6b3e0a" d="M 88.789062 84.4375 C 89.339844 84.34375 89.9375 84.265625 90.574219 84.199219 C 91.210938 84.140625 91.878906 84.082031 92.574219 84.058594 C 92.921875 84.039062 93.273438 84.039062 93.632812 84.03125 C 93.808594 84.023438 93.992188 84.03125 94.171875 84.03125 C 94.351562 84.035156 94.535156 84.03125 94.714844 84.035156 C 95.445312 84.054688 96.1875 84.078125 96.925781 84.140625 L 97.480469 84.183594 C 97.667969 84.199219 97.851562 84.21875 98.035156 84.238281 C 98.21875 84.257812 98.402344 84.273438 98.585938 84.292969 C 98.769531 84.316406 98.949219 84.339844 99.132812 84.363281 C 99.3125 84.382812 99.496094 84.40625 99.675781 84.429688 C 99.855469 84.457031 100.03125 84.480469 100.210938 84.507812 C 100.566406 84.558594 100.917969 84.613281 101.261719 84.671875 C 101.953125 84.785156 102.613281 84.917969 103.246094 85.035156 C 103.5625 85.101562 103.867188 85.167969 104.164062 85.230469 C 104.3125 85.261719 104.460938 85.289062 104.601562 85.324219 C 104.707031 85.347656 104.808594 85.371094 104.90625 85.394531 C 104.378906 85.101562 103.878906 84.757812 103.328125 84.507812 C 102.464844 84.117188 101.519531 83.941406 100.644531 83.566406 C 100.375 83.449219 100.101562 83.363281 99.824219 83.285156 C 99.648438 83.257812 99.472656 83.230469 99.292969 83.203125 C 99.105469 83.171875 98.917969 83.144531 98.730469 83.117188 C 98.542969 83.09375 98.351562 83.070312 98.160156 83.046875 C 97.972656 83.027344 97.78125 83.003906 97.589844 82.984375 L 97.015625 82.9375 C 96.25 82.878906 95.476562 82.859375 94.71875 82.867188 C 93.960938 82.878906 93.214844 82.917969 92.496094 82.996094 C 91.777344 83.0625 91.085938 83.179688 90.4375 83.304688 C 89.789062 83.4375 89.179688 83.589844 88.628906 83.757812 C 88.078125 83.929688 87.578125 84.105469 87.144531 84.285156 C 86.714844 84.464844 86.347656 84.640625 86.050781 84.796875 C 85.75 84.949219 85.527344 85.089844 85.375 85.183594 C 85.226562 85.28125 85.148438 85.339844 85.148438 85.339844 C 85.148438 85.339844 85.238281 85.304688 85.40625 85.246094 C 85.574219 85.183594 85.824219 85.113281 86.136719 85.015625 C 86.453125 84.921875 86.84375 84.828125 87.285156 84.726562 C 87.730469 84.625 88.238281 84.527344 88.789062 84.4375 " fill-opacity="1" fill-rule="nonzero"/><path fill="#6b3e0a" d="M 92.257812 87.6875 C 92.917969 87.589844 93.636719 87.507812 94.394531 87.433594 C 95.152344 87.371094 95.953125 87.304688 96.785156 87.28125 C 97.199219 87.261719 97.621094 87.261719 98.046875 87.25 C 98.261719 87.246094 98.476562 87.25 98.691406 87.25 C 98.910156 87.253906 99.125 87.246094 99.34375 87.253906 C 100.214844 87.273438 101.101562 87.300781 101.984375 87.367188 L 102.648438 87.410156 C 102.867188 87.425781 103.089844 87.449219 103.308594 87.46875 C 103.527344 87.488281 103.75 87.507812 103.96875 87.527344 C 104.1875 87.550781 104.402344 87.574219 104.621094 87.597656 C 104.835938 87.621094 105.054688 87.644531 105.269531 87.671875 C 105.484375 87.699219 105.699219 87.726562 105.910156 87.753906 C 106.335938 87.808594 106.753906 87.863281 107.167969 87.929688 C 107.578125 87.996094 107.984375 88.046875 108.382812 88.121094 C 108.777344 88.1875 110.273438 88.871094 110.648438 88.9375 C 111.027344 89.007812 110.285156 88.460938 110.640625 88.527344 C 110.644531 88.527344 110.648438 88.527344 110.648438 88.527344 C 110.1875 88.164062 109.742188 87.757812 109.203125 87.527344 C 109.046875 87.460938 108.953125 87.359375 108.910156 87.242188 C 108.894531 87.230469 108.878906 87.222656 108.859375 87.210938 C 108.765625 87.1875 108.671875 87.164062 108.578125 87.140625 C 108.476562 87.117188 108.378906 87.09375 108.277344 87.070312 C 108.175781 87.046875 108.074219 87.027344 107.972656 87.003906 C 107.769531 86.960938 107.5625 86.917969 107.351562 86.875 C 107.257812 86.855469 107.164062 86.832031 107.066406 86.816406 C 107.066406 86.816406 107.066406 86.816406 107.070312 86.816406 C 107.21875 86.84375 107.367188 86.875 107.511719 86.90625 C 107.804688 86.960938 108.085938 87.015625 108.351562 87.066406 C 108.488281 87.097656 108.621094 87.125 108.75 87.152344 C 108.402344 86.957031 108.0625 86.761719 107.722656 86.578125 C 107.011719 86.203125 106.25 86 105.511719 85.695312 C 105.351562 85.628906 105.199219 85.550781 105.050781 85.472656 C 104.964844 85.449219 104.882812 85.429688 104.800781 85.410156 C 104.710938 85.386719 104.625 85.363281 104.535156 85.34375 C 104.445312 85.324219 104.355469 85.304688 104.265625 85.285156 C 104.082031 85.246094 103.902344 85.207031 103.714844 85.167969 C 103.347656 85.085938 102.96875 85.023438 102.585938 84.957031 C 102.394531 84.921875 102.203125 84.890625 102.011719 84.859375 C 101.816406 84.832031 101.621094 84.804688 101.421875 84.777344 C 101.226562 84.75 101.03125 84.722656 100.832031 84.695312 C 100.632812 84.675781 100.433594 84.65625 100.234375 84.636719 C 100.035156 84.617188 99.835938 84.59375 99.632812 84.578125 L 99.03125 84.535156 C 98.226562 84.480469 97.417969 84.460938 96.621094 84.46875 C 95.828125 84.480469 95.046875 84.515625 94.292969 84.589844 C 93.535156 84.652344 92.8125 84.765625 92.128906 84.878906 C 91.445312 85.007812 90.804688 85.148438 90.21875 85.308594 C 89.636719 85.46875 89.105469 85.632812 88.644531 85.804688 C 88.183594 85.972656 87.789062 86.140625 87.472656 86.289062 C 87.152344 86.433594 86.90625 86.566406 86.742188 86.65625 C 86.578125 86.75 86.496094 86.804688 86.496094 86.804688 C 86.496094 86.804688 86.59375 86.773438 86.769531 86.722656 C 86.949219 86.664062 87.214844 86.597656 87.550781 86.511719 C 87.886719 86.425781 88.296875 86.34375 88.769531 86.25 C 89.242188 86.15625 89.777344 86.074219 90.359375 85.988281 C 90.941406 85.90625 91.578125 85.839844 92.246094 85.777344 C 92.917969 85.726562 93.625 85.675781 94.359375 85.65625 C 94.726562 85.640625 95.097656 85.640625 95.476562 85.632812 C 95.664062 85.628906 95.855469 85.632812 96.042969 85.632812 C 96.234375 85.636719 96.425781 85.632812 96.621094 85.636719 C 97.390625 85.65625 98.171875 85.679688 98.953125 85.738281 L 99.539062 85.773438 C 99.734375 85.789062 99.925781 85.808594 100.121094 85.824219 C 100.316406 85.84375 100.511719 85.859375 100.703125 85.875 C 100.898438 85.898438 101.089844 85.917969 101.28125 85.9375 C 101.664062 85.980469 102.046875 86.023438 102.421875 86.074219 C 102.796875 86.121094 103.167969 86.167969 103.53125 86.222656 C 103.894531 86.277344 104.253906 86.324219 104.605469 86.386719 C 104.957031 86.445312 105.300781 86.5 105.632812 86.554688 C 105.832031 86.589844 106.023438 86.625 106.214844 86.660156 C 106.171875 86.652344 106.125 86.644531 106.078125 86.636719 C 105.863281 86.601562 105.644531 86.5625 105.425781 86.527344 C 105.207031 86.496094 104.984375 86.464844 104.765625 86.4375 C 104.542969 86.40625 104.320312 86.375 104.097656 86.347656 C 103.871094 86.324219 103.648438 86.300781 103.421875 86.277344 C 103.195312 86.253906 102.96875 86.230469 102.742188 86.210938 L 102.0625 86.160156 C 101.15625 86.101562 100.242188 86.078125 99.347656 86.085938 C 98.449219 86.097656 97.566406 86.136719 96.714844 86.214844 C 96.503906 86.238281 96.292969 86.257812 96.082031 86.277344 C 95.875 86.304688 95.667969 86.328125 95.464844 86.355469 C 95.261719 86.378906 95.058594 86.410156 94.859375 86.441406 C 94.664062 86.472656 94.464844 86.5 94.273438 86.535156 C 93.503906 86.675781 92.777344 86.832031 92.117188 87.007812 C 91.457031 87.183594 90.859375 87.363281 90.339844 87.554688 C 89.816406 87.742188 89.371094 87.925781 89.007812 88.089844 C 88.644531 88.253906 88.371094 88.398438 88.183594 88.5 C 88 88.605469 87.902344 88.664062 87.902344 88.664062 C 87.902344 88.664062 88.011719 88.628906 88.210938 88.5625 C 88.410156 88.5 88.710938 88.417969 89.089844 88.316406 C 89.464844 88.214844 89.933594 88.113281 90.464844 88 C 90.996094 87.890625 91.597656 87.789062 92.257812 87.6875 " fill-opacity="1" fill-rule="nonzero"/><path fill="#6b3e0a" d="M 94.117188 89.222656 C 94.777344 89.125 95.492188 89.042969 96.25 88.96875 C 97.011719 88.90625 97.8125 88.84375 98.640625 88.816406 C 99.054688 88.796875 99.480469 88.796875 99.90625 88.785156 C 100.121094 88.78125 100.335938 88.789062 100.550781 88.789062 C 100.765625 88.789062 100.984375 88.785156 101.203125 88.789062 C 102.074219 88.8125 102.957031 88.835938 103.84375 88.902344 L 104.507812 88.945312 C 104.726562 88.960938 104.945312 88.984375 105.167969 89.003906 C 105.386719 89.023438 105.605469 89.042969 105.824219 89.0625 C 106.042969 89.085938 106.261719 89.109375 106.480469 89.132812 C 106.695312 89.160156 106.914062 89.183594 107.128906 89.207031 C 107.34375 89.234375 107.554688 89.261719 107.769531 89.289062 C 108.195312 89.347656 108.613281 89.398438 109.027344 89.464844 C 109.4375 89.53125 109.84375 89.585938 110.238281 89.65625 C 110.636719 89.722656 111.023438 89.789062 111.402344 89.855469 C 111.777344 89.925781 112.144531 89.996094 112.5 90.0625 C 112.675781 90.097656 112.851562 90.128906 113.023438 90.160156 C 113.164062 90.191406 113.601562 90.496094 113.738281 90.523438 C 113.28125 90.292969 112.539062 89.804688 112.128906 89.484375 C 112.035156 89.414062 111.976562 89.324219 111.949219 89.234375 C 111.628906 89.160156 111.339844 89.015625 111.070312 88.835938 C 110.863281 88.785156 110.652344 88.730469 110.433594 88.679688 C 110.335938 88.652344 110.234375 88.628906 110.136719 88.605469 C 110.035156 88.585938 109.933594 88.5625 109.832031 88.542969 C 109.625 88.5 109.417969 88.457031 109.210938 88.410156 C 108.796875 88.316406 108.367188 88.25 107.9375 88.175781 C 107.71875 88.136719 107.503906 88.101562 107.285156 88.0625 C 107.066406 88.03125 106.84375 88.003906 106.621094 87.972656 C 106.398438 87.941406 106.179688 87.914062 105.953125 87.882812 C 105.730469 87.859375 105.503906 87.835938 105.28125 87.8125 C 105.054688 87.792969 104.828125 87.765625 104.601562 87.746094 L 103.921875 87.699219 C 103.011719 87.636719 102.101562 87.617188 101.203125 87.621094 C 100.308594 87.632812 99.425781 87.671875 98.574219 87.753906 C 98.359375 87.773438 98.148438 87.792969 97.941406 87.8125 C 97.734375 87.839844 97.527344 87.867188 97.324219 87.890625 C 97.117188 87.917969 96.917969 87.945312 96.71875 87.976562 C 96.519531 88.007812 96.324219 88.039062 96.132812 88.070312 C 95.359375 88.210938 94.636719 88.367188 93.976562 88.542969 C 93.316406 88.722656 92.71875 88.902344 92.195312 89.089844 C 91.675781 89.277344 91.226562 89.460938 90.867188 89.628906 C 90.503906 89.789062 90.230469 89.9375 90.042969 90.039062 C 89.855469 90.140625 89.761719 90.203125 89.761719 90.203125 C 89.761719 90.203125 89.867188 90.164062 90.070312 90.101562 C 90.269531 90.035156 90.570312 89.953125 90.945312 89.851562 C 91.324219 89.75 91.789062 89.648438 92.320312 89.539062 C 92.851562 89.425781 93.457031 89.324219 94.117188 89.222656 " fill-opacity="1" fill-rule="nonzero"/><path fill="#6b3e0a" d="M 80.144531 77.164062 L 86.382812 77.277344 L 83.179688 74.574219 Z M 86.890625 77.648438 C 86.886719 77.648438 86.886719 77.648438 86.886719 77.648438 L 79.660156 77.519531 C 79.585938 77.515625 79.519531 77.46875 79.492188 77.398438 C 79.46875 77.328125 79.488281 77.25 79.546875 77.199219 L 83.0625 74.199219 C 83.128906 74.140625 83.230469 74.140625 83.296875 74.199219 L 87.003906 77.328125 C 87.0625 77.378906 87.085938 77.460938 87.058594 77.53125 C 87.03125 77.601562 86.964844 77.648438 86.890625 77.648438 " fill-opacity="1" fill-rule="nonzero"/><path fill="#6b3e0a" d="M 80.296875 80.640625 L 79.933594 80.640625 L 79.933594 77.351562 L 80.296875 77.351562 L 80.296875 80.640625 " fill-opacity="1" fill-rule="nonzero"/><path fill="#6b3e0a" d="M 86.710938 80.640625 L 86.351562 80.640625 L 86.351562 77.472656 L 86.710938 77.472656 L 86.710938 80.640625 " fill-opacity="1" fill-rule="nonzero"/><path fill="#6b3e0a" d="M 76.730469 78.253906 C 76.664062 78.253906 76.601562 78.214844 76.566406 78.15625 C 76.53125 78.082031 76.546875 77.988281 76.609375 77.933594 L 78.695312 76.144531 C 78.710938 76.132812 78.726562 76.121094 78.746094 76.113281 L 83.25 74.285156 L 83.386719 74.621094 L 78.90625 76.4375 L 77.425781 77.710938 L 79.621094 77.160156 L 79.707031 77.511719 L 76.773438 78.246094 C 76.757812 78.25 76.742188 78.253906 76.730469 78.253906 " fill-opacity="1" fill-rule="nonzero"/><path fill="#6b3e0a" d="M 77.050781 78.464844 L 73.480469 78.464844 C 73.40625 78.464844 73.339844 78.421875 73.3125 78.351562 C 73.285156 78.285156 73.300781 78.207031 73.351562 78.15625 L 75.453125 76.054688 C 75.523438 75.980469 75.640625 75.980469 75.710938 76.054688 L 77.257812 77.597656 L 77 77.855469 L 75.582031 76.4375 L 73.917969 78.101562 L 77.050781 78.101562 L 77.050781 78.464844 " fill-opacity="1" fill-rule="nonzero"/><path fill="#6b3e0a" d="M 73.964844 81.394531 L 73.601562 81.394531 L 73.601562 78.285156 L 73.964844 78.285156 L 73.964844 81.394531 " fill-opacity="1" fill-rule="nonzero"/><path fill="#6b3e0a" d="M 84.859375 80.527344 L 82.203125 80.527344 L 82.203125 78.339844 L 84.859375 78.441406 L 84.859375 80.527344 " fill-opacity="1" fill-rule="nonzero"/><path fill="#6b3e0a" d="M 80.023438 80.652344 C 80.035156 80.652344 80.023438 80.652344 80 80.65625 C 80 80.660156 80.003906 80.65625 80.023438 80.652344 " fill-opacity="1" fill-rule="nonzero"/><path fill="#6b3e0a" d="M 79.589844 79.707031 L 79.160156 79.734375 L 79.160156 78.675781 L 79.589844 78.601562 Z M 78.933594 79.75 L 78.554688 79.773438 L 78.554688 78.777344 L 78.933594 78.714844 Z M 78.355469 79.785156 L 78.019531 79.808594 L 78.019531 78.871094 L 78.355469 78.8125 Z M 77.839844 79.820312 L 77.542969 79.839844 L 77.542969 78.953125 L 77.839844 78.898438 Z M 80.113281 80.140625 C 80.09375 79.648438 80.15625 77.484375 80.15625 77.484375 C 80.15625 77.484375 80.0625 77.191406 79.375 77.429688 C 78.691406 77.671875 77.542969 77.832031 77.542969 77.832031 C 77.542969 77.832031 77.117188 77.835938 77.082031 78.144531 C 77.046875 78.453125 77.09375 80.875 77.3125 80.917969 C 77.53125 80.960938 78.355469 80.863281 78.355469 80.863281 C 78.355469 80.863281 79.78125 80.679688 80 80.65625 C 80 80.640625 80.128906 80.539062 80.113281 80.140625 " fill-opacity="1" fill-rule="nonzero"/><path fill="#6b3e0a" d="M 76.226562 81.109375 L 74.625 81.109375 L 74.625 79.535156 L 76.226562 79.535156 L 76.226562 81.109375 " fill-opacity="1" fill-rule="nonzero"/><path fill="#6b3e0a" d="M 116.90625 78.636719 C 116.886719 78.429688 116.867188 78.226562 116.839844 78.019531 C 112.5 77.511719 108.171875 78.125 104.875 78.890625 C 100.148438 79.984375 96.554688 81.597656 95.925781 81.886719 C 92.589844 81.0625 89.125 80.5625 85.582031 80.402344 C 78.40625 80.078125 72.832031 81.238281 70.871094 81.722656 C 70.878906 81.925781 70.890625 82.132812 70.902344 82.335938 C 72.644531 81.898438 77.898438 80.761719 84.777344 80.976562 C 83.144531 81.792969 80.0625 83.785156 79.609375 87.347656 C 79.019531 91.988281 83.109375 97.503906 91.769531 103.757812 C 92.148438 103.792969 92.53125 103.816406 92.917969 103.835938 C 88.203125 100.511719 84.753906 97.371094 82.644531 94.492188 C 80.761719 91.917969 79.941406 89.539062 80.207031 87.425781 C 80.664062 83.804688 84.234375 81.878906 85.523438 81.296875 C 84.960938 81.71875 84.371094 82.332031 84.046875 83.191406 C 83.550781 84.511719 83.820312 86.0625 84.847656 87.796875 C 87.285156 91.914062 96.011719 98.539062 102.390625 102.257812 C 102.625 102.164062 102.859375 102.066406 103.089844 101.964844 C 96.757812 98.351562 87.816406 91.628906 85.363281 87.488281 C 84.4375 85.921875 84.183594 84.550781 84.613281 83.40625 C 85.210938 81.800781 86.992188 81.148438 87.132812 81.097656 C 94.644531 81.664062 104.828125 84.050781 114.324219 91.585938 C 114.421875 91.402344 114.511719 91.222656 114.605469 91.039062 C 110.367188 87.691406 105.683594 85.089844 100.648438 83.300781 C 99.410156 82.863281 98.148438 82.472656 96.867188 82.128906 C 98.226562 81.546875 101.253906 80.347656 105.011719 79.476562 C 108.289062 78.714844 112.605469 78.105469 116.90625 78.636719 " fill-opacity="1" fill-rule="nonzero"/><path fill="#6b3e0a" d="M 102.429688 99.339844 C 102.835938 99.230469 103.335938 99.117188 103.90625 98.992188 C 104.050781 98.960938 104.199219 98.933594 104.351562 98.902344 C 104.503906 98.875 104.660156 98.84375 104.824219 98.816406 C 105.148438 98.757812 105.488281 98.699219 105.839844 98.648438 C 106.550781 98.539062 107.324219 98.445312 108.140625 98.363281 C 108.40625 98.339844 108.679688 98.320312 108.953125 98.296875 C 109.371094 97.9375 109.777344 97.5625 110.167969 97.175781 C 110.101562 97.179688 110.035156 97.1875 109.96875 97.195312 C 109.746094 97.222656 109.523438 97.25 109.304688 97.277344 C 109.085938 97.300781 108.867188 97.332031 108.652344 97.367188 C 108.441406 97.398438 108.230469 97.429688 108.019531 97.464844 C 107.191406 97.613281 106.414062 97.777344 105.699219 97.964844 C 104.988281 98.152344 104.347656 98.347656 103.785156 98.550781 C 103.222656 98.746094 102.738281 98.941406 102.351562 99.117188 C 101.957031 99.289062 101.660156 99.445312 101.460938 99.550781 C 101.257812 99.660156 101.15625 99.726562 101.15625 99.726562 C 101.15625 99.726562 101.269531 99.683594 101.488281 99.613281 C 101.703125 99.542969 102.023438 99.453125 102.429688 99.339844 " fill-opacity="1" fill-rule="nonzero"/><path fill="#6b3e0a" d="M 107.019531 99.019531 C 106.308594 99.207031 105.664062 99.402344 105.105469 99.601562 C 104.542969 99.796875 104.058594 99.996094 103.667969 100.167969 C 103.277344 100.339844 102.980469 100.496094 102.78125 100.605469 C 102.578125 100.714844 102.476562 100.78125 102.476562 100.78125 C 102.476562 100.78125 102.589844 100.738281 102.808594 100.667969 C 103.023438 100.59375 103.34375 100.507812 103.75 100.394531 C 104.15625 100.28125 104.65625 100.171875 105.226562 100.046875 C 105.371094 100.015625 105.519531 99.984375 105.671875 99.953125 C 105.824219 99.925781 105.980469 99.898438 106.144531 99.867188 C 106.460938 99.8125 106.792969 99.757812 107.136719 99.703125 C 107.601562 99.378906 108.050781 99.039062 108.492188 98.683594 C 107.976562 98.785156 107.484375 98.898438 107.019531 99.019531 " fill-opacity="1" fill-rule="nonzero"/><path fill="#6b3e0a" d="M 109.101562 95.726562 C 108.871094 95.75 108.644531 95.769531 108.417969 95.792969 C 108.195312 95.820312 107.972656 95.847656 107.753906 95.875 C 107.535156 95.898438 107.316406 95.929688 107.105469 95.964844 C 106.890625 95.996094 106.679688 96.027344 106.472656 96.066406 C 105.640625 96.210938 104.863281 96.378906 104.152344 96.5625 C 103.441406 96.75 102.796875 96.945312 102.234375 97.148438 C 101.671875 97.34375 101.1875 97.539062 100.800781 97.714844 C 100.410156 97.886719 100.109375 98.042969 99.910156 98.148438 C 99.707031 98.257812 99.605469 98.324219 99.605469 98.324219 C 99.605469 98.324219 99.71875 98.28125 99.9375 98.210938 C 100.152344 98.140625 100.472656 98.050781 100.878906 97.9375 C 101.285156 97.828125 101.785156 97.714844 102.359375 97.589844 C 102.5 97.558594 102.648438 97.53125 102.800781 97.5 C 102.953125 97.472656 103.113281 97.441406 103.273438 97.414062 C 103.597656 97.355469 103.9375 97.300781 104.292969 97.246094 C 105 97.136719 105.773438 97.042969 106.589844 96.960938 C 107.410156 96.890625 108.273438 96.820312 109.167969 96.792969 C 109.617188 96.769531 110.070312 96.769531 110.53125 96.757812 C 110.546875 96.753906 110.566406 96.757812 110.582031 96.753906 C 110.941406 96.382812 111.289062 95.992188 111.621094 95.597656 C 110.761719 95.613281 109.917969 95.652344 109.101562 95.726562 " fill-opacity="1" fill-rule="nonzero"/><path fill="#6b3e0a" d="M 114.074219 91.617188 C 113.625 91.515625 113.167969 91.441406 112.703125 91.363281 C 112.46875 91.320312 112.234375 91.28125 112 91.242188 C 111.761719 91.210938 111.527344 91.179688 111.285156 91.144531 C 111.046875 91.113281 110.808594 91.082031 110.566406 91.050781 C 110.328125 91.023438 110.085938 91 109.84375 90.976562 C 109.597656 90.953125 109.355469 90.925781 109.113281 90.90625 L 108.378906 90.851562 C 107.402344 90.785156 106.421875 90.761719 105.457031 90.769531 C 104.492188 90.78125 103.539062 90.820312 102.625 90.90625 C 102.398438 90.929688 102.167969 90.949219 101.945312 90.96875 C 101.71875 90.996094 101.5 91.023438 101.277344 91.050781 C 101.058594 91.078125 100.84375 91.109375 100.628906 91.144531 C 100.414062 91.175781 100.203125 91.207031 99.996094 91.242188 C 99.167969 91.390625 98.386719 91.554688 97.675781 91.742188 C 96.964844 91.929688 96.320312 92.125 95.757812 92.328125 C 95.195312 92.523438 94.714844 92.71875 94.324219 92.894531 C 93.933594 93.066406 93.636719 93.21875 93.433594 93.328125 C 93.234375 93.4375 93.132812 93.503906 93.132812 93.503906 C 93.132812 93.503906 93.246094 93.460938 93.460938 93.390625 C 93.675781 93.320312 93.996094 93.230469 94.402344 93.117188 C 94.8125 93.003906 95.3125 92.894531 95.882812 92.769531 C 96.027344 92.738281 96.175781 92.710938 96.328125 92.679688 C 96.480469 92.648438 96.636719 92.621094 96.796875 92.59375 C 97.121094 92.535156 97.460938 92.476562 97.816406 92.425781 C 98.527344 92.3125 99.300781 92.222656 100.117188 92.140625 C 100.9375 92.070312 101.796875 92 102.695312 91.972656 C 103.140625 91.949219 103.597656 91.949219 104.058594 91.933594 C 104.285156 91.929688 104.519531 91.933594 104.75 91.933594 C 104.984375 91.9375 105.21875 91.929688 105.453125 91.9375 C 106.394531 91.957031 107.347656 91.984375 108.300781 92.054688 L 109.015625 92.101562 C 109.253906 92.121094 109.492188 92.144531 109.730469 92.164062 C 109.964844 92.1875 110.203125 92.207031 110.4375 92.230469 C 110.675781 92.257812 110.910156 92.28125 111.144531 92.308594 C 111.378906 92.335938 111.609375 92.359375 111.84375 92.386719 C 112.074219 92.417969 112.304688 92.449219 112.535156 92.476562 C 112.9375 92.53125 113.332031 92.585938 113.726562 92.644531 C 113.917969 92.320312 114.105469 91.992188 114.285156 91.660156 C 114.214844 91.644531 114.144531 91.628906 114.074219 91.617188 " fill-opacity="1" fill-rule="nonzero"/><path fill="#6b3e0a" d="M 112.824219 94.03125 C 111.925781 93.980469 111.03125 93.957031 110.148438 93.960938 C 109.183594 93.976562 108.230469 94.015625 107.316406 94.101562 C 107.085938 94.121094 106.859375 94.144531 106.636719 94.164062 C 106.410156 94.191406 106.1875 94.21875 105.96875 94.246094 C 105.75 94.273438 105.535156 94.304688 105.320312 94.335938 C 105.105469 94.371094 104.894531 94.402344 104.6875 94.4375 C 103.855469 94.585938 103.078125 94.75 102.367188 94.9375 C 101.65625 95.125 101.011719 95.320312 100.449219 95.519531 C 99.886719 95.714844 99.40625 95.910156 99.015625 96.085938 C 98.625 96.257812 98.324219 96.414062 98.125 96.523438 C 97.925781 96.632812 97.820312 96.699219 97.820312 96.699219 C 97.820312 96.699219 97.9375 96.65625 98.152344 96.585938 C 98.367188 96.511719 98.6875 96.425781 99.09375 96.3125 C 99.5 96.199219 100 96.089844 100.574219 95.964844 C 100.71875 95.933594 100.863281 95.902344 101.015625 95.871094 C 101.171875 95.84375 101.328125 95.816406 101.488281 95.785156 C 101.8125 95.730469 102.152344 95.671875 102.507812 95.617188 C 103.21875 95.507812 103.988281 95.417969 104.808594 95.335938 C 105.625 95.265625 106.488281 95.195312 107.382812 95.164062 C 107.832031 95.144531 108.289062 95.140625 108.746094 95.128906 C 108.976562 95.121094 109.210938 95.128906 109.441406 95.128906 C 109.675781 95.132812 109.910156 95.125 110.144531 95.132812 C 110.742188 95.144531 111.347656 95.160156 111.953125 95.191406 C 112.253906 94.8125 112.542969 94.425781 112.824219 94.03125 " fill-opacity="1" fill-rule="nonzero"/><path fill="#6b3e0a" d="M 113.277344 92.878906 C 113.039062 92.84375 112.796875 92.8125 112.558594 92.78125 C 112.316406 92.757812 112.074219 92.730469 111.832031 92.707031 C 111.589844 92.683594 111.347656 92.65625 111.101562 92.636719 L 110.371094 92.582031 C 109.390625 92.519531 108.410156 92.492188 107.445312 92.5 C 106.480469 92.511719 105.53125 92.550781 104.613281 92.636719 C 104.386719 92.660156 104.160156 92.679688 103.933594 92.703125 C 103.710938 92.730469 103.488281 92.757812 103.269531 92.785156 C 103.050781 92.808594 102.832031 92.839844 102.617188 92.875 C 102.40625 92.90625 102.191406 92.9375 101.984375 92.972656 C 101.15625 93.121094 100.375 93.285156 99.664062 93.472656 C 98.953125 93.660156 98.308594 93.855469 97.75 94.058594 C 97.183594 94.253906 96.703125 94.449219 96.3125 94.625 C 95.921875 94.796875 95.625 94.953125 95.425781 95.058594 C 95.222656 95.167969 95.121094 95.234375 95.121094 95.234375 C 95.121094 95.234375 95.234375 95.191406 95.449219 95.121094 C 95.667969 95.050781 95.988281 94.960938 96.394531 94.847656 C 96.800781 94.738281 97.300781 94.625 97.871094 94.5 C 98.015625 94.46875 98.164062 94.441406 98.316406 94.410156 C 98.46875 94.382812 98.625 94.351562 98.789062 94.324219 C 99.109375 94.265625 99.449219 94.207031 99.804688 94.15625 C 100.515625 94.042969 101.289062 93.953125 102.105469 93.871094 C 102.925781 93.800781 103.789062 93.730469 104.683594 93.703125 C 105.128906 93.679688 105.585938 93.679688 106.046875 93.664062 C 106.277344 93.660156 106.507812 93.667969 106.742188 93.664062 C 106.972656 93.667969 107.207031 93.664062 107.441406 93.667969 C 108.382812 93.691406 109.335938 93.714844 110.289062 93.785156 L 111.003906 93.832031 C 111.242188 93.851562 111.480469 93.875 111.71875 93.898438 C 111.957031 93.917969 112.191406 93.9375 112.429688 93.960938 C 112.566406 93.976562 112.703125 93.992188 112.839844 94.007812 C 113.089844 93.648438 113.332031 93.285156 113.558594 92.914062 C 113.464844 92.902344 113.371094 92.890625 113.277344 92.878906 " fill-opacity="1" fill-rule="nonzero"/><path fill="#6b3e0a" d="M 115.613281 88.050781 C 115.480469 87.929688 115.351562 87.800781 115.214844 87.683594 C 115.074219 87.5625 114.9375 87.445312 114.796875 87.324219 C 114.65625 87.207031 114.515625 87.085938 114.371094 86.964844 C 114.226562 86.847656 114.078125 86.734375 113.929688 86.617188 C 113.78125 86.5 113.632812 86.382812 113.480469 86.265625 C 113.328125 86.15625 113.171875 86.042969 113.019531 85.933594 C 112.863281 85.824219 112.707031 85.710938 112.550781 85.601562 L 112.070312 85.28125 C 111.425781 84.863281 110.757812 84.476562 110.089844 84.125 C 109.417969 83.777344 108.742188 83.457031 108.070312 83.191406 C 107.40625 82.917969 106.738281 82.703125 106.105469 82.515625 C 105.46875 82.339844 104.859375 82.199219 104.292969 82.101562 C 103.722656 82.007812 103.199219 81.941406 102.734375 81.910156 C 102.265625 81.878906 101.859375 81.878906 101.527344 81.886719 C 101.191406 81.894531 100.929688 81.925781 100.753906 81.945312 C 100.574219 81.96875 100.484375 81.988281 100.484375 81.988281 C 100.484375 81.988281 100.578125 82 100.753906 82.027344 C 100.925781 82.050781 101.183594 82.101562 101.503906 82.164062 C 101.824219 82.230469 102.207031 82.328125 102.644531 82.445312 C 103.082031 82.5625 103.566406 82.710938 104.09375 82.886719 C 104.617188 83.066406 105.175781 83.273438 105.761719 83.511719 C 106.34375 83.757812 106.953125 84.023438 107.566406 84.328125 C 107.878906 84.476562 108.183594 84.644531 108.5 84.804688 C 108.65625 84.882812 108.808594 84.972656 108.96875 85.058594 C 109.125 85.148438 109.28125 85.226562 109.4375 85.320312 C 110.0625 85.683594 110.691406 86.054688 111.300781 86.460938 L 111.765625 86.761719 C 111.917969 86.863281 112.066406 86.96875 112.214844 87.074219 C 112.367188 87.175781 112.515625 87.28125 112.667969 87.382812 C 112.8125 87.492188 112.960938 87.597656 113.105469 87.703125 C 113.253906 87.8125 113.398438 87.917969 113.542969 88.023438 C 113.6875 88.132812 113.828125 88.242188 113.96875 88.347656 C 114.109375 88.457031 114.25 88.5625 114.390625 88.667969 C 114.527344 88.777344 114.664062 88.886719 114.800781 88.996094 C 114.980469 89.136719 115.15625 89.28125 115.332031 89.421875 C 115.492188 89.023438 115.644531 88.621094 115.785156 88.210938 C 115.726562 88.15625 115.671875 88.101562 115.613281 88.050781 " fill-opacity="1" fill-rule="nonzero"/><path fill="#6b3e0a" d="M 116.578125 85.015625 C 116.421875 84.902344 116.269531 84.789062 116.109375 84.683594 L 115.632812 84.363281 C 114.988281 83.945312 114.320312 83.558594 113.652344 83.203125 C 112.980469 82.855469 112.304688 82.539062 111.632812 82.273438 C 110.964844 82 110.300781 81.785156 109.667969 81.597656 C 109.03125 81.417969 108.421875 81.28125 107.855469 81.183594 C 107.285156 81.085938 106.761719 81.023438 106.296875 80.992188 C 105.828125 80.960938 105.421875 80.957031 105.089844 80.96875 C 104.753906 80.976562 104.492188 81.007812 104.316406 81.027344 C 104.136719 81.050781 104.046875 81.070312 104.046875 81.070312 C 104.046875 81.070312 104.140625 81.082031 104.316406 81.109375 C 104.488281 81.132812 104.742188 81.183594 105.066406 81.246094 C 105.386719 81.3125 105.769531 81.410156 106.207031 81.523438 C 106.644531 81.640625 107.128906 81.792969 107.65625 81.96875 C 108.179688 82.144531 108.738281 82.355469 109.324219 82.59375 C 109.90625 82.839844 110.515625 83.105469 111.128906 83.410156 C 111.4375 83.558594 111.746094 83.722656 112.0625 83.882812 C 112.21875 83.964844 112.371094 84.054688 112.527344 84.140625 C 112.683594 84.226562 112.84375 84.308594 113 84.398438 C 113.625 84.765625 114.253906 85.136719 114.863281 85.542969 L 115.328125 85.839844 C 115.480469 85.941406 115.628906 86.050781 115.777344 86.152344 C 115.929688 86.257812 116.078125 86.359375 116.230469 86.464844 C 116.25 86.480469 116.269531 86.492188 116.289062 86.507812 C 116.414062 86.023438 116.519531 85.535156 116.613281 85.039062 C 116.601562 85.03125 116.589844 85.023438 116.578125 85.015625 " fill-opacity="1" fill-rule="nonzero"/><path fill="#6b3e0a" d="M 115.195312 81.355469 C 114.527344 81.082031 113.863281 80.867188 113.230469 80.679688 C 112.59375 80.5 111.984375 80.363281 111.414062 80.261719 C 110.847656 80.167969 110.324219 80.101562 109.859375 80.074219 C 109.390625 80.042969 108.984375 80.039062 108.648438 80.050781 C 108.316406 80.058594 108.054688 80.085938 107.878906 80.109375 C 107.699219 80.128906 107.609375 80.152344 107.609375 80.152344 C 107.609375 80.152344 107.703125 80.164062 107.875 80.1875 C 108.050781 80.210938 108.304688 80.265625 108.625 80.328125 C 108.945312 80.390625 109.332031 80.492188 109.769531 80.605469 C 110.207031 80.722656 110.691406 80.875 111.21875 81.050781 C 111.742188 81.226562 112.300781 81.4375 112.886719 81.675781 C 113.46875 81.921875 114.078125 82.183594 114.691406 82.492188 C 115 82.640625 115.308594 82.804688 115.625 82.964844 C 115.78125 83.042969 115.933594 83.136719 116.089844 83.222656 C 116.246094 83.308594 116.40625 83.390625 116.5625 83.480469 C 116.652344 83.53125 116.742188 83.585938 116.832031 83.636719 C 116.890625 83.148438 116.933594 82.65625 116.964844 82.160156 C 116.375 81.859375 115.785156 81.585938 115.195312 81.355469 " fill-opacity="1" fill-rule="nonzero"/><path fill="#6b3e0a" d="M 114.976562 79.34375 C 114.410156 79.25 113.886719 79.183594 113.417969 79.152344 C 112.953125 79.121094 112.546875 79.121094 112.210938 79.132812 C 111.878906 79.140625 111.617188 79.167969 111.441406 79.1875 C 111.261719 79.210938 111.167969 79.230469 111.167969 79.230469 C 111.167969 79.230469 111.265625 79.242188 111.4375 79.269531 C 111.613281 79.292969 111.867188 79.347656 112.1875 79.410156 C 112.507812 79.472656 112.894531 79.570312 113.332031 79.6875 C 113.765625 79.804688 114.253906 79.957031 114.777344 80.128906 C 115.304688 80.308594 115.863281 80.519531 116.449219 80.757812 C 116.628906 80.835938 116.816406 80.914062 117.003906 80.996094 C 117.003906 80.921875 117.007812 80.851562 117.007812 80.78125 C 117.007812 80.457031 116.996094 80.136719 116.984375 79.820312 C 116.921875 79.800781 116.855469 79.777344 116.792969 79.761719 C 116.15625 79.582031 115.542969 79.445312 114.976562 79.34375 " fill-opacity="1" fill-rule="nonzero"/><path fill="#6b3e0a" d="M 73.859375 81.214844 C 73.832031 80.625 73.808594 80.03125 73.78125 79.441406 C 73.78125 79.398438 73.777344 79.351562 73.746094 79.320312 C 73.722656 79.292969 73.683594 79.285156 73.648438 79.285156 C 73.5 79.273438 73.355469 79.363281 73.292969 79.496094 C 73.179688 79.375 72.972656 79.367188 72.828125 79.457031 C 72.6875 79.546875 72.605469 79.710938 72.585938 79.878906 C 72.628906 79.707031 72.507812 79.511719 72.335938 79.472656 C 72.164062 79.433594 71.96875 79.554688 71.933594 79.726562 C 71.957031 79.582031 71.902344 79.417969 71.777344 79.335938 C 71.652344 79.253906 71.46875 79.269531 71.375 79.386719 C 71.460938 79.117188 71.214844 78.808594 70.933594 78.8125 C 70.878906 79.460938 70.851562 80.117188 70.851562 80.78125 C 70.851562 80.761719 70.851562 80.742188 70.851562 80.71875 C 71.054688 80.667969 71.269531 80.617188 71.488281 80.574219 L 71.488281 80.132812 L 71.84375 80.132812 L 71.84375 80.507812 C 72.171875 80.449219 72.503906 80.398438 72.828125 80.359375 L 72.828125 79.792969 L 73.179688 79.792969 L 73.179688 80.316406 C 73.394531 80.292969 73.601562 80.269531 73.792969 80.253906 L 73.828125 80.613281 C 73.601562 80.632812 73.390625 80.65625 73.179688 80.679688 L 73.179688 81.515625 L 72.828125 81.515625 L 72.828125 80.722656 C 72.476562 80.765625 72.144531 80.816406 71.84375 80.871094 L 71.84375 81.738281 L 71.488281 81.738281 L 71.488281 80.941406 C 71.261719 80.988281 71.050781 81.039062 70.855469 81.09375 C 70.859375 81.410156 70.867188 81.722656 70.886719 82.035156 C 70.902344 82.03125 70.921875 82.027344 70.941406 82.023438 C 71.871094 81.816406 72.804688 81.609375 73.734375 81.402344 C 73.765625 81.394531 73.796875 81.390625 73.820312 81.367188 C 73.859375 81.332031 73.863281 81.269531 73.859375 81.214844 " fill-opacity="1" fill-rule="nonzero"/><path fill="#6b3e0a" d="M 71.019531 83.582031 C 71.378906 83.269531 71.71875 83.011719 72.015625 82.808594 C 72.394531 82.558594 72.707031 82.375 72.921875 82.261719 C 73.140625 82.144531 73.257812 82.09375 73.257812 82.09375 C 73.257812 82.09375 73.132812 82.121094 72.894531 82.199219 C 72.660156 82.277344 72.316406 82.398438 71.898438 82.601562 C 71.621094 82.738281 71.304688 82.90625 70.96875 83.121094 C 70.984375 83.273438 71.003906 83.429688 71.019531 83.582031 " fill-opacity="1" fill-rule="nonzero"/><path fill="#6b3e0a" d="M 71.238281 85.011719 C 71.339844 84.875 71.4375 84.738281 71.539062 84.605469 C 71.753906 84.335938 71.96875 84.082031 72.1875 83.859375 C 72.625 83.417969 73.046875 83.058594 73.410156 82.789062 C 73.777344 82.519531 74.078125 82.324219 74.289062 82.199219 C 74.5 82.078125 74.621094 82.019531 74.621094 82.019531 C 74.621094 82.019531 74.492188 82.050781 74.261719 82.140625 C 74.03125 82.226562 73.691406 82.363281 73.28125 82.589844 C 72.875 82.808594 72.386719 83.105469 71.878906 83.519531 C 71.625 83.726562 71.363281 83.957031 71.105469 84.21875 C 71.144531 84.484375 71.191406 84.75 71.238281 85.011719 " fill-opacity="1" fill-rule="nonzero"/><path fill="#6b3e0a" d="M 71.757812 87.210938 C 71.972656 86.449219 72.292969 85.761719 72.667969 85.167969 C 72.765625 85.007812 72.875 84.859375 72.976562 84.710938 C 73.089844 84.566406 73.195312 84.425781 73.304688 84.292969 C 73.527344 84.027344 73.75 83.78125 73.980469 83.566406 C 74.429688 83.136719 74.863281 82.796875 75.234375 82.539062 C 75.609375 82.28125 75.917969 82.09375 76.136719 81.980469 C 76.351562 81.859375 76.46875 81.804688 76.46875 81.804688 C 76.46875 81.804688 76.339844 81.835938 76.105469 81.914062 C 75.875 81.996094 75.53125 82.121094 75.113281 82.332031 C 74.699219 82.539062 74.203125 82.820312 73.679688 83.21875 C 73.160156 83.613281 72.597656 84.113281 72.097656 84.765625 C 71.851562 85.085938 71.617188 85.441406 71.40625 85.828125 C 71.511719 86.292969 71.628906 86.753906 71.757812 87.210938 " fill-opacity="1" fill-rule="nonzero"/><path fill="#6b3e0a" d="M 73.496094 91.511719 C 73.480469 91.449219 73.464844 91.386719 73.449219 91.324219 C 73.425781 91.207031 73.394531 91.09375 73.371094 90.980469 C 73.351562 90.863281 73.335938 90.746094 73.316406 90.632812 C 73.167969 89.714844 73.15625 88.8125 73.285156 87.972656 C 73.417969 87.132812 73.6875 86.363281 74.027344 85.691406 C 74.105469 85.519531 74.207031 85.363281 74.292969 85.203125 C 74.390625 85.054688 74.480469 84.902344 74.578125 84.757812 C 74.777344 84.472656 74.976562 84.207031 75.183594 83.972656 C 75.589844 83.503906 75.988281 83.121094 76.335938 82.832031 C 76.6875 82.539062 76.976562 82.324219 77.179688 82.1875 C 77.382812 82.050781 77.496094 81.984375 77.496094 81.984375 C 77.496094 81.984375 77.371094 82.027344 77.144531 82.128906 C 76.921875 82.234375 76.589844 82.390625 76.199219 82.636719 C 75.804688 82.882812 75.335938 83.207031 74.851562 83.652344 C 74.371094 84.097656 73.859375 84.648438 73.421875 85.34375 C 72.984375 86.039062 72.613281 86.867188 72.398438 87.796875 C 72.332031 88.09375 72.28125 88.394531 72.246094 88.703125 C 72.601562 89.671875 73.019531 90.609375 73.496094 91.511719 " fill-opacity="1" fill-rule="nonzero"/><path fill="#6b3e0a" d="M 78.144531 82.34375 C 77.75 82.589844 77.28125 82.914062 76.796875 83.359375 C 76.316406 83.804688 75.804688 84.355469 75.367188 85.050781 C 74.929688 85.746094 74.558594 86.574219 74.34375 87.507812 C 74.132812 88.4375 74.082031 89.457031 74.203125 90.484375 C 74.21875 90.613281 74.234375 90.738281 74.25 90.871094 C 74.265625 91 74.296875 91.125 74.320312 91.253906 C 74.34375 91.382812 74.371094 91.511719 74.394531 91.640625 C 74.421875 91.769531 74.460938 91.894531 74.492188 92.023438 C 74.5625 92.28125 74.625 92.539062 74.714844 92.789062 C 74.757812 92.914062 74.800781 93.042969 74.84375 93.167969 L 74.910156 93.359375 L 74.984375 93.542969 C 75.089844 93.789062 75.1875 94.039062 75.296875 94.285156 C 75.34375 94.390625 75.394531 94.496094 75.445312 94.601562 C 76.457031 95.949219 77.609375 97.183594 78.882812 98.277344 C 78.390625 97.480469 77.90625 96.660156 77.449219 95.832031 C 77.320312 95.609375 77.195312 95.382812 77.070312 95.152344 L 76.886719 94.804688 L 76.769531 94.589844 L 76.75 94.554688 L 76.707031 94.46875 C 76.597656 94.242188 76.484375 94.015625 76.371094 93.792969 C 76.265625 93.566406 76.171875 93.335938 76.070312 93.109375 L 75.996094 92.9375 L 75.933594 92.761719 C 75.890625 92.648438 75.847656 92.53125 75.804688 92.417969 C 75.714844 92.191406 75.648438 91.957031 75.578125 91.726562 C 75.546875 91.609375 75.503906 91.496094 75.476562 91.378906 C 75.449219 91.261719 75.421875 91.144531 75.398438 91.03125 C 75.371094 90.914062 75.339844 90.800781 75.320312 90.683594 C 75.300781 90.570312 75.28125 90.453125 75.261719 90.339844 C 75.113281 89.421875 75.101562 88.519531 75.230469 87.679688 C 75.363281 86.839844 75.632812 86.070312 75.972656 85.398438 C 76.054688 85.226562 76.152344 85.070312 76.238281 84.910156 C 76.335938 84.757812 76.429688 84.609375 76.523438 84.464844 C 76.722656 84.179688 76.921875 83.914062 77.128906 83.679688 C 77.539062 83.210938 77.9375 82.828125 78.28125 82.539062 C 78.632812 82.246094 78.921875 82.03125 79.125 81.898438 C 79.328125 81.757812 79.441406 81.691406 79.441406 81.691406 C 79.441406 81.691406 79.316406 81.734375 79.089844 81.835938 C 78.867188 81.941406 78.535156 82.097656 78.144531 82.34375 " fill-opacity="1" fill-rule="nonzero"/><path fill="#6b3e0a" d="M 83.234375 100.84375 C 83.082031 100.652344 82.9375 100.453125 82.785156 100.257812 C 82.636719 100.0625 82.488281 99.863281 82.339844 99.660156 C 82.191406 99.460938 82.042969 99.257812 81.898438 99.050781 C 81.75 98.84375 81.597656 98.640625 81.453125 98.429688 C 80.867188 97.597656 80.289062 96.730469 79.742188 95.859375 C 79.601562 95.644531 79.464844 95.425781 79.328125 95.199219 L 79.121094 94.867188 L 79.019531 94.699219 L 78.992188 94.65625 L 78.972656 94.621094 L 78.925781 94.539062 C 78.800781 94.320312 78.675781 94.101562 78.550781 93.882812 C 78.433594 93.660156 78.328125 93.4375 78.214844 93.214844 L 78.128906 93.050781 L 78.058594 92.878906 C 78.007812 92.765625 77.960938 92.652344 77.910156 92.542969 C 77.804688 92.320312 77.730469 92.089844 77.644531 91.863281 C 77.605469 91.75 77.558594 91.636719 77.527344 91.523438 C 77.492188 91.40625 77.457031 91.292969 77.425781 91.179688 C 77.394531 91.066406 77.355469 90.953125 77.328125 90.839844 C 77.300781 90.722656 77.277344 90.609375 77.25 90.496094 C 77.050781 89.589844 76.988281 88.6875 77.074219 87.839844 C 77.160156 86.996094 77.386719 86.210938 77.6875 85.523438 C 77.757812 85.347656 77.847656 85.1875 77.925781 85.023438 C 78.015625 84.867188 78.097656 84.710938 78.1875 84.5625 C 78.367188 84.265625 78.554688 83.988281 78.746094 83.746094 C 79.128906 83.253906 79.503906 82.851562 79.835938 82.539062 C 80.167969 82.230469 80.445312 82 80.640625 81.851562 C 80.835938 81.703125 80.945312 81.632812 80.945312 81.632812 C 80.945312 81.632812 80.824219 81.679688 80.605469 81.792969 C 80.386719 81.910156 80.0625 82.085938 79.683594 82.351562 C 79.304688 82.621094 78.855469 82.972656 78.398438 83.441406 C 77.941406 83.914062 77.460938 84.492188 77.066406 85.210938 C 76.664062 85.929688 76.339844 86.777344 76.175781 87.71875 C 76.019531 88.660156 76.027344 89.679688 76.203125 90.699219 C 76.226562 90.824219 76.25 90.953125 76.269531 91.082031 C 76.292969 91.210938 76.332031 91.335938 76.363281 91.460938 C 76.394531 91.589844 76.425781 91.714844 76.460938 91.84375 C 76.492188 91.972656 76.539062 92.09375 76.578125 92.222656 C 76.660156 92.472656 76.738281 92.726562 76.84375 92.972656 C 76.894531 93.097656 76.941406 93.21875 76.992188 93.34375 L 77.070312 93.53125 L 77.15625 93.710938 C 77.269531 93.953125 77.382812 94.195312 77.503906 94.4375 C 77.632812 94.671875 77.765625 94.90625 77.894531 95.144531 L 77.945312 95.230469 L 77.972656 95.28125 L 77.996094 95.320312 L 78.300781 95.824219 C 78.433594 96.046875 78.574219 96.273438 78.71875 96.5 C 79.289062 97.398438 79.878906 98.273438 80.503906 99.113281 C 80.730469 99.425781 80.960938 99.726562 81.195312 100.027344 C 82.011719 100.566406 82.859375 101.058594 83.742188 101.492188 C 83.574219 101.277344 83.402344 101.0625 83.234375 100.84375 " fill-opacity="1" fill-rule="nonzero"/><path fill="#6b3e0a" d="M 87.761719 102.53125 C 87.128906 101.90625 86.46875 101.242188 85.808594 100.539062 C 85.472656 100.1875 85.144531 99.824219 84.8125 99.460938 C 84.484375 99.085938 84.152344 98.710938 83.828125 98.324219 C 83.183594 97.550781 82.550781 96.746094 81.96875 95.910156 C 81.386719 95.078125 80.855469 94.214844 80.394531 93.335938 C 80.167969 92.894531 79.960938 92.449219 79.777344 92.003906 C 79.691406 91.777344 79.601562 91.554688 79.527344 91.332031 C 79.445312 91.109375 79.378906 90.882812 79.308594 90.660156 C 79.183594 90.210938 79.089844 89.765625 79.019531 89.324219 C 78.953125 88.882812 78.925781 88.449219 78.921875 88.027344 C 78.921875 87.179688 79.0625 86.382812 79.292969 85.671875 C 79.527344 84.964844 79.847656 84.347656 80.1875 83.832031 C 80.53125 83.320312 80.882812 82.898438 81.195312 82.578125 C 81.511719 82.257812 81.78125 82.019531 81.972656 81.871094 C 82.160156 81.71875 82.269531 81.644531 82.269531 81.644531 C 82.269531 81.644531 82.148438 81.695312 81.933594 81.8125 C 81.71875 81.933594 81.402344 82.117188 81.039062 82.398438 C 80.671875 82.679688 80.242188 83.054688 79.820312 83.554688 C 79.398438 84.050781 78.972656 84.671875 78.644531 85.421875 C 78.316406 86.171875 78.085938 87.046875 78.019531 87.988281 C 77.984375 88.460938 77.992188 88.945312 78.03125 89.441406 C 78.078125 89.933594 78.164062 90.429688 78.277344 90.925781 C 78.515625 91.917969 78.878906 92.910156 79.351562 93.859375 C 79.816406 94.808594 80.375 95.726562 80.980469 96.601562 C 81.59375 97.472656 82.253906 98.304688 82.941406 99.085938 C 83.625 99.871094 84.335938 100.605469 85.046875 101.289062 C 85.398438 101.636719 85.753906 101.964844 86.105469 102.285156 C 86.238281 102.402344 86.371094 102.519531 86.5 102.636719 C 87.140625 102.855469 87.792969 103.042969 88.457031 103.203125 C 88.226562 102.984375 87.996094 102.761719 87.761719 102.53125 " fill-opacity="1" fill-rule="nonzero"/><path fill="#6b3e0a" d="M 114.289062 90.929688 C 114.035156 90.921875 113.820312 90.753906 113.738281 90.523438 C 113.597656 90.492188 113.460938 90.457031 113.316406 90.421875 C 113.210938 90.394531 113.101562 90.371094 112.996094 90.34375 C 112.886719 90.320312 112.777344 90.296875 112.664062 90.273438 C 112.445312 90.230469 112.222656 90.183594 112 90.136719 C 111.550781 90.039062 111.09375 89.960938 110.625 89.882812 C 110.394531 89.84375 110.160156 89.804688 109.925781 89.765625 C 109.6875 89.734375 109.449219 89.699219 109.210938 89.667969 C 108.972656 89.636719 108.734375 89.605469 108.492188 89.570312 C 108.25 89.546875 108.007812 89.523438 107.765625 89.496094 C 107.523438 89.472656 107.28125 89.445312 107.039062 89.425781 L 106.304688 89.375 C 105.328125 89.308594 104.347656 89.285156 103.382812 89.289062 C 102.417969 89.300781 101.464844 89.34375 100.550781 89.429688 C 100.320312 89.449219 100.09375 89.472656 99.871094 89.492188 C 99.644531 89.519531 99.425781 89.546875 99.203125 89.574219 C 98.984375 89.601562 98.769531 89.632812 98.554688 89.664062 C 98.339844 89.699219 98.128906 89.730469 97.921875 89.765625 C 97.089844 89.914062 96.3125 90.078125 95.601562 90.265625 C 94.890625 90.449219 94.246094 90.648438 93.683594 90.847656 C 93.121094 91.042969 92.640625 91.238281 92.25 91.414062 C 91.859375 91.585938 91.5625 91.742188 91.359375 91.851562 C 91.160156 91.960938 91.054688 92.023438 91.054688 92.023438 C 91.054688 92.023438 91.171875 91.984375 91.386719 91.914062 C 91.601562 91.839844 91.921875 91.75 92.328125 91.640625 C 92.734375 91.527344 93.238281 91.417969 93.808594 91.289062 C 93.953125 91.261719 94.097656 91.230469 94.253906 91.199219 C 94.40625 91.171875 94.5625 91.144531 94.722656 91.113281 C 95.046875 91.058594 95.386719 91 95.742188 90.945312 C 96.453125 90.835938 97.222656 90.746094 98.042969 90.664062 C 98.859375 90.589844 99.722656 90.523438 100.617188 90.492188 C 101.066406 90.46875 101.523438 90.46875 101.980469 90.457031 C 102.210938 90.449219 102.445312 90.457031 102.675781 90.457031 C 102.910156 90.457031 103.144531 90.453125 103.378906 90.457031 C 104.320312 90.480469 105.273438 90.507812 106.226562 90.578125 L 106.941406 90.625 C 107.179688 90.640625 107.417969 90.667969 107.652344 90.6875 C 107.890625 90.710938 108.128906 90.730469 108.363281 90.75 C 108.601562 90.777344 108.835938 90.804688 109.070312 90.832031 C 109.304688 90.855469 109.535156 90.882812 109.769531 90.910156 C 110 90.9375 110.230469 90.96875 110.457031 91 C 110.917969 91.058594 111.371094 91.117188 111.8125 91.191406 C 112.257812 91.261719 112.695312 91.320312 113.121094 91.398438 C 113.527344 91.46875 113.925781 91.539062 114.3125 91.605469 C 114.375 91.484375 114.4375 91.367188 114.5 91.246094 C 114.394531 91.167969 114.324219 91.054688 114.289062 90.929688 " fill-opacity="1" fill-rule="nonzero"/><path fill="#6b3e0a" d="M 106.039062 75.957031 C 106.007812 75.878906 105.972656 75.804688 105.960938 75.722656 C 105.953125 75.652344 105.964844 75.578125 105.96875 75.507812 C 105.980469 75.292969 105.921875 75.078125 105.8125 74.914062 C 105.78125 74.867188 105.746094 74.828125 105.726562 74.773438 C 105.707031 74.714844 105.710938 74.648438 105.710938 74.585938 C 105.699219 74.363281 105.601562 74.164062 105.519531 73.964844 C 105.40625 73.675781 105.324219 73.363281 105.28125 73.042969 C 105.242188 72.769531 105.226562 72.46875 105.078125 72.257812 C 105.078125 72.261719 105.074219 72.261719 105.074219 72.257812 C 104.925781 72.46875 104.90625 72.769531 104.871094 73.042969 C 104.828125 73.363281 104.746094 73.675781 104.628906 73.964844 C 104.550781 74.164062 104.453125 74.363281 104.441406 74.585938 C 104.4375 74.648438 104.441406 74.714844 104.421875 74.773438 C 104.40625 74.828125 104.371094 74.867188 104.339844 74.914062 C 104.226562 75.078125 104.171875 75.292969 104.183594 75.507812 C 104.1875 75.578125 104.199219 75.652344 104.191406 75.722656 C 104.179688 75.804688 104.140625 75.878906 104.113281 75.957031 C 104.054688 76.113281 104.035156 76.296875 104.0625 76.46875 C 104.078125 76.574219 104.113281 76.679688 104.117188 76.789062 C 104.121094 76.898438 104.097656 77.007812 104.082031 77.113281 C 104.039062 77.417969 104.097656 77.785156 104.320312 77.925781 C 104.421875 77.992188 104.542969 77.996094 104.65625 77.996094 C 104.78125 78 104.902344 78.003906 105.023438 78.003906 C 105.039062 78.003906 105.058594 78.003906 105.074219 78.003906 C 105.09375 78.003906 105.109375 78.003906 105.128906 78.003906 C 105.25 78.003906 105.371094 78 105.492188 77.996094 C 105.609375 77.996094 105.726562 77.992188 105.832031 77.925781 C 106.054688 77.785156 106.113281 77.417969 106.070312 77.113281 C 106.054688 77.007812 106.03125 76.898438 106.035156 76.789062 C 106.039062 76.679688 106.074219 76.574219 106.089844 76.46875 C 106.113281 76.296875 106.097656 76.113281 106.039062 75.957031 " fill-opacity="1" fill-rule="nonzero"/><path fill="#6b3e0a" d="M 105.226562 79.171875 L 104.921875 79.171875 L 104.921875 77.9375 L 105.226562 77.9375 L 105.226562 79.171875 " fill-opacity="1" fill-rule="nonzero"/><path fill="#6b3e0a" d="M 95.242188 77.773438 C 95.210938 77.695312 95.175781 77.621094 95.164062 77.539062 C 95.15625 77.46875 95.167969 77.394531 95.171875 77.324219 C 95.183594 77.113281 95.125 76.894531 95.015625 76.730469 C 94.984375 76.683594 94.949219 76.644531 94.929688 76.589844 C 94.910156 76.53125 94.914062 76.464844 94.914062 76.402344 C 94.902344 76.179688 94.804688 75.980469 94.722656 75.78125 C 94.609375 75.492188 94.527344 75.179688 94.484375 74.859375 C 94.445312 74.585938 94.429688 74.285156 94.28125 74.074219 C 94.28125 74.078125 94.277344 74.078125 94.277344 74.074219 C 94.128906 74.285156 94.109375 74.585938 94.074219 74.859375 C 94.03125 75.179688 93.949219 75.492188 93.832031 75.78125 C 93.753906 75.980469 93.65625 76.179688 93.644531 76.402344 C 93.640625 76.464844 93.644531 76.53125 93.625 76.589844 C 93.609375 76.644531 93.574219 76.683594 93.542969 76.730469 C 93.429688 76.894531 93.375 77.113281 93.386719 77.324219 C 93.390625 77.394531 93.402344 77.46875 93.394531 77.539062 C 93.382812 77.621094 93.34375 77.695312 93.316406 77.773438 C 93.257812 77.933594 93.238281 78.113281 93.265625 78.285156 C 93.28125 78.390625 93.3125 78.496094 93.320312 78.605469 C 93.324219 78.714844 93.300781 78.824219 93.285156 78.929688 C 93.242188 79.234375 93.300781 79.605469 93.523438 79.742188 C 93.625 79.808594 93.746094 79.8125 93.859375 79.8125 C 93.984375 79.816406 94.105469 79.820312 94.226562 79.820312 C 94.242188 79.820312 94.261719 79.820312 94.277344 79.820312 C 94.296875 79.820312 94.3125 79.820312 94.332031 79.820312 C 94.453125 79.820312 94.574219 79.816406 94.695312 79.8125 C 94.8125 79.8125 94.929688 79.808594 95.035156 79.742188 C 95.257812 79.605469 95.316406 79.234375 95.273438 78.929688 C 95.257812 78.824219 95.234375 78.714844 95.238281 78.605469 C 95.242188 78.496094 95.273438 78.390625 95.292969 78.285156 C 95.316406 78.113281 95.300781 77.933594 95.242188 77.773438 " fill-opacity="1" fill-rule="nonzero"/><path fill="#6b3e0a" d="M 94.429688 80.992188 L 94.125 80.992188 L 94.125 79.753906 L 94.429688 79.753906 L 94.429688 80.992188 " fill-opacity="1" fill-rule="nonzero"/><path fill="#6b3e0a" d="M 97.109375 79.003906 C 97.085938 78.945312 97.054688 78.886719 97.046875 78.816406 C 97.039062 78.761719 97.050781 78.703125 97.054688 78.648438 C 97.0625 78.476562 97.015625 78.304688 96.929688 78.171875 C 96.902344 78.136719 96.875 78.105469 96.863281 78.0625 C 96.847656 78.015625 96.847656 77.964844 96.847656 77.914062 C 96.835938 77.734375 96.757812 77.578125 96.695312 77.417969 C 96.605469 77.1875 96.539062 76.9375 96.503906 76.683594 C 96.476562 76.464844 96.460938 76.226562 96.34375 76.058594 C 96.34375 76.058594 96.339844 76.058594 96.339844 76.058594 C 96.222656 76.226562 96.207031 76.464844 96.179688 76.683594 C 96.144531 76.9375 96.078125 77.1875 95.988281 77.417969 C 95.925781 77.578125 95.847656 77.734375 95.835938 77.914062 C 95.835938 77.964844 95.835938 78.015625 95.820312 78.0625 C 95.808594 78.105469 95.78125 78.136719 95.753906 78.171875 C 95.667969 78.304688 95.621094 78.476562 95.628906 78.648438 C 95.632812 78.703125 95.644531 78.761719 95.636719 78.816406 C 95.628906 78.886719 95.597656 78.945312 95.574219 79.003906 C 95.527344 79.132812 95.515625 79.277344 95.535156 79.410156 C 95.546875 79.496094 95.574219 79.582031 95.578125 79.667969 C 95.582031 79.753906 95.5625 79.839844 95.550781 79.925781 C 95.515625 80.167969 95.5625 80.464844 95.738281 80.574219 C 95.820312 80.625 95.917969 80.628906 96.007812 80.628906 C 96.105469 80.632812 96.203125 80.632812 96.300781 80.636719 C 96.3125 80.636719 96.328125 80.636719 96.34375 80.636719 C 96.355469 80.636719 96.371094 80.636719 96.382812 80.636719 C 96.480469 80.632812 96.578125 80.632812 96.675781 80.628906 C 96.765625 80.628906 96.863281 80.625 96.945312 80.574219 C 97.121094 80.464844 97.167969 80.167969 97.132812 79.925781 C 97.121094 79.839844 97.101562 79.753906 97.105469 79.667969 C 97.109375 79.582031 97.136719 79.496094 97.148438 79.410156 C 97.167969 79.277344 97.15625 79.132812 97.109375 79.003906 " fill-opacity="1" fill-rule="nonzero"/><path fill="#6b3e0a" d="M 96.464844 81.566406 L 96.21875 81.566406 L 96.21875 80.582031 L 96.464844 80.582031 L 96.464844 81.566406 " fill-opacity="1" fill-rule="nonzero"/><path fill="#6b3e0a" d="M 78.460938 76.226562 C 78.441406 76.171875 78.414062 76.121094 78.40625 76.0625 C 78.402344 76.011719 78.410156 75.960938 78.410156 75.914062 C 78.421875 75.761719 78.378906 75.609375 78.300781 75.496094 C 78.28125 75.460938 78.253906 75.433594 78.242188 75.394531 C 78.230469 75.355469 78.230469 75.308594 78.230469 75.265625 C 78.222656 75.109375 78.152344 74.96875 78.097656 74.828125 C 78.015625 74.621094 77.960938 74.40625 77.929688 74.179688 C 77.902344 73.988281 77.890625 73.773438 77.785156 73.628906 C 77.785156 73.628906 77.785156 73.628906 77.78125 73.628906 C 77.679688 73.773438 77.667969 73.988281 77.640625 74.179688 C 77.609375 74.40625 77.550781 74.621094 77.472656 74.828125 C 77.414062 74.96875 77.347656 75.109375 77.339844 75.265625 C 77.335938 75.308594 77.339844 75.355469 77.324219 75.394531 C 77.3125 75.433594 77.289062 75.460938 77.265625 75.496094 C 77.1875 75.609375 77.148438 75.761719 77.15625 75.914062 C 77.160156 75.960938 77.167969 76.011719 77.160156 76.0625 C 77.152344 76.121094 77.128906 76.171875 77.109375 76.226562 C 77.066406 76.339844 77.054688 76.464844 77.070312 76.585938 C 77.082031 76.664062 77.105469 76.738281 77.109375 76.8125 C 77.113281 76.890625 77.097656 76.964844 77.085938 77.042969 C 77.054688 77.257812 77.097656 77.515625 77.253906 77.613281 C 77.324219 77.660156 77.410156 77.660156 77.492188 77.664062 C 77.578125 77.664062 77.664062 77.664062 77.75 77.667969 C 77.761719 77.667969 77.773438 77.667969 77.785156 77.667969 C 77.796875 77.667969 77.808594 77.667969 77.820312 77.667969 C 77.90625 77.664062 77.992188 77.664062 78.078125 77.664062 C 78.160156 77.660156 78.242188 77.660156 78.316406 77.613281 C 78.472656 77.515625 78.511719 77.257812 78.484375 77.042969 C 78.472656 76.964844 78.457031 76.890625 78.457031 76.8125 C 78.460938 76.738281 78.484375 76.664062 78.496094 76.585938 C 78.515625 76.464844 78.503906 76.339844 78.460938 76.226562 " fill-opacity="1" fill-rule="nonzero"/><path fill="#6b3e0a" d="M 77.890625 78.488281 L 77.675781 78.488281 L 77.675781 77.621094 L 77.890625 77.621094 L 77.890625 78.488281 " fill-opacity="1" fill-rule="nonzero"/><path fill="#6b3e0a" d="M 108.167969 75.492188 C 108.136719 75.414062 108.101562 75.339844 108.089844 75.257812 C 108.082031 75.1875 108.09375 75.113281 108.097656 75.042969 C 108.109375 74.828125 108.050781 74.613281 107.941406 74.449219 C 107.910156 74.402344 107.875 74.363281 107.855469 74.308594 C 107.835938 74.25 107.839844 74.183594 107.835938 74.121094 C 107.828125 73.898438 107.730469 73.699219 107.648438 73.5 C 107.535156 73.207031 107.453125 72.898438 107.410156 72.578125 C 107.371094 72.304688 107.355469 72.003906 107.207031 71.792969 C 107.207031 71.796875 107.203125 71.796875 107.203125 71.792969 C 107.054688 72.003906 107.035156 72.304688 107 72.578125 C 106.957031 72.898438 106.875 73.207031 106.757812 73.5 C 106.679688 73.699219 106.582031 73.898438 106.570312 74.121094 C 106.566406 74.183594 106.570312 74.25 106.550781 74.308594 C 106.535156 74.363281 106.5 74.402344 106.46875 74.449219 C 106.355469 74.613281 106.296875 74.828125 106.3125 75.042969 C 106.316406 75.113281 106.328125 75.1875 106.316406 75.257812 C 106.308594 75.339844 106.269531 75.414062 106.242188 75.492188 C 106.183594 75.648438 106.164062 75.832031 106.191406 76.003906 C 106.207031 76.109375 106.238281 76.214844 106.246094 76.324219 C 106.25 76.433594 106.222656 76.542969 106.210938 76.648438 C 106.167969 76.953125 106.226562 77.320312 106.449219 77.460938 C 106.550781 77.527344 106.671875 77.527344 106.785156 77.53125 C 106.910156 77.535156 107.03125 77.535156 107.152344 77.539062 C 107.167969 77.539062 107.1875 77.539062 107.203125 77.539062 C 107.222656 77.539062 107.238281 77.539062 107.253906 77.539062 C 107.378906 77.535156 107.5 77.535156 107.621094 77.53125 C 107.738281 77.527344 107.855469 77.527344 107.960938 77.460938 C 108.183594 77.320312 108.242188 76.953125 108.199219 76.648438 C 108.183594 76.542969 108.160156 76.433594 108.164062 76.324219 C 108.167969 76.214844 108.199219 76.109375 108.21875 76.003906 C 108.242188 75.832031 108.222656 75.648438 108.167969 75.492188 " fill-opacity="1" fill-rule="nonzero"/><path fill="#6b3e0a" d="M 107.355469 78.707031 L 107.050781 78.707031 L 107.050781 77.472656 L 107.355469 77.472656 L 107.355469 78.707031 " fill-opacity="1" fill-rule="nonzero"/><path fill="#6b3e0a" d="M 112.601562 75.863281 C 112.578125 75.808594 112.550781 75.753906 112.542969 75.691406 C 112.539062 75.640625 112.546875 75.589844 112.550781 75.535156 C 112.558594 75.378906 112.515625 75.21875 112.433594 75.097656 C 112.410156 75.066406 112.386719 75.035156 112.371094 74.996094 C 112.359375 74.953125 112.363281 74.90625 112.359375 74.859375 C 112.351562 74.695312 112.277344 74.550781 112.222656 74.402344 C 112.136719 74.1875 112.078125 73.960938 112.042969 73.726562 C 112.015625 73.523438 112.003906 73.304688 111.894531 73.152344 C 111.894531 73.152344 111.894531 73.152344 111.890625 73.152344 C 111.785156 73.304688 111.769531 73.523438 111.742188 73.726562 C 111.710938 73.960938 111.652344 74.1875 111.566406 74.402344 C 111.507812 74.550781 111.4375 74.695312 111.429688 74.859375 C 111.425781 74.90625 111.429688 74.953125 111.414062 74.996094 C 111.402344 75.035156 111.375 75.066406 111.355469 75.097656 C 111.273438 75.21875 111.230469 75.378906 111.238281 75.535156 C 111.242188 75.589844 111.25 75.640625 111.242188 75.691406 C 111.234375 75.753906 111.207031 75.808594 111.1875 75.863281 C 111.144531 75.980469 111.132812 76.113281 111.152344 76.238281 C 111.164062 76.320312 111.1875 76.394531 111.191406 76.476562 C 111.191406 76.554688 111.175781 76.636719 111.164062 76.714844 C 111.132812 76.9375 111.175781 77.207031 111.339844 77.3125 C 111.414062 77.359375 111.503906 77.359375 111.585938 77.363281 C 111.675781 77.363281 111.765625 77.367188 111.855469 77.367188 C 111.867188 77.367188 111.882812 77.367188 111.894531 77.367188 C 111.90625 77.367188 111.917969 77.367188 111.929688 77.367188 C 112.019531 77.367188 112.109375 77.363281 112.199219 77.363281 C 112.285156 77.359375 112.371094 77.359375 112.449219 77.3125 C 112.613281 77.207031 112.65625 76.9375 112.625 76.714844 C 112.613281 76.636719 112.59375 76.554688 112.597656 76.476562 C 112.601562 76.394531 112.625 76.320312 112.636719 76.238281 C 112.65625 76.113281 112.644531 75.980469 112.601562 75.863281 " fill-opacity="1" fill-rule="nonzero"/><path fill="#6b3e0a" d="M 112.007812 78.226562 L 111.78125 78.226562 L 111.78125 77.320312 L 112.007812 77.320312 L 112.007812 78.226562 " fill-opacity="1" fill-rule="nonzero"/><path fill="#6b3e0a" d="M 78.8125 76.28125 L 76.855469 77.984375 L 80.003906 77.175781 L 82.925781 74.707031 L 78.8125 76.28125 " fill-opacity="1" fill-rule="nonzero"/><path fill="#6b3e0a" d="M 88.015625 80.855469 C 88.402344 80.882812 88.789062 80.914062 89.175781 80.957031 L 89.175781 80.238281 C 88.726562 80.183594 88.328125 80.144531 88.015625 80.113281 L 88.015625 80.855469 " fill-opacity="1" fill-rule="nonzero"/><path fill="#6b3e0a" d="M 90.691406 80.441406 C 90.292969 80.378906 89.898438 80.324219 89.527344 80.277344 L 89.527344 80.996094 C 89.855469 81.03125 90.183594 81.074219 90.507812 81.117188 C 90.570312 81.125 90.628906 81.136719 90.691406 81.144531 L 90.691406 80.441406 " fill-opacity="1" fill-rule="nonzero"/><path fill="#6b3e0a" d="M 104.625 78.535156 C 104.382812 78.378906 104.101562 78.261719 103.8125 78.273438 C 103.523438 78.289062 103.230469 78.460938 103.140625 78.734375 C 102.914062 78.386719 102.464844 78.199219 102.0625 78.285156 C 101.65625 78.371094 101.375 78.648438 101.3125 79.058594 C 101.070312 78.933594 100.808594 78.8125 100.539062 78.847656 C 100.269531 78.882812 100.011719 79.136719 100.078125 79.402344 C 100.003906 79.257812 99.804688 79.195312 99.660156 79.273438 C 99.519531 79.347656 99.457031 79.550781 99.535156 79.691406 C 99.257812 79.339844 98.617188 79.40625 98.414062 79.804688 C 98.382812 79.40625 97.9375 79.179688 97.539062 79.128906 C 97.195312 79.082031 96.828125 79.117188 96.53125 79.300781 C 96.234375 79.480469 96.027344 79.832031 96.089844 80.175781 C 95.597656 79.449219 94.515625 79.203125 93.761719 79.652344 C 93.8125 79.277344 93.707031 78.871094 93.429688 78.609375 C 93.15625 78.347656 92.703125 78.269531 92.382812 78.476562 C 92.40625 78.191406 92.199219 77.902344 91.917969 77.835938 C 91.636719 77.769531 91.320312 77.933594 91.210938 78.199219 C 91.265625 77.929688 91.167969 77.621094 90.933594 77.480469 C 90.699219 77.339844 90.335938 77.441406 90.253906 77.703125 C 90.175781 77.398438 89.878906 77.179688 89.5625 77.132812 C 89.25 77.085938 88.929688 77.1875 88.65625 77.347656 C 88.214844 77.613281 87.855469 78.097656 87.925781 78.605469 C 87.601562 78.214844 86.925781 78.1875 86.578125 78.554688 C 86.546875 79.179688 86.472656 79.777344 86.503906 80.402344 C 86.507812 80.5 86.515625 80.609375 86.582031 80.6875 C 86.667969 80.785156 86.808594 80.792969 86.9375 80.796875 C 87.179688 80.804688 87.421875 80.816406 87.664062 80.832031 L 87.664062 80.082031 C 87.445312 80.0625 87.316406 80.054688 87.308594 80.054688 L 87.335938 79.695312 C 87.339844 79.695312 87.460938 79.703125 87.664062 79.71875 L 87.664062 79.175781 L 88.015625 79.175781 L 88.015625 79.75 C 88.328125 79.78125 88.726562 79.820312 89.175781 79.871094 L 89.175781 79.414062 L 89.527344 79.414062 L 89.527344 79.914062 C 89.898438 79.960938 90.292969 80.015625 90.691406 80.074219 L 90.691406 79.65625 L 91.042969 79.65625 L 91.042969 80.132812 C 91.4375 80.199219 91.828125 80.269531 92.203125 80.351562 L 92.203125 79.898438 L 92.558594 79.898438 L 92.558594 80.433594 C 92.769531 80.484375 92.972656 80.539062 93.167969 80.597656 L 93.066406 80.945312 C 92.902344 80.894531 92.734375 80.851562 92.558594 80.808594 L 92.558594 81.457031 C 92.8125 81.507812 93.0625 81.5625 93.316406 81.625 C 93.585938 81.6875 93.882812 81.765625 94.15625 81.734375 C 94.648438 81.828125 95.140625 81.917969 95.632812 82.011719 C 95.820312 82.046875 96.015625 82.082031 96.203125 82.058594 C 96.371094 82.039062 96.527344 81.976562 96.683594 81.914062 C 98.097656 81.351562 99.472656 80.691406 100.902344 80.167969 C 102.332031 79.640625 103.828125 79.246094 105.351562 79.242188 C 105.160156 78.960938 104.910156 78.71875 104.625 78.535156 " fill-opacity="1" fill-rule="nonzero"/><path fill="#6b3e0a" d="M 91.042969 81.195312 C 91.433594 81.253906 91.820312 81.316406 92.203125 81.390625 L 92.203125 80.722656 C 91.832031 80.640625 91.4375 80.566406 91.042969 80.5 L 91.042969 81.195312 " fill-opacity="1" fill-rule="nonzero"/><path fill="#6b3e0a" d="M 116.4375 75.667969 C 116.074219 75.433594 115.59375 75.402344 115.179688 75.539062 C 114.738281 75.679688 114.363281 75.992188 114.066406 76.351562 C 114.09375 76.007812 113.609375 75.824219 113.304688 75.984375 C 113.003906 76.144531 112.855469 76.492188 112.730469 76.808594 C 112.730469 76.636719 112.726562 76.453125 112.621094 76.316406 C 112.511719 76.1875 112.253906 76.175781 112.195312 76.335938 C 112.210938 76.535156 112.226562 76.738281 112.242188 76.941406 C 112.011719 76.242188 111.140625 75.875 110.441406 76.097656 C 109.742188 76.320312 109.253906 77.019531 109.164062 77.746094 C 108.867188 77.4375 108.28125 77.5 108.058594 77.867188 C 107.625 77.609375 106.976562 77.90625 106.886719 78.398438 C 106.855469 78.578125 106.910156 78.796875 107.078125 78.863281 C 107.15625 78.894531 107.246094 78.886719 107.328125 78.875 C 107.910156 78.792969 108.457031 78.566406 109.023438 78.410156 C 109.890625 78.171875 110.800781 78.113281 111.703125 78.085938 C 113.425781 78.03125 115.148438 78.082031 116.867188 78.234375 C 116.769531 77.363281 116.625 76.507812 116.4375 75.667969 " fill-opacity="1" fill-rule="nonzero"/><path fill="#6b3e0a" d="M 88.84375 80.539062 L 88.082031 73.542969 L 87.949219 73.542969 L 87.1875 80.539062 L 86.828125 80.5 L 87.605469 73.34375 C 87.617188 73.25 87.695312 73.183594 87.785156 73.183594 L 88.246094 73.183594 C 88.335938 73.183594 88.414062 73.25 88.425781 73.34375 L 89.203125 80.5 L 88.84375 80.539062 " fill-opacity="1" fill-rule="nonzero"/><path fill="#6b3e0a" d="M 88.855469 76.4375 L 87.175781 76.4375 L 87.175781 76.074219 L 88.855469 76.074219 L 88.855469 76.4375 " fill-opacity="1" fill-rule="nonzero"/><path fill="#6b3e0a" d="M 88.238281 73.128906 L 87.910156 73.058594 L 88.011719 71.117188 L 88.953125 71.324219 L 88.238281 73.128906 " fill-opacity="1" fill-rule="nonzero"/><path fill="#6b3e0a" d="M 87.789062 73.59375 L 88.121094 73.667969 L 88.019531 75.609375 L 87.078125 75.402344 L 87.789062 73.59375 " fill-opacity="1" fill-rule="nonzero"/><path fill="#6b3e0a" d="M 88.25 73.585938 L 88.320312 73.253906 L 90.261719 73.359375 L 90.054688 74.300781 L 88.25 73.585938 " fill-opacity="1" fill-rule="nonzero"/><path fill="#6b3e0a" d="M 87.78125 73.136719 L 87.710938 73.46875 L 85.769531 73.367188 L 85.976562 72.425781 L 87.78125 73.136719 " fill-opacity="1" fill-rule="nonzero"/><path fill="#6b3e0a" d="M 88.339844 73.355469 L 88.15625 73.070312 L 89.601562 71.773438 L 90.121094 72.582031 L 88.339844 73.355469 " fill-opacity="1" fill-rule="nonzero"/><path fill="#6b3e0a" d="M 87.691406 73.367188 L 87.875 73.652344 L 86.429688 74.953125 L 85.910156 74.140625 L 87.691406 73.367188 " fill-opacity="1" fill-rule="nonzero"/><path fill="#6b3e0a" d="M 88.019531 73.6875 L 88.308594 73.503906 L 89.605469 74.949219 L 88.792969 75.46875 L 88.019531 73.6875 " fill-opacity="1" fill-rule="nonzero"/><path fill="#6b3e0a" d="M 88.007812 73.039062 L 87.722656 73.222656 L 86.425781 71.777344 L 87.234375 71.257812 L 88.007812 73.039062 " fill-opacity="1" fill-rule="nonzero"/><path fill="#6b3e0a" d="M 88.347656 73.433594 C 88.304688 73.617188 88.125 73.734375 87.941406 73.691406 C 87.761719 73.652344 87.644531 73.472656 87.683594 73.289062 C 87.726562 73.109375 87.90625 72.992188 88.085938 73.03125 C 88.269531 73.070312 88.386719 73.253906 88.347656 73.433594 " fill-opacity="1" fill-rule="nonzero"/><path fill="#6b3e0a" d="M 73.964844 69.195312 C 74.074219 69.246094 74.1875 69.28125 74.300781 69.308594 C 74.816406 69.417969 75.425781 69.328125 75.886719 69.070312 C 76.214844 68.890625 76.511719 68.648438 76.871094 68.523438 C 77.285156 68.375 77.742188 68.367188 78.164062 68.234375 C 78.707031 68.0625 79.113281 67.691406 79.625 67.476562 C 79.910156 67.355469 80.230469 67.300781 80.539062 67.308594 C 80.976562 67.320312 81.253906 67.589844 81.640625 67.75 C 82.355469 68.050781 83.195312 68.050781 83.90625 67.730469 C 84.335938 67.535156 84.710938 67.234375 85.128906 67 C 87.074219 65.914062 89.535156 66.5 91.664062 65.832031 C 90.203125 65.738281 88.746094 65.648438 87.285156 65.554688 C 86.421875 65.5 85.539062 65.4375 84.761719 65.058594 C 84.398438 64.886719 84.066406 64.644531 83.679688 64.53125 C 83.324219 64.429688 82.9375 64.449219 82.59375 64.582031 C 82.226562 64.722656 81.816406 64.992188 81.476562 64.792969 C 81.328125 64.703125 81.238281 64.539062 81.117188 64.414062 C 80.617188 63.882812 79.691406 64.09375 79.148438 64.582031 C 79.085938 64.636719 79.019531 64.695312 78.9375 64.6875 C 78.878906 64.683594 78.832031 64.640625 78.789062 64.601562 C 78.570312 64.390625 78.363281 64.144531 78.117188 63.972656 C 76.496094 65.5 75.09375 67.257812 73.964844 69.195312 " fill-opacity="1" fill-rule="nonzero"/><path fill="#6b3e0a" d="M 111.269531 68.386719 C 111.925781 68.726562 112.648438 68.917969 113.382812 68.730469 C 113.449219 68.714844 113.511719 68.691406 113.574219 68.667969 C 112.9375 67.636719 112.21875 66.65625 111.433594 65.742188 C 111.429688 65.742188 111.425781 65.746094 111.421875 65.746094 C 111.21875 65.835938 110.980469 65.992188 110.757812 66.019531 C 110.601562 66.035156 110.476562 65.972656 110.328125 65.945312 C 109.902344 65.871094 109.417969 65.996094 109.039062 66.195312 C 108.84375 66.296875 108.65625 66.429688 108.4375 66.445312 C 108.144531 66.464844 107.878906 66.265625 107.589844 66.246094 C 107.257812 66.226562 106.960938 66.429688 106.652344 66.546875 C 106.28125 66.691406 105.875 66.71875 105.476562 66.742188 C 104.089844 66.824219 102.699219 66.90625 101.3125 66.992188 C 102.433594 67.113281 103.554688 67.234375 104.679688 67.355469 C 105.089844 67.402344 105.507812 67.445312 105.898438 67.582031 C 106.636719 67.835938 107.34375 68.414062 108.101562 68.234375 C 108.613281 68.113281 109.03125 67.65625 109.554688 67.65625 C 109.90625 67.65625 110.203125 67.859375 110.488281 68.039062 C 110.742188 68.199219 111.011719 68.253906 111.269531 68.386719 " fill-opacity="1" fill-rule="nonzero"/><path fill="#6b3e0a" d="M 105.59375 72.667969 C 105.605469 72.738281 105.617188 72.808594 105.625 72.878906 C 105.628906 72.917969 105.632812 72.957031 105.640625 72.996094 C 105.652344 73.09375 105.671875 73.191406 105.691406 73.289062 C 105.992188 73.148438 106.289062 73.003906 106.578125 72.863281 C 106.601562 72.753906 106.625 72.644531 106.640625 72.53125 C 106.644531 72.492188 106.648438 72.453125 106.65625 72.414062 C 106.667969 72.324219 106.679688 72.226562 106.695312 72.128906 C 106.351562 72.304688 105.976562 72.488281 105.59375 72.667969 " fill-opacity="1" fill-rule="nonzero"/><path fill="#6b3e0a" d="M 85.605469 74.339844 C 85.546875 74.25 85.53125 74.136719 85.5625 74.035156 C 85.582031 73.980469 85.609375 73.933594 85.648438 73.890625 C 85.039062 74.167969 84.417969 74.449219 83.804688 74.722656 C 83.992188 74.839844 84.152344 74.988281 84.285156 75.167969 C 84.792969 74.941406 85.273438 74.722656 85.722656 74.519531 L 85.605469 74.339844 " fill-opacity="1" fill-rule="nonzero"/><path fill="#6b3e0a" d="M 112.46875 70.539062 C 112.417969 70.503906 112.355469 70.484375 112.296875 70.484375 L 111.792969 70.484375 L 110.699219 69.976562 C 110.621094 69.941406 110.535156 69.941406 110.457031 69.972656 C 110.433594 69.980469 109.871094 70.21875 107.890625 71.464844 C 107.785156 71.53125 107.671875 71.597656 107.554688 71.667969 C 107.660156 71.851562 107.703125 72.0625 107.734375 72.257812 C 107.90625 72.160156 108.066406 72.066406 108.210938 71.972656 C 109.65625 71.066406 110.328125 70.707031 110.574219 70.585938 L 111.601562 71.0625 C 111.640625 71.078125 111.683594 71.089844 111.726562 71.089844 L 112.203125 71.089844 L 115.234375 73.183594 C 115.242188 73.171875 115.25 73.160156 115.261719 73.152344 C 115.402344 73.007812 115.574219 72.894531 115.757812 72.808594 L 112.46875 70.539062 " fill-opacity="1" fill-rule="nonzero"/><path fill="#6b3e0a" d="M 104.253906 73.925781 C 104.269531 73.890625 104.28125 73.863281 104.292969 73.832031 C 104.375 73.621094 104.4375 73.402344 104.480469 73.175781 C 103.019531 73.824219 101.644531 74.375 101.234375 74.539062 C 96.890625 72.363281 93.546875 69.722656 93.511719 69.695312 C 93.445312 69.640625 93.359375 69.613281 93.273438 69.628906 C 93.1875 69.644531 93.117188 69.691406 93.074219 69.765625 C 93.058594 69.785156 92.714844 70.246094 90.722656 71.460938 C 90.570312 71.554688 90.34375 71.675781 90.0625 71.820312 L 90.390625 72.332031 C 90.671875 72.1875 90.886719 72.066406 91.035156 71.976562 C 92.429688 71.128906 93.070312 70.613281 93.359375 70.339844 C 94.191406 70.972656 97.269531 73.242188 101.085938 75.140625 C 101.152344 75.171875 101.226562 75.179688 101.292969 75.164062 C 101.3125 75.160156 102.671875 74.625 104.25 73.9375 C 104.253906 73.933594 104.253906 73.929688 104.253906 73.925781 " fill-opacity="1" fill-rule="nonzero"/><g clip-path="url(#id2)"><path fill="#60941a" d="M 93.929688 56.636719 C 80.617188 56.636719 69.785156 67.46875 69.785156 80.78125 C 69.785156 94.09375 80.617188 104.925781 93.929688 104.925781 C 107.242188 104.925781 118.074219 94.09375 118.074219 80.78125 C 118.074219 67.46875 107.242188 56.636719 93.929688 56.636719 Z M 93.929688 105.527344 C 80.28125 105.527344 69.179688 94.425781 69.179688 80.78125 C 69.179688 67.132812 80.28125 56.03125 93.929688 56.03125 C 107.574219 56.03125 118.675781 67.132812 118.675781 80.78125 C 118.675781 94.425781 107.574219 105.527344 93.929688 105.527344 " fill-opacity="1" fill-rule="nonzero"/></g><path fill="#60941a" d="M 93.929688 58.304688 C 81.535156 58.304688 71.453125 68.386719 71.453125 80.78125 C 71.453125 93.171875 81.535156 103.253906 93.929688 103.253906 C 106.320312 103.253906 116.402344 93.171875 116.402344 80.78125 C 116.402344 68.386719 106.320312 58.304688 93.929688 58.304688 Z M 93.929688 104.460938 C 80.871094 104.460938 70.246094 93.839844 70.246094 80.78125 C 70.246094 67.722656 80.871094 57.097656 93.929688 57.097656 C 106.984375 57.097656 117.609375 67.722656 117.609375 80.78125 C 117.609375 93.839844 106.984375 104.460938 93.929688 104.460938 " fill-opacity="1" fill-rule="nonzero"/></svg>