<svg xmlns="http://www.w3.org/2000/svg" xmlns:xlink="http://www.w3.org/1999/xlink" width="250" zoomAndPan="magnify" viewBox="0 0 187.5 187.499992" height="250" preserveAspectRatio="xMidYMid meet" version="1.0"><defs><g/><clipPath id="id1"><path d="M 0 0 L 187 0 L 187 187 L 0 187 Z M 0 0 " clip-rule="nonzero"/></clipPath><clipPath id="id2"><path d="M 61.097656 107.40625 L 126.347656 107.40625 L 126.347656 126.15625 L 61.097656 126.15625 Z M 61.097656 107.40625 " clip-rule="nonzero"/></clipPath><clipPath id="id3"><path d="M 78 63.902344 L 83 63.902344 L 83 68 L 78 68 Z M 78 63.902344 " clip-rule="nonzero"/></clipPath><clipPath id="id4"><path d="M 68.976562 67 L 118.476562 67 L 118.476562 116.402344 L 68.976562 116.402344 Z M 68.976562 67 " clip-rule="nonzero"/></clipPath><clipPath id="id5"><path d="M 54 68 L 60 68 L 60 74 L 54 74 Z M 54 68 " clip-rule="nonzero"/></clipPath><clipPath id="id6"><path d="M 52.605469 70.230469 L 57.820312 67.265625 L 60.785156 72.480469 L 55.570312 75.445312 Z M 52.605469 70.230469 " clip-rule="nonzero"/></clipPath><clipPath id="id7"><path d="M 52.605469 70.230469 L 57.820312 67.265625 L 60.785156 72.480469 L 55.570312 75.445312 Z M 52.605469 70.230469 " clip-rule="nonzero"/></clipPath><clipPath id="id8"><path d="M 126 69 L 132 69 L 132 75 L 126 75 Z M 126 69 " clip-rule="nonzero"/></clipPath><clipPath id="id9"><path d="M 127.839844 67.070312 L 133.011719 70.105469 L 129.976562 75.28125 L 124.800781 72.242188 Z M 127.839844 67.070312 " clip-rule="nonzero"/></clipPath><clipPath id="id10"><path d="M 130.105469 75.777344 L 124.929688 72.742188 L 127.96875 67.566406 L 133.144531 70.605469 Z M 130.105469 75.777344 " clip-rule="nonzero"/></clipPath></defs><g clip-path="url(#id1)"><path fill="#ffffff" d="M 0 0 L 187.5 0 L 187.5 195 L 0 195 Z M 0 0 " fill-opacity="1" fill-rule="nonzero"/><path fill="#ffffff" d="M 0 0 L 187.5 0 L 187.5 187.5 L 0 187.5 Z M 0 0 " fill-opacity="1" fill-rule="nonzero"/><path fill="#ffffff" d="M 0 0 L 187.5 0 L 187.5 187.5 L 0 187.5 Z M 0 0 " fill-opacity="1" fill-rule="nonzero"/><path fill="#ffffff" d="M 0 0 L 187.5 0 L 187.5 187.5 L 0 187.5 Z M 0 0 " fill-opacity="1" fill-rule="nonzero"/></g><g clip-path="url(#id2)"><path fill="#4b1506" d="M 93.722656 107.40625 C 75.703125 107.40625 61.097656 111.605469 61.097656 116.78125 C 61.097656 121.960938 75.703125 126.15625 93.722656 126.15625 C 111.738281 126.15625 126.347656 121.960938 126.347656 116.78125 C 126.347656 111.605469 111.738281 107.40625 93.722656 107.40625 " fill-opacity="1" fill-rule="nonzero"/></g><path fill="#fbd03b" d="M 101.824219 68.511719 L 103.089844 67.570312 L 103.203125 69.140625 L 104.148438 70.402344 L 102.570312 70.515625 L 101.304688 71.453125 L 101.191406 69.882812 L 100.246094 68.625 L 101.824219 68.511719 " fill-opacity="1" fill-rule="nonzero"/><path fill="#fbd03b" d="M 102.804688 71.8125 L 103.289062 71.453125 L 103.332031 72.054688 L 103.695312 72.539062 L 103.089844 72.582031 L 102.601562 72.941406 L 102.558594 72.339844 L 102.199219 71.859375 L 102.804688 71.8125 " fill-opacity="1" fill-rule="nonzero"/><path fill="#fbd03b" d="M 77.113281 66.941406 L 78.554688 66.292969 L 78.324219 67.851562 L 78.972656 69.285156 L 77.410156 69.054688 L 75.96875 69.703125 L 76.199219 68.144531 L 75.550781 66.710938 L 77.113281 66.941406 " fill-opacity="1" fill-rule="nonzero"/><path fill="#fbd03b" d="M 77.113281 64.535156 L 77.667969 64.289062 L 77.578125 64.886719 L 77.828125 65.4375 L 77.226562 65.347656 L 76.675781 65.59375 L 76.761719 64.996094 L 76.515625 64.449219 L 77.113281 64.535156 " fill-opacity="1" fill-rule="nonzero"/><g clip-path="url(#id3)"><path fill="#fbd03b" d="M 80.394531 64.628906 L 81.835938 63.980469 L 81.605469 65.535156 L 82.253906 66.972656 L 80.691406 66.742188 L 79.25 67.386719 L 79.480469 65.832031 L 78.828125 64.398438 L 80.394531 64.628906 " fill-opacity="1" fill-rule="nonzero"/></g><g clip-path="url(#id4)"><path fill="#f19444" d="M 116.953125 88.097656 C 113.597656 88.097656 110.796875 85.3125 110.796875 81.972656 C 110.796875 81.664062 110.820312 81.355469 110.871094 81.054688 C 107.675781 81.003906 105.007812 78.433594 104.824219 75.28125 C 104.480469 75.34375 104.125 75.378906 103.761719 75.378906 C 100.40625 75.378906 97.605469 72.589844 97.605469 69.253906 C 97.605469 68.617188 97.710938 67.996094 97.898438 67.417969 C 96.542969 67.1875 95.148438 67.066406 93.726562 67.066406 C 85.683594 67.066406 78.53125 70.886719 74.011719 76.804688 C 72.792969 78.394531 71.769531 80.136719 70.972656 82 C 69.6875 84.972656 68.976562 88.253906 68.976562 91.699219 C 68.976562 99.402344 72.53125 106.28125 78.101562 110.796875 C 80.789062 112.980469 83.945312 114.609375 87.402344 115.515625 C 89.417969 116.046875 91.539062 116.328125 93.726562 116.328125 C 107.394531 116.328125 118.476562 105.300781 118.476562 91.699219 C 118.476562 90.429688 118.375 89.1875 118.191406 87.96875 C 117.789062 88.054688 117.375 88.097656 116.953125 88.097656 " fill-opacity="1" fill-rule="nonzero"/></g><path fill="#4b1506" d="M 92.746094 77.371094 C 92.746094 80.8125 89.945312 83.597656 86.492188 83.597656 C 83.039062 83.597656 80.234375 80.8125 80.234375 77.371094 C 80.234375 73.933594 83.039062 71.148438 86.492188 71.148438 C 89.945312 71.148438 92.746094 73.933594 92.746094 77.371094 " fill-opacity="1" fill-rule="nonzero"/><path fill="#4b1506" d="M 116.953125 88.097656 C 113.597656 88.097656 110.796875 85.3125 110.796875 81.972656 C 110.796875 81.664062 110.820312 81.359375 110.871094 81.058594 C 109.914062 81.042969 109.003906 80.800781 108.195312 80.386719 C 107.625 81.324219 107.296875 82.421875 107.296875 83.597656 C 107.296875 87.035156 110.101562 89.824219 113.554688 89.824219 C 115.273438 89.824219 116.828125 89.132812 117.960938 88.015625 C 117.632812 88.070312 117.296875 88.097656 116.953125 88.097656 " fill-opacity="1" fill-rule="nonzero"/><path fill="#4b1506" d="M 84.316406 93.882812 C 84.316406 97.320312 81.515625 100.109375 78.058594 100.109375 C 74.605469 100.109375 71.804688 97.320312 71.804688 93.882812 C 71.804688 90.445312 74.605469 87.660156 78.058594 87.660156 C 81.515625 87.660156 84.316406 90.445312 84.316406 93.882812 " fill-opacity="1" fill-rule="nonzero"/><path fill="#4b1506" d="M 90.570312 110.101562 C 90.570312 112.425781 89.292969 114.449219 87.402344 115.515625 C 83.945312 114.609375 80.789062 112.980469 78.101562 110.796875 C 78.074219 110.570312 78.058594 110.339844 78.058594 110.101562 C 78.058594 106.664062 80.863281 103.878906 84.316406 103.878906 C 87.769531 103.878906 90.570312 106.664062 90.570312 110.101562 " fill-opacity="1" fill-rule="nonzero"/><path fill="#4b1506" d="M 110.019531 102.546875 C 110.019531 105.160156 107.886719 107.28125 105.257812 107.28125 C 102.628906 107.28125 100.5 105.160156 100.5 102.546875 C 100.5 99.929688 102.628906 97.808594 105.257812 97.808594 C 107.886719 97.808594 110.019531 99.929688 110.019531 102.546875 " fill-opacity="1" fill-rule="nonzero"/><path fill="#4b1506" d="M 103.246094 86.507812 C 103.246094 89.125 101.113281 91.246094 98.484375 91.246094 C 95.859375 91.246094 93.726562 89.125 93.726562 86.507812 C 93.726562 83.894531 95.859375 81.773438 98.484375 81.773438 C 101.113281 81.773438 103.246094 83.894531 103.246094 86.507812 " fill-opacity="1" fill-rule="nonzero"/><path fill="#4b1506" d="M 95.875 98.621094 C 95.875 100.339844 94.472656 101.734375 92.746094 101.734375 C 91.019531 101.734375 89.617188 100.339844 89.617188 98.621094 C 89.617188 96.902344 91.019531 95.507812 92.746094 95.507812 C 94.472656 95.507812 95.875 96.902344 95.875 98.621094 " fill-opacity="1" fill-rule="nonzero"/><path fill="#4b1506" d="M 97.609375 69.296875 C 97.222656 69.8125 96.988281 70.453125 96.988281 71.148438 C 96.988281 72.867188 98.390625 74.261719 100.117188 74.261719 C 100.160156 74.261719 100.203125 74.257812 100.246094 74.253906 C 98.671875 73.144531 97.625 71.324219 97.609375 69.296875 " fill-opacity="1" fill-rule="nonzero"/><path fill="#4b1506" d="M 76.320312 79.808594 C 76.320312 81.527344 74.917969 82.921875 73.191406 82.921875 C 72.324219 82.921875 71.535156 82.570312 70.972656 82 C 71.769531 80.136719 72.792969 78.394531 74.011719 76.804688 C 75.339844 77.164062 76.320312 78.371094 76.320312 79.808594 " fill-opacity="1" fill-rule="nonzero"/><g clip-path="url(#id5)"><g clip-path="url(#id6)"><g clip-path="url(#id7)"><path fill="#ffffff" d="M 59.304688 69.875 C 57.550781 71.34375 57.425781 71.804688 58.179688 73.964844 C 56.707031 72.210938 56.246094 72.085938 54.085938 72.839844 C 55.839844 71.367188 55.964844 70.910156 55.210938 68.746094 C 56.683594 70.5 57.140625 70.625 59.304688 69.875 Z M 59.304688 69.875 " fill-opacity="1" fill-rule="nonzero"/></g></g></g><g clip-path="url(#id8)"><g clip-path="url(#id9)"><g clip-path="url(#id10)"><path fill="#ffffff" d="M 126.449219 70.152344 C 128.601562 70.9375 129.058594 70.816406 130.554688 69.085938 C 129.773438 71.234375 129.894531 71.695312 131.625 73.191406 C 129.472656 72.410156 129.015625 72.527344 127.519531 74.257812 C 128.300781 72.109375 128.179688 71.648438 126.449219 70.152344 Z M 126.449219 70.152344 " fill-opacity="1" fill-rule="nonzero"/></g></g></g><g fill="#189ab4" fill-opacity="1"><g transform="translate(66.001906, 65.756384)"><g><path d="M 2.390625 -4.171875 L 2.453125 -4.359375 C 2.523438 -4.585938 2.59375 -4.726562 2.65625 -4.78125 C 2.800781 -4.894531 3.066406 -4.882812 3.453125 -4.75 C 3.679688 -4.675781 3.835938 -4.585938 3.921875 -4.484375 C 4.003906 -4.390625 4.039062 -4.285156 4.03125 -4.171875 C 4.019531 -4.066406 3.992188 -3.953125 3.953125 -3.828125 C 3.910156 -3.703125 3.867188 -3.582031 3.828125 -3.46875 C 3.785156 -3.363281 3.675781 -3.175781 3.5 -2.90625 C 3.320312 -2.632812 3.125 -2.40625 2.90625 -2.21875 C 2.6875 -2.039062 2.4375 -1.890625 2.15625 -1.765625 C 1.875 -1.648438 1.554688 -1.5625 1.203125 -1.5 C 0.859375 -1.445312 0.507812 -1.441406 0.15625 -1.484375 C -0.1875 -1.523438 -0.546875 -1.648438 -0.921875 -1.859375 C -1.296875 -2.066406 -1.628906 -2.351562 -1.921875 -2.71875 C -2.222656 -3.082031 -2.429688 -3.460938 -2.546875 -3.859375 C -2.671875 -4.253906 -2.710938 -4.625 -2.671875 -4.96875 C -2.640625 -5.3125 -2.554688 -5.648438 -2.421875 -5.984375 C -2.171875 -6.609375 -1.8125 -7.101562 -1.34375 -7.46875 C -1.125 -7.65625 -0.875 -7.804688 -0.59375 -7.921875 C -0.320312 -8.035156 -0.0976562 -8.101562 0.078125 -8.125 L 0.328125 -8.171875 C 0.453125 -8.179688 0.550781 -8.191406 0.625 -8.203125 C 0.832031 -8.203125 0.984375 -8.140625 1.078125 -8.015625 C 1.179688 -7.898438 1.234375 -7.734375 1.234375 -7.515625 C 1.265625 -7.117188 1.207031 -6.859375 1.0625 -6.734375 C 0.976562 -6.671875 0.816406 -6.628906 0.578125 -6.609375 C 0.253906 -6.609375 -0.0664062 -6.472656 -0.390625 -6.203125 C -0.691406 -5.960938 -0.90625 -5.613281 -1.03125 -5.15625 C -1.09375 -4.945312 -1.09375 -4.707031 -1.03125 -4.4375 C -0.976562 -4.175781 -0.851562 -3.925781 -0.65625 -3.6875 C -0.46875 -3.457031 -0.25 -3.285156 0 -3.171875 C 0.238281 -3.066406 0.472656 -3.019531 0.703125 -3.03125 C 1.148438 -3.050781 1.53125 -3.1875 1.84375 -3.4375 C 1.988281 -3.550781 2.109375 -3.675781 2.203125 -3.8125 C 2.296875 -3.957031 2.359375 -4.078125 2.390625 -4.171875 Z M 2.390625 -4.171875 "/></g></g></g><g fill="#189ab4" fill-opacity="1"><g transform="translate(70.454509, 62.140427)"><g><path d="M -1.046875 -2.125 C -1.421875 -2.75 -1.507812 -3.390625 -1.3125 -4.046875 C -1.125 -4.710938 -0.753906 -5.210938 -0.203125 -5.546875 C 0.347656 -5.890625 0.957031 -5.988281 1.625 -5.84375 C 2.289062 -5.707031 2.8125 -5.332031 3.1875 -4.71875 C 3.445312 -4.289062 3.566406 -3.847656 3.546875 -3.390625 C 3.523438 -2.929688 3.40625 -2.523438 3.1875 -2.171875 C 2.96875 -1.828125 2.6875 -1.550781 2.34375 -1.34375 C 2.007812 -1.132812 1.628906 -1.015625 1.203125 -0.984375 C 0.785156 -0.953125 0.367188 -1.03125 -0.046875 -1.21875 C -0.460938 -1.414062 -0.796875 -1.71875 -1.046875 -2.125 Z M 0.890625 -2.5625 C 1.140625 -2.539062 1.347656 -2.578125 1.515625 -2.671875 C 1.679688 -2.773438 1.8125 -2.941406 1.90625 -3.171875 C 2 -3.410156 1.96875 -3.65625 1.8125 -3.90625 C 1.664062 -4.15625 1.472656 -4.289062 1.234375 -4.3125 C 1.003906 -4.34375 0.796875 -4.300781 0.609375 -4.1875 C 0.421875 -4.070312 0.285156 -3.898438 0.203125 -3.671875 C 0.117188 -3.453125 0.148438 -3.21875 0.296875 -2.96875 C 0.453125 -2.71875 0.648438 -2.582031 0.890625 -2.5625 Z M 0.890625 -2.5625 "/></g></g></g><g fill="#189ab4" fill-opacity="1"><g transform="translate(74.753448, 59.492967)"><g><path d="M -0.765625 -2.25 C -1.054688 -2.914062 -1.066406 -3.5625 -0.796875 -4.1875 C -0.535156 -4.8125 -0.109375 -5.257812 0.484375 -5.53125 C 1.078125 -5.800781 1.695312 -5.820312 2.34375 -5.59375 C 2.988281 -5.375 3.457031 -4.9375 3.75 -4.28125 C 3.945312 -3.820312 4.007812 -3.363281 3.9375 -2.90625 C 3.863281 -2.445312 3.695312 -2.054688 3.4375 -1.734375 C 3.175781 -1.421875 2.863281 -1.179688 2.5 -1.015625 C 2.132812 -0.859375 1.738281 -0.789062 1.3125 -0.8125 C 0.894531 -0.84375 0.492188 -0.976562 0.109375 -1.21875 C -0.273438 -1.46875 -0.566406 -1.8125 -0.765625 -2.25 Z M 1.21875 -2.421875 C 1.457031 -2.378906 1.664062 -2.394531 1.84375 -2.46875 C 2.019531 -2.550781 2.164062 -2.703125 2.28125 -2.921875 C 2.40625 -3.140625 2.40625 -3.378906 2.28125 -3.640625 C 2.164062 -3.910156 1.992188 -4.070312 1.765625 -4.125 C 1.535156 -4.1875 1.320312 -4.171875 1.125 -4.078125 C 0.925781 -3.992188 0.769531 -3.84375 0.65625 -3.625 C 0.550781 -3.40625 0.554688 -3.160156 0.671875 -2.890625 C 0.796875 -2.628906 0.976562 -2.472656 1.21875 -2.421875 Z M 1.21875 -2.421875 "/></g></g></g><g fill="#189ab4" fill-opacity="1"><g transform="translate(79.374579, 57.41811)"><g><path d="M 2.3125 -3.203125 L 3.734375 -2.625 C 3.921875 -2.550781 4.039062 -2.484375 4.09375 -2.421875 C 4.144531 -2.367188 4.179688 -2.3125 4.203125 -2.25 C 4.242188 -2.113281 4.210938 -1.90625 4.109375 -1.625 C 3.992188 -1.320312 3.863281 -1.148438 3.71875 -1.109375 C 3.582031 -1.066406 3.378906 -1.085938 3.109375 -1.171875 L 3.015625 -1.21875 C 2.847656 -1.289062 2.582031 -1.414062 2.21875 -1.59375 C 1.851562 -1.78125 1.582031 -1.910156 1.40625 -1.984375 L 1.609375 -1.328125 C 1.648438 -1.191406 1.675781 -1.085938 1.6875 -1.015625 C 1.695312 -0.953125 1.703125 -0.867188 1.703125 -0.765625 C 1.660156 -0.597656 1.457031 -0.457031 1.09375 -0.34375 C 0.726562 -0.226562 0.484375 -0.238281 0.359375 -0.375 C 0.296875 -0.4375 0.25 -0.5 0.21875 -0.5625 C 0.1875 -0.625 0.148438 -0.726562 0.109375 -0.875 L -1.5 -6.015625 C -1.539062 -6.140625 -1.566406 -6.234375 -1.578125 -6.296875 C -1.585938 -6.367188 -1.582031 -6.457031 -1.5625 -6.5625 C -1.539062 -6.738281 -1.34375 -6.882812 -0.96875 -7 C -0.707031 -7.082031 -0.5 -7.097656 -0.34375 -7.046875 C -0.226562 -7.003906 -0.140625 -6.890625 -0.078125 -6.703125 C -0.0546875 -6.660156 -0.03125 -6.582031 0 -6.46875 L 0.859375 -3.75 C 0.929688 -3.863281 1.039062 -4.054688 1.1875 -4.328125 C 1.332031 -4.597656 1.445312 -4.796875 1.53125 -4.921875 L 1.609375 -5.015625 C 1.753906 -5.234375 1.894531 -5.363281 2.03125 -5.40625 C 2.175781 -5.445312 2.378906 -5.378906 2.640625 -5.203125 C 2.898438 -5.035156 3.050781 -4.882812 3.09375 -4.75 C 3.132812 -4.613281 3.078125 -4.425781 2.921875 -4.1875 Z M 2.3125 -3.203125 "/></g></g></g><g fill="#189ab4" fill-opacity="1"><g transform="translate(83.766657, 56.093464)"><g><path d="M -0.515625 -3.9375 C -0.546875 -4.070312 -0.5625 -4.171875 -0.5625 -4.234375 C -0.570312 -4.296875 -0.566406 -4.378906 -0.546875 -4.484375 C -0.492188 -4.660156 -0.28125 -4.789062 0.09375 -4.875 C 0.375 -4.9375 0.582031 -4.929688 0.71875 -4.859375 C 0.84375 -4.796875 0.925781 -4.679688 0.96875 -4.515625 C 0.988281 -4.460938 1.007812 -4.378906 1.03125 -4.265625 L 1.71875 -1.1875 C 1.75 -1.050781 1.765625 -0.945312 1.765625 -0.875 C 1.773438 -0.8125 1.769531 -0.734375 1.75 -0.640625 C 1.695312 -0.460938 1.484375 -0.332031 1.109375 -0.25 C 0.742188 -0.164062 0.503906 -0.195312 0.390625 -0.34375 C 0.328125 -0.40625 0.28125 -0.46875 0.25 -0.53125 C 0.226562 -0.601562 0.203125 -0.710938 0.171875 -0.859375 Z M 0.5625 -5.890625 C 0.539062 -5.796875 0.476562 -5.71875 0.375 -5.65625 C 0.28125 -5.59375 0.140625 -5.539062 -0.046875 -5.5 C -0.234375 -5.457031 -0.382812 -5.441406 -0.5 -5.453125 C -0.625 -5.460938 -0.71875 -5.503906 -0.78125 -5.578125 C -0.84375 -5.660156 -0.882812 -5.734375 -0.90625 -5.796875 C -0.9375 -5.867188 -0.96875 -5.96875 -1 -6.09375 C -1.03125 -6.226562 -1.046875 -6.332031 -1.046875 -6.40625 C -1.054688 -6.476562 -1.046875 -6.5625 -1.015625 -6.65625 C -0.972656 -6.820312 -0.765625 -6.945312 -0.390625 -7.03125 C -0.0234375 -7.113281 0.21875 -7.09375 0.34375 -6.96875 C 0.40625 -6.882812 0.445312 -6.804688 0.46875 -6.734375 C 0.488281 -6.671875 0.515625 -6.570312 0.546875 -6.4375 C 0.578125 -6.300781 0.59375 -6.195312 0.59375 -6.125 C 0.601562 -6.0625 0.59375 -5.984375 0.5625 -5.890625 Z M 0.5625 -5.890625 "/></g></g></g><g fill="#189ab4" fill-opacity="1"><g transform="translate(85.75418, 55.576521)"><g><path d="M 4.5 -3.5625 C 4.550781 -3.207031 4.5 -2.925781 4.34375 -2.71875 C 4.1875 -2.519531 3.992188 -2.40625 3.765625 -2.375 L 1.65625 -2.09375 C 1.675781 -1.925781 1.789062 -1.796875 2 -1.703125 C 2.21875 -1.617188 2.421875 -1.59375 2.609375 -1.625 C 2.953125 -1.664062 3.21875 -1.738281 3.40625 -1.84375 L 3.5 -1.875 C 3.632812 -1.957031 3.753906 -2.003906 3.859375 -2.015625 C 4.046875 -2.046875 4.222656 -1.9375 4.390625 -1.6875 C 4.492188 -1.550781 4.550781 -1.425781 4.5625 -1.3125 C 4.632812 -0.78125 4.035156 -0.425781 2.765625 -0.25 C 2.328125 -0.195312 1.925781 -0.222656 1.5625 -0.328125 C 1.195312 -0.429688 0.910156 -0.597656 0.703125 -0.828125 C 0.253906 -1.253906 -0.0078125 -1.765625 -0.09375 -2.359375 C -0.1875 -3.109375 -0.0234375 -3.738281 0.390625 -4.25 C 0.816406 -4.757812 1.394531 -5.066406 2.125 -5.171875 C 2.957031 -5.273438 3.601562 -5.0625 4.0625 -4.53125 C 4.3125 -4.25 4.457031 -3.925781 4.5 -3.5625 Z M 2.640625 -3.0625 C 2.867188 -3.082031 2.972656 -3.1875 2.953125 -3.375 C 2.929688 -3.507812 2.863281 -3.613281 2.75 -3.6875 C 2.632812 -3.757812 2.476562 -3.78125 2.28125 -3.75 C 2.09375 -3.726562 1.914062 -3.625 1.75 -3.4375 C 1.582031 -3.25 1.507812 -3.070312 1.53125 -2.90625 Z M 2.640625 -3.0625 "/></g></g></g><g fill="#189ab4" fill-opacity="1"><g transform="translate(90.627772, 54.981098)"><g/></g></g><g fill="#189ab4" fill-opacity="1"><g transform="translate(92.627126, 54.783142)"><g><path d="M 4.578125 -1.5 L 4.734375 -1.59375 C 4.953125 -1.707031 5.101562 -1.765625 5.1875 -1.765625 C 5.375 -1.753906 5.554688 -1.570312 5.734375 -1.21875 C 5.859375 -1 5.914062 -0.828125 5.90625 -0.703125 C 5.90625 -0.578125 5.863281 -0.472656 5.78125 -0.390625 C 5.695312 -0.316406 5.597656 -0.25 5.484375 -0.1875 C 5.378906 -0.125 5.273438 -0.0664062 5.171875 -0.015625 C 5.078125 0.0351562 4.875 0.101562 4.5625 0.1875 C 4.25 0.269531 3.945312 0.300781 3.65625 0.28125 C 3.375 0.269531 3.085938 0.21875 2.796875 0.125 C 2.503906 0.03125 2.207031 -0.109375 1.90625 -0.296875 C 1.613281 -0.492188 1.351562 -0.726562 1.125 -1 C 0.894531 -1.269531 0.707031 -1.601562 0.5625 -2 C 0.425781 -2.40625 0.367188 -2.84375 0.390625 -3.3125 C 0.421875 -3.78125 0.519531 -4.203125 0.6875 -4.578125 C 0.863281 -4.953125 1.082031 -5.253906 1.34375 -5.484375 C 1.601562 -5.710938 1.894531 -5.90625 2.21875 -6.0625 C 2.8125 -6.351562 3.40625 -6.484375 4 -6.453125 C 4.289062 -6.429688 4.578125 -6.367188 4.859375 -6.265625 C 5.148438 -6.171875 5.367188 -6.078125 5.515625 -5.984375 L 5.734375 -5.84375 C 5.828125 -5.757812 5.898438 -5.695312 5.953125 -5.65625 C 6.097656 -5.519531 6.164062 -5.375 6.15625 -5.21875 C 6.15625 -5.070312 6.085938 -4.914062 5.953125 -4.75 C 5.703125 -4.4375 5.484375 -4.285156 5.296875 -4.296875 C 5.191406 -4.296875 5.046875 -4.367188 4.859375 -4.515625 C 4.617188 -4.734375 4.285156 -4.851562 3.859375 -4.875 C 3.472656 -4.894531 3.085938 -4.78125 2.703125 -4.53125 C 2.503906 -4.414062 2.335938 -4.238281 2.203125 -4 C 2.078125 -3.769531 2.003906 -3.5 1.984375 -3.1875 C 1.972656 -2.882812 2.019531 -2.609375 2.125 -2.359375 C 2.226562 -2.117188 2.367188 -1.925781 2.546875 -1.78125 C 2.898438 -1.5 3.273438 -1.347656 3.671875 -1.328125 C 3.859375 -1.316406 4.035156 -1.328125 4.203125 -1.359375 C 4.378906 -1.398438 4.503906 -1.445312 4.578125 -1.5 Z M 4.578125 -1.5 "/></g></g></g><g fill="#189ab4" fill-opacity="1"><g transform="translate(98.391138, 55.126402)"><g><path d="M 4.328125 -4.015625 C 4.429688 -3.960938 4.515625 -3.882812 4.578125 -3.78125 C 4.640625 -3.675781 4.65625 -3.523438 4.625 -3.328125 C 4.59375 -3.140625 4.5 -2.941406 4.34375 -2.734375 C 4.195312 -2.535156 4.015625 -2.457031 3.796875 -2.5 C 3.691406 -2.507812 3.59375 -2.550781 3.5 -2.625 C 3.414062 -2.695312 3.289062 -2.742188 3.125 -2.765625 C 2.96875 -2.796875 2.804688 -2.765625 2.640625 -2.671875 C 2.484375 -2.585938 2.390625 -2.460938 2.359375 -2.296875 L 2.046875 -0.4375 C 2.015625 -0.300781 1.988281 -0.203125 1.96875 -0.140625 C 1.957031 -0.078125 1.921875 -0.00390625 1.859375 0.078125 C 1.734375 0.222656 1.488281 0.257812 1.125 0.1875 C 0.84375 0.144531 0.648438 0.0625 0.546875 -0.0625 C 0.460938 -0.164062 0.429688 -0.300781 0.453125 -0.46875 C 0.460938 -0.519531 0.476562 -0.601562 0.5 -0.71875 L 1.03125 -3.828125 C 1.0625 -3.972656 1.085938 -4.078125 1.109375 -4.140625 C 1.128906 -4.210938 1.164062 -4.285156 1.21875 -4.359375 C 1.320312 -4.515625 1.566406 -4.554688 1.953125 -4.484375 C 2.296875 -4.429688 2.503906 -4.320312 2.578125 -4.15625 C 2.617188 -4.050781 2.628906 -3.945312 2.609375 -3.84375 C 2.648438 -3.875 2.703125 -3.914062 2.765625 -3.96875 C 2.835938 -4.03125 2.972656 -4.085938 3.171875 -4.140625 C 3.367188 -4.203125 3.535156 -4.222656 3.671875 -4.203125 C 3.816406 -4.179688 3.9375 -4.160156 4.03125 -4.140625 C 4.125 -4.117188 4.222656 -4.078125 4.328125 -4.015625 Z M 4.328125 -4.015625 "/></g></g></g><g fill="#189ab4" fill-opacity="1"><g transform="translate(102.146808, 55.722954)"><g><path d="M 2.375 0.671875 C 1.789062 0.503906 1.367188 0.144531 1.109375 -0.40625 C 0.859375 -0.957031 0.828125 -1.554688 1.015625 -2.203125 L 1.453125 -3.703125 C 1.492188 -3.835938 1.523438 -3.9375 1.546875 -4 C 1.578125 -4.0625 1.628906 -4.128906 1.703125 -4.203125 C 1.828125 -4.335938 2.070312 -4.347656 2.4375 -4.234375 C 2.832031 -4.117188 3.035156 -3.941406 3.046875 -3.703125 C 3.046875 -3.597656 3.019531 -3.445312 2.96875 -3.25 L 2.53125 -1.734375 C 2.457031 -1.492188 2.46875 -1.289062 2.5625 -1.125 C 2.664062 -0.957031 2.832031 -0.835938 3.0625 -0.765625 C 3.289062 -0.703125 3.492188 -0.71875 3.671875 -0.8125 C 3.847656 -0.914062 3.972656 -1.078125 4.046875 -1.296875 L 4.484375 -2.828125 C 4.523438 -2.953125 4.5625 -3.046875 4.59375 -3.109375 C 4.625 -3.179688 4.675781 -3.25 4.75 -3.3125 C 4.851562 -3.445312 5.09375 -3.460938 5.46875 -3.359375 C 5.832031 -3.253906 6.03125 -3.109375 6.0625 -2.921875 C 6.070312 -2.828125 6.070312 -2.742188 6.0625 -2.671875 C 6.0625 -2.609375 6.039062 -2.507812 6 -2.375 L 5.109375 0.671875 C 5.066406 0.796875 5.03125 0.890625 5 0.953125 C 4.976562 1.023438 4.929688 1.097656 4.859375 1.171875 C 4.734375 1.285156 4.488281 1.289062 4.125 1.1875 C 3.769531 1.082031 3.578125 0.957031 3.546875 0.8125 C 3.515625 0.6875 3.519531 0.554688 3.5625 0.421875 C 3.53125 0.453125 3.460938 0.492188 3.359375 0.546875 C 3.253906 0.597656 3.15625 0.640625 3.0625 0.671875 C 2.832031 0.742188 2.601562 0.742188 2.375 0.671875 Z M 2.375 0.671875 "/></g></g></g><g fill="#189ab4" fill-opacity="1"><g transform="translate(107.016798, 57.020414)"><g><path d="M 3.46875 -2.90625 C 3.90625 -3.175781 4.300781 -3.226562 4.65625 -3.0625 C 5.21875 -2.800781 5.519531 -2.375 5.5625 -1.78125 C 5.664062 -1.832031 5.78125 -1.882812 5.90625 -1.9375 C 6.03125 -2 6.207031 -2.035156 6.4375 -2.046875 C 6.675781 -2.054688 6.894531 -2.015625 7.09375 -1.921875 C 7.53125 -1.722656 7.816406 -1.382812 7.953125 -0.90625 C 8.085938 -0.4375 7.972656 0.179688 7.609375 0.953125 L 6.953125 2.375 C 6.890625 2.5 6.835938 2.585938 6.796875 2.640625 C 6.753906 2.703125 6.703125 2.765625 6.640625 2.828125 C 6.484375 2.941406 6.234375 2.914062 5.890625 2.75 C 5.546875 2.59375 5.375 2.421875 5.375 2.234375 C 5.375 2.128906 5.382812 2.046875 5.40625 1.984375 C 5.425781 1.921875 5.46875 1.828125 5.53125 1.703125 L 6.1875 0.265625 C 6.40625 -0.203125 6.347656 -0.515625 6.015625 -0.671875 C 5.816406 -0.765625 5.65625 -0.765625 5.53125 -0.671875 C 5.40625 -0.578125 5.289062 -0.414062 5.1875 -0.1875 L 4.53125 1.234375 C 4.46875 1.359375 4.414062 1.445312 4.375 1.5 C 4.332031 1.5625 4.28125 1.628906 4.21875 1.703125 C 4.070312 1.804688 3.820312 1.78125 3.46875 1.625 C 3.125 1.457031 2.945312 1.285156 2.9375 1.109375 C 2.945312 0.992188 2.960938 0.90625 2.984375 0.84375 C 3.003906 0.78125 3.046875 0.6875 3.109375 0.5625 L 3.765625 -0.875 C 3.984375 -1.34375 3.921875 -1.65625 3.578125 -1.8125 C 3.242188 -1.96875 2.96875 -1.8125 2.75 -1.34375 L 2.078125 0.109375 C 2.023438 0.222656 1.976562 0.3125 1.9375 0.375 C 1.90625 0.4375 1.847656 0.5 1.765625 0.5625 C 1.617188 0.664062 1.375 0.640625 1.03125 0.484375 C 0.695312 0.328125 0.523438 0.15625 0.515625 -0.03125 C 0.515625 -0.125 0.523438 -0.203125 0.546875 -0.265625 C 0.566406 -0.335938 0.609375 -0.4375 0.671875 -0.5625 L 2 -3.421875 C 2.0625 -3.554688 2.109375 -3.648438 2.140625 -3.703125 C 2.179688 -3.765625 2.238281 -3.828125 2.3125 -3.890625 C 2.46875 -3.992188 2.695312 -3.972656 3 -3.828125 C 3.3125 -3.679688 3.488281 -3.535156 3.53125 -3.390625 C 3.582031 -3.253906 3.5625 -3.09375 3.46875 -2.90625 Z M 3.46875 -2.90625 "/></g></g></g><g fill="#189ab4" fill-opacity="1"><g transform="translate(113.548304, 60.131227)"><g><path d="M 5.09375 -2.296875 C 5.53125 -1.992188 5.804688 -1.519531 5.921875 -0.875 C 6.035156 -0.238281 5.914062 0.332031 5.5625 0.84375 C 5.21875 1.363281 4.726562 1.695312 4.09375 1.84375 C 3.457031 2 2.925781 1.929688 2.5 1.640625 C 2.082031 1.359375 1.863281 1.039062 1.84375 0.6875 C 1.644531 0.894531 1.351562 0.875 0.96875 0.625 C 0.65625 0.414062 0.503906 0.222656 0.515625 0.046875 C 0.535156 -0.0546875 0.554688 -0.140625 0.578125 -0.203125 C 0.609375 -0.265625 0.660156 -0.347656 0.734375 -0.453125 L 3.71875 -4.9375 C 3.789062 -5.039062 3.851562 -5.117188 3.90625 -5.171875 C 3.957031 -5.234375 4.023438 -5.289062 4.109375 -5.34375 C 4.265625 -5.414062 4.503906 -5.347656 4.828125 -5.140625 C 5.140625 -4.929688 5.285156 -4.742188 5.265625 -4.578125 C 5.242188 -4.460938 5.21875 -4.375 5.1875 -4.3125 C 5.15625 -4.25 5.101562 -4.164062 5.03125 -4.0625 L 4 -2.5 C 4.351562 -2.601562 4.71875 -2.535156 5.09375 -2.296875 Z M 2.8125 -0.3125 C 2.84375 -0.09375 2.953125 0.078125 3.140625 0.203125 C 3.328125 0.328125 3.53125 0.363281 3.75 0.3125 C 3.96875 0.257812 4.128906 0.15625 4.234375 0 C 4.347656 -0.164062 4.390625 -0.359375 4.359375 -0.578125 C 4.335938 -0.796875 4.222656 -0.972656 4.015625 -1.109375 C 3.816406 -1.242188 3.613281 -1.28125 3.40625 -1.21875 C 3.195312 -1.15625 3.035156 -1.039062 2.921875 -0.875 C 2.816406 -0.71875 2.78125 -0.53125 2.8125 -0.3125 Z M 2.8125 -0.3125 "/></g></g></g><g fill="#189ab4" fill-opacity="1"><g transform="translate(117.710609, 62.917126)"><g><path d="M 0.5625 -0.078125 C 0.53125 -0.203125 0.5625 -0.320312 0.65625 -0.4375 C 0.757812 -0.5625 1 -0.671875 1.375 -0.765625 C 1.5 -0.785156 1.613281 -0.75 1.71875 -0.65625 C 1.832031 -0.5625 1.9375 -0.378906 2.03125 -0.109375 C 2.132812 0.160156 2.265625 0.363281 2.421875 0.5 C 2.703125 0.726562 2.890625 0.785156 2.984375 0.671875 C 3.054688 0.585938 2.953125 0.394531 2.671875 0.09375 C 2.429688 -0.1875 2.238281 -0.535156 2.09375 -0.953125 C 2.03125 -1.140625 2.03125 -1.359375 2.09375 -1.609375 C 2.15625 -1.867188 2.289062 -2.113281 2.5 -2.34375 C 3.113281 -3.070312 3.921875 -3.015625 4.921875 -2.171875 C 5.242188 -1.898438 5.507812 -1.539062 5.71875 -1.09375 C 5.8125 -0.894531 5.8125 -0.738281 5.71875 -0.625 C 5.625 -0.507812 5.460938 -0.414062 5.234375 -0.34375 C 5.003906 -0.269531 4.832031 -0.28125 4.71875 -0.375 C 4.675781 -0.414062 4.609375 -0.535156 4.515625 -0.734375 C 4.421875 -0.929688 4.285156 -1.101562 4.109375 -1.25 C 3.835938 -1.476562 3.65625 -1.539062 3.5625 -1.4375 C 3.445312 -1.300781 3.53125 -1.082031 3.8125 -0.78125 C 4.082031 -0.488281 4.300781 -0.148438 4.46875 0.234375 C 4.550781 0.410156 4.566406 0.613281 4.515625 0.84375 C 4.472656 1.082031 4.347656 1.316406 4.140625 1.546875 C 3.941406 1.785156 3.726562 1.953125 3.5 2.046875 C 3.269531 2.140625 3.039062 2.160156 2.8125 2.109375 C 2.40625 2.003906 1.976562 1.765625 1.53125 1.390625 C 1.09375 1.023438 0.769531 0.535156 0.5625 -0.078125 Z M 0.5625 -0.078125 "/></g></g></g></svg>