<svg xmlns="http://www.w3.org/2000/svg" xmlns:xlink="http://www.w3.org/1999/xlink" width="300" zoomAndPan="magnify" viewBox="0 0 224.87999 299.999988" height="400" preserveAspectRatio="xMidYMid meet" version="1.0"><defs><g/><clipPath id="id1"><path d="M 0 0.078125 L 224.761719 0.078125 L 224.761719 299.917969 L 0 299.917969 Z M 0 0.078125 " clip-rule="nonzero"/></clipPath><clipPath id="id2"><path d="M 0 0.078125 L 224.761719 0.078125 L 224.761719 299.746094 L 0 299.746094 Z M 0 0.078125 " clip-rule="nonzero"/></clipPath></defs><g clip-path="url(#id1)"><path fill="#ffffff" d="M 0 0.078125 L 224.878906 0.078125 L 224.878906 307.414062 L 0 307.414062 Z M 0 0.078125 " fill-opacity="1" fill-rule="nonzero"/><path fill="#ffffff" d="M 0 0.078125 L 224.878906 0.078125 L 224.878906 299.921875 L 0 299.921875 Z M 0 0.078125 " fill-opacity="1" fill-rule="nonzero"/><path fill="#ffffff" d="M 0 0.078125 L 224.878906 0.078125 L 224.878906 299.921875 L 0 299.921875 Z M 0 0.078125 " fill-opacity="1" fill-rule="nonzero"/><path fill="#ffffff" d="M 0 0.078125 L 224.878906 0.078125 L 224.878906 299.921875 L 0 299.921875 Z M 0 0.078125 " fill-opacity="1" fill-rule="nonzero"/></g><g clip-path="url(#id2)"><path fill="#05445e" d="M -1.460938 -3.089844 L 224.910156 -3.089844 L 224.910156 299.746094 L -1.460938 299.746094 L -1.460938 -3.089844 " fill-opacity="1" fill-rule="nonzero"/></g><g fill="#ffffff" fill-opacity="1"><g transform="translate(21.866282, 163.3208)"><g><path d="M 19.921875 -21.59375 C 19.921875 -19.851562 19.394531 -18.375 18.34375 -17.15625 C 17.289062 -15.945312 15.8125 -15.113281 13.90625 -14.65625 L 13.90625 -14.53125 C 16.15625 -14.257812 17.851562 -13.578125 19 -12.484375 C 20.15625 -11.398438 20.734375 -9.941406 20.734375 -8.109375 C 20.734375 -5.429688 19.765625 -3.347656 17.828125 -1.859375 C 15.890625 -0.367188 13.117188 0.375 9.515625 0.375 C 6.492188 0.375 3.816406 -0.125 1.484375 -1.125 L 1.484375 -6.125 C 2.554688 -5.582031 3.738281 -5.140625 5.03125 -4.796875 C 6.332031 -4.453125 7.617188 -4.28125 8.890625 -4.28125 C 10.828125 -4.28125 12.257812 -4.609375 13.1875 -5.265625 C 14.113281 -5.929688 14.578125 -6.992188 14.578125 -8.453125 C 14.578125 -9.753906 14.039062 -10.675781 12.96875 -11.21875 C 11.90625 -11.769531 10.207031 -12.046875 7.875 -12.046875 L 5.765625 -12.046875 L 5.765625 -16.546875 L 7.921875 -16.546875 C 10.078125 -16.546875 11.648438 -16.828125 12.640625 -17.390625 C 13.640625 -17.960938 14.140625 -18.929688 14.140625 -20.296875 C 14.140625 -22.410156 12.820312 -23.46875 10.1875 -23.46875 C 9.269531 -23.46875 8.335938 -23.3125 7.390625 -23 C 6.441406 -22.695312 5.394531 -22.171875 4.25 -21.421875 L 1.515625 -25.484375 C 4.054688 -27.304688 7.082031 -28.21875 10.59375 -28.21875 C 13.476562 -28.21875 15.753906 -27.632812 17.421875 -26.46875 C 19.085938 -25.300781 19.921875 -23.675781 19.921875 -21.59375 Z M 19.921875 -21.59375 "/></g></g></g><g fill="#ffffff" fill-opacity="1"><g transform="translate(44.108958, 163.3208)"><g><path d="M 20.859375 -13.90625 C 20.859375 -9.050781 20.0625 -5.457031 18.46875 -3.125 C 16.875 -0.789062 14.421875 0.375 11.109375 0.375 C 7.898438 0.375 5.476562 -0.828125 3.84375 -3.234375 C 2.21875 -5.640625 1.40625 -9.195312 1.40625 -13.90625 C 1.40625 -18.8125 2.195312 -22.425781 3.78125 -24.75 C 5.375 -27.082031 7.816406 -28.25 11.109375 -28.25 C 14.316406 -28.25 16.742188 -27.03125 18.390625 -24.59375 C 20.035156 -22.164062 20.859375 -18.601562 20.859375 -13.90625 Z M 7.25 -13.90625 C 7.25 -10.5 7.539062 -8.054688 8.125 -6.578125 C 8.71875 -5.097656 9.710938 -4.359375 11.109375 -4.359375 C 12.484375 -4.359375 13.472656 -5.101562 14.078125 -6.59375 C 14.691406 -8.09375 15 -10.53125 15 -13.90625 C 15 -17.320312 14.6875 -19.773438 14.0625 -21.265625 C 13.445312 -22.753906 12.460938 -23.5 11.109375 -23.5 C 9.722656 -23.5 8.734375 -22.753906 8.140625 -21.265625 C 7.546875 -19.773438 7.25 -17.320312 7.25 -13.90625 Z M 7.25 -13.90625 "/></g></g></g><g fill="#ffffff" fill-opacity="1"><g transform="translate(66.351633, 163.3208)"><g><path d="M 20.859375 -13.90625 C 20.859375 -9.050781 20.0625 -5.457031 18.46875 -3.125 C 16.875 -0.789062 14.421875 0.375 11.109375 0.375 C 7.898438 0.375 5.476562 -0.828125 3.84375 -3.234375 C 2.21875 -5.640625 1.40625 -9.195312 1.40625 -13.90625 C 1.40625 -18.8125 2.195312 -22.425781 3.78125 -24.75 C 5.375 -27.082031 7.816406 -28.25 11.109375 -28.25 C 14.316406 -28.25 16.742188 -27.03125 18.390625 -24.59375 C 20.035156 -22.164062 20.859375 -18.601562 20.859375 -13.90625 Z M 7.25 -13.90625 C 7.25 -10.5 7.539062 -8.054688 8.125 -6.578125 C 8.71875 -5.097656 9.710938 -4.359375 11.109375 -4.359375 C 12.484375 -4.359375 13.472656 -5.101562 14.078125 -6.59375 C 14.691406 -8.09375 15 -10.53125 15 -13.90625 C 15 -17.320312 14.6875 -19.773438 14.0625 -21.265625 C 13.445312 -22.753906 12.460938 -23.5 11.109375 -23.5 C 9.722656 -23.5 8.734375 -22.753906 8.140625 -21.265625 C 7.546875 -19.773438 7.25 -17.320312 7.25 -13.90625 Z M 7.25 -13.90625 "/></g></g></g><g fill="#ffffff" fill-opacity="1"><g transform="translate(88.594309, 163.3208)"><g/></g></g><g fill="#ffffff" fill-opacity="1"><g transform="translate(98.716722, 163.3208)"><g><path d="M 25.984375 0 L 19.25 0 L 12.78125 -10.515625 L 6.3125 0 L 0 0 L 9.234375 -14.34375 L 0.59375 -27.8125 L 7.09375 -27.8125 L 13.09375 -17.8125 L 18.96875 -27.8125 L 25.328125 -27.8125 L 16.59375 -14.015625 Z M 25.984375 0 "/></g></g></g><g fill="#ffffff" fill-opacity="1"><g transform="translate(124.707729, 163.3208)"><g/></g></g><g fill="#ffffff" fill-opacity="1"><g transform="translate(134.830142, 163.3208)"><g><path d="M 21.640625 -5.765625 L 18.28125 -5.765625 L 18.28125 0 L 12.546875 0 L 12.546875 -5.765625 L 0.671875 -5.765625 L 0.671875 -9.859375 L 12.859375 -27.8125 L 18.28125 -27.8125 L 18.28125 -10.328125 L 21.640625 -10.328125 Z M 12.546875 -10.328125 L 12.546875 -15.046875 C 12.546875 -15.835938 12.578125 -16.976562 12.640625 -18.46875 C 12.703125 -19.96875 12.75 -20.835938 12.78125 -21.078125 L 12.640625 -21.078125 C 12.171875 -20.035156 11.601562 -19.019531 10.9375 -18.03125 L 5.84375 -10.328125 Z M 12.546875 -10.328125 "/></g></g></g><g fill="#ffffff" fill-opacity="1"><g transform="translate(157.072818, 163.3208)"><g><path d="M 20.859375 -13.90625 C 20.859375 -9.050781 20.0625 -5.457031 18.46875 -3.125 C 16.875 -0.789062 14.421875 0.375 11.109375 0.375 C 7.898438 0.375 5.476562 -0.828125 3.84375 -3.234375 C 2.21875 -5.640625 1.40625 -9.195312 1.40625 -13.90625 C 1.40625 -18.8125 2.195312 -22.425781 3.78125 -24.75 C 5.375 -27.082031 7.816406 -28.25 11.109375 -28.25 C 14.316406 -28.25 16.742188 -27.03125 18.390625 -24.59375 C 20.035156 -22.164062 20.859375 -18.601562 20.859375 -13.90625 Z M 7.25 -13.90625 C 7.25 -10.5 7.539062 -8.054688 8.125 -6.578125 C 8.71875 -5.097656 9.710938 -4.359375 11.109375 -4.359375 C 12.484375 -4.359375 13.472656 -5.101562 14.078125 -6.59375 C 14.691406 -8.09375 15 -10.53125 15 -13.90625 C 15 -17.320312 14.6875 -19.773438 14.0625 -21.265625 C 13.445312 -22.753906 12.460938 -23.5 11.109375 -23.5 C 9.722656 -23.5 8.734375 -22.753906 8.140625 -21.265625 C 7.546875 -19.773438 7.25 -17.320312 7.25 -13.90625 Z M 7.25 -13.90625 "/></g></g></g><g fill="#ffffff" fill-opacity="1"><g transform="translate(179.315494, 163.3208)"><g><path d="M 20.859375 -13.90625 C 20.859375 -9.050781 20.0625 -5.457031 18.46875 -3.125 C 16.875 -0.789062 14.421875 0.375 11.109375 0.375 C 7.898438 0.375 5.476562 -0.828125 3.84375 -3.234375 C 2.21875 -5.640625 1.40625 -9.195312 1.40625 -13.90625 C 1.40625 -18.8125 2.195312 -22.425781 3.78125 -24.75 C 5.375 -27.082031 7.816406 -28.25 11.109375 -28.25 C 14.316406 -28.25 16.742188 -27.03125 18.390625 -24.59375 C 20.035156 -22.164062 20.859375 -18.601562 20.859375 -13.90625 Z M 7.25 -13.90625 C 7.25 -10.5 7.539062 -8.054688 8.125 -6.578125 C 8.71875 -5.097656 9.710938 -4.359375 11.109375 -4.359375 C 12.484375 -4.359375 13.472656 -5.101562 14.078125 -6.59375 C 14.691406 -8.09375 15 -10.53125 15 -13.90625 C 15 -17.320312 14.6875 -19.773438 14.0625 -21.265625 C 13.445312 -22.753906 12.460938 -23.5 11.109375 -23.5 C 9.722656 -23.5 8.734375 -22.753906 8.140625 -21.265625 C 7.546875 -19.773438 7.25 -17.320312 7.25 -13.90625 Z M 7.25 -13.90625 "/></g></g></g></svg>